<svg viewBox="0 0 24 24" fill="none" xmlns="http://www.w3.org/2000/svg">
    <path d="M12 24C18.6274 24 24 18.6274 24 12C24 5.37258 18.6274 0 12 0C5.37258 0 0 5.37258 0 12C0 18.6274 5.37258 24 12 24Z" fill="#0033AD"/>
    <path d="M11.8029 4.79415C12.1466 4.61263 12.5617 5.02753 12.38 5.37125C12.2762 5.65015 11.8743 5.72794 11.6666 5.51387C11.4528 5.31277 11.524 4.90422 11.8029 4.79415ZM8.11264 5.19608C8.32037 5.11167 8.5863 5.29981 8.56671 5.52684C8.5863 5.77318 8.28782 5.95498 8.07375 5.83801C7.78851 5.72767 7.82078 5.26725 8.11264 5.19581V5.19608ZM15.6682 5.84463C15.3438 5.80574 15.292 5.29346 15.6034 5.18974C15.8497 5.07305 16.0702 5.29346 16.1027 5.52712C16.0572 5.7216 15.895 5.90312 15.6682 5.84491V5.84463ZM8.94933 6.76546C9.29968 6.54505 9.79237 6.87581 9.74051 7.27774C9.7212 7.68629 9.18271 7.92629 8.87154 7.64739C8.57968 7.42698 8.6252 6.92739 8.94933 6.76546ZM14.2737 6.99884C14.4293 6.59663 15.0586 6.58367 15.2337 6.97291C15.4086 7.27774 15.1946 7.65374 14.8834 7.75774C14.4682 7.83553 14.0793 7.38808 14.2737 6.99884ZM11.3554 7.73181C11.3491 7.38808 11.6666 7.12877 11.991 7.10918C12.2051 7.15443 12.4451 7.24546 12.5358 7.46587C12.7107 7.7707 12.5551 8.1856 12.244 8.32187C12.1013 8.39967 11.9325 8.37374 11.7769 8.36077C11.5369 8.24408 11.3358 8.01705 11.3554 7.73181ZM5.86878 8.23774C6.18658 8.04325 6.61471 8.39994 6.49802 8.74367C6.4332 9.04187 6.03099 9.16518 5.79761 8.9707C5.55099 8.79553 5.58989 8.36105 5.86878 8.23774ZM17.6525 8.23774C17.9251 8.03029 18.3659 8.27001 18.3336 8.60739C18.3529 8.91856 17.964 9.15222 17.698 8.99001C17.4062 8.86036 17.3802 8.40629 17.6525 8.23774ZM12.8989 8.85374C13.3463 8.69153 13.8718 8.88629 14.1245 9.28187C14.4619 9.76822 14.2804 10.5075 13.7615 10.7864C13.2233 11.1172 12.4384 10.8383 12.2373 10.2353C12.0169 9.69705 12.3477 9.02256 12.8989 8.85401V8.85374ZM10.2853 8.9056C10.7783 8.67222 11.4462 8.8667 11.6795 9.37263C11.9584 9.8656 11.7446 10.5464 11.2387 10.8057C10.7394 11.091 10.026 10.8772 9.78602 10.3453C9.52009 9.83305 9.76009 9.1456 10.2853 8.9056ZM7.6652 9.8005C7.70409 9.4827 8.00258 9.27525 8.3074 9.25567C8.63154 9.29456 8.89747 9.54753 8.93002 9.87829C8.91044 10.2024 8.65747 10.5268 8.3074 10.5202C7.93113 10.5591 7.59402 10.1765 7.6652 9.8005ZM15.4023 9.32712C15.7913 9.10008 16.3361 9.43084 16.3168 9.87829C16.3427 10.3517 15.7394 10.689 15.3504 10.4102C14.9482 10.1768 14.9808 9.5216 15.4023 9.32712ZM9.22161 11.0068C9.6823 10.8835 10.2009 11.0976 10.428 11.5191C10.6746 11.9406 10.5706 12.5307 10.1946 12.8422C9.70161 13.2962 8.80009 13.1144 8.54078 12.4921C8.23595 11.915 8.59927 11.1561 9.22161 11.0068ZM14.183 11.0005C14.6304 10.8708 15.1493 11.046 15.3893 11.4479C15.7071 11.9084 15.5513 12.6024 15.0845 12.9006C14.5915 13.2507 13.8263 13.0628 13.554 12.5244C13.2233 11.9666 13.554 11.1754 14.183 11.0002V11.0005ZM6.27733 11.5324C6.67292 11.3831 7.11402 11.8176 6.95182 12.2132C6.85471 12.5699 6.34878 12.6995 6.08947 12.4402C5.78464 12.1873 5.90133 11.6361 6.27733 11.5324ZM16.9976 12.0965C16.9846 11.7657 17.2246 11.4805 17.5617 11.4609C17.8343 11.5064 18.0936 11.7202 18.0743 12.0187C18.1002 12.4079 17.6266 12.6736 17.2958 12.4921C17.1402 12.4143 17.0624 12.2521 16.9976 12.0965ZM4.33168 11.7202C4.57168 11.6165 4.86354 11.8239 4.81168 12.0899C4.79871 12.3881 4.35761 12.505 4.19568 12.2521C4.05306 12.0769 4.1372 11.811 4.33196 11.7202H4.33168ZM19.3322 11.7139C19.5011 11.5972 19.7667 11.6813 19.8318 11.8761C19.9419 12.0902 19.7408 12.382 19.4944 12.3495C19.1637 12.382 19.0533 11.8631 19.3322 11.7139ZM10.5124 13.1536C11.1413 12.9914 11.8095 13.5103 11.8158 14.1588C11.8547 14.8074 11.1932 15.3845 10.5513 15.2355C10.0583 15.1577 9.66933 14.6777 9.6823 14.1784C9.6823 13.6984 10.0453 13.251 10.5124 13.1539V13.1536ZM12.9896 13.1536C13.6252 12.9784 14.3193 13.5103 14.3063 14.1652C14.3386 14.8071 13.6966 15.3649 13.0674 15.2353C12.4773 15.1575 12.0429 14.5089 12.2051 13.9382C12.2958 13.5555 12.6136 13.2441 12.9896 13.1533V13.1536ZM8.21665 13.5492C8.65747 13.4714 9.06602 13.9644 8.89113 14.3793C8.7612 14.8267 8.11264 14.9434 7.8274 14.5804C7.4903 14.2366 7.73665 13.5947 8.21665 13.5492ZM15.4801 13.5688C15.8691 13.4066 16.3557 13.7439 16.3231 14.1718C16.3361 14.6388 15.746 14.963 15.3634 14.6907C14.9289 14.4377 15.0067 13.718 15.4801 13.5688ZM17.5165 15.6052C17.3609 15.3199 17.6395 14.9373 17.9573 14.9955C18.1132 14.9955 18.2233 15.1188 18.327 15.2226C18.3466 15.3911 18.3855 15.5922 18.2429 15.7219C18.0484 15.9619 17.6202 15.897 17.5165 15.6052ZM5.86878 15.0733C6.16727 14.8788 6.59513 15.1707 6.52396 15.5144C6.4914 15.8193 6.10244 15.9944 5.84947 15.8259C5.57692 15.6703 5.58354 15.2162 5.86878 15.0736V15.0733ZM11.7317 15.7153C12.1206 15.5467 12.6136 15.8838 12.5811 16.3119C12.607 16.7853 11.9973 17.1097 11.6147 16.8308C11.1932 16.5845 11.2646 15.8645 11.7317 15.7153ZM9.01416 16.3508C9.34492 16.1757 9.79237 16.4805 9.76009 16.8502C9.77306 17.155 9.47457 17.4143 9.16975 17.369C8.9234 17.3627 8.7612 17.142 8.67706 16.9279C8.69002 16.6946 8.78078 16.435 9.01416 16.3508ZM14.5204 16.3572C14.8575 16.1497 15.3438 16.4479 15.3115 16.8435C15.3179 17.2587 14.7731 17.5246 14.4553 17.2521C14.1504 17.038 14.1896 16.5257 14.5204 16.3572ZM15.4801 18.7177C15.3309 18.4907 15.506 18.2118 15.7524 18.1599C15.9471 18.1988 16.1609 18.3481 16.1157 18.5751C16.0831 18.8929 15.6293 18.9837 15.4801 18.7177ZM7.87926 18.5233C7.93775 18.3417 8.08671 18.1599 8.30078 18.2055C8.61223 18.225 8.70299 18.6984 8.43044 18.841C8.18409 19.0096 7.9052 18.7826 7.87926 18.5233ZM11.5435 18.7307C11.6017 18.4648 11.9521 18.3285 12.1791 18.4714C12.3281 18.5362 12.3736 18.7048 12.4125 18.8477L12.354 19.0747C12.2633 19.185 12.1402 19.2951 11.9844 19.2951C11.6991 19.3277 11.4332 19.0033 11.5435 18.731V18.7307Z" fill="#FFFDFA"/>
</svg>
