<svg viewBox="0 0 24 24" fill="none" xmlns="http://www.w3.org/2000/svg">
    <path d="M12 24C18.6274 24 24 18.6274 24 12C24 5.3726 18.6274 0 12 0C5.3726 0 0 5.3726 0 12C0 18.6274 5.3726 24 12 24Z" fill="#31C77F"/>
    <path fill-rule="evenodd" clip-rule="evenodd" d="M17.6756 22.5757C15.9858 23.4845 14.0531 24.0001 12 24.0001C10.3265 24.0001 8.73302 23.6575 7.28589 23.0387C7.38823 22.7173 7.55481 22.3469 7.72433 21.97C8.02607 21.2991 8.33711 20.6075 8.31182 20.1347C8.30405 19.9897 8.30975 19.8421 8.33003 19.6986C8.41738 19.0915 8.39191 18.4848 8.34354 17.8772C8.32377 17.6281 8.34405 17.3833 8.38616 17.1359C8.4766 16.6031 8.52653 16.0677 8.46465 15.5239C8.40644 15.0093 8.46984 14.4962 8.57228 13.991C8.65858 13.5642 8.65233 13.1406 8.5806 12.7138C8.56497 12.6218 8.54938 12.523 8.56552 12.4331C8.62322 12.1144 8.6549 11.7937 8.66428 11.434C8.97044 11.7022 9.2995 11.7178 9.64672 11.644C9.93366 11.5832 10.1047 11.3971 10.2175 11.1393C10.2223 11.1283 10.2268 11.1168 10.2312 11.1053C10.2599 11.032 10.2892 10.9567 10.4083 10.9859C10.4764 11.0025 10.5533 10.9921 10.5632 10.8986C10.572 10.8102 10.5075 10.7863 10.4348 10.7702C10.2333 10.7244 10.0321 10.6778 9.83095 10.6314C9.59862 10.5777 9.3663 10.524 9.13366 10.4713C9.12083 10.4684 9.108 10.4655 9.09513 10.4625C8.96598 10.433 8.83623 10.4034 8.70483 10.3897C8.57798 10.3762 8.55357 10.3174 8.56708 10.2031C8.62842 9.67338 8.72823 9.15095 8.9429 8.66079C9.15292 8.18046 9.41646 7.7303 9.79798 7.36019L9.80056 7.35771C9.84925 7.31062 9.90143 7.2601 9.87132 7.18345C9.84166 7.10754 9.77826 7.08313 9.70341 7.11118C9.6275 7.13977 9.5932 7.09715 9.55941 7.04364C9.53228 7.00037 9.50474 6.95729 9.47725 6.91421C9.43099 6.84171 9.38469 6.7692 9.34005 6.69587C9.13099 6.35177 8.8795 6.03927 8.6281 5.7269C8.60566 5.69899 8.58322 5.67113 8.56083 5.64322C8.50262 5.57044 8.43035 5.50548 8.35499 5.4509C8.12313 5.28249 7.91366 5.37711 7.88506 5.66662C7.86635 5.85481 7.8778 6.04451 7.94846 6.22387C8.01159 6.38359 8.0709 6.54502 8.13016 6.70639C8.30088 7.17108 8.47159 7.63587 8.73394 8.06143C8.79752 8.16469 8.74966 8.2297 8.70037 8.29665C8.6812 8.32267 8.6618 8.34901 8.64869 8.37798C8.56593 8.31931 8.52239 8.24148 8.4801 8.16594C8.47669 8.15987 8.47329 8.15375 8.46984 8.14773C7.98902 7.29315 7.57839 6.41154 7.40892 5.43426C7.36474 5.17853 7.36005 4.9217 7.37407 4.66547C7.38915 4.38685 7.5155 4.30938 7.78681 4.38161C7.98538 4.43412 8.13564 4.5589 8.28115 4.69352C8.66492 5.04851 9.00727 5.44134 9.34961 5.83421C9.44644 5.94534 9.54327 6.05642 9.64102 6.16667C9.76056 6.30134 9.87858 6.43701 9.99605 6.5737C10.0683 6.65738 10.1349 6.73642 10.1463 6.86115C10.1588 6.99996 10.2544 7.04051 10.3869 6.9932C10.4192 6.98175 10.4509 6.96722 10.4789 6.94745C10.6957 6.79568 10.9442 6.74681 11.1994 6.70055C11.9116 6.57265 12.6154 6.62101 13.3166 6.77072C13.4241 6.79384 13.5146 6.84897 13.6069 6.9052C13.6101 6.90713 13.6133 6.90911 13.6166 6.91108C13.8313 7.04051 13.9092 7.00879 13.9695 6.77278C13.9877 6.70262 14.0262 6.64805 14.0714 6.59761C14.251 6.39826 14.4263 6.19504 14.6017 5.99187C14.9919 5.53977 15.3821 5.08768 15.8185 4.67743C15.9568 4.54745 16.0997 4.42479 16.2838 4.36552C16.5904 4.26676 16.7209 4.35927 16.7407 4.6795C16.7781 5.28249 16.63 5.85481 16.4392 6.41568C16.2484 6.97605 15.9838 7.5052 15.7011 8.02451C15.6595 8.10056 15.6108 8.17255 15.5582 8.25039C15.5331 8.28745 15.5071 8.3258 15.4806 8.36658C15.2261 7.99141 15.2264 7.99072 15.4161 7.63495L15.4188 7.62998C15.445 7.58083 15.4713 7.53173 15.4977 7.48267C15.71 7.08676 15.9225 6.69076 16.0691 6.26391C16.1387 6.06065 16.1959 5.85481 16.1892 5.63701C16.185 5.50235 16.1574 5.38019 16.0223 5.31472C15.8939 5.25232 15.7868 5.30846 15.6932 5.38957C15.5763 5.48989 15.4588 5.59127 15.3554 5.70511C15.2866 5.78042 15.2164 5.85462 15.1462 5.92883C14.8514 6.24023 14.5565 6.55182 14.3714 6.94851C14.3562 6.98092 14.3276 7.00699 14.2992 7.03297C14.2446 7.08281 14.1903 7.13228 14.232 7.22557C14.2588 7.28584 14.3069 7.32915 14.355 7.37242C14.3836 7.39821 14.4123 7.42396 14.4363 7.45324C14.8028 7.89977 15.1022 8.38685 15.2836 8.9389C15.3985 9.28975 15.4786 9.64897 15.5217 10.016C15.5325 10.1085 15.5382 10.155 15.5184 10.1844C15.4979 10.2148 15.4503 10.2268 15.3528 10.2525C15.0381 10.3346 14.7238 10.4177 14.4096 10.5007C14.2525 10.5423 14.0954 10.5838 13.9383 10.6252C13.9278 10.628 13.917 10.6305 13.9063 10.6331C13.8752 10.6406 13.8439 10.648 13.8157 10.6616C13.7169 10.7094 13.705 10.7962 13.8006 10.8549C13.8024 10.856 13.8041 10.8571 13.8059 10.8582C13.8637 10.8937 13.9009 10.9166 13.9186 10.9953C13.9945 11.3285 14.2081 11.54 14.547 11.5899C14.886 11.6399 15.2005 11.5874 15.4001 11.2604C15.4115 11.2417 15.4178 11.2318 15.4526 11.25C15.4422 11.6347 15.4713 12.024 15.5472 12.4097C15.5618 12.4835 15.555 12.5657 15.5399 12.64C15.4396 13.1265 15.4619 13.6105 15.5586 14.0944C15.6646 14.6273 15.6912 15.1637 15.6293 15.7053C15.5841 16.0999 15.621 16.496 15.6932 16.8827C15.7749 17.3173 15.7956 17.7509 15.7494 18.1869C15.7021 18.6335 15.7172 19.0769 15.7671 19.5208C15.7822 19.6549 16.0658 19.9901 16.3579 20.3354C16.6798 20.716 17.0121 21.1087 17.0063 21.2575C17.0953 21.4108 17.1943 21.6184 17.2988 21.8373C17.4196 22.0906 17.5476 22.3589 17.6756 22.5757Z" fill="white"/>
    <path d="M12 23.2348C18.2048 23.2348 23.2348 18.2048 23.2348 11.9999C23.2348 5.79511 18.2048 0.765137 12 0.765137C5.79516 0.765137 0.765137 5.79511 0.765137 11.9999C0.765137 18.2048 5.79516 23.2348 12 23.2348Z" fill="white"/>
    <path d="M17.0439 4.58579C17.021 4.19071 16.7523 3.97917 16.3639 4.05508C16.1867 4.08988 16.0203 4.15434 15.8711 4.26349C15.5021 4.53434 15.1923 4.86648 14.8923 5.208C14.5414 5.60722 14.1916 6.00749 13.8543 6.41765C13.7508 6.54345 13.6552 6.54708 13.5283 6.48887C13.3251 6.39476 13.1114 6.32096 12.89 6.30482C12.1103 6.24919 11.33 6.22115 10.5831 6.51434C10.4292 6.57462 10.3392 6.54551 10.2368 6.4223C9.90259 6.0205 9.56057 5.62492 9.21542 5.23246C8.90977 4.88469 8.59629 4.54368 8.21478 4.27443C8.03436 4.14708 7.83321 4.08055 7.61542 4.07117C7.342 4.05922 7.15694 4.19747 7.08986 4.46413C7.06908 4.54579 7.06595 4.63361 7.06646 4.71885C7.06751 5.19296 7.15482 5.65609 7.24738 6.1182C7.38098 6.78772 7.68765 7.39489 7.95538 8.01503C8.06089 8.25986 8.19708 8.48961 8.3837 8.68197C8.45386 8.7542 8.46843 8.81922 8.44089 8.91122C8.39671 9.05885 8.36393 9.20956 8.32393 9.35825C8.1768 9.90303 8.12379 10.4592 8.21165 11.0139C8.25841 11.3086 8.24853 11.5898 8.21528 11.8799C8.17887 12.1949 8.16747 12.5109 8.24282 12.8254C8.33225 13.1992 8.31197 13.5745 8.21892 13.9457C8.12016 14.3391 8.06921 14.7368 8.09156 15.1428C8.11496 15.5721 8.06558 15.9989 8.05257 16.4267C8.04475 16.6742 8.05257 16.9232 7.99538 17.1685C7.92315 17.4809 7.92935 17.7954 7.97565 18.1136C8.06558 18.7316 8.00733 18.4312 8.03492 18.8059C8.15184 18.8044 8.28701 19.162 8.40347 19.1589C8.40085 18.8699 8.36655 18.1661 8.34365 17.877C8.32393 17.628 8.3442 17.3832 8.38627 17.1358C8.47675 16.6029 8.52664 16.0675 8.4648 15.5238C8.40655 15.0092 8.47 14.4961 8.57239 13.9908C8.65869 13.5641 8.65243 13.1405 8.58071 12.7137C8.56512 12.6217 8.54954 12.5229 8.56563 12.433C8.62333 12.1143 8.65505 11.7936 8.66439 11.4339C8.97055 11.7021 9.2996 11.7177 9.64687 11.6439C9.93381 11.5831 10.1048 11.397 10.2176 11.1391C10.2529 11.0581 10.2706 10.952 10.4084 10.9858C10.4765 11.0024 10.5534 10.992 10.5633 10.8985C10.5721 10.8101 10.5077 10.7862 10.4349 10.7701C10.0008 10.6713 9.56784 10.5694 9.13381 10.4712C8.99188 10.4389 8.84944 10.4046 8.70494 10.3896C8.57809 10.376 8.55367 10.3173 8.56719 10.2029C8.62853 9.67324 8.72834 9.15085 8.94301 8.66064C9.15303 8.18032 9.41657 7.73016 9.79813 7.36004C9.84751 7.31223 9.90209 7.26128 9.87142 7.18331C9.84177 7.10744 9.77836 7.08298 9.70351 7.11108C9.62761 7.13967 9.59331 7.09705 9.55951 7.04349C9.48673 6.92758 9.41138 6.81269 9.34016 6.69572C9.11248 6.32096 8.83436 5.98358 8.56094 5.64312C8.50273 5.57034 8.4305 5.50533 8.3551 5.45076C8.12328 5.28234 7.91377 5.37696 7.88517 5.66648C7.86646 5.85466 7.8779 6.04441 7.94862 6.22372C8.19344 6.84335 8.38057 7.48795 8.73404 8.06128C8.82241 8.20478 8.6956 8.27443 8.6488 8.37788C8.55937 8.31443 8.51574 8.22869 8.47 8.14758C7.98917 7.29301 7.5785 6.4114 7.40903 5.43416C7.36485 5.17839 7.36016 4.92161 7.37423 4.66533C7.38931 4.38671 7.5156 4.30924 7.78696 4.38151C7.98554 4.43402 8.13574 4.55876 8.28131 4.69338C8.77354 5.14878 9.19772 5.66648 9.64112 6.16657C9.76071 6.30119 9.87869 6.43687 9.99616 6.57356C10.0684 6.65728 10.135 6.73627 10.1464 6.86106C10.1589 6.99981 10.2545 7.04036 10.3871 6.99305C10.4193 6.98165 10.451 6.96708 10.4791 6.94731C10.6958 6.79554 10.9443 6.74666 11.1996 6.70041C11.9117 6.57255 12.6155 6.62087 13.3168 6.77057C13.428 6.79448 13.5211 6.85273 13.6167 6.91094C13.8314 7.04036 13.9094 7.00869 13.9697 6.77269C13.9873 6.70248 14.0263 6.64791 14.0716 6.59747C14.6506 5.95448 15.186 5.27195 15.8186 4.67728C15.9569 4.54731 16.0999 4.42464 16.2839 4.36538C16.5906 4.26662 16.7211 4.35917 16.7408 4.67935C16.7782 5.28234 16.6301 5.85466 16.4393 6.41554C16.2485 6.9759 15.9845 7.5051 15.7012 8.02441C15.6398 8.13669 15.5629 8.24013 15.4808 8.36643C15.225 7.98956 15.2266 7.99062 15.4189 7.62983C15.6565 7.18436 15.9044 6.74354 16.0692 6.26377C16.1389 6.0605 16.1961 5.85466 16.1893 5.63687C16.1851 5.50225 16.1576 5.38009 16.0224 5.31457C15.894 5.25218 15.787 5.30832 15.6934 5.38942C15.5764 5.48974 15.459 5.59112 15.3555 5.70496C14.9984 6.09636 14.6007 6.45715 14.3715 6.94837C14.3273 7.04299 14.1688 7.08354 14.2322 7.22542C14.2748 7.32161 14.372 7.37462 14.4365 7.4531C14.8029 7.89963 15.1024 8.38671 15.2837 8.93876C15.3986 9.28961 15.4787 9.64882 15.5219 10.0158C15.5437 10.204 15.5447 10.2019 15.3529 10.2523C14.8809 10.3755 14.4099 10.5008 13.9379 10.6251C13.8969 10.636 13.8532 10.6432 13.8153 10.6614C13.7165 10.7092 13.7046 10.796 13.8002 10.8548C13.861 10.8922 13.9 10.9141 13.9182 10.9952C13.9941 11.3284 14.2077 11.5399 14.5466 11.5898C14.8856 11.6397 15.1996 11.5872 15.3997 11.2603C15.4111 11.2416 15.4174 11.2317 15.4522 11.2499C15.4418 11.6345 15.4709 12.0239 15.5468 12.4096C15.5614 12.4834 15.5546 12.5655 15.5395 12.6399C15.4392 13.1264 15.4615 13.6103 15.5582 14.0943C15.6642 14.6271 15.6908 15.1636 15.6289 15.7052C15.5837 16.0998 15.6206 16.4959 15.6928 16.8826C15.7745 17.3172 15.7953 17.7507 15.749 18.1868C15.7334 18.3329 15.7251 18.479 15.722 18.6251C15.8415 18.6297 15.9611 18.6344 16.0807 18.6391C16.0853 18.5642 16.0916 18.4894 16.0999 18.4145C16.1456 17.9987 16.2033 17.5854 16.1254 17.1612C16.0105 16.5359 16.025 15.8976 16.0183 15.2649C16.0136 14.8085 16.0021 14.3589 15.8904 13.9139C15.8036 13.5698 15.7755 13.2194 15.8551 12.8696C15.9419 12.487 15.9315 12.1055 15.879 11.7203C15.8545 11.543 15.8181 11.3627 15.8628 11.1839C15.9491 10.8377 15.9414 10.4868 15.9237 10.1359C15.9024 9.72262 15.788 9.32551 15.6825 8.92887C15.6502 8.80777 15.6549 8.72666 15.748 8.63361C15.8686 8.5125 15.9658 8.36749 16.0411 8.2131C16.4757 7.3263 16.8687 6.42386 16.9846 5.42947C17.0163 5.15085 17.0605 4.87011 17.0439 4.58579Z" fill="#231F20"/>
    <path d="M13.5002 22.0122C13.4217 22.0008 13.3157 22.0855 13.2439 22.0154C13.1899 21.9629 13.1857 21.8599 13.1571 21.7799C13.1457 21.7482 13.1322 21.7144 13.1108 21.6884C13.0386 21.6 13.0885 21.5532 13.1633 21.507C13.6151 21.2263 14.0185 20.8795 14.4452 20.5651C14.9712 20.1767 15.4308 19.7177 15.87 19.2369C16.0099 19.0841 16.1154 18.9058 16.1024 18.6839C16.0972 18.5939 16.1398 18.5565 16.2251 18.5679C16.3098 18.5789 16.3945 18.5913 16.4772 18.6111C16.7386 18.6745 16.8452 18.8907 16.7314 19.1345C16.6846 19.2349 16.6207 19.3269 16.5682 19.4251C16.5297 19.4973 16.5146 19.5722 16.5884 19.6341C16.6565 19.6918 16.7298 19.6829 16.8036 19.6445C16.8114 19.6403 16.8192 19.6372 16.827 19.6336C16.8883 19.6034 16.9278 19.5036 16.9902 19.5234C17.0843 19.553 17.1717 19.6164 17.2506 19.6793C17.4399 19.8306 17.5075 20.0089 17.4363 20.1944C17.3557 20.4039 17.234 20.589 17.0682 20.7444C16.7428 21.049 16.3514 21.2455 15.9397 21.3895C15.2551 21.6297 14.5663 21.863 13.8454 21.98C13.7352 21.9982 13.6249 22.0075 13.5002 22.0122Z" fill="#31C77F"/>
    <path d="M8.9242 7.91213C8.66949 7.66105 8.52554 7.37047 8.41533 7.06794C8.28122 6.69989 8.14866 6.33033 8.06393 5.9467C8.04572 5.86403 8.03846 5.77829 8.03482 5.69355C8.0322 5.63691 8.02287 5.56826 8.09459 5.53967C8.16062 5.51318 8.21257 5.55631 8.25519 5.59429C8.47248 5.78868 8.6596 6.00909 8.81349 6.25755C8.99749 6.55438 9.17997 6.85272 9.37179 7.14436C9.44664 7.25819 9.44715 7.34449 9.33381 7.42247C9.15919 7.54201 9.06926 7.73226 8.9242 7.91213Z" fill="#FEFEFE"/>
    <path d="M15.1055 7.7797C14.9875 7.56862 14.8024 7.41634 14.6277 7.25519C14.5399 7.17409 14.5446 7.11432 14.6033 7.01763C14.8533 6.60595 15.1642 6.24153 15.4797 5.8813C15.5749 5.77266 15.656 5.64843 15.7781 5.56475C15.907 5.47689 15.9845 5.51119 16.0047 5.66714C16.0104 5.70871 16.0104 5.75395 16.0006 5.79501C15.9211 6.11887 15.8571 6.451 15.6882 6.74107C15.5244 7.02232 15.3752 7.31027 15.2297 7.60034C15.1995 7.66011 15.1803 7.72926 15.1055 7.7797Z" fill="#FEFEFE"/>
    <path d="M12.38 22.2795C12.3514 22.2768 12.3088 22.2743 12.2667 22.268C12.0837 22.242 11.9751 22.1532 11.9532 22.0144C11.9309 21.8719 12.0458 21.6879 12.1949 21.6271C12.4735 21.5132 12.734 21.5959 12.8562 21.8371C12.9315 21.9858 12.9133 22.0684 12.7818 22.1708C12.6867 22.2446 12.5484 22.2836 12.38 22.2795Z" fill="#31C77F"/>
    <path d="M9.18929 11.0394C9.06919 11.0441 8.98864 10.9765 8.98395 10.8668C8.97876 10.7535 9.03903 10.6797 9.13834 10.6776C9.25945 10.6745 9.33324 10.7389 9.33949 10.8523C9.34575 10.9734 9.29637 11.0353 9.18929 11.0394Z" fill="#E7EBEB"/>
    <path d="M14.6853 10.8678C14.6614 10.9489 14.6463 11.0388 14.545 11.0591C14.4509 11.0778 14.361 10.993 14.3641 10.8933C14.3672 10.7903 14.4306 10.7347 14.5252 10.7337C14.6053 10.7321 14.6651 10.781 14.6853 10.8678Z" fill="#EFF2F2"/>
    <path d="M12.2297 11.2407C12.3596 11.0858 12.5281 11.0187 12.7256 11.0208C13.0364 11.0244 13.2646 11.2282 13.2896 11.538C13.3021 11.6908 13.3119 11.8494 13.2547 11.9954C13.2038 12.1249 13.221 12.1987 13.341 12.2938C13.5947 12.4945 13.7262 12.7684 13.7049 13.1032C13.6966 13.2368 13.6639 13.3677 13.5687 13.4545C13.4424 13.5694 13.3785 13.7186 13.3124 13.8621C13.1674 14.1776 12.9003 14.3206 12.5894 14.3694C12.2416 14.4235 11.9095 14.332 11.6096 14.1418C11.4515 14.0414 11.3424 13.8995 11.294 13.7191C11.2701 13.6313 11.2316 13.5741 11.1531 13.5216C10.8547 13.321 10.7768 12.982 10.9546 12.6676C11.0128 12.5641 11.0783 12.4523 11.1693 12.3827C11.3034 12.2808 11.3138 12.1722 11.2696 12.0298C11.2088 11.8322 11.2493 11.6399 11.3169 11.4517C11.4525 11.0733 11.7624 10.9625 12.1102 11.1674C12.1481 11.1892 12.1839 11.2121 12.2297 11.2407Z" fill="#030202"/>
    <path d="M13.0214 13.4514C12.8238 13.4363 12.6367 13.3173 12.4979 13.114C12.2988 12.8229 12.3025 12.8255 12.1174 13.1239C11.9755 13.3531 11.7644 13.4696 11.4915 13.4488C11.1339 13.4223 10.9639 13.0771 11.1573 12.7736C11.2316 12.6571 11.3351 12.5667 11.4453 12.4835C11.6184 12.352 11.6256 12.327 11.5565 12.1149C11.5113 11.9756 11.4681 11.8379 11.4806 11.6882C11.5077 11.3628 11.7593 11.2245 12.0436 11.381C12.0883 11.4054 12.1257 11.4423 12.1694 11.4698C12.2723 11.5338 12.3633 11.5364 12.4251 11.4132C12.501 11.2609 12.6377 11.2588 12.7786 11.2728C12.9324 11.2884 13.0224 11.3835 13.0775 11.5208C13.1082 11.5972 13.1025 11.6741 13.0744 11.7469C13.0349 11.8503 12.9881 11.9517 12.9418 12.0526C12.8456 12.2636 12.8561 12.313 13.0692 12.405C13.2522 12.4835 13.3889 12.6 13.4673 12.7829C13.6077 13.1083 13.4086 13.4446 13.0214 13.4514Z" fill="white"/>
    <path d="M11.5503 13.6821C11.923 13.6432 11.9428 13.6323 12.3331 13.2549C12.5385 13.5246 12.8005 13.6915 13.156 13.6661C13.0547 13.9758 12.8259 14.1344 12.4756 14.1433C12.0894 14.1521 11.6418 14.0497 11.5503 13.6821Z" fill="#FDFDFD"/>
    <path d="M11.8587 11.6965C11.8753 11.7043 11.9164 11.7106 11.9335 11.734C11.9991 11.8239 12.0583 11.9195 12.0672 12.0339C12.0713 12.088 12.0443 12.1347 11.9902 12.1555C11.945 12.1727 11.9055 12.1519 11.8748 12.1202C11.7901 12.0303 11.7308 11.9284 11.7444 11.7984C11.7501 11.7412 11.7813 11.7049 11.8587 11.6965Z" fill="#0E0D0D"/>
    <path d="M12.4766 11.9189C12.4932 11.8752 12.5155 11.8019 12.5488 11.7338C12.5764 11.6782 12.6226 11.6346 12.6928 11.6689C12.7437 11.6933 12.7676 11.7412 12.7547 11.7957C12.7365 11.8695 12.7126 11.9423 12.6855 12.0135C12.659 12.0821 12.6138 12.1352 12.5311 12.1019C12.463 12.0744 12.4635 12.0109 12.4766 11.9189Z" fill="#191717"/>
    <path d="M22.0628 17.8287C21.4988 18.0595 20.9613 18.3433 20.4233 18.6261C19.8167 18.9447 19.2225 19.2852 18.6377 19.6418C18.41 19.7806 18.1491 19.8461 17.898 19.9319C17.8153 19.9599 17.7524 19.9459 17.7192 19.8477C17.6288 19.5805 17.4359 19.4022 17.1895 19.2816C17.0949 19.2353 17.0803 19.1703 17.0865 19.0757C17.0959 18.9307 17.0902 18.7867 17.0403 18.6448C16.9785 18.4686 16.8651 18.3527 16.6894 18.2997C16.5252 18.2502 16.3562 18.2045 16.1847 18.2258C16.0683 18.2404 16.0298 18.1972 16.0214 18.0954C16.0147 18.0101 16.0033 17.9249 16.0002 17.8396C15.9918 17.6171 16.0137 17.3895 15.9741 17.1727C15.9274 16.9128 16.0131 16.7459 16.2024 16.5749C16.8511 15.988 17.5908 15.5488 18.37 15.1636C20.0386 14.3386 21.7738 13.678 23.5219 13.0464C23.6529 12.9991 23.7834 12.9502 23.9144 12.9019C23.9263 12.7376 23.9346 12.5728 23.9404 12.407C23.3254 12.6404 22.7084 12.867 22.0914 13.0942C20.5766 13.6509 19.1139 14.3132 17.6922 15.0721C17.1682 15.3518 16.6905 15.699 16.2414 16.0862C16.166 16.1513 16.0937 16.2188 16.0246 16.2812C16.0183 16.2781 16.0131 16.2744 16.0085 16.2708C15.9872 16.3342 15.9435 16.3878 15.8775 16.4164C15.8541 16.5214 15.773 16.6108 15.6337 16.6108C15.6233 16.6108 15.6134 16.6102 15.6035 16.6092C15.5926 17.2241 15.6139 17.8386 15.6794 18.4504C15.7033 18.6729 15.6498 18.8231 15.4917 18.99C14.7214 19.8024 13.8497 20.4938 12.9623 21.168C12.9353 21.1888 12.8994 21.2034 12.8813 21.2304C12.796 21.3551 12.706 21.3447 12.5787 21.2803C12.3516 21.1649 12.1202 21.2257 11.9175 21.3484C11.8042 21.417 11.7215 21.4108 11.6145 21.3562C11.0957 21.0916 10.5795 20.8239 10.1033 20.4845C9.46136 20.027 8.81469 19.5763 8.24756 19.0222C8.18104 18.9572 8.13529 18.8938 8.10724 18.8236C8.09474 18.8179 8.08177 18.8122 8.06926 18.807C8.06618 18.806 8.06306 18.8049 8.05993 18.8033C7.94453 18.7571 8.13428 18.5933 8.00848 18.5736C7.98195 18.5829 7.96012 18.5902 7.93363 18.5996C7.90398 18.6297 7.66747 18.6661 7.50582 18.807C7.49331 18.8179 7.47823 18.8273 7.46476 18.8376C6.98756 19.2156 6.86485 19.7634 7.14972 20.3041C7.20223 20.4039 7.18766 20.4678 7.14347 20.5598C6.92674 21.0068 6.94545 21.4367 7.26356 21.8354C7.3488 21.9425 7.42733 22.0564 7.53805 22.1406L7.7969 22.3215C7.9466 22.4036 8.16857 22.4889 8.28136 22.5195C8.76274 22.651 9.2529 22.7316 9.74986 22.7529C9.97961 22.7623 10.2115 22.7296 10.4417 22.7072C10.8851 22.6645 11.3291 22.6277 11.7694 22.5653C11.9362 22.5414 12.0895 22.5845 12.2497 22.5913C12.389 22.597 12.5335 22.6115 12.6515 22.5409C12.875 22.4073 13.1235 22.4026 13.3662 22.3818C13.8985 22.335 14.4152 22.217 14.9215 22.0564C15.4351 21.8936 15.9513 21.7398 16.442 21.5101C16.9348 21.2793 17.3673 20.9887 17.6189 20.486C17.6428 20.4376 17.6734 20.406 17.7114 20.3831C18.0903 20.1565 18.7084 20.0395 19.0483 19.9007C19.5739 19.6122 20.0942 19.3164 20.6239 19.0378C21.1344 18.7696 21.6469 18.5045 22.1766 18.2773C22.3024 18.073 22.4214 17.8651 22.5353 17.653C22.3768 17.7065 22.2187 17.7648 22.0628 17.8287Z" fill="#231F20"/>
    <path d="M18.37 15.1631C17.5908 15.5483 16.8511 15.9875 16.2024 16.5744C16.0132 16.7454 15.9274 16.9123 15.9742 17.1722C16.0132 17.389 15.9919 17.6166 16.0002 17.8391C16.0033 17.9244 16.0147 18.0097 16.0215 18.0949C16.0293 18.1968 16.0683 18.2399 16.1847 18.2254C16.3563 18.2041 16.5252 18.2493 16.6895 18.2992C16.8657 18.3522 16.9785 18.4681 17.0403 18.6443C17.0903 18.7863 17.096 18.9303 17.0866 19.0753C17.0804 19.1704 17.0949 19.2349 17.1895 19.2811C17.4364 19.4017 17.6288 19.58 17.7192 19.8472C17.7525 19.9454 17.8154 19.96 17.898 19.9314C18.1491 19.8456 18.4095 19.7801 18.6378 19.6413C19.2231 19.2847 19.8172 18.9438 20.4233 18.6256C20.9614 18.3434 21.4983 18.059 22.0628 17.8282C22.2193 17.7643 22.3768 17.7061 22.5359 17.6509C23.3031 16.2168 23.7876 14.6085 23.9144 12.9009C23.7839 12.9492 23.6529 12.9981 23.522 13.0454C21.7738 13.6775 20.0386 14.3387 18.37 15.1631Z" fill="#31C77F"/>
    <path d="M7.46779 20.7001C7.55303 20.7354 7.60761 20.7588 7.66273 20.7807C7.75836 20.8191 7.85299 20.8202 7.91533 20.7282C7.98292 20.6289 7.92315 20.5504 7.84935 20.4828C7.76719 20.4079 7.68246 20.3357 7.60085 20.2603C7.26508 19.95 7.40903 19.3818 7.72508 19.1869C7.80204 19.1396 7.85869 19.1172 7.92002 19.1994C7.9351 19.2197 7.95643 19.2353 7.97358 19.2545C8.63009 19.9931 9.4488 20.527 10.2706 21.053C10.6444 21.2922 11.0291 21.5193 11.4439 21.6851C11.5494 21.7273 11.5957 21.7777 11.5722 21.8936C11.5535 21.9861 11.5587 22.0823 11.5905 22.1727C11.6248 22.2699 11.5728 22.2954 11.4933 22.3037C11.3571 22.3178 11.2209 22.3396 11.0847 22.3422C10.5638 22.3521 10.045 22.4628 9.5242 22.4134C8.99551 22.3635 8.47781 22.246 7.99487 22.0106C7.82333 21.9268 7.67207 21.8187 7.55722 21.6633C7.33836 21.3665 7.33524 21.051 7.46779 20.7001Z" fill="#31C77F"/>
    <path d="M13.4482 22.0122C13.3697 22.0008 13.2636 22.0855 13.1919 22.0154C13.1378 21.9629 13.1337 21.86 13.1051 21.7799C13.0937 21.7482 13.0801 21.7144 13.0588 21.6884C12.9866 21.6 13.0365 21.5532 13.1114 21.507C13.5631 21.2263 13.9664 20.8795 14.3932 20.5651C14.9193 20.1768 15.3788 19.7177 15.818 19.2369C15.9579 19.0841 16.0634 18.9058 16.0504 18.6839C16.0452 18.5939 16.0878 18.5565 16.1731 18.5679C16.2578 18.5789 16.3425 18.5913 16.4252 18.6111C16.6867 18.6745 16.7932 18.8908 16.6794 19.1345C16.6326 19.2349 16.5686 19.3269 16.5161 19.4251C16.4777 19.4974 16.4626 19.5722 16.5364 19.6341C16.6045 19.6918 16.6778 19.6829 16.7516 19.6445C16.7594 19.6403 16.7672 19.6372 16.775 19.6336C16.8364 19.6034 16.8759 19.5036 16.9382 19.5234C17.0323 19.553 17.1197 19.6164 17.1987 19.6793C17.3879 19.8306 17.4554 20.0089 17.3842 20.1944C17.3037 20.4039 17.182 20.589 17.0162 20.7444C16.6908 21.049 16.2994 21.2455 15.8877 21.3895C15.2031 21.6297 14.5143 21.863 13.7933 21.98C13.6831 21.9982 13.5729 22.0076 13.4482 22.0122Z" fill="#31C77F"/>
    <path d="M7.37833 21.7659L6.95728 22.9157C7.06748 22.9661 7.17875 23.0155 7.29047 23.0628C7.41838 22.7525 7.67879 22.1225 7.71778 22.044C7.76978 21.939 7.37833 21.7659 7.37833 21.7659Z" fill="#231F20"/>
    <path d="M16.9342 20.9431L16.7351 21.1573C16.7351 21.1573 17.1463 22.1221 17.4733 22.6861C17.5835 22.6289 17.6931 22.5697 17.8013 22.5088C17.6058 22.0997 17.1437 21.1329 17.0496 20.9275C16.9524 20.716 16.9342 20.9431 16.9342 20.9431Z" fill="#231F20"/>
    <path d="M12.328 22.2795C12.2994 22.2769 12.2568 22.2743 12.2147 22.2681C12.0317 22.242 11.9231 22.1532 11.9012 22.0144C11.8788 21.8719 11.9937 21.6879 12.1429 21.6271C12.4216 21.5132 12.682 21.5959 12.8041 21.8371C12.8795 21.9858 12.8613 22.0684 12.7298 22.1708C12.6347 22.2446 12.4964 22.2836 12.328 22.2795Z" fill="#31C77F"/>
    <g style="mix-blend-mode:multiply" opacity="0.2">
        <g style="mix-blend-mode:multiply" opacity="0.2">
            <path fill-rule="evenodd" clip-rule="evenodd" d="M12 23.2174C18.1952 23.2174 23.2174 18.1952 23.2174 12C23.2174 5.80478 18.1952 0.782621 12 0.782621C5.80483 0.782621 0.782622 5.80478 0.782622 12C0.782622 18.1952 5.80483 23.2174 12 23.2174ZM12 24C18.6274 24 24 18.6274 24 12C24 5.3726 18.6274 0 12 0C5.3726 0 0 5.3726 0 12C0 18.6274 5.3726 24 12 24Z" fill="#191326"/>
        </g>
    </g>
</svg>
