<svg viewBox="0 0 24 24" fill="none" xmlns="http://www.w3.org/2000/svg">
    <path d="M12 24C18.6276 24 24 18.6273 24 12C24 5.37269 18.6276 0 12 0C5.37241 0 0 5.37269 0 12C0 18.6273 5.37241 24 12 24Z" fill="#57B1FA"/>
    <path d="M8.56032 8.30374L3.05273 15.6469H4.17191L5.38073 14.0353H9.22321V13.1396H6.05273L9.67949 8.30347H8.56032V8.30374ZM20.9462 15.6469L15.4392 8.30374H14.3192L17.9462 13.1399H14.7758V14.0356H18.618L19.8271 15.6472H20.9462V15.6469ZM12.4472 4.28857H11.5518V15.6475H12.4472V4.28857Z" fill="#1E262D"/>
</svg>
