<svg width="24" height="24" viewBox="0 0 24 24" fill="none" xmlns="http://www.w3.org/2000/svg">
<path d="M12 24C18.6273 24 24 18.6273 24 12C24 5.37269 18.6273 0 12 0C5.37269 0 0 5.37269 0 12C0 18.6273 5.37269 24 12 24Z" fill="#15100E"/>
<mask id="mask0_12552_70344" style="mask-type:alpha" maskUnits="userSpaceOnUse" x="0" y="0" width="24" height="24">
<path d="M12 24C18.6273 24 24 18.6273 24 12C24 5.37269 18.6273 0 12 0C5.37269 0 0 5.37269 0 12C0 18.6273 5.37269 24 12 24Z" fill="#15100E"/>
</mask>
<g mask="url(#mask0_12552_70344)">
<path d="M13.9199 0.00830078V0.488301H10.0883C10.0883 0.327501 10.0883 0.165501 10.0823 0.00830078H13.9199Z" fill="#15100E"/>
<path d="M13.9201 23.6291V23.9891H10.0801L10.0081 23.7059C10.0333 23.6819 10.0561 23.6567 10.0789 23.6315L10.6789 23.6147H13.3201L13.9201 23.6255V23.6291Z" fill="#15100E"/>
<path d="M1.21435 14.6328C0.641951 14.7768 0.470351 14.5727 0.494351 13.9763C0.543551 12.6563 0.543551 11.3364 0.494351 10.0236C0.472751 9.42356 0.640751 9.22195 1.21435 9.36715C1.22555 10.6936 1.23595 12.0192 1.24555 13.344L1.20715 14.64L1.21435 14.6328Z" fill="#15100E"/>
<path d="M10.0102 23.7084C9.59143 23.5512 9.15103 23.61 8.73343 23.6472C8.13343 23.7024 7.89343 23.5188 8.03983 22.9176V22.9104L8.51983 22.8984L10.0678 22.9752V23.634C10.0582 23.6592 10.0354 23.6844 10.0102 23.7084Z" fill="#15100E"/>
<path d="M8.04015 1.20018C7.92015 0.680575 8.06415 0.430977 8.66055 0.496977C9.13215 0.548577 9.62055 0.496977 10.0921 0.496977C10.0801 0.722577 10.0693 0.948175 10.0573 1.17378C9.39015 1.27098 8.71935 1.19777 8.05095 1.21337L8.04015 1.20018Z" fill="#15100E"/>
<path d="M1.93432 16.6704C1.35832 16.8132 1.15192 16.6008 1.21432 16.008C1.26472 15.5544 1.21432 15.0912 1.21432 14.6328L1.20713 14.64L1.92712 14.676L1.95712 15.3672L1.92712 16.68L1.93432 16.6704Z" fill="#15100E"/>
<path d="M1.21324 9.36718C1.21324 8.91118 1.26724 8.45039 1.21324 8.00039C1.14844 7.42439 1.33324 7.19279 1.91405 7.31399L1.92724 7.32478C1.91044 7.99318 1.98604 8.66398 1.88764 9.32998L1.21085 9.36598L1.21324 9.36718Z" fill="#15100E"/>
<path d="M8.03999 22.9199C7.80051 22.8976 7.55948 22.8976 7.31999 22.9199C6.7764 23.0183 6.51479 22.8239 6.53639 22.2659C6.55919 22.2419 6.582 22.2167 6.6036 22.1915L7.3236 22.1819L8.0436 22.2407V22.9079L8.03999 22.9199Z" fill="#15100E"/>
<path d="M2.64709 18.12C2.07709 18.24 1.84789 18.0361 1.93909 17.4469C1.96067 17.1893 1.96067 16.9304 1.93909 16.6729L1.93189 16.6801L2.57389 16.7581C2.72629 17.2057 2.58829 17.6689 2.64949 18.1213L2.64709 18.12Z" fill="#15100E"/>
<path d="M6.62135 1.91995C6.46055 1.33675 6.69696 1.14235 7.27056 1.22035C7.52707 1.23589 7.78444 1.22906 8.03976 1.19995L8.04936 1.21075C8.03656 1.44355 8.02376 1.67635 8.01096 1.90915L7.95936 1.93075L6.62135 1.91995Z" fill="#15100E"/>
<path d="M1.91997 7.31993C1.93992 7.08035 1.93992 6.83952 1.91997 6.59993C1.82277 5.99993 2.03997 5.75273 2.64837 5.87993L2.65677 5.88833L2.61597 7.29233L1.93797 7.32713L1.91997 7.31993Z" fill="#15100E"/>
<path d="M6.53761 22.2683C6.35881 22.1483 6.15121 22.1723 5.96761 22.2035C5.35801 22.3043 5.15042 22.0595 5.28242 21.4835L5.28842 21.4775H5.88002L6.60002 21.5363V22.1987C6.58322 22.2191 6.56041 22.2443 6.53761 22.2683Z" fill="#15100E"/>
<path d="M6.62139 1.91992L7.95579 1.93192C7.95579 2.12752 7.95579 2.32432 7.94739 2.51992C7.77219 2.75992 7.49859 2.58232 7.28859 2.67112L6.59979 2.63992L6.58179 2.03272L6.62139 1.91992Z" fill="#B42C09"/>
<path d="M6.57731 2.04003L6.60011 2.64003H6.60851L5.28851 2.64843L5.27171 2.62803C5.16131 2.11923 5.38331 1.96323 5.87171 2.02803C6.1063 2.04915 6.34213 2.05316 6.57731 2.04003Z" fill="#15100E"/>
<path d="M3.1307 19.4317C2.7707 19.5061 2.58229 19.4101 2.63149 18.9937C2.65232 18.7022 2.65753 18.4097 2.6471 18.1177L3.10189 18.1381C3.11029 18.5701 3.1199 19.0033 3.1283 19.4365L3.1307 19.4317Z" fill="#15100E"/>
<path d="M2.64004 5.87999C2.65313 5.64007 2.65032 5.39955 2.63164 5.16C2.57524 4.7532 2.76484 4.638 3.12484 4.68L3.13204 5.75999L3.06365 5.86799L2.64365 5.874L2.64004 5.87999Z" fill="#15100E"/>
<path d="M4.5709 20.8705C3.82689 20.8885 3.82689 20.8885 3.85809 20.1433V20.1505H4.4581C4.6441 20.3689 4.4857 20.6425 4.5781 20.8765L4.5709 20.8705Z" fill="#15100E"/>
<path d="M3.83994 3.95995C3.69954 3.33474 4.01514 3.17154 4.55994 3.24594L4.52754 3.92755L3.83994 3.96595V3.95995Z" fill="#15100E"/>
<path d="M3.85806 20.1432C3.11766 20.1792 3.11766 20.1792 3.13086 19.4316V19.4376L3.85086 19.482L3.86285 20.1504L3.85806 20.1432Z" fill="#15100E"/>
<path d="M3.12605 4.67982C2.98685 4.06542 3.28085 3.87942 3.84605 3.95982L3.85445 3.96941C3.85445 4.19621 3.84605 4.42302 3.84125 4.65102C3.81005 4.67142 3.78005 4.69182 3.75005 4.71462L3.13565 4.68822L3.12605 4.67982Z" fill="#15100E"/>
<path d="M5.27992 21.48C4.84192 21.5124 4.40392 21.546 4.56832 20.8728L4.55992 20.88L5.27992 20.9268L5.28592 21.4752L5.27992 21.48Z" fill="#15100E"/>
<path d="M4.56015 3.24007C4.40295 2.58848 4.82535 2.59448 5.26455 2.62088L5.28135 2.64128C5.40135 3.27007 4.99335 3.26887 4.56135 3.24127L4.56015 3.24007Z" fill="#15100E"/>
<path d="M22.7891 9.36716C23.3615 9.22196 23.5307 9.42836 23.5091 10.0236C23.4599 11.3436 23.4599 12.6636 23.5091 13.9764C23.5319 14.5764 23.3603 14.7768 22.7891 14.6328L22.7963 14.64C22.7855 14.2428 22.7747 13.8468 22.7651 13.4496L22.7891 9.36956V9.36716Z" fill="#15100E"/>
<path d="M15.9601 22.92C16.0801 23.4468 15.9468 23.7216 15.3265 23.64C14.8621 23.5836 14.3857 23.6268 13.9141 23.6256L13.9213 22.9596L15.3613 22.9092H15.9601V22.92Z" fill="#15100E"/>
<path d="M22.788 14.6328C22.788 15.0912 22.7352 15.5544 22.788 16.008C22.8528 16.5996 22.6488 16.8144 22.068 16.6704V16.6776L22.0356 15.3696C22.0476 15.1296 22.0584 14.9004 22.0692 14.6652L22.7892 14.64L22.788 14.6328Z" fill="#15100E"/>
<path d="M22.0692 7.32851C22.6464 7.18571 22.8492 7.4005 22.7892 7.9921C22.74 8.4457 22.7892 8.9089 22.7892 9.3673L22.1076 9.3337C22.0104 8.6665 22.086 7.9969 22.0692 7.32851Z" fill="#15100E"/>
<path d="M13.9199 0.492094C14.3999 0.492094 14.8799 0.547294 15.3515 0.492094C15.9515 0.426094 16.0883 0.675692 15.9731 1.19529L15.9623 1.20609L13.9223 1.19409H13.9295L13.9199 0.492094Z" fill="#15100E"/>
<path d="M19.4568 20.8907C19.4604 20.899 19.4623 20.9079 19.4624 20.9169C19.4625 20.9259 19.4609 20.9348 19.4575 20.9432C19.4542 20.9515 19.4492 20.9592 19.4429 20.9656C19.4366 20.972 19.4291 20.9772 19.4208 20.9807C19.2052 20.8695 18.955 20.8458 18.7224 20.9147C18.6984 19.6799 18.6984 19.6799 17.4396 19.6703L17.3928 19.5503C17.4018 19.5161 17.4018 19.4801 17.3928 19.4459L18.726 19.4351C19.3716 19.2875 19.5156 19.6403 19.4712 20.1815C19.4688 20.4199 19.464 20.6563 19.4568 20.8907Z" fill="#F77503"/>
<path d="M15.9673 1.19995C16.2241 1.20835 16.4857 1.25635 16.7365 1.21915C17.3365 1.13035 17.5249 1.37155 17.3905 1.93915L15.9601 1.91995L15.9673 1.92595L15.9529 1.21555L15.9673 1.19995Z" fill="#15100E"/>
<path d="M17.3916 22.1882C17.502 22.7378 17.3604 23.0378 16.7208 22.9226C16.4685 22.8998 16.2147 22.8998 15.9624 22.9226V22.9154C15.9624 22.691 15.9624 22.4654 15.9624 22.241L16.6824 22.1882H17.3952H17.3916Z" fill="#15100E"/>
<path d="M17.3906 1.9321C17.6074 1.95007 17.8253 1.95007 18.0422 1.9321C18.6026 1.8457 18.8594 2.0329 18.7334 2.6209L18.7166 2.6401L17.3966 2.6293L17.4038 2.6353L17.3882 1.9261L17.3906 1.9321Z" fill="#15100E"/>
<path d="M18.72 21.4801C18.8508 22.0621 18.6444 22.3105 18.0348 22.2001C17.8211 22.1789 17.606 22.1744 17.3916 22.1869C17.3916 21.9649 17.3916 21.7417 17.4 21.5185L18.12 21.4729H18.7104L18.72 21.4801Z" fill="#15100E"/>
<path d="M21.4799 5.8801C21.9359 5.7889 22.1303 5.9461 22.0679 6.4333C22.0489 6.73067 22.0509 7.02901 22.0739 7.3261L21.5003 7.3021L21.4763 5.8849L21.4799 5.8801Z" fill="#15100E"/>
<path d="M22.0679 16.6704C22.0469 16.9684 22.0469 17.2676 22.0679 17.5656C22.1327 18.0588 21.9287 18.2064 21.4763 18.114L21.4859 16.6824L22.0739 16.6728L22.0679 16.6704Z" fill="#15100E"/>
<path d="M21.4716 18.1201C21.4587 18.3725 21.4628 18.6255 21.4836 18.8773C21.5544 19.3837 21.3444 19.5457 20.8716 19.4377V19.4437L20.8872 18.1381L21.48 18.1201H21.4716Z" fill="#15100E"/>
<path d="M20.8682 4.69082C21.3482 4.61042 21.5714 4.77362 21.4826 5.29082C21.4664 5.48685 21.4656 5.68386 21.4802 5.88002V5.88602L20.9066 5.85842L20.885 5.88002L20.9078 5.85962L20.879 4.68722L20.8682 4.69082Z" fill="#15100E"/>
<path d="M20.064 3.85205C20.136 3.86885 20.1733 3.90845 20.1601 3.98525C20.1601 4.21685 20.1601 4.44845 20.1601 4.68005C19.5792 4.79285 19.3632 4.52525 19.4232 3.97205L19.4568 3.93245C19.6729 3.97085 19.8864 4.04645 20.064 3.85205Z" fill="#B42C09"/>
<path d="M19.4568 20.8908C19.464 20.6564 19.4704 20.4216 19.476 20.1864L20.1504 20.1504C20.2704 20.7204 20.0808 21.0072 19.4568 20.8908Z" fill="#15100E"/>
<path d="M20.8714 19.4316C20.8846 20.1768 20.8846 20.1768 20.1514 20.1516L20.1586 19.4724L20.8786 19.4388L20.8714 19.4316Z" fill="#15100E"/>
<path d="M20.1659 4.67984C20.1659 4.44824 20.1659 4.21664 20.1659 3.98504C20.7551 3.86504 21.0131 4.07984 20.8739 4.69064L20.1599 4.67984H20.1659Z" fill="#15100E"/>
<path d="M19.3333 3.2207L19.4629 3.3527C19.5109 3.5459 19.2793 3.7391 19.4629 3.9323L19.4293 3.97191C18.8197 4.08351 18.6445 3.77991 18.7249 3.2327L19.3333 3.2207Z" fill="#B42C09"/>
<path d="M19.3333 3.22071L18.7249 3.23271V3.23991C18.7249 3.04191 18.7165 2.84391 18.7129 2.64591L18.7297 2.62671C19.5313 2.64831 19.5313 2.64831 19.3333 3.22071Z" fill="#15100E"/>
<path d="M18.7199 20.9147C18.9525 20.8458 19.2028 20.8695 19.4183 20.9807C19.5803 21.7007 19.0319 21.4259 18.7175 21.4775V21.4715C18.7199 21.2855 18.7199 21.1007 18.7199 20.9147Z" fill="#15100E"/>
<path d="M19.4628 3.93233C19.2792 3.73914 19.5108 3.54594 19.4628 3.35274C19.8336 3.31434 20.1672 3.32034 20.0628 3.85194C19.8864 4.04634 19.6728 3.97073 19.4628 3.93233Z" fill="#15100E"/>
<path d="M13.9199 0.491943L13.9343 1.20234L12.0803 1.23594L10.0919 1.21194L10.0571 1.16994C10.0691 0.944343 10.0799 0.718741 10.0919 0.493141L13.9199 0.491943Z" fill="#B42C09"/>
<path d="M13.92 22.9619V23.6279L13.32 23.6171C13.3572 22.1915 13.3572 22.1915 11.9736 22.1915C10.6536 22.1915 10.6536 22.1915 10.6872 23.6171L10.0872 23.6339C10.0872 23.4143 10.0872 23.1947 10.0872 22.9751C10.0872 22.4743 10.0872 21.9747 10.0872 21.4763H13.9272C13.9224 21.9715 13.92 22.4667 13.92 22.9619Z" fill="#B42C09"/>
<path d="M10.6801 23.6173C10.6441 22.1917 10.6441 22.1917 11.9665 22.1917C13.3501 22.1917 13.3501 22.1917 13.3129 23.6173H10.6801Z" fill="#F77503"/>
<path d="M1.21436 9.36608L1.89116 9.33008L1.93195 9.36488C1.93995 10.2777 1.94795 11.1913 1.95595 12.1057C1.94635 12.5509 1.93555 12.9973 1.92595 13.4425L1.24195 13.3477C1.23475 12.0189 1.22556 10.6917 1.21436 9.36608Z" fill="#B42C09"/>
<path d="M1.24547 13.3428L1.92947 13.4376C1.92947 13.8504 1.92947 14.2632 1.92947 14.676L1.20947 14.64L1.24547 13.3428Z" fill="#F77503"/>
<path d="M10.08 21.48C10.08 21.9792 10.08 22.4788 10.08 22.9788L8.53198 22.902C8.70238 22.4724 8.44198 21.8892 8.72158 21.6C9.03718 21.27 9.61679 21.5148 10.08 21.48Z" fill="#F77503"/>
<path d="M10.08 21.4801C9.61678 21.5185 9.03717 21.2737 8.72037 21.6001C8.44078 21.8893 8.70118 22.4725 8.53078 22.9021L8.05078 22.9141C8.05078 22.6921 8.05078 22.4701 8.05078 22.2469V20.8789C8.52238 20.8789 8.99517 20.9257 9.46317 20.8861C9.93117 20.8465 10.1112 21.0373 10.0896 21.4777L10.08 21.4801Z" fill="#B42C09"/>
<path d="M8.00757 1.90792C8.01957 1.67512 8.03237 1.44232 8.04597 1.20952C8.71437 1.19392 9.38517 1.26712 10.0524 1.16992L10.0872 1.21192C10.074 1.43992 10.062 1.66672 10.0488 1.89472L8.60877 1.95592L8.00757 1.90792Z" fill="#B42C09"/>
<path d="M1.91992 14.6759C1.91992 14.2631 1.91992 13.8503 1.91992 13.4375C2.50552 13.2983 2.68912 13.5503 2.63992 14.1167C2.61832 14.5284 2.61832 14.941 2.63992 15.3527L1.95712 15.3623L1.91992 14.6759Z" fill="#B42C09"/>
<path d="M1.95462 15.3673L2.63982 15.3601L2.64822 15.3709V16.6801C2.61931 16.703 2.59314 16.7292 2.57022 16.7581L1.92822 16.6801C1.93702 16.2417 1.94582 15.8041 1.95462 15.3673Z" fill="#F77503"/>
<path d="M1.93072 7.31998L2.60871 7.28638L2.65671 7.32718C2.65671 7.55398 2.65671 7.77958 2.66271 8.00518C2.6351 8.19869 2.62826 8.39461 2.64232 8.58958C2.74912 9.17758 2.49831 9.40798 1.93191 9.35998L1.89111 9.32518C1.98951 8.66398 1.91992 7.99318 1.93072 7.31998Z" fill="#B42C09"/>
<path d="M6.6001 22.2V21.5364C6.6001 21.078 6.6001 20.6196 6.6001 20.1613C6.81609 20.1848 7.03373 20.1892 7.25049 20.1744C7.81449 20.0904 8.11089 20.2705 8.03889 20.8812C7.44849 20.772 7.1989 21.0012 7.3009 21.6012C7.31995 21.7954 7.32515 21.9907 7.31649 22.1856L6.6001 22.2Z" fill="#B42C09"/>
<path d="M7.32 22.1845C7.32866 21.9896 7.32345 21.7943 7.3044 21.6001C7.2072 21.0001 7.452 20.7601 8.0424 20.8801V22.2481L7.32 22.1845Z" fill="#F77503"/>
<path d="M3.09941 18.1391L2.63981 18.1199C2.57861 17.6675 2.71661 17.2043 2.56421 16.7567C2.58713 16.7278 2.6133 16.7016 2.64221 16.6787H3.00221L3.14261 16.7147L3.11981 18.1187L3.09941 18.1391Z" fill="#F77503"/>
<path d="M8.00749 1.9082L8.60749 1.9562C8.60749 2.711 8.58829 2.73021 7.94629 2.51781C7.94629 2.32221 7.94629 2.1254 7.95469 1.9298L8.00749 1.9082Z" fill="#FBFBFB"/>
<path d="M2.6495 5.88588L3.0695 5.87988H3.1019H3.1355V6.57348C3.1223 6.75108 3.1079 6.92748 3.0947 7.10508L2.91351 7.28868L2.6603 7.33548L2.6123 7.29468C2.6243 6.82348 2.6367 6.35388 2.6495 5.88588Z" fill="#B42C09"/>
<path d="M5.28847 21.4716C5.28847 21.288 5.28847 21.1116 5.28247 20.9232V19.4353C5.47597 19.4586 5.67125 19.4634 5.86567 19.4497C6.43567 19.3597 6.64927 19.6141 6.60127 20.1553C6.00727 20.0485 5.76127 20.2848 5.86447 20.886C5.88269 21.0811 5.8859 21.2773 5.87407 21.4728L5.28847 21.4716Z" fill="#B42C09"/>
<path d="M5.87982 21.4728C5.89165 21.2773 5.88844 21.0811 5.87022 20.886C5.77182 20.286 6.01302 20.046 6.60702 20.1552C6.60702 20.6136 6.60702 21.072 6.60702 21.5304L5.87982 21.4728Z" fill="#F77503"/>
<path d="M3.09109 7.10143C3.10429 6.92383 3.11868 6.74743 3.13188 6.56983C3.75708 6.71503 3.87948 6.36583 3.83628 5.84983L3.81949 5.87023C4.39309 5.94223 4.64869 5.71903 4.53949 5.12263C4.52862 4.9676 4.53505 4.81184 4.55869 4.65823L4.53589 4.67023C5.12509 4.77463 5.34709 4.50583 5.27989 3.94183L5.25949 3.95263C5.53669 3.95263 5.81509 3.93343 6.09229 3.95263C6.59629 3.97903 6.69229 3.77143 6.47029 3.35263L6.56989 3.22183C6.96589 3.24463 7.40989 3.33103 7.28989 2.67343C7.49989 2.58463 7.76989 2.76703 7.94869 2.52223C8.59069 2.73463 8.61349 2.71543 8.60989 1.96063L10.0499 1.89943C10.5047 1.89943 10.9619 1.87423 11.4119 1.92223C11.9591 1.97863 12.1871 1.79263 12.0767 1.24063L13.9307 1.20703H13.9235C13.8155 1.86823 14.1635 1.99903 14.7311 1.94143C15.1403 1.89943 15.5579 1.93063 15.9719 1.92943L15.9599 1.91983C15.8591 2.56303 16.1783 2.73943 16.7579 2.65543C16.9731 2.63821 17.1891 2.6354 17.4047 2.64703L17.3999 2.63983C17.3507 3.10663 17.5199 3.32503 18.0227 3.24943C18.2572 3.23201 18.4926 3.23201 18.7271 3.24943V3.24223C18.6467 3.78943 18.8219 4.09303 19.4315 3.98143C19.3715 4.53463 19.5875 4.80223 20.1683 4.68943H20.1611C20.1539 4.88983 20.1479 5.08903 20.1407 5.28943C19.8395 5.32183 19.4207 5.14063 19.4267 5.71423C19.4254 5.73956 19.4187 5.76432 19.4071 5.78687C19.3955 5.80942 19.3792 5.82925 19.3593 5.84502C19.3395 5.8608 19.3165 5.87217 19.2919 5.87838C19.2673 5.88458 19.2417 5.88549 19.2167 5.88103C18.6251 5.81503 18.7367 6.24103 18.7163 6.58063L18.1475 6.55303L18.1391 6.50743C18.2735 5.89303 17.9375 5.79343 17.4407 5.86783C17.5535 5.24023 17.1551 5.22103 16.7123 5.25463C16.7747 4.81423 16.6199 4.60783 16.1435 4.67503C15.8913 4.6924 15.6381 4.69 15.3863 4.66783C15.4907 4.10863 15.2783 3.88183 14.7023 3.96943C14.4492 3.98738 14.1949 3.98256 13.9427 3.95503C14.0519 3.39223 13.8539 3.18943 13.2563 3.23503C12.422 3.28903 11.585 3.28903 10.7507 3.23503C10.1771 3.20143 9.92749 3.36103 10.0607 3.95503C9.80853 3.98353 9.55436 3.98995 9.30109 3.97423C8.74069 3.89743 8.49469 4.09423 8.61709 4.66663C8.36538 4.69018 8.11226 4.69459 7.85989 4.67983C7.39549 4.62343 7.20948 4.79983 7.29468 5.25703C6.85668 5.23303 6.44029 5.23303 6.56748 5.87383C5.96748 5.75383 5.74788 6.01063 5.84749 6.59383C5.40469 6.52063 5.19709 6.67063 5.25829 7.15543C5.27927 7.44825 5.27927 7.7422 5.25829 8.03503C4.71829 7.93543 4.44109 8.10223 4.53829 8.70583C4.55546 8.92078 4.55346 9.13683 4.53229 9.35143C3.94909 9.23143 3.78589 9.48103 3.82309 10.0522C3.86749 10.741 3.81229 11.437 3.80149 12.1294H1.95589C1.94789 11.215 1.93988 10.3014 1.93188 9.38863C2.49828 9.43663 2.74909 9.20623 2.64229 8.61823C2.62824 8.42326 2.63508 8.22734 2.66269 8.03383C3.29749 8.10943 3.03469 7.61143 3.11149 7.33063L3.09109 7.10143Z" fill="#FDF468"/>
<path d="M7.28884 2.66869C7.40884 3.32629 6.96725 3.23989 6.56885 3.21709L6.60005 2.63989H6.59165L7.28884 2.66869Z" fill="#FBFBFB"/>
<path d="M6.60005 2.63989L6.56765 3.21949L6.46805 3.35029C6.26844 3.36782 6.06767 3.36782 5.86805 3.35029C5.36645 3.26749 5.17205 3.46429 5.25485 3.95629L5.27525 3.94549L4.56485 3.96949L4.53125 3.92989L4.56365 3.24829C4.99205 3.27349 5.40365 3.27469 5.28365 2.64829L6.60005 2.63989Z" fill="#B42C09"/>
<path d="M3.8399 19.4821L3.1199 19.4377C3.1115 19.0045 3.10191 18.5713 3.09351 18.1393L3.1199 18.1177H3.8399L3.8507 18.1273L3.8399 19.4821Z" fill="#F77503"/>
<path d="M3.13086 4.68726L3.74526 4.71366C3.76686 4.77846 3.78966 4.84206 3.81246 4.90686V5.55126L3.77526 5.58366L3.81246 5.61366V5.87406L3.83046 5.85486L3.57726 5.84286C3.44166 5.74206 3.28205 5.78886 3.13205 5.77206L3.13086 4.68726Z" fill="#B42C09"/>
<path d="M3.13798 5.77197C3.28798 5.78877 3.44758 5.74197 3.58438 5.84277L3.13558 5.87637H3.10198H3.06958L3.13798 5.77197Z" fill="#F77503"/>
<path d="M3.84009 19.482L3.84729 18.1272C4.17369 18.1548 4.59849 18.0264 4.57329 18.6072C4.57329 18.6468 4.69329 18.7356 4.74249 18.7272C5.37249 18.6324 5.24289 19.0992 5.28369 19.4472C4.67529 19.302 4.48449 19.6428 4.44369 20.1672H3.84369C3.84849 19.9272 3.84009 19.704 3.84009 19.482Z" fill="#B42C09"/>
<path d="M4.44824 20.1504C4.48664 19.6308 4.67744 19.29 5.28824 19.4304V20.9184L4.56824 20.8716C4.47584 20.64 4.63424 20.3688 4.44824 20.1504Z" fill="#F77503"/>
<path d="M3.84012 4.64993C3.84012 4.42193 3.84852 4.19513 3.85332 3.96833L4.54092 3.92993L4.57452 3.96953C4.56492 4.20313 4.55252 4.43993 4.53732 4.67993L4.56012 4.66793L3.84012 4.72193C3.8365 4.69807 3.8365 4.67379 3.84012 4.64993Z" fill="#B42C09"/>
<path d="M3.81256 4.90671C3.78976 4.84191 3.76696 4.7783 3.74536 4.7135C3.77536 4.6907 3.80535 4.6703 3.83655 4.6499C3.83351 4.6718 3.83351 4.69401 3.83655 4.7159L3.81256 4.90671Z" fill="#F77503"/>
<path d="M22.1063 9.33228L22.7879 9.36587C22.7791 10.7259 22.7711 12.0859 22.7639 13.4459L22.0715 13.4327L22.0571 9.36467L22.1063 9.33228Z" fill="#B42C09"/>
<path d="M22.0715 13.4399L22.7639 13.4531C22.7735 13.8503 22.7843 14.2463 22.7951 14.6435L22.0751 14.6687L22.0715 13.4399Z" fill="#F77503"/>
<path d="M15.96 22.2358C15.96 22.4602 15.96 22.6858 15.96 22.9102H15.3708C15.3984 21.4702 15.3984 21.4702 13.9836 21.4702H13.9248C13.8804 21.0166 14.0568 20.8198 14.5344 20.881C14.8121 20.8962 15.0905 20.8897 15.3672 20.8618L15.9672 20.8714L15.96 22.2358Z" fill="#B42C09"/>
<path d="M13.9199 21.48H13.9787C15.3935 21.48 15.3935 21.48 15.3659 22.92L13.9259 22.9704C13.9219 22.4696 13.9199 21.9728 13.9199 21.48Z" fill="#F77503"/>
<path d="M22.0718 13.44V14.6688C22.061 14.9088 22.0502 15.138 22.0382 15.3732L21.4838 15.366C21.4766 15.126 21.4698 14.886 21.4634 14.646C21.4863 14.432 21.4931 14.2166 21.4838 14.0016C21.4298 13.5348 21.6038 13.3404 22.073 13.4412L22.0718 13.44Z" fill="#B42C09"/>
<path d="M21.4872 15.3601L22.0416 15.3673L22.08 16.6801L21.492 16.6897L21.48 16.6801V15.3733L21.4872 15.3601Z" fill="#F77503"/>
<path d="M21.4943 7.30322L22.0679 7.32722C22.0847 7.99562 22.0091 8.66523 22.1063 9.33243L22.0619 9.37322C21.6095 9.40082 21.4271 9.21603 21.4739 8.74083C21.5207 8.26563 21.4907 7.78322 21.4943 7.30322Z" fill="#B42C09"/>
<path d="M15.9707 1.92015C15.5567 1.92015 15.1391 1.89015 14.7299 1.93215C14.1599 1.98975 13.8143 1.85895 13.9223 1.19775L15.9623 1.20975L15.9707 1.92015Z" fill="#B42C09"/>
<path d="M21.4943 7.30298C21.4943 7.78298 21.5207 8.26298 21.4739 8.74298C21.4271 9.22298 21.6095 9.40299 22.0619 9.37539L22.0799 13.4398C21.6095 13.339 21.4367 13.5334 21.4907 14.0002C21.5001 14.2152 21.4932 14.4306 21.4703 14.6446C20.7767 14.5246 20.8703 14.9938 20.8931 15.4078C20.8931 15.5926 20.8823 15.7762 20.8763 15.961C20.1371 15.8074 20.1047 16.2622 20.1563 16.7938L20.1359 17.4034C19.5287 17.2834 19.3535 17.575 19.4351 18.1234L19.4423 18.1162C19.0211 18.0982 18.5903 18.0694 18.7151 18.7162C18.5203 18.733 18.3244 18.733 18.1295 18.7162C17.5295 18.6178 17.2979 18.8638 17.3963 19.4518C17.4053 19.486 17.4053 19.522 17.3963 19.5562C16.9583 19.5154 16.5503 19.513 16.6859 20.1562L16.0151 20.1658C15.4151 20.0458 15.2951 20.3758 15.3683 20.8714C15.0916 20.8993 14.8132 20.9057 14.5355 20.8906C14.0555 20.8294 13.8815 21.0262 13.9259 21.4798H10.0799C10.1015 21.0394 9.92513 20.8486 9.45352 20.8882C8.98193 20.9278 8.51272 20.8882 8.04112 20.881C8.11312 20.2702 7.81672 20.0902 7.25272 20.1742C7.03512 20.1887 6.81667 20.1839 6.59992 20.1598C6.64792 19.6186 6.43432 19.3642 5.86432 19.4542C5.66951 19.468 5.47382 19.4632 5.27992 19.4398C5.23912 19.0978 5.36872 18.631 4.73872 18.7198C4.68712 18.7282 4.56832 18.6394 4.56952 18.5998C4.59472 18.0226 4.16993 18.151 3.84353 18.1198H3.83992C3.82075 17.8665 3.82075 17.6122 3.83992 17.359C3.91912 16.7986 3.68152 16.6138 3.15592 16.7158L3.01552 16.6798C3.01552 16.3702 2.98912 16.0582 3.01552 15.751C3.04192 15.4438 2.90512 15.3718 2.65552 15.3706L2.63992 15.3598C2.61832 14.9481 2.61832 14.5355 2.63992 14.1238C2.69512 13.5574 2.51152 13.3054 1.91992 13.4446C1.92952 12.9994 1.94032 12.553 1.94992 12.1078H3.78472C3.81749 12.3233 3.82835 12.5416 3.81712 12.7594C3.74032 13.261 3.96352 13.4938 4.43632 13.5454C4.46378 13.5586 4.49282 13.5683 4.52272 13.5742C4.56352 14.6674 4.56352 14.6674 5.27272 14.6458C5.35552 15.1534 4.93072 15.8278 5.75272 16.0942C5.70352 16.7638 6.08512 16.8142 6.59272 16.6846C6.56872 17.0542 6.45712 17.4754 7.07272 17.4442C7.11712 17.4442 7.21192 17.5546 7.20832 17.6098C7.17232 18.2662 7.60792 18.1546 8.00512 18.1102C8.20312 18.1486 8.49592 18.0502 8.54992 18.331C8.63512 18.781 8.94712 18.7282 9.25792 18.7234L10.0763 18.7138C9.94912 19.2934 10.1747 19.489 10.7651 19.4554C11.5824 19.4068 12.4018 19.4068 13.2191 19.4554C13.8191 19.495 14.0231 19.2802 13.9091 18.7126C14.2044 18.7016 14.5 18.7068 14.7947 18.7282C15.2999 18.793 15.4223 18.5506 15.3479 18.1126C15.5445 18.1057 15.7412 18.1109 15.9371 18.1282C16.5275 18.2182 16.7963 18.0082 16.6667 17.3938C17.2667 17.5138 17.5067 17.2738 17.3867 16.6738C17.9899 16.797 18.2299 16.557 18.1067 15.9538C18.5423 16.027 18.7895 15.907 18.7223 15.4018C18.7021 15.1463 18.6969 14.8899 18.7067 14.6338C19.3199 14.7646 19.5335 14.4982 19.4399 13.9066C19.4287 13.7512 19.4287 13.5952 19.4399 13.4398C20.0399 13.5418 20.2175 13.2826 20.1815 12.6886C20.1275 11.8054 20.1623 10.9174 20.1599 10.0306C20.1875 9.67059 20.2799 9.27219 19.6931 9.32379C19.6855 9.2691 19.6593 9.2187 19.6188 9.1811C19.5784 9.1435 19.5262 9.121 19.4711 9.11738C19.4411 8.00738 19.4411 8.00739 18.7283 8.03739C18.7283 7.54779 18.7255 7.05818 18.7199 6.56858C18.7391 6.23018 18.6287 5.80299 19.2203 5.86899C19.2453 5.87345 19.2709 5.87254 19.2955 5.86633C19.3201 5.86013 19.3431 5.84876 19.363 5.83298C19.3828 5.8172 19.3991 5.79738 19.4107 5.77483C19.4223 5.75228 19.429 5.72752 19.4303 5.70218C19.4195 5.12858 19.8431 5.30979 20.1443 5.27739C20.0567 5.91339 20.4755 5.89538 20.9039 5.86418L20.8811 5.88459L20.9027 5.86298C20.9156 6.13777 20.9116 6.41309 20.8907 6.68739C20.8271 7.17579 21.0107 7.38578 21.5003 7.30778L21.4943 7.30298Z" fill="#FBAE32"/>
<path d="M20.1602 19.4713L20.153 20.1505L19.4786 20.1865C19.523 19.6453 19.379 19.2925 18.7334 19.4401C18.743 19.2781 18.7514 19.1161 18.761 18.9601C18.9506 18.9109 19.2194 19.0945 19.3178 18.7729C19.5194 18.6925 19.451 18.5053 19.481 18.3565C19.9898 18.2845 20.255 18.4537 20.1602 19.0141C20.1467 19.1662 20.1467 19.3192 20.1602 19.4713Z" fill="#B42C09"/>
<path d="M18.7201 20.915C18.7201 21.101 18.7201 21.2858 18.7117 21.4718H18.1213C18.1117 21.2765 18.1153 21.0809 18.1321 20.8862C18.2245 20.2934 18.0013 20.0402 17.3989 20.1566H17.4061L17.4373 19.6658C18.6985 19.6802 18.6985 19.6802 18.7201 20.915Z" fill="#B42C09"/>
<path d="M18.7585 18.953C18.7489 19.1162 18.7405 19.2782 18.7309 19.4402L17.3977 19.451C17.2993 18.863 17.5297 18.611 18.1309 18.7154C18.3257 18.7322 18.5216 18.7322 18.7165 18.7154L18.7585 18.953Z" fill="#FDF468"/>
<path d="M17.4398 19.6703L17.4074 20.1611L16.6874 20.1527C16.5518 19.5119 16.9598 19.5143 17.3978 19.5527L17.4398 19.6703Z" fill="#FDF468"/>
<path d="M17.4085 2.64004C17.193 2.62841 16.9769 2.63122 16.7617 2.64844C16.1821 2.73244 15.8629 2.55604 15.9637 1.91284L17.3929 1.93084C17.4001 2.16844 17.4001 2.40004 17.4085 2.64004Z" fill="#B42C09"/>
<path d="M16.68 20.1528L17.4 20.1612V21.522C17.4 21.7452 17.4 21.9684 17.3916 22.1904H16.6788C16.6707 21.9959 16.6759 21.8011 16.6944 21.6072C16.7904 21.0072 16.5552 20.7672 15.96 20.8872L16.0104 20.1672L16.68 20.1528Z" fill="#B42C09"/>
<path d="M15.9599 20.8801C16.5599 20.7601 16.7903 21.0001 16.6943 21.6001C16.6759 21.7939 16.6707 21.9888 16.6787 22.1833L15.9587 22.2361L15.9599 20.8801Z" fill="#F77503"/>
<path d="M18.7285 3.24021C18.494 3.2228 18.2586 3.2228 18.0241 3.24021C17.5273 3.31581 17.3521 3.09742 17.4013 2.63062L18.7213 2.64141C18.7201 2.84421 18.7201 3.04221 18.7285 3.24021Z" fill="#B42C09"/>
<path d="M17.3999 21.5195V20.1599C17.9999 20.0399 18.2255 20.2967 18.1331 20.8895C18.1152 21.0858 18.1108 21.2831 18.1199 21.4799L17.3999 21.5195Z" fill="#F77503"/>
<path d="M21.4944 7.30539C21.0024 7.38339 20.8212 7.17339 20.8848 6.68499C20.9056 6.4107 20.9097 6.13538 20.8968 5.8606L21.4704 5.8882L21.4944 7.30539Z" fill="#B42C09"/>
<path d="M21.48 18.1199L20.8968 18.1331L20.88 18.1199C20.8128 17.6759 21.0168 17.2068 20.76 16.7808L20.8956 16.6812H21.48L21.4896 16.6896C21.4832 17.1632 21.48 17.6399 21.48 18.1199Z" fill="#F77503"/>
<path d="M20.1599 19.4712C20.1461 19.3171 20.1461 19.1621 20.1599 19.008C20.2547 18.4476 19.9895 18.2784 19.4807 18.3516C19.4687 18.2736 19.4579 18.1956 19.4459 18.1116L19.4387 18.1188H20.1455H20.8787L20.8955 18.1332C20.8955 18.5688 20.8847 19.0032 20.8799 19.4388L20.1599 19.4712Z" fill="#F77503"/>
<path d="M20.898 5.86209C20.4696 5.89329 20.0508 5.91129 20.1384 5.27529C20.1456 5.07489 20.1516 4.87569 20.1588 4.67529L20.8692 4.68969L20.898 5.86209Z" fill="#B42C09"/>
<path d="M12.0756 1.23591C12.186 1.78791 11.9556 1.97391 11.4108 1.91751C10.9608 1.86951 10.5036 1.89951 10.0488 1.89471C10.062 1.66671 10.074 1.43991 10.0872 1.21191L12.0756 1.23591Z" fill="#FBFBFB"/>
<path d="M2.646 15.3684C2.8992 15.3684 3.036 15.4548 3.006 15.7488C2.976 16.0428 3.006 16.368 3.006 16.6776H2.646C2.6472 16.2408 2.6472 15.8052 2.646 15.3684Z" fill="#B42C09"/>
<path d="M3.11154 7.30676C3.03474 7.58756 3.29754 8.08556 2.66274 8.00996C2.66274 7.78436 2.66274 7.55876 2.65674 7.33196L2.90994 7.28516L3.11154 7.30676Z" fill="#FBFBFB"/>
<path d="M3.14871 16.7135C3.67431 16.6115 3.91191 16.7963 3.83271 17.3567C3.81354 17.6099 3.81354 17.8642 3.83271 18.1175H3.12231C3.13191 17.6495 3.14071 17.1815 3.14871 16.7135Z" fill="#B42C09"/>
<path d="M3.13544 5.88004L3.58424 5.84644L3.83624 5.85844C3.87944 6.36964 3.75704 6.71884 3.13184 6.57844L3.13544 5.88004Z" fill="#FBFBFB"/>
<path d="M3.11151 7.30676L2.90991 7.28516L3.09111 7.10156C3.09831 7.16996 3.10431 7.23836 3.11151 7.30676Z" fill="#F77503"/>
<path d="M5.28 14.6399C4.5708 14.6615 4.5708 14.6615 4.53 13.5683C4.53 13.5395 4.5168 13.5095 4.5108 13.4807L4.4436 13.5395C3.9708 13.4879 3.74759 13.2551 3.82439 12.7535C3.83562 12.5358 3.82476 12.3175 3.79199 12.1019C3.80279 11.4095 3.858 10.7135 3.8136 10.0247C3.7764 9.45353 3.9396 9.20873 4.5228 9.32393L4.56599 9.35513C4.56599 10.4927 4.566 11.6351 4.5552 12.7667C4.5552 13.0931 4.5552 13.3667 5.0028 13.3511C5.2272 13.3439 5.27879 13.5407 5.27879 13.7375C5.27879 14.0375 5.27879 14.3375 5.27879 14.6363L5.28 14.6399Z" fill="#B42C09"/>
<path d="M10.0582 3.93603C9.92504 3.34563 10.1782 3.18603 10.7482 3.21603C11.5826 3.27003 12.4195 3.27003 13.2538 3.21603C13.8538 3.17403 14.0494 3.37683 13.9402 3.93603L13.9198 3.96003H10.0798L10.0582 3.93603Z" fill="#B42C09"/>
<path d="M8.61489 4.64764C8.49489 4.06924 8.73489 3.87844 9.29889 3.95524C9.55216 3.97096 9.80633 3.96454 10.0585 3.93604L10.0801 3.96364C10.1737 4.55284 9.92769 4.77964 9.33969 4.68364C9.10724 4.66562 8.87374 4.66562 8.64129 4.68364L8.61489 4.64764Z" fill="#B42C09"/>
<path d="M13.9402 3.94087C14.1925 3.9684 14.4467 3.97322 14.6998 3.95527C15.2758 3.86767 15.4882 4.09447 15.3838 4.65367L15.3598 4.68007C15.1269 4.66265 14.8931 4.66265 14.6602 4.68007C14.0782 4.76767 13.8202 4.56007 13.9198 3.96007L13.9402 3.94087Z" fill="#B42C09"/>
<path d="M4.52158 9.32887C4.54275 9.11427 4.54475 8.89822 4.52758 8.68327C4.42798 8.08327 4.70518 7.91287 5.24758 8.01247L5.28598 8.04007C5.26971 8.23974 5.26971 8.4404 5.28598 8.64007C5.38198 9.22807 5.12518 9.43927 4.56598 9.36007L4.52158 9.32887Z" fill="#B42C09"/>
<path d="M18.72 6.56658C18.72 7.05618 18.7228 7.54578 18.7284 8.03538L18.1608 8.00178C17.988 7.84578 17.9988 7.65018 18.0408 7.44738C18.24 7.16298 18.072 6.83298 18.1608 6.53418L18.72 6.56658Z" fill="#B42C09"/>
<path d="M5.24512 8.01239C5.2661 7.71957 5.2661 7.42562 5.24512 7.1328C5.18392 6.6528 5.39152 6.498 5.83432 6.5712L5.87752 6.6012C5.85941 6.8809 5.85941 7.16149 5.87752 7.4412C5.93752 7.9212 5.74192 8.106 5.27752 8.0412L5.24512 8.01239Z" fill="#B42C09"/>
<path d="M3.8125 4.90667L3.8377 4.71586L4.5577 4.66187C4.53406 4.81547 4.52763 4.97123 4.5385 5.12626C4.6465 5.72626 4.3909 5.94587 3.8185 5.87387V5.61467L3.8389 5.58346L3.8185 5.55107L3.8125 4.90667Z" fill="#FBFBFB"/>
<path d="M5.26088 3.96003C5.17808 3.46803 5.37248 3.27123 5.87408 3.35403C6.0737 3.37156 6.27447 3.37156 6.47408 3.35403C6.70089 3.77643 6.60008 3.98403 6.09608 3.95403C5.81648 3.93723 5.53808 3.96003 5.26088 3.96003Z" fill="#FBFBFB"/>
<path d="M7.29226 5.2381C7.20706 4.7773 7.39306 4.6045 7.85746 4.6609C8.10983 4.67566 8.36296 4.67125 8.61466 4.64771L8.64106 4.6825C8.70346 5.1457 8.52106 5.3461 8.04106 5.2825C7.80136 5.26559 7.56076 5.26559 7.32106 5.2825L7.29226 5.2381Z" fill="#B42C09"/>
<path d="M15.3839 4.65345C15.6357 4.67561 15.8889 4.67802 16.1411 4.66065C16.6211 4.59345 16.7723 4.79985 16.7099 5.24025L16.6799 5.27985C16.4481 5.26425 16.2156 5.26425 15.9839 5.27985C15.5135 5.33985 15.2867 5.17545 15.3611 4.67985L15.3839 4.65345Z" fill="#B42C09"/>
<path d="M18.145 6.53901C18.0622 6.83781 18.2302 7.16781 18.025 7.45221C17.5618 7.34541 17.2426 7.13661 17.4166 6.58341C17.6579 6.63456 17.9095 6.60286 18.1306 6.49341L18.145 6.53901Z" fill="#F77503"/>
<path d="M5.8403 6.57115C5.7455 5.99155 5.9699 5.73115 6.5603 5.85115L6.5975 5.87874C6.6887 6.44874 6.4439 6.68395 5.8775 6.59875L5.8403 6.57115Z" fill="#B42C09"/>
<path d="M4.53711 4.68006C4.54911 4.44566 4.56031 4.21086 4.57071 3.97566L5.28111 3.95166C5.34831 4.50966 5.12631 4.77846 4.53711 4.68006Z" fill="#FBFBFB"/>
<path d="M18.1367 6.4933C17.9156 6.60275 17.6641 6.63446 17.4227 6.5833H17.4155C17.4155 6.3493 17.4047 6.1153 17.3999 5.8813L17.4383 5.8537C17.9351 5.7793 18.2711 5.8801 18.1367 6.4933Z" fill="#B42C09"/>
<path d="M16.7099 5.2403C17.1527 5.2067 17.5499 5.2259 17.4383 5.8535L17.3999 5.8811L16.6967 5.8655V5.8595L16.6799 5.2799L16.7099 5.2403Z" fill="#B42C09"/>
<path d="M6.56523 5.85491C6.43803 5.21411 6.85443 5.21411 7.29243 5.23811L7.32243 5.28251C7.44243 5.91491 7.02243 5.89811 6.60243 5.88251L6.56523 5.85491Z" fill="#B42C09"/>
<path d="M3.81601 5.55225L3.83641 5.58345L3.81601 5.61465L3.77881 5.58345L3.81601 5.55225Z" fill="#F77503"/>
<path d="M16.0117 20.1601L15.9613 20.8801L15.3613 20.8705C15.2965 20.3725 15.4069 20.0401 16.0117 20.1601Z" fill="#FDF468"/>
<path d="M20.8896 15.4092C20.8704 14.9952 20.7696 14.5224 21.4668 14.646C21.4732 14.886 21.48 15.126 21.4872 15.366L21.48 15.3756L20.8896 15.4092Z" fill="#FDF468"/>
<path d="M20.8897 15.409L21.4801 15.3718V16.6786H20.8933C20.8885 16.4386 20.8829 16.1986 20.8765 15.9586C20.8801 15.7774 20.8801 15.5998 20.8897 15.409Z" fill="#B42C09"/>
<path d="M13.9199 18.7129C14.0339 19.2805 13.8335 19.4953 13.2299 19.4557C12.4126 19.4071 11.5931 19.4071 10.7759 19.4557C10.1855 19.4893 9.95986 19.2937 10.0871 18.7141H13.9271L13.9199 18.7129Z" fill="#FDF468"/>
<path d="M20.1599 10.0271C20.1599 10.9139 20.1275 11.8019 20.1815 12.6851C20.2175 13.2791 20.0447 13.5383 19.4399 13.4363C19.4399 12.3163 19.4399 11.1987 19.4399 10.0835C19.4481 10.0741 19.4533 10.0625 19.455 10.0501C19.4567 10.0378 19.4548 10.0252 19.4495 10.0139L20.1599 10.0271Z" fill="#FDF468"/>
<path d="M6.6001 16.6799C6.0889 16.8119 5.7073 16.7591 5.7601 16.0895C4.9429 15.8231 5.3677 15.1487 5.2801 14.6411L5.85489 14.6591H5.86209C5.87975 14.8587 5.87975 15.0595 5.86209 15.2591C5.76609 15.8447 6.02169 16.0535 6.58209 15.9791L6.6001 16.6799Z" fill="#B42C09"/>
<path d="M10.08 18.7129L9.26159 18.7225C8.95079 18.7225 8.63879 18.7801 8.55359 18.3301C8.49959 18.0493 8.20679 18.1477 8.00879 18.1093C8.00879 17.8789 8.01719 17.6473 8.02079 17.4169L8.60879 17.3977C8.51879 17.9869 8.72879 18.2629 9.34799 18.1033C9.75839 18.1105 10.2072 18.0721 10.0752 18.7189L10.08 18.7129Z" fill="#FDF468"/>
<path d="M8.0257 17.4168C8.0257 17.6472 8.01731 17.8788 8.01371 18.1092C7.61651 18.1536 7.1809 18.2652 7.2169 17.6088C7.2169 17.5536 7.1257 17.4408 7.0813 17.4432C6.4621 17.4744 6.5737 17.0532 6.6013 16.6836L7.30091 16.7004C7.21451 17.2344 7.4209 17.4912 7.9789 17.4204L8.0257 17.4168Z" fill="#B42C09"/>
<path d="M20.8799 18.1201H20.1467C20.1467 17.8801 20.1467 17.6401 20.1467 17.4001C20.1539 17.1961 20.1611 16.9933 20.1671 16.7905L20.7671 16.7737C21.0131 17.2045 20.8091 17.6737 20.8799 18.1201Z" fill="#B42C09"/>
<path d="M16.6801 17.4C16.8097 18.0156 16.5409 18.2244 15.9505 18.1344C15.7546 18.1171 15.5578 18.1119 15.3613 18.1188C15.2509 17.5188 15.5185 17.3076 16.0981 17.3988C16.2922 17.4132 16.4872 17.4132 16.6813 17.3988L16.6801 17.4Z" fill="#FDF468"/>
<path d="M18.72 8.04005C19.4328 8.00885 19.4328 8.00885 19.4628 9.12005C19.2972 9.42846 19.0236 9.38646 18.7428 9.33846L18.72 8.64005V8.04005Z" fill="#B42C09"/>
<path d="M15.36 18.1128C15.4344 18.5508 15.312 18.7932 14.8068 18.7284C14.5121 18.7069 14.2165 18.7017 13.9212 18.7128C13.8444 18.2172 14.07 18.054 14.5452 18.1128C14.8166 18.1296 15.0887 18.1296 15.36 18.1128Z" fill="#FDF468"/>
<path d="M19.4402 13.4402C19.4331 13.5975 19.4375 13.7551 19.4534 13.9118C19.547 14.5034 19.3334 14.7698 18.7202 14.639C18.7334 14.4636 18.7334 14.2875 18.7202 14.1122C18.6362 13.5302 18.8762 13.3154 19.4402 13.439V13.4402Z" fill="#FDF468"/>
<path d="M18.7201 14.6399C18.7103 14.896 18.7155 15.1524 18.7357 15.4079C18.8029 15.9131 18.5557 16.0331 18.1201 15.9599C18.1351 15.7273 18.1351 15.4941 18.1201 15.2615C18.0589 14.7815 18.2281 14.5643 18.7201 14.6411V14.6399Z" fill="#FDF468"/>
<path d="M20.7601 16.7784L20.1601 16.7952C20.1037 16.2636 20.1361 15.8088 20.8801 15.9624C20.8857 16.2024 20.8913 16.4424 20.8969 16.6824L20.7601 16.7784Z" fill="#FDF468"/>
<path d="M18.7512 9.33241C19.026 9.38041 19.2996 9.42241 19.4712 9.11401C19.5263 9.11763 19.5785 9.14013 19.6189 9.17773C19.6594 9.21533 19.6856 9.26572 19.6932 9.32041C19.2972 9.44641 19.4736 9.76441 19.4532 10.0188C19.4585 10.0301 19.4604 10.0427 19.4587 10.055C19.457 10.0674 19.4518 10.079 19.4436 10.0884C18.8808 10.14 18.6 9.93961 18.7512 9.33241Z" fill="#F77503"/>
<path d="M18.1201 15.9601C18.2425 16.5625 18.0025 16.8025 17.4001 16.6801C17.2957 16.0957 17.5369 15.8569 18.1201 15.9601Z" fill="#FDF468"/>
<path d="M17.4001 16.6801C17.5201 17.2801 17.2801 17.5201 16.6801 17.4001C16.5769 16.8181 16.8157 16.5757 17.4001 16.6801Z" fill="#FDF468"/>
<path d="M20.1374 17.4C20.1374 17.64 20.1374 17.88 20.1374 18.12H19.4306C19.355 17.5764 19.5302 17.28 20.1374 17.4Z" fill="#FDF468"/>
<path d="M19.4399 18.12C19.4519 18.1992 19.4627 18.2772 19.4747 18.36C19.4447 18.5076 19.5131 18.6948 19.3127 18.7752L18.7127 18.72C18.5915 18.0696 19.0223 18.0984 19.4399 18.12Z" fill="#FDF468"/>
<path d="M19.452 10.0188C19.4676 9.76442 19.2912 9.44642 19.692 9.32042C20.2824 9.26882 20.1864 9.67082 20.1588 10.0272L19.452 10.0188Z" fill="#B42C09"/>
<path d="M4.43994 13.5444L4.50714 13.4856C4.50714 13.5144 4.52034 13.5444 4.52634 13.5732C4.49644 13.5673 4.46741 13.5576 4.43994 13.5444Z" fill="#F77503"/>
<path d="M18.7129 18.7117L19.3129 18.7669C19.2133 19.0885 18.9445 18.9049 18.7549 18.9541C18.7429 18.8725 18.7273 18.7921 18.7129 18.7117Z" fill="#F77503"/>
<path d="M5.85846 14.6592L5.28006 14.64C5.28006 14.34 5.28006 14.04 5.28006 13.7412C5.28006 13.5444 5.22846 13.3476 5.00406 13.3548C4.55406 13.3692 4.55285 13.0968 4.55645 12.7704C4.56005 11.64 4.56006 10.4976 4.56006 9.35996C5.11806 9.43796 5.37486 9.22676 5.28006 8.63996C5.26379 8.44029 5.26379 8.23963 5.28006 8.03996C5.74445 8.10356 5.94005 7.91996 5.88005 7.43996C5.86195 7.16025 5.86195 6.87967 5.88005 6.59996C6.44525 6.68636 6.69005 6.45116 6.60005 5.87996C7.02005 5.89556 7.44005 5.91236 7.32005 5.27996C7.55976 5.26305 7.80035 5.26305 8.04005 5.27996C8.52005 5.34476 8.70365 5.14436 8.64005 4.67996C8.8725 4.66194 9.106 4.66194 9.33845 4.67996C9.92645 4.77236 10.1724 4.54556 10.0788 3.95996H13.9188C13.8144 4.55996 14.0772 4.76996 14.6592 4.67996C14.8921 4.66255 15.126 4.66255 15.3588 4.67996C15.2844 5.17316 15.5112 5.33756 15.9816 5.27996C16.2134 5.26437 16.4459 5.26437 16.6776 5.27996C16.6776 5.47196 16.6896 5.66516 16.6944 5.85716C16.1772 5.86436 15.66 5.87156 15.1428 5.87516C14.9856 5.87516 14.748 5.89916 14.7216 5.73476C14.6256 5.12876 14.1828 5.28236 13.8132 5.27876C13.0764 5.27276 12.3397 5.25716 11.6041 5.28716C11.2297 5.30156 10.6776 5.03276 10.626 5.76716C10.6176 5.88716 10.4293 5.87156 10.3129 5.87276C10.0933 5.87276 9.87245 5.85716 9.65645 5.87276C9.22325 5.91596 8.60165 5.61476 8.56925 6.44156C8.56925 6.48716 8.44925 6.56156 8.38445 6.56156C8.09645 6.57596 8.02445 6.74036 8.02445 6.99596C8.02883 7.03129 8.02573 7.06715 8.01538 7.10122C8.00502 7.13528 7.98764 7.16679 7.96434 7.19371C7.94104 7.22063 7.91234 7.24236 7.88011 7.25749C7.84789 7.27262 7.81285 7.28082 7.77725 7.28156C7.17005 7.25876 7.33805 7.69556 7.31645 8.02316C6.92525 8.01116 6.47645 7.93436 6.59645 8.57876L6.53765 9.23756C5.92925 9.24956 5.85126 9.59756 5.86086 10.1328C5.89686 11.6496 5.86686 13.1556 5.85846 14.6592Z" fill="#F77503"/>
<path d="M7.31996 8.03993C7.34156 7.71233 7.17356 7.27553 7.78076 7.29833C7.81636 7.29759 7.8514 7.28939 7.88362 7.27425C7.91585 7.25912 7.94454 7.23739 7.96784 7.21047C7.99114 7.18355 8.00853 7.15204 8.01889 7.11798C8.02924 7.08392 8.03234 7.04806 8.02796 7.01273C8.02796 6.75713 8.09996 6.59273 8.38796 6.57833C8.45396 6.57833 8.57156 6.50033 8.57276 6.45833C8.60516 5.63153 9.22676 5.93273 9.65996 5.88952C9.87596 5.86792 10.0968 5.88952 10.3164 5.88952C10.4364 5.88952 10.6212 5.90273 10.6296 5.78393C10.6812 5.04833 11.2296 5.31713 11.6076 5.30393C12.3432 5.27393 13.08 5.28953 13.8168 5.29553C14.1864 5.29553 14.6292 5.14553 14.7252 5.75153C14.7516 5.91593 14.9892 5.89313 15.1464 5.89193C15.6636 5.89193 16.1808 5.88113 16.698 5.87393V5.87993C16.5888 6.47033 16.8324 6.70433 17.418 6.59993H17.4252C17.2512 7.15313 17.5704 7.36193 18.0336 7.46873C17.9916 7.67153 17.9808 7.86713 18.1536 8.02313C18.0336 8.51153 18.2544 8.69633 18.7212 8.65793L18.7536 9.34912C18.5964 9.95632 18.8832 10.1567 19.4448 10.1051C19.4448 11.2251 19.4448 12.3427 19.4448 13.4579C18.8808 13.3379 18.6408 13.5491 18.7248 14.1311C18.738 14.3065 18.738 14.4826 18.7248 14.6579C18.2316 14.5811 18.0624 14.8031 18.1248 15.2783C18.1398 15.5109 18.1398 15.7442 18.1248 15.9767C17.5416 15.8735 17.3004 16.1123 17.4048 16.6967C16.8216 16.5923 16.5828 16.8347 16.6848 17.4167C16.4906 17.4311 16.2957 17.4311 16.1016 17.4167C15.522 17.3267 15.2544 17.5367 15.3648 18.1367C15.0934 18.1535 14.8213 18.1535 14.55 18.1367C14.07 18.0803 13.8492 18.2435 13.926 18.7367H10.08C10.212 18.0899 9.76316 18.1283 9.35276 18.1211C9.45596 17.5211 9.15116 17.3459 8.61356 17.4155L8.02556 17.4347L7.98236 17.4419C8.08436 16.7315 8.04956 16.6955 7.30436 16.7219C7.41476 16.1363 7.18436 15.8915 6.58436 16.0019C6.58436 15.8027 6.57596 15.6011 6.59996 15.4019C6.67076 14.8295 6.45956 14.5619 5.86316 14.6819H5.85596C5.86436 13.1783 5.89436 11.6723 5.86556 10.1687C5.85596 9.63953 5.93396 9.28553 6.54236 9.27353C6.51116 9.75353 6.61076 10.1351 7.22156 10.0799L7.24676 10.0943L7.31996 13.4519C7.33547 13.6476 7.33547 13.8442 7.31996 14.0399C7.23836 14.5307 7.41356 14.7383 7.91396 14.6399C7.92086 14.8131 7.93688 14.9857 7.96196 15.1571C8.03876 15.5495 8.22956 15.7019 8.59436 15.4211C8.56796 15.8459 8.73596 15.9791 9.18596 15.9719C11.0436 15.9399 12.9016 15.9399 14.76 15.9719C15.2628 15.9803 15.4632 15.8519 15.354 15.3527C16.0236 15.5039 16.014 15.0887 15.954 14.6327C16.5048 14.7359 16.8132 14.5883 16.6872 13.9511C16.6649 13.7576 16.6589 13.5625 16.6692 13.3679C16.6812 12.4079 16.6928 11.4515 16.704 10.4987C16.704 10.2695 16.6956 10.0355 17.0292 10.0655C17.4132 10.1003 17.466 9.86032 17.4252 9.57472C17.364 9.15592 17.7204 8.49473 16.8396 8.52113C16.7196 8.52113 16.7196 8.37953 16.7076 8.28113C16.6956 8.12153 16.6224 7.97273 16.4592 8.02553C16.0764 8.14553 15.4584 7.64513 15.3192 8.45633C15.2904 8.62553 15.0516 8.59433 14.8992 8.60153C14.5812 8.61833 14.262 8.61833 13.9392 8.62553C14.0412 8.11793 13.8192 7.98713 13.3308 8.00873C12.4224 8.04713 11.5104 8.05073 10.602 8.00873C10.0848 7.98353 9.97316 8.18873 10.0704 8.63033L8.64596 8.56313V8.54033C8.68076 8.13953 8.52596 7.94993 8.09876 8.01353C7.83994 8.03816 7.57985 8.04697 7.31996 8.03993Z" fill="#FBAE32"/>
<path d="M18.72 8.63992C18.2531 8.67832 18.0323 8.49352 18.1523 8.00513L18.72 8.03873V8.63992Z" fill="#F77503"/>
<path d="M17.4156 6.58328C16.8312 6.69008 16.5876 6.45608 16.6956 5.86328L17.3988 5.87888C17.4 6.12008 17.4108 6.34928 17.4156 6.58328Z" fill="#F77503"/>
<path d="M5.86553 14.6602C6.46553 14.5402 6.67313 14.8042 6.60233 15.3802C6.57833 15.577 6.59153 15.7786 6.58673 15.9802C6.03113 16.0558 5.77553 15.847 5.86673 15.2602C5.88398 15.0606 5.88358 14.8598 5.86553 14.6602Z" fill="#F77503"/>
<path d="M6.58813 15.9758C7.17854 15.8666 7.41254 16.1114 7.30814 16.6958L6.60013 16.6802L6.58813 15.9758Z" fill="#F77503"/>
<path d="M8.61379 17.3999C9.15139 17.3303 9.45379 17.5043 9.35299 18.1055C8.73018 18.2627 8.52019 17.9867 8.61379 17.3999Z" fill="#F77503"/>
<path d="M7.30421 16.6991C8.04941 16.6775 8.08421 16.7135 7.98221 17.4191C7.42661 17.4899 7.21781 17.2331 7.30421 16.6991Z" fill="#F77503"/>
<path d="M7.22406 10.057C6.61326 10.1122 6.51366 9.7366 6.54486 9.2506C6.56406 9.031 6.58446 8.8114 6.60366 8.5918L7.32366 8.6434C7.32366 8.8834 7.33446 9.1102 7.34046 9.3442L7.22406 10.057Z" fill="#B42C09"/>
<path d="M7.3259 8.64012L6.6059 8.58852C6.4859 7.94413 6.9299 8.02093 7.3259 8.03293C7.27669 8.23233 7.27669 8.44072 7.3259 8.64012Z" fill="#FBAE32"/>
<path d="M13.9405 8.62557C14.2597 8.61837 14.5789 8.61837 14.9005 8.60157C15.0529 8.59437 15.2917 8.62557 15.3205 8.45637C15.4597 7.64517 16.0777 8.14917 16.4605 8.02557C16.6237 7.97277 16.7005 8.12157 16.7089 8.28117C16.7161 8.37837 16.7257 8.52117 16.8409 8.52117C17.7217 8.49597 17.3653 9.15597 17.4265 9.57476C17.4673 9.86036 17.4145 10.1004 17.0305 10.0656C16.6969 10.0356 16.7077 10.2696 16.7053 10.4988C16.6957 11.4588 16.6841 12.4148 16.6705 13.3668C16.4305 13.3068 16.2349 13.4628 16.0129 13.4868C15.9973 12.6552 15.9973 11.8236 15.9589 10.9932C15.9409 10.6176 16.2061 10.0608 15.4705 10.0332C15.4381 10.0332 15.3781 9.93837 15.3829 9.89277C15.4561 9.27477 15.0229 9.33597 14.6629 9.37557C14.0965 9.43557 13.8361 9.23157 13.9321 8.64717L13.9405 8.62557ZM16.6609 9.33837C16.7221 8.58117 16.7221 8.58117 15.9769 8.65557C15.7573 8.68557 15.4237 8.47437 15.3865 8.90636C15.3457 9.38636 15.7177 9.22197 15.9601 9.25797L16.0597 9.35877C16.1197 9.57477 15.9049 9.93237 16.3249 9.95877C16.8517 9.99957 16.6357 9.59997 16.6609 9.33837Z" fill="#B42C09"/>
<path d="M15.3516 15.3516C15.4608 15.8556 15.2604 15.9792 14.7576 15.9708C12.9 15.9372 11.042 15.9372 9.18362 15.9708C8.73362 15.978 8.56562 15.8448 8.59202 15.4212C8.59202 15.4212 8.59202 15.384 8.59202 15.3852C10.848 15.4212 13.1028 15.4656 15.3564 15.3624L15.3516 15.3516Z" fill="#15100E"/>
<path d="M7.31999 13.4522L7.24438 10.0718L8.04239 10.079C7.99679 11.213 8.09998 12.3494 7.98598 13.4834L7.31999 13.4522Z" fill="#B42C09"/>
<path d="M10.0716 8.62919C9.97439 8.18759 10.086 7.98239 10.6032 8.00759C11.5116 8.05079 12.4236 8.04719 13.332 8.00759C13.8228 7.98599 14.0424 8.11679 13.9404 8.62439L13.92 8.63999H10.08L10.0716 8.62919Z" fill="#B42C09"/>
<path d="M8.64711 8.56079L10.0715 8.62919L10.0787 8.63879C10.1675 9.21359 9.91791 9.43559 9.35031 9.36599C9.11415 9.35099 8.87727 9.35099 8.64111 9.36599L8.64711 8.56079Z" fill="#B42C09"/>
<path d="M16.0093 13.483C16.2313 13.4614 16.4305 13.3054 16.6669 13.363C16.6566 13.558 16.6626 13.7535 16.6849 13.9474C16.8109 14.5846 16.5025 14.7322 15.9517 14.629L15.9625 14.6398C16.0597 14.2594 15.9937 13.8694 16.0093 13.483Z" fill="#15100E"/>
<path d="M7.31984 13.4519L7.98583 13.4819C7.98103 13.8659 7.97583 14.2503 7.97023 14.6351L7.93664 14.6135L7.90664 14.6387C7.40624 14.7407 7.23104 14.5331 7.31264 14.0387C7.33049 13.8436 7.33289 13.6474 7.31984 13.4519Z" fill="#15100E"/>
<path d="M7.32606 8.63991C7.27803 8.44279 7.27803 8.23703 7.32606 8.03991C7.58438 8.04636 7.84286 8.03715 8.10006 8.01231C8.53086 7.94871 8.68206 8.13831 8.64726 8.53911C8.44446 8.58471 8.21406 8.49231 8.03766 8.65911C7.80239 8.60293 7.558 8.5964 7.32006 8.63991H7.32606Z" fill="#B42C09"/>
<path d="M7.91162 14.6399L7.94162 14.6147L7.97522 14.6363C8.68922 14.6363 8.68922 14.6364 8.59802 15.3851C8.59802 15.3851 8.59082 15.4235 8.59802 15.4223C8.23802 15.7019 8.04242 15.5495 7.96562 15.1571C7.93854 14.9858 7.92051 14.8132 7.91162 14.6399Z" fill="#B42C09"/>
<path d="M8.04732 10.0801L7.24932 10.0729L7.22412 10.0585C7.26252 9.81847 7.30092 9.57847 7.33812 9.33847L7.98372 9.30127L8.04132 9.35887V10.0789L8.04732 10.0801Z" fill="#F77503"/>
<path d="M8.03995 8.66394C8.21635 8.49235 8.44675 8.58475 8.64955 8.54395V8.56675C8.64955 8.83314 8.64955 9.10194 8.64955 9.36954H8.04955L7.99194 9.31194L8.03995 8.66394Z" fill="#F77503"/>
<path d="M15.9516 14.6316C16.0116 15.0876 16.0212 15.5028 15.3516 15.3516L15.3624 15.3624C15.3732 14.964 15.4032 14.5836 15.9624 14.6424L15.9516 14.6316Z" fill="#15100E"/>
<path d="M8.03995 8.66386L7.98955 9.30226L7.34395 9.33945C7.34395 9.09946 7.33315 8.87265 7.32715 8.63866C7.56394 8.59778 7.80663 8.60636 8.03995 8.66386Z" fill="#FDF468"/>
<path d="M15.9601 14.64C15.4009 14.5812 15.3709 14.9616 15.3601 15.36C13.1065 15.4632 10.8517 15.4188 8.5957 15.3828C8.6869 14.6388 8.6869 14.6388 7.9729 14.6328C7.9785 14.2472 7.9837 13.8628 7.9885 13.4796C8.1025 12.3468 7.9993 11.2103 8.0449 10.0763C8.6257 10.1507 8.6821 9.78715 8.6449 9.35635C8.88106 9.34134 9.11794 9.34134 9.3541 9.35635C9.9217 9.42595 10.1713 9.20395 10.0825 8.62915H13.9225C13.8265 9.21355 14.0869 9.41755 14.6533 9.35755C15.0217 9.31795 15.4525 9.25675 15.3733 9.87475C15.3733 9.92035 15.4285 10.014 15.4609 10.0152C16.1965 10.0464 15.9313 10.6032 15.9493 10.9752C15.9877 11.8056 15.9877 12.6371 16.0033 13.4687C15.9937 13.8695 16.0597 14.2596 15.9601 14.64ZM9.3073 10.6475C8.4085 10.7123 8.4001 10.7207 8.6485 11.3315C8.6425 12.0047 8.6761 12.6803 8.6209 13.3487C8.5717 13.9355 8.7817 14.1468 9.3409 14.0508C9.3601 14.3292 9.2497 14.6592 9.7489 14.6508C11.2537 14.6316 12.7597 14.6508 14.2657 14.6436C14.6941 14.6436 14.7529 14.4563 14.5225 14.1263L14.6425 14.0424C15.1969 14.1492 15.4249 13.9595 15.3745 13.3619C15.3205 12.6959 15.3565 12.0227 15.3541 11.3531C15.4669 10.7987 15.2161 10.5887 14.6833 10.6463C14.7553 10.0079 14.3617 9.99595 13.9057 10.0703C13.7077 10.0079 13.3357 10.1904 13.3441 9.84355C13.3585 9.22315 12.9613 9.34675 12.6085 9.34675H11.3881C11.1481 9.42595 10.7089 9.14395 10.6993 9.61435C10.6885 10.1075 10.4029 10.0692 10.0909 10.0728C9.6325 9.99835 9.2401 10.0164 9.3097 10.65L9.3073 10.6475Z" fill="#F77503"/>
<path d="M15.9766 8.65554C16.7218 8.58114 16.7218 8.58114 16.6606 9.33834L16.0606 9.35874L15.961 9.25795C15.9598 9.05635 15.9706 8.85594 15.9766 8.65554Z" fill="#FDF468"/>
<path d="M15.9768 8.65538C15.9768 8.85578 15.9648 9.05618 15.96 9.25538C15.72 9.21938 15.3456 9.38138 15.3864 8.90378C15.4236 8.47418 15.7572 8.68538 15.9768 8.65538Z" fill="#F77503"/>
<path d="M16.0596 9.36L16.6596 9.3396C16.6344 9.5952 16.8504 10.0008 16.3236 9.9636C15.9048 9.9324 16.1196 9.5748 16.0596 9.36Z" fill="#F77503"/>
<path d="M8.64712 9.36011C8.67831 9.79691 8.62192 10.1605 8.04712 10.0801V9.36011H8.64712Z" fill="#B42C09"/>
<path d="M11.3882 9.35034H12.6134C12.6062 10.2567 12.5986 11.1631 12.5906 12.0695H11.4122L11.3882 9.35034Z" fill="#FDF468"/>
<path d="M9.34547 14.0531C8.78387 14.1491 8.57387 13.9331 8.62547 13.3511C8.68067 12.6827 8.64707 12.0071 8.65307 11.3339L9.33827 11.3099L10.0835 11.3003C10.6691 11.2883 10.7579 11.6423 10.6835 12.1163C10.3655 12.1103 10.0451 12.1236 9.72347 12.0936C9.40187 12.0636 9.29387 12.1691 9.31307 12.4883C9.34187 13.0055 9.33947 13.5252 9.34907 14.0424L9.34547 14.0531Z" fill="#B42C09"/>
<path d="M15.3599 11.3579C15.3599 12.0275 15.3263 12.7007 15.3803 13.3667C15.4307 13.9667 15.2027 14.1539 14.6483 14.0471C14.6579 13.8071 14.6759 13.5671 14.6771 13.3271C14.6855 12.0179 14.6843 12.0179 13.3187 12.1271C13.2767 11.6843 13.2875 11.2775 13.9031 11.2955C14.1563 11.3807 14.4119 11.3423 14.6675 11.3099L15.3599 11.3579Z" fill="#B42C09"/>
<path d="M14.5273 14.1314C14.7577 14.4614 14.6989 14.6486 14.2705 14.6486C12.7645 14.6486 11.2585 14.6366 9.75371 14.6558C9.25451 14.6558 9.3649 14.3318 9.3457 14.0558L9.3577 14.045C9.58229 14.1128 9.8219 14.1128 10.0465 14.045C10.2601 14.3762 10.4725 14.2742 10.6861 14.045L13.3057 14.0642C13.5265 14.255 13.7305 14.1206 13.9381 14.033C14.1121 14.2046 14.3209 14.1602 14.5273 14.1314Z" fill="#B42C09"/>
<path d="M10.6859 12.12C10.7555 11.64 10.6667 11.292 10.0859 11.304C10.0859 10.896 10.0859 10.488 10.0955 10.08C10.4075 10.08 10.6955 10.1148 10.7039 9.62161C10.7135 9.15121 11.1527 9.43321 11.3927 9.35401C11.3999 10.2612 11.4079 11.1688 11.4167 12.0768L10.6859 12.12Z" fill="#FBAE32"/>
<path d="M13.9021 11.2943C13.2865 11.2763 13.2757 11.6831 13.3177 12.1259L13.3201 12.1199L12.5857 12.0719C12.5929 11.1655 12.6005 10.2591 12.6085 9.35268C12.9613 9.35268 13.3585 9.23268 13.3441 9.84948C13.3357 10.1963 13.7041 10.0139 13.9057 10.0763C13.9065 10.4787 13.9053 10.8847 13.9021 11.2943Z" fill="#FBAE32"/>
<path d="M14.5272 14.1313C14.3208 14.1625 14.112 14.2045 13.938 14.0341C13.9266 13.8578 13.929 13.6809 13.9452 13.5049C14.0304 12.9985 13.8984 12.6817 13.3164 12.7141L13.3284 12.7225V12.1225L13.3212 12.1297C14.6868 12.0241 14.688 12.0241 14.6796 13.3297C14.6796 13.5697 14.6604 13.8097 14.6508 14.0497L14.5272 14.1313Z" fill="#FBFBFB"/>
<path d="M13.9019 11.2943C13.9019 10.8887 13.9047 10.4823 13.9103 10.0751C14.3663 10.0007 14.7599 10.0127 14.6879 10.6511L14.6663 11.3087C14.4107 11.3411 14.1599 11.3795 13.9019 11.2943Z" fill="#FDF468"/>
<path d="M10.0908 10.0798C10.0908 10.4878 10.0848 10.8958 10.0812 11.3038L9.33595 11.3122C9.32755 11.0926 9.31796 10.873 9.30956 10.6534C9.23996 10.0162 9.63236 9.99822 10.0908 10.0798Z" fill="#FDF468"/>
<path d="M9.30952 10.6499C9.31792 10.8695 9.32752 11.0891 9.33592 11.3087L8.65073 11.3339C8.39993 10.7231 8.41073 10.7147 9.30952 10.6499Z" fill="#FBAE32"/>
<path d="M14.6663 11.3087L14.6879 10.6511C15.2207 10.5935 15.4715 10.8035 15.3587 11.3579L14.6663 11.3087Z" fill="#FBAE32"/>
<path d="M13.3199 12.1199V12.7199C12.4421 12.8065 11.5578 12.8065 10.6799 12.7199C10.6799 12.5183 10.6883 12.3155 10.6931 12.1199L11.4191 12.0767H12.5975L13.3199 12.1199Z" fill="#B42C09"/>
<path d="M10.6872 12.1202C10.6872 12.3218 10.6776 12.5246 10.674 12.7202L10.686 12.7118C10.164 12.6914 9.95881 12.9278 10.0548 13.4498C10.0718 13.6476 10.069 13.8465 10.0464 14.0438C9.82182 14.1116 9.58221 14.1116 9.35761 14.0438C9.34801 13.5266 9.35041 13.007 9.32161 12.4898C9.30241 12.1706 9.41761 12.065 9.73201 12.095C10.0464 12.125 10.3692 12.1106 10.6872 12.1202Z" fill="#FBFBFB"/>
<path d="M10.6799 12.72C11.5626 12.8076 12.4517 12.8076 13.3343 12.72H13.3199L13.3091 14.0712L10.6895 14.052V12.72H10.6799Z" fill="#FBFBFB"/>
<path d="M10.6862 12.72V14.052C10.4726 14.2812 10.2602 14.3832 10.0466 14.052C10.0691 13.8548 10.0719 13.6558 10.055 13.458C9.96015 12.93 10.1642 12.6936 10.6862 12.72Z" fill="#15100E"/>
<path d="M13.3057 14.0652L13.3201 12.72C13.9021 12.6876 14.0341 13.0044 13.9489 13.5108C13.9326 13.6868 13.9302 13.8637 13.9417 14.04C13.7305 14.1216 13.5265 14.256 13.3057 14.0652Z" fill="#15100E"/>
</g>
</svg>
