<svg width="84" height="84" viewBox="0 0 84 84" fill="none" xmlns="http://www.w3.org/2000/svg">
<g clip-path="url(#clip0)">
<path d="M42 84C65.196 84 84 65.196 84 42C84 18.804 65.196 0 42 0C18.804 0 0 18.804 0 42C0 65.196 18.804 84 42 84Z" fill="#FA305C"/>
<path d="M42.0013 73.003C59.1231 73.003 73.003 59.1231 73.003 42.0013C73.003 24.8795 59.1231 10.9995 42.0013 10.9995C24.8795 10.9995 10.9995 24.8795 10.9995 42.0013C10.9995 59.1231 24.8795 73.003 42.0013 73.003Z" fill="white"/>
<path fill-rule="evenodd" clip-rule="evenodd" d="M42.0013 71.0666C58.0536 71.0666 71.0666 58.0536 71.0666 42.0013C71.0666 25.9489 58.0536 12.9359 42.0013 12.9359C25.9489 12.9359 12.9359 25.9489 12.9359 42.0013C12.9359 58.0536 25.9489 71.0666 42.0013 71.0666ZM73.003 42.0013C73.003 59.1231 59.1231 73.003 42.0013 73.003C24.8795 73.003 10.9995 59.1231 10.9995 42.0013C10.9995 24.8795 24.8795 10.9995 42.0013 10.9995C59.1231 10.9995 73.003 24.8795 73.003 42.0013Z" fill="white"/>
<path d="M37.3592 54.8736C37.3592 55.0784 37.3191 55.3322 37.2389 55.6352C36.9893 56.5882 36.8288 57.1316 36.7575 57.2652C36.5168 57.7819 36.1201 58.1515 35.5675 58.3742C35.9686 58.588 36.1692 58.9131 36.1692 59.3496C36.1692 59.5278 36.138 59.7327 36.0756 59.9642L35.7413 61.1935C35.5363 61.9328 35.2421 62.4717 34.8588 62.8102C34.4487 63.1754 33.8694 63.358 33.1206 63.358H25.8734L28.454 53.7378H35.728C36.8154 53.7378 37.3592 54.1164 37.3592 54.8736ZM34.0966 56.2231H30.7672L30.4196 57.5057H33.749L34.0966 56.2231ZM33.2409 59.4297H29.9115L29.5638 60.7258H32.8933L33.2409 59.4297ZM47.6605 53.7378L46.992 56.2231H41.9644L41.6301 57.4791H45.9757L45.4275 59.51H41.0819L40.0524 63.358H37.0305L39.6111 53.7378H47.6605ZM58.0908 53.7378L57.4223 56.2231H51.5791L50.3623 60.7526H53.6783L54.5341 57.5859H57.5159L56.6602 60.7526C56.3749 61.7947 55.9603 62.4984 55.4166 62.8637C54.9174 63.1933 54.1062 63.358 52.9831 63.358H49.667C48.9271 63.358 48.3879 63.2957 48.0491 63.171C47.4697 62.9661 47.18 62.5697 47.18 61.9818C47.18 61.6611 47.2468 61.2514 47.3806 60.7526L48.5973 56.2231C48.8647 55.2254 49.2881 54.5484 49.8676 54.1921C50.3667 53.8892 51.1601 53.7378 52.2476 53.7378H58.0908Z" fill="#080C1B"/>
<g clip-path="url(#clip1)">
<path d="M23.558 34.1351C20.99 39.7171 20.0467 43.8907 20.0467 43.8907C20.0467 43.8907 31.6107 42.7001 39.2421 51.4325C39.2421 51.4325 45.0943 48.7996 53.5625 51.5777C53.5625 51.5777 58.338 45.5555 64.3131 45.4244C64.3131 45.4244 63.2972 40.6244 59.6547 36.6369C60.4389 34.8118 60.8193 32.4598 60.8193 32.4598C60.8193 32.4598 60.2189 30.7634 56.3845 27.2232C56.2674 20.9188 52.5887 17.8164 52.5887 17.8164C52.5887 17.8164 48.8994 19.3231 46.7435 22.6164C46.7435 22.6164 42.9044 22.6878 39.7875 23.5869L37.4911 23.7145C37.4911 23.7145 36.042 20.8392 30.7024 19.1112C30.7024 19.1112 26.6059 20.2457 26.2243 29.3094C26.2243 29.3094 23.9841 28.7954 22.2214 34.1304C22.2237 34.1351 22.4016 34.1878 23.558 34.1351Z" fill="#080C1B"/>
<path d="M37.339 27.0141C34.6868 23.1508 31.0595 21.8325 31.0595 21.8325C31.0595 21.8325 28.302 23.7982 29.0007 28.3324C29.4993 25.7568 30.9776 24.4842 30.9776 24.4842C30.9776 24.4842 32.7403 25.7907 33.4742 28.4401C34.2081 31.0894 37.339 27.0141 37.339 27.0141Z" fill="#5F5F68"/>
<path d="M42.7617 24.9946C32.2873 24.9946 27.842 31.6677 27.842 31.6677C28.4799 31.4642 29.157 31.4148 29.8177 31.5237C29.8177 31.5237 25.9248 35.441 23.9877 40.7842C23.9877 40.7842 28.8099 40.1988 32.8199 42.7463C31.8344 34.4037 39.5114 31.4231 42.2935 33.3946C41.912 32.2929 40.5776 30.5239 37.0499 31.2873C40.1891 28.0233 46.4194 29.4282 49.6053 33.3735C49.828 32.7582 49.9758 32.1182 50.0454 31.4676C50.0454 31.4676 51.8596 32.417 52.3688 33.9495C52.4858 32.9391 53.318 31.7157 53.318 31.7157C53.318 31.7157 54.0016 32.602 54.451 34.1309C54.783 33.6785 55.2311 33.3243 55.7478 33.1056C56.2645 32.887 56.8307 32.8121 57.3865 32.8888C57.3865 32.8888 53.2361 24.9946 42.7617 24.9946Z" fill="#5F5F68"/>
<path d="M37.0498 31.2835C32.5272 32.5397 29.7345 35.9044 28.6225 41.0743C30.1092 41.3771 31.5301 41.9424 32.8186 42.7437C31.8331 34.4012 39.5101 31.4205 42.2922 33.392C41.9177 32.2903 40.5775 30.5202 37.0498 31.2835Z" fill="white"/>
<path d="M47.4897 25.583C50.2695 26.7537 52.9908 28.2288 54.791 32.1847L55.8994 33.0475C56.376 32.8803 56.8848 32.8262 57.3859 32.8895C57.3859 32.8895 54.5054 27.4128 47.4897 25.583Z" fill="#636363"/>
<path d="M55.0739 35.5585C55.6392 34.2707 56.7008 34.2227 56.7008 34.2227C56.6177 35.0262 56.3733 35.8047 55.9821 36.5114C55.7444 36.1375 55.4359 35.8138 55.0739 35.5585V35.5585Z" fill="white"/>
<path d="M44.0667 36.9212C50.1799 38.0381 50.7874 45.1397 54.3128 45.1397C56.4547 45.1397 57.2307 43.8882 57.2307 43.8882C55.8496 44.0732 54.8489 42.865 54.7728 42.0396C54.6967 41.2143 54.8805 40.1396 54.8805 40.1396C54.8805 40.1396 56.7532 40.2297 57.562 40.856C58.3111 40.4275 59.2673 40.3351 59.2673 40.3351C59.2673 40.3351 58.2619 38.744 55.6296 37.9784C55.2936 38.7347 54.4474 39.4395 54.4474 39.4395C54.4474 39.4395 52.7877 36.8159 48.7848 35.8711C49.0676 36.3918 49.242 36.9645 49.2974 37.5546C49.2974 37.5546 47.454 36.1017 44.0667 36.9212Z" fill="white"/>
<path d="M43.8372 40.2313C43.1209 39.4258 43.2731 38.6473 43.2731 38.6473C43.2731 38.6473 43.6242 38.2832 44.6671 38.2832C46.8839 38.2832 48.8807 42.2297 50.6551 43.8921C48.1094 43.0024 43.5364 45.6482 42.6797 40.7171C43.4685 42.1056 44.5676 42.115 44.5676 42.115C44.4101 41.7561 44.3546 41.3607 44.4072 40.9724C45.0884 41.7041 46.4637 41.7298 46.4637 41.7298C45.0475 40.7136 44.447 38.9201 44.447 38.9201C43.9262 39.4399 43.8372 40.2313 43.8372 40.2313Z" fill="white"/>
<path d="M43.2388 37.2733C39.7661 38.3609 41.7898 45.4578 46.4693 44.9146C51.1487 44.3713 53.1549 45.7598 53.9789 47.9046C52.6836 47.0777 51.1789 46.6386 49.6423 46.639C50.0195 46.8056 50.3516 47.0596 50.6111 47.38C50.8706 47.7005 51.0501 48.0781 51.1347 48.4818C50.2908 47.6788 49.1684 47.2348 48.0037 47.2431C45.5107 47.2431 42.9368 48.1657 40.7937 47.2607C38.4985 44.1489 39.4348 41.0875 39.4348 41.0875C38.4376 41.626 38.2269 42.7476 38.2269 42.7476C38.2269 42.7476 37.5457 37.2253 43.2388 37.2733Z" fill="white"/>
<path d="M53.9785 47.908C49.0568 42.0205 41.0673 50.4649 39.4345 41.0874C39.4345 41.0874 38.4982 44.1488 40.7934 47.2606C42.9365 48.1656 45.5103 47.2431 48.0034 47.2431C49.1672 47.2353 50.2887 47.6793 51.132 48.4817C51.0477 48.0783 50.8685 47.7008 50.6094 47.3804C50.3504 47.06 50.0187 46.8058 49.642 46.639C51.179 46.6396 52.6837 47.0799 53.9785 47.908V47.908Z" fill="white"/>
<path d="M43.5261 31.6392C44.3665 33.5662 45.3157 34.6514 45.3157 34.6514C45.3157 34.6514 46.4862 34.8142 47.5396 34.3248C47.5407 34.3248 46.4054 32.3662 43.5261 31.6392Z" fill="white"/>
<path d="M46.5053 25.356C49.2887 26.5255 51.0444 27.9409 52.0978 31.2611L53.7469 31.6392C54.4106 32.8626 56.8182 32.8252 57.3823 32.8896C57.3859 32.8896 54.2046 26.7971 46.5053 25.356Z" fill="#FA305C"/>
<path d="M49.656 23.3848C50.6485 21.5983 51.9641 21.2471 51.9641 21.2471C51.9641 21.2471 53.6812 23.3392 53.7912 26.7951C52.7804 26.0303 51.656 25.4287 50.4589 25.0121C51.1143 24.9501 51.7754 25.0299 52.3972 25.2463C52.3241 24.199 51.9591 23.1933 51.3438 22.3429C51.3438 22.3429 50.6988 22.4939 49.656 23.3848Z" fill="#FA305C"/>
<path d="M57.6214 43.1131C58.2139 42.5662 58.7008 41.915 59.0576 41.1919C58.6607 41.2661 58.2759 41.3945 57.914 41.5736C57.7094 42.0604 57.6096 42.585 57.6214 43.1131V43.1131Z" fill="#FA305C"/>
<path d="M52.5982 17.1343L52.1136 17.3684C51.5242 17.6472 50.954 17.9652 50.4071 18.3202C49.8635 18.6732 49.3417 19.0587 48.8445 19.4746C48.3493 19.888 47.8773 20.3285 47.4306 20.794C47.2071 21.0281 46.9894 21.2622 46.7787 21.5128C46.6733 21.6299 46.5703 21.7598 46.4685 21.8874C46.4685 21.8874 41.8628 21.8792 39.7899 23.5967C43.0964 22.8322 47.1099 23.5896 47.1099 23.5896L47.4084 23.1705C47.4388 23.1284 47.4856 23.0652 47.5254 23.0113L47.6577 22.8415C47.7478 22.7245 47.8414 22.6156 47.9363 22.5044C48.1259 22.2819 48.3248 22.0642 48.5285 21.8511C48.9353 21.4263 49.3651 21.0242 49.816 20.6464C50.2679 20.2668 50.7424 19.915 51.2369 19.5928C51.5728 19.3739 51.9205 19.1737 52.2739 18.9875C52.6871 19.4429 53.0625 19.9311 53.3964 20.4474C53.6118 20.7822 53.8084 21.13 53.991 21.4859C54.1736 21.8418 54.3328 22.2082 54.4767 22.5816C54.7645 23.3327 54.9823 24.1086 55.1275 24.8997C55.2012 25.2954 55.2563 25.6946 55.2914 26.0938C55.3101 26.2928 55.3218 26.4919 55.33 26.6897C55.33 26.7888 55.3323 26.8872 55.337 26.9847V27.1287V27.2552L55.3253 27.6942L55.6846 27.9412L55.749 27.9857L55.8251 28.0396L55.9784 28.1566C56.0814 28.2351 56.1844 28.3182 56.2851 28.4025C56.4864 28.5722 56.6819 28.7537 56.8703 28.9375C57.2509 29.309 57.603 29.7085 57.9237 30.1328C58.2414 30.5536 58.5244 30.9996 58.77 31.4663C58.9815 31.8721 59.1615 32.2936 59.3084 32.7271C59.2452 33.0104 59.1808 33.2926 59.1035 33.5736C59.0134 33.9189 58.9081 34.2619 58.7992 34.6014C58.6904 34.941 58.5651 35.2781 58.4352 35.6094C58.3708 35.7757 58.3018 35.9384 58.2315 36.1011L58.125 36.3353C58.0899 36.4126 58.049 36.498 58.0185 36.5577L57.7025 37.1876L58.2959 37.5564C58.9298 37.9522 59.5206 38.4132 60.0586 38.932C60.1944 39.0596 60.3208 39.1954 60.4496 39.3288C60.5783 39.4623 60.7 39.6039 60.8147 39.7491C61.0504 40.0345 61.2674 40.3348 61.4643 40.6482C62.059 41.5853 62.4697 42.6271 62.6746 43.7179C62.7062 43.8982 62.7343 44.0784 62.753 44.2576C62.7536 44.2614 62.7536 44.2654 62.753 44.2693C62.2848 44.4597 61.8291 44.6708 61.3859 44.9026C60.7648 45.2334 60.1651 45.6029 59.5904 46.009C59.0185 46.4103 58.4713 46.8459 57.9518 47.3132C57.4359 47.7725 56.9543 48.269 56.511 48.7988C57.0377 48.3651 57.5955 47.9706 58.18 47.6187C58.7567 47.2671 59.3539 46.9504 59.9685 46.6704C60.5747 46.3943 61.1979 46.1569 61.8342 45.9598C62.4602 45.7673 63.0989 45.6187 63.7455 45.5149L64.3179 45.4236V44.6896V44.5994L64.3097 44.4273C64.3027 44.3102 64.2921 44.2037 64.2816 44.0937C64.257 43.8736 64.2243 43.657 64.1856 43.4427C64.1061 43.0152 63.999 42.5932 63.8649 42.1795C63.5987 41.3538 63.229 40.5651 62.7647 39.8322C62.5343 39.4652 62.2805 39.1132 62.0051 38.7786C61.8716 38.6088 61.7242 38.4508 61.5814 38.2892C61.4386 38.1277 61.2841 37.9755 61.1272 37.828C60.671 37.392 60.1815 36.9923 59.663 36.6327C59.7297 36.4781 59.7941 36.3236 59.8538 36.1644C59.9966 35.8038 60.1281 35.4397 60.2482 35.0721C60.3653 34.7045 60.4823 34.3357 60.5783 33.9611C60.6743 33.5864 60.7656 33.2118 60.8463 32.8337L60.8885 32.6417L60.8276 32.452C60.6442 31.8653 60.4092 31.2961 60.1253 30.7509C59.8416 30.2109 59.5144 29.6948 59.1468 29.2079C58.7807 28.7236 58.3793 28.267 57.946 27.8417C57.7294 27.6298 57.507 27.4249 57.2729 27.2294C57.1559 27.1311 57.0389 27.0351 56.9148 26.9402L56.8715 26.9075C56.8715 26.815 56.8715 26.7213 56.8656 26.6288C56.8563 26.4017 56.8434 26.1769 56.8223 25.9522C56.7825 25.5038 56.7205 25.0601 56.6397 24.6187C56.4768 23.7346 56.2331 22.8674 55.9117 22.0279C55.749 21.6076 55.5606 21.1967 55.3628 20.7928C55.1586 20.3913 54.934 20.0005 54.6898 19.6221C54.0796 18.7233 53.3787 17.8897 52.5982 17.1343V17.1343Z" fill="#FA305C"/>
<path d="M57.3206 32.7635L57.2328 32.5938L57.3206 32.7635Z" fill="white"/>
<path d="M57.3422 32.809L57.3185 32.7651L57.3422 32.809Z" fill="white"/>
<path d="M57.3568 32.8301C57.3568 32.8215 57.3483 32.813 57.3446 32.8057L57.3568 32.8301Z" fill="white"/>
<path d="M57.3877 32.8936L57.3558 32.832C57.3664 32.851 57.3759 32.8711 57.3877 32.8936Z" fill="white"/>
<path d="M53.7502 32.4183C54.0428 32.9646 54.2781 33.5398 54.4525 34.1345C54.7842 33.6816 55.2324 33.3268 55.7494 33.1079C56.2664 32.889 56.833 32.8142 57.3891 32.8912C55.8348 31.8458 54.4033 32.1712 53.7502 32.4183Z" fill="white"/>
<path d="M50.0506 31.4688C46.3262 26.8714 38.0839 25.7627 32.7279 31.5929C33.6292 31.0368 35.2198 30.7184 37.0422 31.2908L37.0621 31.2803C40.2059 28.0327 46.4257 29.4423 49.6058 33.3771C49.8302 32.7612 49.9795 32.1205 50.0506 31.4688V31.4688Z" fill="white"/>
<path d="M37.3837 49.5213C36.7141 48.9291 36.0107 48.3764 35.2769 47.8659C33.8016 46.84 32.2254 45.9676 30.5729 45.2622C28.9114 44.5518 27.1872 43.998 25.4229 43.608C23.9541 43.2823 22.4644 43.0594 20.9646 42.9407C21.1016 42.3799 21.2549 41.8238 21.4328 41.2735C21.9662 39.6169 22.6649 38.0182 23.5186 36.5017C23.7316 36.1239 23.9544 35.752 24.1869 35.386C24.3039 35.2045 24.421 35.0242 24.538 34.8475L24.7218 34.5852C24.7815 34.5021 24.8494 34.4096 24.9009 34.3417L25.9543 32.9825L24.2501 33.1101L23.4788 33.1663C23.4832 33.1592 23.4883 33.1525 23.494 33.1464C23.7942 32.7462 24.1166 32.3632 24.4596 31.9991C24.8049 31.6291 25.1689 31.2721 25.5446 30.9255C25.7331 30.7534 25.9238 30.5825 26.117 30.4163C26.3101 30.25 26.5126 30.0826 26.7022 29.9374L27.0065 29.7033L26.9925 29.3111C26.9925 29.2093 26.9925 29.077 26.9925 28.9599C26.9925 28.8428 26.9925 28.7164 27.003 28.5935C27.0124 28.3476 27.0287 28.1018 27.0475 27.8547C27.0873 27.3622 27.145 26.8713 27.2207 26.382C27.3675 25.4099 27.5974 24.4523 27.9078 23.5195C28.2107 22.6038 28.6254 21.7289 29.1426 20.9147C29.5723 20.2414 30.0992 19.6354 30.7063 19.1165C31.2174 19.3217 31.7195 19.5453 32.2127 19.7873C32.8338 20.0922 33.4386 20.4294 34.0245 20.7976C34.6096 21.1634 35.1731 21.5625 35.7123 21.9929C35.9792 22.2072 36.239 22.4296 36.4883 22.6602C36.6132 22.775 36.7345 22.892 36.8523 23.0115L37.0244 23.1906L37.1052 23.2784L37.173 23.3556L37.4961 23.7209C34.8099 19.0649 30.4547 17.3838 30.4547 17.3838L30.1187 17.6343C29.2262 18.3105 28.4616 19.1407 27.8609 20.0858C27.2757 21.006 26.807 21.9955 26.4658 23.0314C26.1259 24.0474 25.8745 25.0908 25.7143 26.1502C25.6363 26.677 25.5743 27.2054 25.5282 27.7353C25.5072 28.0011 25.4896 28.2668 25.4791 28.5337C25.4791 28.6672 25.4697 28.8018 25.4674 28.9365V28.9693C25.3503 29.0653 25.2333 29.1613 25.1221 29.2596C24.9145 29.4375 24.7105 29.6186 24.5099 29.8028C24.1096 30.1728 23.7187 30.5568 23.3395 30.9583C22.959 31.3646 22.6015 31.7918 22.2685 32.2379C21.9177 32.7 21.6134 33.1957 21.3603 33.7177L20.7984 34.899L22.1082 34.8018L22.7859 34.7515C22.5791 35.0832 22.3797 35.418 22.1878 35.7559C21.2839 37.362 20.5436 39.0548 19.978 40.8088C19.6962 41.6885 19.4618 42.5826 19.2757 43.4874L19.0919 44.4017H20.0119C21.7519 44.3693 23.4916 44.4801 25.2134 44.733C26.9427 44.9876 28.6445 45.4031 30.2966 45.974C31.9592 46.5462 33.5586 47.2877 35.0697 48.1867C35.8283 48.6378 36.5603 49.1323 37.262 49.6676C37.9707 50.2014 38.6335 50.7935 39.2436 51.4378C38.678 50.7483 38.0559 50.1072 37.3837 49.5213V49.5213Z" fill="#080C1B"/>
<path d="M52.3404 29.3777C52.3972 30.0151 52.3141 30.6571 52.097 31.259C51.246 29.8542 48.9871 28.3428 48.9871 28.3428C48.9871 28.3428 49.1322 30.4922 48.5786 32.0282L49.6952 33.0982C49.8648 32.5672 49.9805 32.0205 50.0405 31.4663C51.0526 32.0338 51.8642 32.9008 52.3638 33.9482C53.1152 33.0456 53.3131 31.7145 53.3131 31.7145C53.6953 32.2586 54.0027 32.8516 54.2272 33.4776L55.2221 32.966C54.4379 30.7018 52.3404 29.3777 52.3404 29.3777Z" fill="white"/>
</g>
<path d="M95.1586 3.61719L75.0959 15.8397L63.4065 31.3768L82.1013 19.9415L95.1586 3.61719Z" fill="#FA305C"/>
<path d="M57.2058 4.13525L44.0068 12.1303L39.1214 20.2635L48.6155 14.8133L57.2058 4.13525Z" fill="white"/>
<path d="M35.3569 64.3271L26.7891 68.5825L19.5607 78.1672L31.121 71.1128L35.3569 64.3271Z" fill="white"/>
<path d="M39.0605 66.0654L18.9977 78.2879L7.30829 93.825L26.0031 82.3897L39.0605 66.0654Z" fill="#FA305C"/>
<path d="M27.8523 48.4956L-0.65913 65.8592L-17.2712 87.9316L9.29632 71.6863L27.8523 48.4956Z" fill="#FA305C"/>
<path d="M70.2536 -13.2856L47.6919 0.479199L34.5465 17.9769L55.5698 5.09859L70.2536 -13.2856Z" fill="#FA305C"/>
<path d="M84.2787 41.9998C84.7778 41.9998 85.1833 42.4046 85.1729 42.9036C84.9403 54.0286 80.4197 64.6486 72.5349 72.5334C64.6502 80.4181 54.0301 84.9387 42.9051 85.1714C42.4061 85.1818 42.0013 84.7762 42.0013 84.2772L42.0013 80.9027C42.0013 80.4037 42.406 80.0002 42.905 79.9884C52.6556 79.7567 61.9579 75.7823 68.8709 68.8694C75.7839 61.9564 79.7582 52.6541 79.9899 42.9034C80.0017 42.4045 80.4052 41.9998 80.9043 41.9998L84.2787 41.9998Z" fill="white"/>
<path d="M42 -0.279228C42 -0.778305 41.5952 -1.18387 41.0962 -1.17344C29.9712 -0.940804 19.3511 3.57979 11.4664 11.4645C3.58165 19.3493 -0.938945 29.9693 -1.17158 41.0943C-1.18202 41.5933 -0.77645 41.9981 -0.277373 41.9981L3.09703 41.9981C3.59611 41.9981 3.99957 41.5934 4.01142 41.0945C4.24311 31.3439 8.21744 22.0416 15.1304 15.1286C22.0434 8.21558 31.3457 4.24125 41.0964 4.00957C41.5953 3.99771 42 3.59425 42 3.09517L42 -0.279228Z" fill="white"/>
</g>
<defs>
<clipPath id="clip0">
<rect width="84" height="84" rx="42" fill="white"/>
</clipPath>
<clipPath id="clip1">
<rect width="45.225" height="34.5519" fill="white" transform="translate(19.0908 17.0439)"/>
</clipPath>
</defs>
</svg>
