<svg width="24" height="24" viewBox="0 0 24 24" fill="none" xmlns="http://www.w3.org/2000/svg">
<path d="M24 12C24 18.6274 18.6274 24 12 24C5.37258 24 0 18.6274 0 12C0 5.37258 5.37258 0 12 0C18.6274 0 24 5.37258 24 12Z" fill="black"/>
<path d="M6.05509 13.4089C6.21709 13.9709 6.40109 14.4839 6.7281 14.9199C7.19309 15.5399 8.30209 15.6779 8.94009 15.2389C9.19009 15.0669 9.02409 14.9849 8.89609 14.8809C7.82309 14.0039 6.83209 13.0339 5.79609 12.1159C4.98209 11.3959 4.16209 10.6749 3.31909 9.83792H4.38709C5.43609 9.83792 6.48709 9.84492 7.53409 9.83792C7.67258 9.8367 7.8099 9.86333 7.93788 9.91624C8.06586 9.96916 8.1819 10.0473 8.27909 10.1459C9.43909 11.1779 10.5731 12.2389 11.7531 13.2459C12.0531 13.5009 12.1191 13.2979 12.2531 13.1819C13.3531 12.2019 14.4461 11.2189 15.5261 10.2189C15.6518 10.0902 15.8031 9.98923 15.9701 9.92241C16.1371 9.8556 16.3163 9.82443 16.4961 9.83092C17.8261 9.85392 19.1571 9.83992 20.6071 9.83992C18.6331 11.6239 16.7311 13.3399 14.8301 15.0639C15.9031 16.1189 17.1691 15.4389 17.8451 13.4009C18.1941 14.0279 18.5331 14.6439 18.8811 15.2549C18.9641 15.4009 18.9711 15.4879 18.8271 15.6169C17.0761 17.1849 15.3491 18.7799 13.5781 20.3249C13.1021 20.7399 12.6451 21.1739 12.1711 21.5899C12.0021 21.7389 11.9491 21.7439 11.7581 21.5669C10.4831 20.3839 9.17909 19.2309 7.87909 18.0739C6.97642 17.2699 6.06842 16.4719 5.15509 15.6799C5.00209 15.5469 4.95509 15.3999 5.04309 15.2419C5.36309 14.6339 5.70009 14.0369 6.05509 13.4089ZM10.6401 17.5769C10.3651 17.6669 10.0911 17.8169 10.0791 18.1849C10.0651 18.5769 10.3581 18.7519 10.6791 18.7699C10.7552 18.7768 10.832 18.7672 10.904 18.7417C10.9761 18.7162 11.0418 18.6754 11.0966 18.6221C11.1514 18.5688 11.194 18.5043 11.2216 18.433C11.2491 18.3616 11.2609 18.2852 11.2561 18.2089C11.2571 17.8749 11.0661 17.6189 10.6401 17.5769ZM13.8241 18.2339C13.8181 17.8789 13.6241 17.6429 13.2771 17.5959C12.8921 17.5429 12.6831 17.8459 12.6381 18.1509C12.5841 18.5099 12.8591 18.7439 13.2021 18.7719C13.5451 18.7999 13.7521 18.5859 13.8241 18.2339Z" fill="#AE0C39"/>
<path d="M12 17.4167L3.25 9.91675H7.83333L12 13.2501L15.75 9.91675H20.3333L12 17.4167Z" fill="url(#paint0_linear_12552_70365)"/>
<path d="M11.955 2.3501C12.255 2.9021 12.526 3.3831 12.787 3.8691C13.479 5.1561 14.166 6.4471 14.861 7.7331C14.968 7.9331 15.035 8.0241 14.796 8.2481C13.956 9.0401 13.038 9.7431 12.217 10.5481C12.029 10.7321 11.9 10.7361 11.717 10.5721C10.853 9.7861 9.99097 8.9951 9.11697 8.2221C8.90497 8.0361 8.97898 7.8691 9.07098 7.6991C9.83698 6.2861 10.613 4.8791 11.382 3.4671C11.561 3.1411 11.724 2.8001 11.955 2.3501Z" fill="#F98B58"/>
<path d="M12.7871 3.86885C12.5261 3.38285 12.2551 2.90185 11.9551 2.34985V10.6864L12.2171 10.5478C13.0381 9.74285 13.9561 9.03985 14.7961 8.24785C15.0351 8.02385 14.9681 7.93285 14.8611 7.73285C14.1661 6.44685 13.4791 5.15585 12.7871 3.86885Z" fill="url(#paint1_linear_12552_70365)"/>
<defs>
<linearGradient id="paint0_linear_12552_70365" x1="11.7917" y1="9.91675" x2="11.7917" y2="17.4167" gradientUnits="userSpaceOnUse">
<stop stop-color="#75063A"/>
<stop offset="1" stop-color="#DF0F37"/>
</linearGradient>
<linearGradient id="paint1_linear_12552_70365" x1="13.4567" y1="2.34985" x2="13.4567" y2="10.6864" gradientUnits="userSpaceOnUse">
<stop stop-color="#EDC367"/>
<stop offset="1" stop-color="#F24F32"/>
</linearGradient>
</defs>
</svg>
