<svg width="24" height="24" viewBox="0 0 24 24" fill="none" xmlns="http://www.w3.org/2000/svg">
<circle cx="12" cy="12" r="12" fill="#272626"/>
<rect x="1.83862" y="12.2454" width="14.9282" height="14.9282" rx="2.5" transform="rotate(-45 1.83862 12.2454)" fill="url(#paint0Bnx)"/>
<mask id="mask0Bnx" style="mask-type:alpha" maskUnits="userSpaceOnUse" x="0" y="0" width="24" height="24">
<circle cx="12" cy="12" r="12" fill="#C4C4C4"/>
</mask>
<g mask="url(#mask0Bnx)">
<path d="M21.9627 11.9999C21.9627 15.8531 22.0203 17.8181 22.0287 21.6725C22.0287 22.0061 21.9915 22.1129 21.6099 22.1117C13.8795 22.0965 10.7716 22.0965 3.04197 22.1117C2.69637 22.1117 3.04194 22.0242 3.04194 21.705C3.05234 13.977 2.99474 10.7446 2.98434 3.01665C2.98434 2.70225 2.63395 2.60745 2.98435 2.60865C10.7355 2.62225 13.8611 2.62224 21.6099 2.60864C21.9255 2.60864 21.9699 2.69984 21.9699 2.98424C21.9603 6.85704 21.9579 8.12467 21.9627 11.9999ZM9.14761 13.8875C8.76961 13.2143 8.34001 12.5675 8.06761 11.8379C7.66321 10.7351 7.37281 9.62266 7.77841 8.38426C8.49121 10.3187 9.66161 11.4739 11.2896 11.8499C11.1456 10.9523 10.8996 10.0391 11.6868 9.26747C12.0324 9.83147 12.276 10.4087 12.7188 10.8539C13.4904 11.6291 14.466 11.6447 15.2232 10.8887C15.3792 10.7339 15.5184 10.5611 15.6876 10.4219C15.9276 10.2275 15.9588 10.0415 15.8148 9.75587C15.6564 9.44372 15.5694 9.10025 15.5601 8.75035C15.5507 8.40044 15.6193 8.05282 15.7608 7.73266C15.8412 7.53106 15.9264 7.23826 16.1292 7.22386C16.4028 7.20466 16.3512 7.54426 16.4256 7.72546C17.1252 9.43066 17.91 9.83747 20.058 9.49187C19.9296 9.34907 19.818 9.21227 19.6908 9.08627C17.8548 7.24627 16.0176 5.41146 14.1792 3.58186C13.0992 2.51386 11.8248 2.50786 10.7496 3.58186C8.37201 5.94826 6.00161 8.32187 3.63841 10.7027C3.24076 11.0898 3.00668 11.6146 2.98436 12.1692C2.96203 12.7237 3.15317 13.2656 3.51841 13.6835C4.18633 14.4537 4.90815 15.1755 5.67841 15.8434C6.17641 16.3594 6.66841 16.8814 7.17361 17.389C8.37361 18.589 9.56281 19.789 10.7736 20.9806C11.6976 21.8854 12.9756 22.0294 13.8528 21.2206C15.2016 19.9786 16.4712 18.6502 17.7732 17.3566C17.8932 17.2366 17.9796 17.1166 17.832 16.945C17.6844 16.7734 17.5668 16.825 17.4108 16.9174C16.9056 17.1994 16.3824 17.4502 15.888 17.7478C15.5089 17.9712 15.0639 18.056 14.6292 17.9878C13.1892 17.821 11.7384 17.6614 10.29 17.5174C9.93601 17.4826 9.77881 17.3638 10.0176 17.047C10.2984 16.6738 10.0716 16.513 9.77761 16.381C9.38761 16.2046 9.25921 15.9154 9.20881 15.4966C9.14641 14.9518 9.21601 14.4179 9.14761 13.8863V13.8875ZM13.4928 13.7495C13.9032 13.8011 14.1576 13.8299 14.4096 13.7495C14.7696 13.6451 14.9316 13.4099 14.874 13.0295C14.8416 12.8099 14.724 12.7151 14.5668 12.8879C14.286 13.1999 13.92 13.3919 13.4928 13.7483V13.7495Z" fill="#272626"/>
</g>
<path d="M13.4922 13.7476C13.9158 13.3876 14.2854 13.1992 14.5662 12.892C14.7234 12.7192 14.841 12.814 14.8734 13.0336C14.931 13.414 14.7654 13.6492 14.409 13.7536C14.1594 13.828 13.9026 13.7992 13.4922 13.7476Z" fill="#EE4F47"/>
<defs>
<linearGradient id="paint0Bnx" x1="15.9961" y1="12.9855" x2="2.38095" y2="26.6006" gradientUnits="userSpaceOnUse">
<stop stop-color="#F15F3E"/>
<stop offset="1" stop-color="#EE2456"/>
</linearGradient>
</defs>
</svg>
