<svg viewBox="0 0 24 24" fill="none" xmlns="http://www.w3.org/2000/svg">
    <path d="M23.6428 14.8996C22.0467 21.3374 15.52 25.2389 9.09988 23.6428C2.67972 22.0466 -1.24001 15.5203 0.356132 9.10039C1.95227 2.66258 8.46126 -1.23895 14.8993 0.357193C21.3372 1.97099 25.239 8.4797 23.6428 14.8996Z" fill="#F7941D"/>
    <path d="M17.1995 10.2163C17.4298 8.6202 16.224 7.76889 14.5567 7.18378L15.0889 5.02019L13.7763 4.68336L13.2444 6.79371L12.1981 6.54543L12.73 4.41715L11.4177 4.08032L10.8855 6.24391C10.6017 6.17302 10.3181 6.11978 10.0519 6.04888L8.24305 5.58764L7.88829 6.98874L8.84609 7.21937C9.37795 7.36116 9.48444 7.69826 9.46678 7.98185L8.84609 10.447C8.8814 10.4646 8.93464 10.4646 8.98788 10.4825C8.9523 10.4649 8.89905 10.4649 8.84609 10.447L7.97685 13.9052C7.90595 14.0649 7.7465 14.3132 7.37381 14.2244C7.39174 14.242 6.41629 13.9937 6.41629 13.9937L5.76001 15.5013L7.48029 15.927L8.42043 16.1753L7.87064 18.3565L9.18292 18.6933L9.71506 16.5297C10.0698 16.6362 10.4243 16.7248 10.7614 16.7957L10.2293 18.9416L11.5418 19.2784L12.0916 17.0972C14.344 17.5228 16.0287 17.3455 16.7382 15.3237C17.3057 13.6919 16.7027 12.7521 15.5322 12.1314C16.3835 11.954 17.0221 11.3866 17.1995 10.2161V10.2163ZM14.1843 14.4373C13.7763 16.069 11.0273 15.1821 10.1231 14.9695L10.85 12.0787C11.7545 12.2914 14.61 12.735 14.1843 14.4373ZM14.5923 10.1987C14.2199 11.6883 11.9319 10.9259 11.1871 10.7485L11.8433 8.12365C12.5882 8.30102 14.9824 8.63785 14.5923 10.1987Z" fill="#FFFDFA"/>
</svg>
