<svg viewBox="0 0 26 26" fill="none" xmlns="http://www.w3.org/2000/svg">
    <path d="M13 25C19.6274 25 25 19.6274 25 13C25 6.37258 19.6274 1 13 1C6.37258 1 1 6.37258 1 13C1 19.6274 6.37258 25 13 25Z" fill="#FFFDFA"/>
    <path d="M13.0001 5.89871C10.0636 5.89871 7.66357 8.28464 7.66357 11.2353C7.66357 11.8281 7.76261 12.4071 7.94606 12.9718C8.07295 13.3531 8.49668 13.5646 8.89199 13.4377C9.27295 13.3106 9.48482 12.8871 9.35764 12.4918C9.20301 12.0524 9.13127 11.5881 9.14606 11.1224C9.20261 9.13182 10.812 7.4943 12.8026 7.39526C15.0189 7.28244 16.8542 9.04713 16.8542 11.2353C16.8542 13.2824 15.2448 14.9624 13.2261 15.0753C13.2261 15.0753 12.4776 15.1177 12.1107 15.174L11.6873 15.2446C11.6448 15.2587 11.6026 15.2165 11.6167 15.174L11.7436 14.5528L12.4354 11.3622C12.5201 10.9669 12.2661 10.5715 11.8707 10.4869C11.4754 10.4022 11.0801 10.6562 10.9954 11.0515L9.31544 18.9009C9.23075 19.2962 9.48482 19.6915 9.88013 19.7762C10.2754 19.8609 10.6707 19.6069 10.7554 19.2115C10.7695 19.1269 10.9954 18.0962 10.9954 18.0962C11.1648 17.3056 11.8142 16.7269 12.5767 16.6281C12.7461 16.6 13.4095 16.5575 13.4095 16.5575C16.1626 16.3456 18.3367 14.0446 18.3367 11.235C18.3367 8.28437 15.9367 5.89844 13.0001 5.89844V5.89871Z" fill="#191326"/>
    <path d="M13.3812 18.1813C12.9012 18.0825 12.4212 18.3791 12.3221 18.8731C12.2234 19.3531 12.5199 19.8331 13.014 19.9319C13.494 20.0306 13.974 19.7344 14.0728 19.24C14.1715 18.7457 13.8752 18.28 13.3812 18.1813Z" fill="#E6007A"/>
    <g style="mix-blend-mode:multiply" opacity="0.05">
        <path d="M12.9999 24.6088C19.4113 24.6088 24.6088 19.4113 24.6088 12.9999C24.6088 6.58856 19.4113 1.39111 12.9999 1.39111C6.58856 1.39111 1.39111 6.58856 1.39111 12.9999C1.39111 19.4113 6.58856 24.6088 12.9999 24.6088Z" stroke="#191326"/>
    </g>
</svg>
