<svg viewBox="0 0 24 24" fill="none" xmlns="http://www.w3.org/2000/svg">
    <path d="M12 24C18.6274 24 24 18.6274 24 12C24 5.37258 18.6274 0 12 0C5.37258 0 0 5.37258 0 12C0 18.6274 5.37258 24 12 24Z" fill="#F5F3F3"/>
    <path d="M12 16.2435V20.4231L17.144 13.2002L12 16.2435Z" fill="#2F3030"/>
    <path d="M12 9.79419V15.1741L17.144 12.1305L12 9.79419Z" fill="#191326"/>
    <path d="M12 3.6001V9.7943L17.144 12.1306L12 3.6001Z" fill="#2F3030"/>
    <path d="M12 16.2435V20.4231L6.85596 13.2L12 16.2435Z" fill="#828384"/>
    <path d="M12 9.79419V15.1741L6.85596 12.1305L12 9.79419Z" fill="#343535"/>
    <path d="M12 3.6001V9.7943L6.85596 12.1306L12 3.6001Z" fill="#828384"/>
</svg>
