<svg width="24" height="24" viewBox="0 0 24 24" fill="none" xmlns="http://www.w3.org/2000/svg">
<g clip-path="url(#clip0_12438:69726)">
<circle cx="12" cy="12" r="12" fill="white"/>
<g style="mix-blend-mode:multiply" opacity="0.2">
<g style="mix-blend-mode:multiply" opacity="0.2">
<path fill-rule="evenodd" clip-rule="evenodd" d="M12 23.2174C18.1952 23.2174 23.2174 18.1952 23.2174 12C23.2174 5.80478 18.1952 0.782621 12 0.782621C5.80483 0.782621 0.782622 5.80478 0.782622 12C0.782622 18.1952 5.80483 23.2174 12 23.2174ZM12 24C18.6275 24 24 18.6274 24 12C24 5.3726 18.6275 0 12 0C5.3726 0 0 5.3726 0 12C0 18.6274 5.3726 24 12 24Z" fill="#191326"/>
</g>
</g>
<path d="M13.1354 18.5491C12.9372 18.7441 12.8279 18.9688 12.7433 19.2075C12.6289 19.5374 12.5524 19.8792 12.5151 20.2263C12.5073 20.2968 12.4844 20.3187 12.4213 20.2799C11.8401 19.922 11.1842 19.7742 10.5353 19.6071C10.1474 19.5066 9.77222 19.3782 9.43791 19.1507C9.26448 19.0344 9.10927 18.893 8.97736 18.7311C8.87288 18.6026 8.72772 18.5135 8.56582 18.4786C8.05237 18.3534 7.61368 18.0988 7.27232 17.6933C7.02784 17.4051 6.8755 17.0502 6.83504 16.6745C6.81423 16.4982 6.73242 16.3603 6.5695 16.2866C6.21685 16.1268 6.04617 15.6846 6.29585 15.2992C6.33727 15.2361 6.36447 15.1647 6.37555 15.0901C6.38664 15.0154 6.38134 14.9392 6.36003 14.8668C6.16149 14.0885 6.17101 13.318 6.45136 12.558C6.51801 12.3775 6.48028 12.265 6.32864 12.1507C6.05005 11.9413 5.86668 11.6719 5.8092 11.3231C5.79713 11.2412 5.75759 11.1658 5.69706 11.1094C5.6596 11.0762 5.63017 11.0349 5.61099 10.9886C5.59181 10.9424 5.58338 10.8924 5.58632 10.8424C5.58756 10.8307 5.58756 10.8189 5.58632 10.8072C5.55106 10.5755 5.64557 10.4193 5.85575 10.3191C6.03207 10.2352 6.04935 10.0768 6.02255 9.90546C5.99674 9.73281 6.02991 9.55651 6.1167 9.40505C6.15262 9.34122 6.1962 9.282 6.24648 9.22873C6.26785 9.20644 6.28447 9.18003 6.29532 9.15111C6.30617 9.12219 6.31103 9.09137 6.3096 9.06052C6.28104 8.35946 6.58713 7.80475 7.06955 7.32833C7.21521 7.18267 7.37571 7.05266 7.54844 6.94042C7.60817 6.90259 7.65129 6.84346 7.66904 6.77503C7.86159 6.13286 8.11972 5.51961 8.48436 4.95432C8.86381 4.36576 9.34023 3.87911 9.97287 3.55679C10.453 3.30801 10.9965 3.20842 11.5337 3.27079C12.7757 3.40974 13.5963 4.11397 14.1013 5.22515C14.2596 5.57321 14.3312 5.94349 14.3587 6.32329C14.3577 6.34208 14.3617 6.36082 14.3703 6.37756C14.3789 6.39429 14.3918 6.40843 14.4077 6.4185C15.1007 6.84943 15.6067 7.45422 16.0126 8.15034C16.5722 9.10311 16.8856 10.1804 16.9242 11.2846C16.9392 11.5778 16.93 11.8718 16.8967 12.1634C16.89 12.2244 16.9023 12.286 16.932 12.3398C17.153 12.7756 17.3031 13.2439 17.3767 13.7271C17.5048 14.5887 17.3139 15.3745 16.804 16.0845C16.2976 16.788 15.6607 17.354 14.9642 17.8629C14.431 18.2529 13.9186 18.6708 13.475 19.1649C13.3364 19.3206 13.2145 19.4904 13.1114 19.6716C13.098 19.6949 13.0927 19.7375 13.0564 19.7301C13.0201 19.7227 13.0264 19.6836 13.0261 19.6561C13.0183 19.2985 12.9993 18.9395 13.1319 18.5957C13.1342 18.5803 13.1354 18.5647 13.1354 18.5491ZM11.4734 14.3336C11.4265 14.3336 11.4028 14.3336 11.3813 14.3336C11.0361 14.3093 10.6909 14.2804 10.3453 14.2603C9.5765 14.2158 8.81973 14.2874 8.08834 14.5343C7.6299 14.688 7.20496 14.9007 6.85408 15.2424C6.73665 15.357 6.6157 15.4709 6.56774 15.6363C6.55578 15.6713 6.55186 15.7086 6.55625 15.7453C6.56065 15.7821 6.57325 15.8174 6.59312 15.8486C6.613 15.8798 6.63965 15.9062 6.67108 15.9257C6.70252 15.9452 6.73794 15.9574 6.77474 15.9614C6.84515 15.9707 6.91656 15.9548 6.97645 15.9166L7.2702 15.752L7.29454 15.7643C7.17605 16.2619 7.12915 16.7517 7.39539 17.2207C7.65741 17.6792 8.06894 17.9369 8.57781 18.1055C8.53514 18.0061 8.50023 17.9292 8.46955 17.852C8.3232 17.481 8.22446 17.0994 8.23257 16.6967C8.23257 16.6745 8.2227 16.6431 8.24456 16.6311C8.27348 16.6156 8.29005 16.6491 8.30839 16.6642C8.45262 16.7853 8.60588 16.8952 8.76683 16.9929C8.86402 17.0559 8.96938 17.1053 9.07998 17.1396C9.01989 16.9335 8.99112 16.7195 8.99464 16.5049C9.05212 16.5458 9.0969 16.5835 9.14663 16.6106C9.64738 16.9009 10.1827 16.9834 10.7505 16.8797C11.2131 16.7954 11.5936 16.5796 11.8669 16.1928C12.1667 15.7696 12.2446 15.302 12.1184 14.7804C12.0581 14.873 11.9809 14.9533 11.8909 15.0174C11.7994 15.0767 11.6946 15.1122 11.5859 15.1207C11.4828 15.1267 11.3798 15.1063 11.2868 15.0615C11.2908 15.0574 11.2955 15.0539 11.3006 15.0512C11.7636 14.8975 11.856 14.3541 11.5083 14.0141C11.4026 13.915 11.2831 13.8319 11.1535 13.7673C11.4833 13.7172 11.764 13.762 12.0122 14.006C11.9487 13.6953 11.8072 13.4059 11.601 13.165C11.9357 13.1822 12.1829 13.3356 12.4079 13.5412C12.3059 13.1894 12.1249 12.8654 11.8789 12.594C11.6321 12.3225 11.3284 12.1289 10.974 11.979C11.0798 11.9437 11.1606 11.9109 11.2449 11.8866C11.4429 11.8313 11.6467 11.7989 11.8521 11.79C11.5464 11.6419 11.2417 11.5876 10.9247 11.5703C10.9409 11.528 10.9737 11.5174 10.9984 11.4998C11.3863 11.2106 11.6839 10.8512 11.8535 10.3942C11.9554 10.1199 12.0193 9.83739 12.0002 9.54188C11.9974 9.49603 11.9946 9.44102 11.9322 9.43432C11.8698 9.42762 11.813 9.42057 11.7855 9.49603C11.7725 9.52917 11.7523 9.55901 11.7264 9.58341C11.7005 9.6078 11.6695 9.62613 11.6356 9.63709C11.6021 9.64877 11.5725 9.66965 11.5503 9.69734C11.5281 9.72503 11.5142 9.75841 11.5101 9.79367C11.4993 9.84826 11.494 9.90378 11.4942 9.95941C11.4975 10.0799 11.4846 10.2003 11.4557 10.3173C11.3447 10.7694 11.0925 11.0843 10.6172 11.1887C10.4203 11.2376 10.2198 11.2707 10.0177 11.2878C9.84839 11.2977 9.74789 11.3509 9.70416 11.5438C9.64985 11.7801 9.5162 11.967 9.27922 12.058C9.18082 12.1006 9.07049 12.107 8.96784 12.076L9.04718 12.0323C9.35081 11.8651 9.41993 11.6475 9.36456 11.3301C9.32119 11.0854 9.11524 10.9461 8.86698 10.9775C8.73642 10.9937 8.61562 11.055 8.52547 11.1508C8.43532 11.2466 8.38149 11.3709 8.37328 11.5022C8.36834 11.6083 8.37413 11.7147 8.39056 11.8196C8.33837 11.7798 8.30063 11.7406 8.2897 11.6944C8.25197 11.5393 8.13489 11.4952 7.99947 11.4666C7.74909 11.413 7.55338 11.5255 7.48955 11.7639C7.42184 12.0167 7.53222 12.2329 7.76532 12.3041C7.8247 12.3203 7.8861 12.3279 7.94763 12.3267C7.91237 12.3972 7.89897 12.411 7.83796 12.4406C7.66481 12.5249 7.45323 12.4836 7.30053 12.3369C7.14784 12.1902 7.03605 12.2089 6.93837 12.4001C6.68517 12.8938 6.58784 13.4227 6.60935 13.976C6.61555 14.1698 6.63915 14.3627 6.67988 14.5523C6.71514 14.7081 6.82376 14.7554 6.96411 14.6792C6.98209 14.6693 6.99937 14.658 7.0163 14.6464C7.30193 14.4558 7.61139 14.3036 7.9367 14.1936C8.07212 14.1471 8.09081 14.1122 8.05766 13.9704C7.97267 13.6121 7.93988 13.2524 8.01746 12.8888C8.05867 12.6744 8.1459 12.4714 8.27313 12.2939C8.2851 12.3266 8.28658 12.3622 8.27736 12.3958C8.25104 12.6145 8.24055 12.8348 8.24597 13.0549C8.25091 13.282 8.27066 13.5063 8.36904 13.7158C8.46743 13.9253 8.60849 13.9979 8.83277 13.958C9.43227 13.8523 10.0258 13.884 10.6175 14.0014C10.9216 14.0558 11.2122 14.1686 11.4734 14.3336ZM11.1398 9.93472C11.1313 9.67976 11.0851 9.43538 10.9472 9.21392C10.9175 9.15751 10.8695 9.11286 10.811 9.08724C10.7526 9.06163 10.6873 9.05656 10.6256 9.07286C10.5364 9.08979 10.4465 9.10284 10.3569 9.11941C9.90941 9.19765 9.47234 9.32685 9.05423 9.5045C8.849 9.59407 8.77741 9.73442 8.80738 9.95588C8.8289 10.1009 8.86933 10.2424 8.92763 10.3769C8.94833 10.4352 8.98297 10.4874 9.02852 10.5292C9.07407 10.5709 9.12915 10.6008 9.18894 10.6164C9.31475 10.6482 9.42919 10.7145 9.51937 10.8079C9.55954 10.8511 9.60895 10.8846 9.6639 10.9061C9.71886 10.9275 9.77795 10.9362 9.83675 10.9317C10.0946 10.9192 10.3504 10.8795 10.5999 10.8132C10.7071 10.7863 10.8059 10.7329 10.8871 10.658C10.9683 10.583 11.0294 10.4888 11.0647 10.384C11.118 10.2404 11.1431 10.0878 11.1387 9.93472H11.1398ZM10.9712 8.05971C10.9462 8.05971 10.9359 8.05971 10.9289 8.05971C10.9088 8.05689 10.8887 8.05301 10.8682 8.04949C10.2987 7.94757 9.73519 7.95815 9.18295 8.14752C8.93398 8.23286 8.69842 8.34324 8.52245 8.54989C8.40396 8.68918 8.3567 8.8454 8.40925 9.02455C8.41937 9.06788 8.44427 9.10632 8.47967 9.13329C8.51506 9.16025 8.55874 9.17405 8.6032 9.17231C8.65615 9.17197 8.7086 9.16206 8.75801 9.14304C9.4633 8.89618 10.1799 8.6846 10.9155 8.54354C11.1976 8.48959 11.4466 8.53754 11.6426 8.765C11.6635 8.78597 11.6872 8.80379 11.7132 8.8179C11.7403 8.83482 11.7714 8.85528 11.8027 8.83271C11.8341 8.81014 11.8193 8.77946 11.8151 8.7509C11.7904 8.62281 11.74 8.50105 11.667 8.39296C11.4554 8.04737 11.1796 7.77689 10.779 7.66052C10.7164 7.63501 10.648 7.62708 10.5812 7.63759C10.7413 7.74688 10.8743 7.89125 10.9702 8.05971H10.9712ZM7.57313 11.1693C7.63207 11.1251 7.67313 11.0611 7.68879 10.9891C7.74749 10.7532 7.72372 10.5044 7.62144 10.2838C7.57348 10.178 7.49907 10.1445 7.3834 10.1717C7.1168 10.2338 6.86607 10.3399 6.61816 10.4538C6.46775 10.5202 6.32686 10.6063 6.19922 10.7098C6.14245 10.7571 6.10048 10.8156 6.10507 10.8904C6.12129 11.163 6.17841 11.425 6.33287 11.656C6.46088 11.8475 6.76275 11.9427 6.9761 11.8644C7.05615 11.8351 7.12104 11.791 7.13444 11.6962C7.08612 11.6916 7.04204 11.6895 6.99902 11.6828C6.98033 11.68 6.95423 11.6828 6.94577 11.6595C6.93554 11.6299 6.9627 11.6186 6.97927 11.6041C7.19086 11.4257 7.33474 11.2007 7.44406 10.9503C7.46404 10.9047 7.48689 10.8605 7.51247 10.8177C7.52622 10.7941 7.53821 10.7557 7.57418 10.767C7.60345 10.7758 7.59852 10.811 7.59746 10.8375C7.59746 10.8872 7.58899 10.9366 7.58758 10.9863C7.58476 11.0427 7.55444 11.097 7.57207 11.1693H7.57313ZM14.881 10.6033C14.8193 10.6386 14.7703 10.664 14.7223 10.6926C14.5865 10.7726 14.5629 10.8445 14.6211 10.9934C14.6413 11.042 14.6589 11.0916 14.6736 11.1422C14.7032 11.2472 14.7107 11.3572 14.6956 11.4653C14.6805 11.5733 14.6431 11.677 14.5858 11.7699C14.5661 11.6821 14.5506 11.6087 14.5322 11.5364C14.5149 11.4625 14.4874 11.3913 14.4508 11.3249C14.4077 11.2508 14.3781 11.1521 14.2667 11.1616C14.1552 11.1711 14.1387 11.2779 14.1045 11.3584C14.0745 11.4289 14.0971 11.4874 14.1623 11.5347C14.4321 11.723 14.4684 12.0368 14.2501 12.2855C14.2325 12.3056 14.2226 12.3158 14.2416 12.3429C14.3718 12.5281 14.5664 12.5422 14.7145 12.375C14.7598 12.325 14.7973 12.2684 14.8256 12.2072C15.0217 11.7794 15.1271 11.3333 15.1077 10.8601C15.0975 10.5822 15.0506 10.318 14.8609 10.0994C14.7304 9.95059 14.5749 9.87936 14.3756 9.92626C14.1764 9.97316 14.054 10.1026 13.9849 10.2849C13.9362 10.4129 13.9525 10.4277 14.0837 10.4052C14.1009 10.402 14.1189 10.3977 14.1355 10.3953C14.4091 10.3572 14.6571 10.4168 14.8799 10.6033H14.881ZM9.5765 6.48304C9.57828 6.46677 9.58158 6.45072 9.58637 6.43508C9.67956 6.24004 9.79996 6.05921 9.94396 5.898C9.45766 5.94349 8.53655 7.04445 8.5503 7.50359C9.15685 6.83145 9.92773 6.52923 10.8273 6.47422C10.7301 6.40851 10.6214 6.36185 10.5068 6.33669C10.1841 6.2651 9.88224 6.35009 9.5765 6.48304ZM14.0777 7.40555C14.0812 7.20631 14.0449 7.03598 13.9366 6.87165C14.1549 6.88752 14.2892 7.03351 14.4592 7.12555C14.4606 7.11443 14.4606 7.10318 14.4592 7.09205C14.4525 7.07266 14.4448 7.05362 14.4363 7.03492C14.3573 6.85585 14.2147 6.71247 14.036 6.63256C13.9743 6.60435 13.9595 6.57437 13.9719 6.5049C13.9909 6.40083 13.9885 6.29396 13.9647 6.19086C13.9409 6.08777 13.8963 5.99062 13.8336 5.9054C13.8109 5.86254 13.7776 5.82614 13.737 5.79961C13.7557 6.00838 13.7934 6.21115 13.6982 6.41815C13.6439 6.32858 13.6002 6.24994 13.5501 6.17553C13.4764 6.06621 13.4309 6.032 13.3449 6.01049C13.4535 6.25311 13.4859 6.50067 13.4179 6.75739C13.4045 6.80606 13.4408 6.81699 13.4725 6.8318C13.6051 6.89544 13.7247 6.98322 13.8252 7.09064C13.9147 7.1912 13.999 7.29631 14.0777 7.40555ZM16.3656 11.5812C16.3342 11.8083 16.2997 12.0104 16.1703 12.1874C16.1527 12.1592 16.1431 12.1268 16.1424 12.0936C16.1221 11.9567 16.0672 11.8272 15.983 11.7173C15.9724 11.7032 15.9615 11.6849 15.9428 11.6877C15.9241 11.6905 15.9262 11.7061 15.9301 11.723C15.9872 11.9698 15.9227 12.1984 15.8084 12.4166C15.8035 12.4229 15.7999 12.4301 15.7979 12.4379C15.7958 12.4456 15.7954 12.4536 15.7966 12.4615C15.7978 12.4694 15.8006 12.477 15.8048 12.4838C15.809 12.4905 15.8146 12.4964 15.8211 12.5009C16.0489 12.6899 16.1653 12.9474 16.263 13.2235C16.3321 13.0483 16.3363 12.8542 16.2746 12.6762C16.4425 12.739 16.5409 12.8582 16.641 12.9735C16.6968 12.8938 16.6809 12.8225 16.641 12.7478C16.5928 12.6469 16.5235 12.5576 16.4379 12.4858C16.3804 12.4403 16.379 12.4001 16.4097 12.3362C16.5289 12.0869 16.4908 11.8425 16.3656 11.5816V11.5812ZM7.48038 9.69775C7.41579 9.61197 7.36903 9.51413 7.34285 9.40999C7.3342 9.3755 7.3166 9.34391 7.29183 9.3184C7.26707 9.29289 7.23601 9.27437 7.20179 9.2647C6.91544 9.17372 6.51096 9.38213 6.4235 9.66989C6.3967 9.75875 6.36285 9.85679 6.44854 9.93296C6.53423 10.0091 6.61393 9.95377 6.69539 9.92309C6.94753 9.82611 7.19368 9.71291 7.48038 9.69775ZM7.75826 9.81024C7.8044 9.84799 7.84448 9.89259 7.87711 9.94248C7.89509 9.97246 7.91237 9.98339 7.94763 9.96364C8.05278 9.90374 8.17186 9.8726 8.29287 9.87336C8.31862 9.87336 8.34506 9.86807 8.34154 9.8381C8.33129 9.75369 8.33379 9.66822 8.34894 9.58455C8.35423 9.55739 8.33378 9.53624 8.31156 9.51896C8.21065 9.44421 8.13153 9.34387 8.08236 9.22831C8.0332 9.11276 8.01579 8.98617 8.03192 8.86163C8.03544 8.82213 8.02627 8.80415 7.98431 8.82425C7.8161 8.90535 7.69408 9.02455 7.67187 9.21921C7.66086 9.29679 7.67127 9.37592 7.70198 9.44801C7.73268 9.52011 7.78251 9.58245 7.84607 9.62828C7.89862 9.66918 7.9561 9.70409 8.01605 9.74465C7.936 9.78591 7.84925 9.78273 7.75826 9.80848V9.81024ZM8.04778 10.6566C8.04391 10.7215 8.04179 10.7684 8.03756 10.8149C8.03333 10.8615 8.02557 10.9077 8.02028 10.9542C8.00617 11.0695 8.04003 11.1249 8.13841 11.158C8.18743 11.1746 8.21494 11.1655 8.22693 11.1115C8.26219 10.9468 8.35988 10.8209 8.48718 10.7165C8.61449 10.6122 8.61766 10.5846 8.54713 10.4418C8.53549 10.4182 8.52421 10.3946 8.51187 10.3713C8.45333 10.2623 8.36517 10.2214 8.24104 10.2443C8.13524 10.2641 8.06471 10.3403 8.0492 10.4559C8.04208 10.5215 8.04161 10.5877 8.04778 10.6534V10.6566ZM12.0644 9.05205C12.021 9.05205 11.984 9.05452 11.9762 9.09402C11.9685 9.13352 11.9981 9.15256 12.0281 9.16737C12.0496 9.1768 12.0717 9.18458 12.0944 9.19064C12.4727 9.30518 12.8443 9.44057 13.2077 9.59619C13.4066 9.68258 13.6026 9.77498 13.7941 9.8783C13.8647 9.91357 13.8999 9.8783 13.9281 9.82505C13.9599 9.76404 13.8929 9.76757 13.8682 9.75452C13.43 9.53075 12.9764 9.33854 12.5109 9.17936C12.3657 9.12433 12.2164 9.08071 12.0644 9.04888V9.05205Z" fill="#010000"/>
<path d="M11.4733 14.3336C11.2129 14.1689 10.9231 14.0561 10.6199 14.0014C10.0281 13.8839 9.43286 13.8529 8.83513 13.958C8.61084 13.9975 8.46732 13.9227 8.3714 13.7157C8.27548 13.5087 8.25326 13.282 8.24832 13.0549C8.24291 12.8347 8.25339 12.6144 8.27971 12.3958C8.28893 12.3622 8.28745 12.3266 8.27548 12.2939C8.14737 12.4711 8.0593 12.6741 8.01734 12.8888C7.93835 13.2524 7.97115 13.6124 8.05543 13.9703C8.08858 14.1114 8.06989 14.1467 7.93447 14.1936C7.60916 14.3035 7.2997 14.4558 7.01407 14.6464C6.99679 14.658 6.9788 14.6693 6.96188 14.6792C6.82082 14.7553 6.7122 14.7081 6.67764 14.5522C6.63692 14.3626 6.61331 14.1698 6.60712 13.976C6.5856 13.4237 6.68293 12.8955 6.93613 12.4C7.03382 12.2089 7.14525 12.1884 7.2983 12.3369C7.45135 12.4854 7.66188 12.5249 7.83291 12.4406C7.89392 12.4109 7.90908 12.3954 7.94258 12.3267C7.88104 12.3279 7.81965 12.3203 7.76026 12.3041C7.52717 12.2336 7.41679 12.0167 7.4845 11.7638C7.54832 11.5255 7.74404 11.4112 7.99442 11.4666C8.12983 11.4951 8.24691 11.5392 8.28465 11.6944C8.29558 11.7406 8.33331 11.7797 8.3855 11.8196C8.36908 11.7146 8.36329 11.6083 8.36822 11.5022C8.37643 11.3709 8.43027 11.2466 8.52042 11.1508C8.61057 11.0549 8.73137 10.9936 8.86193 10.9774C9.10878 10.9475 9.31613 11.0868 9.35951 11.3301C9.41628 11.6475 9.34717 11.8651 9.04213 12.0322L8.96948 12.0756C9.07214 12.1066 9.18246 12.1002 9.28087 12.0576C9.51785 11.9663 9.6515 11.7797 9.70581 11.5434C9.74953 11.3505 9.85004 11.2966 10.0193 11.2874C10.2214 11.2703 10.4219 11.2372 10.6188 11.1883C11.0942 11.0825 11.3463 10.769 11.4574 10.3169C11.4862 10.1999 11.4991 10.0795 11.4958 9.95901C11.4957 9.90337 11.501 9.84786 11.5117 9.79326C11.5158 9.75801 11.5298 9.72463 11.552 9.69694C11.5742 9.66925 11.6037 9.64837 11.6372 9.63669C11.6711 9.62573 11.7021 9.6074 11.728 9.583C11.7539 9.55861 11.7741 9.52877 11.7871 9.49563C11.8146 9.42017 11.8763 9.42757 11.9338 9.43392C11.9913 9.44027 11.9991 9.49563 12.0019 9.54148C12.0209 9.83699 11.9571 10.1195 11.8552 10.3938C11.6856 10.8523 11.3879 11.2102 11 11.4994C10.9753 11.5177 10.9425 11.5283 10.9263 11.5699C11.2437 11.5872 11.548 11.6404 11.8538 11.7896C11.6483 11.7985 11.4446 11.8309 11.2465 11.8862C11.1622 11.9105 11.0804 11.9426 10.9757 11.9786C11.3301 12.1285 11.6327 12.3221 11.8806 12.5936C12.1266 12.865 12.3075 13.189 12.4095 13.5408C12.1845 13.3352 11.9373 13.1818 11.6027 13.1645C11.8089 13.4055 11.9504 13.6949 12.0139 14.0056C11.767 13.7616 11.4849 13.7168 11.1552 13.7669C11.2848 13.8315 11.4043 13.9146 11.5099 14.0137C11.8576 14.3537 11.7653 14.8953 11.3022 15.0508C11.2971 15.0535 11.2925 15.0569 11.2885 15.0611C11.3815 15.1059 11.4844 15.1263 11.5875 15.1203C11.6962 15.1118 11.801 15.0763 11.8926 15.017C11.9826 14.9529 12.0597 14.8726 12.12 14.78C12.2463 15.3016 12.1683 15.7674 11.8686 16.1924C11.5953 16.5803 11.2148 16.795 10.7521 16.8793C10.1843 16.983 9.64903 16.9005 9.14827 16.6102C9.09855 16.5817 9.05377 16.5439 8.99628 16.5044C8.99277 16.7191 9.02154 16.9331 9.08162 17.1392C8.97103 17.1049 8.86566 17.0555 8.76848 16.9925C8.60753 16.8948 8.45427 16.7849 8.31004 16.6638C8.2917 16.6487 8.27477 16.6152 8.24621 16.6307C8.22434 16.6427 8.23457 16.6741 8.23422 16.6963C8.22611 17.099 8.32485 17.4806 8.4712 17.8516C8.50188 17.9295 8.53679 18.0057 8.57946 18.1051C8.07059 17.9365 7.65905 17.6819 7.39704 17.2203C7.13079 16.7527 7.17769 16.2615 7.29618 15.7639L7.27185 15.7516L6.9781 15.9162C6.91821 15.9544 6.8468 15.9703 6.77638 15.961C6.73959 15.957 6.70416 15.9448 6.67273 15.9253C6.64129 15.9058 6.61465 15.8794 6.59477 15.8482C6.5749 15.817 6.56229 15.7817 6.5579 15.7449C6.5535 15.7082 6.55743 15.6709 6.56938 15.6359C6.61734 15.4705 6.7383 15.3566 6.85573 15.242C7.20591 14.9003 7.63155 14.6876 8.08999 14.5339C8.82243 14.287 9.57921 14.2165 10.3469 14.2599C10.6925 14.28 11.0377 14.3089 11.383 14.3332C11.4027 14.335 11.4253 14.3336 11.4733 14.3336ZM9.8719 14.9581C9.07598 14.8974 8.32238 15.0061 7.66858 15.5118C8.46203 15.5668 9.17719 15.3047 9.87084 14.9581H9.8719ZM9.1377 11.4898C9.13845 11.4634 9.13394 11.4372 9.12444 11.4125C9.11494 11.3879 9.10064 11.3654 9.08236 11.3463C9.06408 11.3272 9.04219 11.312 9.01797 11.3015C8.99375 11.2909 8.96768 11.2853 8.94127 11.285C8.79422 11.285 8.65104 11.4384 8.65598 11.5861C8.65598 11.6238 8.6648 11.6478 8.70923 11.6471C8.75319 11.6453 8.79695 11.654 8.83692 11.6724C8.87689 11.6907 8.91193 11.7184 8.93916 11.7529C8.95502 11.7727 8.97125 11.7882 8.99487 11.7624C9.06329 11.6838 9.13099 11.602 9.13664 11.4898H9.1377ZM7.9179 11.681C7.80611 11.681 7.73241 11.7444 7.71618 11.8464C7.70955 11.9064 7.7247 11.9668 7.75887 12.0166C7.79305 12.0663 7.84398 12.1022 7.90238 12.1175C7.94858 12.1306 7.97291 12.1306 7.97115 12.0696C7.97456 11.9928 8.0071 11.9202 8.06213 11.8665C8.08858 11.8365 8.15628 11.8249 8.13795 11.7776C8.12243 11.7381 8.0653 11.7229 8.02228 11.7042C7.98873 11.6905 7.95306 11.6826 7.91684 11.681H7.9179Z" fill="#FCAE33"/>
<path d="M11.1388 9.93461C11.1423 10.0878 11.1164 10.2402 11.0622 10.3835C11.027 10.4883 10.9659 10.5825 10.8847 10.6575C10.8035 10.7325 10.7047 10.7858 10.5975 10.8127C10.348 10.8792 10.0922 10.9192 9.83434 10.9319C9.77553 10.9365 9.71644 10.9277 9.66149 10.9063C9.60653 10.8849 9.55713 10.8513 9.51696 10.8081C9.42677 10.7148 9.31234 10.6485 9.18653 10.6166C9.12673 10.6011 9.07165 10.5711 9.0261 10.5294C8.98055 10.4876 8.94592 10.4354 8.92522 10.3772C8.86691 10.2427 8.82648 10.1011 8.80497 9.95612C8.77675 9.73465 8.84834 9.5943 9.05182 9.50473C9.46992 9.32708 9.90699 9.19788 10.3545 9.11964C10.4441 9.10307 10.534 9.09002 10.6232 9.07309C10.6849 9.05679 10.7502 9.06186 10.8086 9.08748C10.867 9.1131 10.915 9.15775 10.9448 9.21415C11.0855 9.43526 11.1303 9.67964 11.1388 9.93461ZM10.8979 9.79355C10.8997 9.78186 10.8997 9.76997 10.8979 9.75828C10.8799 9.70292 10.9332 9.61052 10.8591 9.59501C10.7808 9.57808 10.7611 9.674 10.7382 9.73183C10.6873 9.87228 10.6185 10.0055 10.5333 10.1282C10.4275 10.2717 10.3157 10.4103 10.2071 10.5531C10.1824 10.5849 10.1471 10.6159 10.1701 10.6618C10.193 10.7076 10.2423 10.7055 10.2857 10.7041C10.5065 10.696 10.6712 10.6 10.7695 10.3976C10.8623 10.2061 10.8894 10.0016 10.8979 9.79284V9.79355ZM9.20028 9.99032C9.21005 10.1023 9.24283 10.2111 9.29655 10.3098C9.34275 10.4029 9.38895 10.4103 9.46582 10.3398C9.63685 10.1822 9.69927 9.97904 9.70597 9.75511C9.70844 9.66236 9.64497 9.60841 9.55363 9.61229C9.34769 9.62075 9.20275 9.76816 9.20028 9.98962V9.99032Z" fill="#FE1646"/>
<path d="M10.97 8.0595C10.8743 7.89167 10.7416 7.7478 10.5821 7.63879C10.6489 7.62828 10.7173 7.6362 10.7799 7.66172C11.1805 7.77809 11.4563 8.04963 11.6679 8.39416C11.7399 8.50179 11.7895 8.62279 11.8139 8.74998C11.8181 8.77854 11.8294 8.81169 11.8015 8.83179C11.7737 8.85189 11.7391 8.83391 11.712 8.81698C11.686 8.80287 11.6622 8.78505 11.6414 8.76408C11.4454 8.53663 11.1957 8.48867 10.9143 8.54262C10.1787 8.68368 9.46313 8.89527 8.75678 9.14212C8.70737 9.16114 8.65492 9.17105 8.60198 9.17139C8.55751 9.17313 8.51383 9.15933 8.47844 9.13237C8.44305 9.10541 8.41815 9.06696 8.40802 9.02363C8.35548 8.84449 8.40273 8.68827 8.52122 8.54897C8.69754 8.34232 8.93276 8.23159 9.18172 8.1466C9.73397 7.95723 10.2975 7.94665 10.867 8.04857C10.8875 8.05209 10.9076 8.05597 10.9277 8.05879C10.9361 8.06056 10.9442 8.0595 10.97 8.0595Z" fill="#FCAE33"/>
<path d="M7.57192 11.1694C7.55429 11.0971 7.58462 11.0428 7.58638 10.986C7.58638 10.9363 7.59449 10.8869 7.59625 10.8372C7.59625 10.8115 7.60225 10.7762 7.57298 10.7667C7.53771 10.7554 7.52502 10.7938 7.51127 10.8175C7.48568 10.8602 7.46283 10.9045 7.44285 10.9501C7.33353 11.2004 7.1886 11.4254 6.97807 11.6039C6.96149 11.6183 6.93434 11.6296 6.94456 11.6592C6.95303 11.6832 6.97983 11.6797 6.99781 11.6825C7.04084 11.6892 7.08492 11.6913 7.13323 11.6959C7.11983 11.7908 7.05494 11.8349 6.97489 11.8641C6.76154 11.9424 6.45968 11.8472 6.33167 11.6557C6.17721 11.4247 6.12008 11.162 6.10386 10.8901C6.09927 10.814 6.14124 10.7568 6.19801 10.7096C6.32566 10.606 6.46655 10.5199 6.61696 10.4535C6.86381 10.3403 7.1156 10.2342 7.3822 10.1714C7.49786 10.1443 7.57227 10.1792 7.62023 10.2836C7.72252 10.5041 7.74629 10.753 7.68759 10.9889C7.672 11.061 7.63094 11.1251 7.57192 11.1694ZM6.81832 10.8168C6.81373 10.7882 6.8095 10.7536 6.8028 10.7191C6.79187 10.6613 6.7559 10.6422 6.69983 10.6549C6.55524 10.6881 6.4156 10.8312 6.39867 10.9779C6.38209 11.1096 6.40337 11.2433 6.46003 11.3634C6.50799 11.4649 6.56194 11.4723 6.62472 11.3806C6.73834 11.2134 6.80518 11.0189 6.81832 10.8171V10.8168Z" fill="#FE1646"/>
<path d="M14.88 10.6034C14.6571 10.4168 14.4092 10.3565 14.1345 10.3918C14.1172 10.3942 14.0992 10.3985 14.0827 10.4016C13.9515 10.4242 13.9353 10.4094 13.9839 10.2814C14.0545 10.098 14.1775 9.96965 14.3747 9.92275C14.5718 9.87585 14.7294 9.94708 14.8599 10.0959C15.0514 10.3145 15.0983 10.5787 15.1067 10.8566C15.1244 11.3298 15.0189 11.7759 14.8246 12.2037C14.7963 12.2649 14.7588 12.3215 14.7135 12.3715C14.5654 12.5387 14.3708 12.5246 14.2406 12.3394C14.2216 12.3123 14.2315 12.302 14.2491 12.2819C14.4674 12.0351 14.4311 11.7195 14.1613 11.5312C14.0961 11.4857 14.0735 11.4275 14.1035 11.3548C14.1387 11.2744 14.1514 11.1679 14.2657 11.1581C14.3799 11.1482 14.4067 11.2473 14.4498 11.3213C14.4865 11.3878 14.5139 11.459 14.5312 11.5329C14.5499 11.6052 14.5665 11.6786 14.5848 11.7664C14.6421 11.6735 14.6795 11.5698 14.6946 11.4617C14.7097 11.3537 14.7022 11.2437 14.6726 11.1387C14.6579 11.0881 14.6403 11.0385 14.6201 10.9899C14.5619 10.841 14.5848 10.7691 14.7213 10.689C14.7693 10.664 14.8183 10.6379 14.88 10.6034Z" fill="#FCAE33"/>
<path d="M9.57664 6.48299C9.88239 6.35004 10.1843 6.26505 10.5069 6.33664C10.6215 6.3618 10.7303 6.40847 10.8275 6.47417C9.92788 6.52918 9.15699 6.8314 8.55045 7.50354C8.53669 7.0451 9.4578 5.94344 9.9441 5.89795C9.8001 6.05916 9.6797 6.23999 9.58652 6.43503C9.58172 6.45067 9.57842 6.46673 9.57664 6.48299Z" fill="#FE1646"/>
<path d="M14.0778 7.40572C13.9983 7.29618 13.9132 7.19083 13.8228 7.0901C13.7224 6.98268 13.6028 6.8949 13.4702 6.83126C13.4384 6.81645 13.4021 6.80552 13.4155 6.75686C13.4861 6.50013 13.4508 6.25257 13.3425 6.00995C13.4286 6.03147 13.4741 6.06567 13.5478 6.17499C13.5978 6.2494 13.6416 6.32804 13.6959 6.41761C13.7911 6.21061 13.7534 6.00784 13.7347 5.79907C13.7753 5.8256 13.8085 5.862 13.8313 5.90487C13.894 5.99009 13.9386 6.08723 13.9624 6.19033C13.9862 6.29342 13.9886 6.40029 13.9695 6.50436C13.9572 6.57489 13.972 6.60381 14.0337 6.63202C14.2132 6.71183 14.3565 6.85566 14.4357 7.03544C14.4442 7.05414 14.452 7.07318 14.4587 7.09257C14.46 7.1037 14.46 7.11495 14.4587 7.12608C14.2904 7.03403 14.1543 6.88804 13.936 6.87217C14.045 7.0365 14.0831 7.20683 14.0778 7.40572Z" fill="#FE1646"/>
<path d="M16.3656 11.5815C16.4908 11.8425 16.5289 12.0869 16.4104 12.3366C16.3797 12.4004 16.3811 12.4406 16.4386 12.4861C16.5242 12.5579 16.5935 12.6473 16.6417 12.7481C16.6809 12.8229 16.6967 12.8941 16.6417 12.9738C16.5416 12.8585 16.4432 12.7393 16.2753 12.6765C16.337 12.8545 16.3328 13.0486 16.2637 13.2238C16.166 12.9477 16.0496 12.6903 15.8218 12.5012C15.8153 12.4967 15.8097 12.4909 15.8055 12.4841C15.8013 12.4773 15.7985 12.4697 15.7973 12.4618C15.7961 12.4539 15.7965 12.4459 15.7986 12.4382C15.8006 12.4305 15.8042 12.4232 15.8091 12.417C15.9234 12.1987 15.9879 11.9712 15.9308 11.7233C15.9269 11.7064 15.9269 11.6905 15.9435 11.688C15.9601 11.6856 15.9731 11.7036 15.9837 11.7177C16.0679 11.8281 16.1226 11.9582 16.1424 12.0957C16.1431 12.1289 16.1527 12.1613 16.1702 12.1895C16.2997 12.0107 16.3342 11.8086 16.3656 11.5815Z" fill="#FE1646"/>
<path d="M7.48048 9.69779C7.19378 9.71472 6.94764 9.82792 6.6962 9.92313C6.61474 9.95381 6.53011 10.0053 6.44935 9.93301C6.36859 9.86072 6.39751 9.7588 6.42431 9.66993C6.51177 9.38218 6.91625 9.17376 7.2026 9.26475C7.23682 9.27441 7.26787 9.29293 7.29264 9.31844C7.31741 9.34395 7.33501 9.37555 7.34366 9.41003C7.36962 9.51412 7.41614 9.61196 7.48048 9.69779Z" fill="#FCAE33"/>
<path d="M7.75849 9.8086C7.84948 9.78286 7.93482 9.78603 8.01592 9.74266C7.95597 9.7021 7.89849 9.66719 7.84595 9.62629C7.78238 9.58046 7.73256 9.51812 7.70185 9.44602C7.67115 9.37392 7.66074 9.2948 7.67174 9.21722C7.69396 9.02256 7.81597 8.90336 7.98418 8.82226C8.02615 8.80215 8.03532 8.82014 8.03179 8.85964C8.01566 8.98418 8.03308 9.11076 8.08224 9.22632C8.1314 9.34188 8.21053 9.44222 8.31144 9.51697C8.33366 9.53425 8.35411 9.5554 8.34882 9.58256C8.33367 9.66623 8.33117 9.7517 8.34141 9.83611C8.34494 9.86644 8.31849 9.87137 8.29275 9.87137C8.17174 9.87061 8.05266 9.90175 7.94751 9.96165C7.91225 9.9814 7.89532 9.97047 7.87698 9.94049C7.84444 9.89075 7.80448 9.84627 7.75849 9.8086Z" fill="#FCAE33"/>
<path d="M8.04785 10.6533C8.04099 10.5865 8.04099 10.5193 8.04785 10.4526C8.06477 10.3369 8.13389 10.2608 8.23969 10.241C8.36382 10.2181 8.45127 10.259 8.51052 10.368C8.52321 10.3912 8.5345 10.4149 8.54578 10.4385C8.61631 10.5813 8.60926 10.612 8.48583 10.7132C8.36241 10.8144 8.2619 10.9435 8.22558 11.1082C8.21359 11.1621 8.18608 11.1713 8.13707 11.1547C8.03868 11.1216 8.00482 11.0662 8.01893 10.9509C8.02422 10.9043 8.03163 10.8581 8.03621 10.8116C8.0408 10.765 8.04397 10.7181 8.04785 10.6533Z" fill="#FCAE33"/>
<path d="M12.0646 9.04883C12.2164 9.07905 12.3657 9.12102 12.511 9.17437C12.9766 9.33355 13.4302 9.52576 13.8684 9.74953C13.8945 9.76293 13.96 9.75941 13.9283 9.82006C13.9011 9.87296 13.8631 9.90999 13.7943 9.87331C13.6028 9.7714 13.4064 9.679 13.2078 9.5912C12.8445 9.43558 12.4728 9.30019 12.0945 9.18565C12.0719 9.1796 12.0497 9.17181 12.0283 9.16238C11.9983 9.14757 11.9694 9.12711 11.9764 9.08903C11.9835 9.05094 12.0212 9.04953 12.0646 9.04883Z" fill="#FE1646"/>
<path d="M9.87105 14.9583C9.1774 15.3057 8.46223 15.567 7.66772 15.512C8.32153 15.0063 9.07548 14.8976 9.87105 14.9583Z" fill="#010000"/>
<path d="M9.13657 11.4899C9.13093 11.6031 9.06322 11.6838 8.99551 11.7639C8.97188 11.791 8.95566 11.7741 8.93979 11.7543C8.91256 11.7198 8.87752 11.6922 8.83756 11.6738C8.79759 11.6554 8.75383 11.6467 8.70987 11.6485C8.66543 11.6485 8.65768 11.6253 8.65662 11.5875C8.65168 11.4398 8.79485 11.2874 8.94191 11.2864C8.99469 11.2876 9.04484 11.3097 9.08134 11.3478C9.11784 11.386 9.1377 11.4371 9.13657 11.4899Z" fill="#010000"/>
<path d="M7.91692 11.6812C7.95326 11.6827 7.98905 11.6906 8.02271 11.7044C8.06573 11.7231 8.12286 11.7397 8.13838 11.7778C8.15672 11.825 8.08901 11.8367 8.06256 11.8666C8.00753 11.9203 7.975 11.993 7.97158 12.0698C7.97158 12.1308 7.94901 12.1308 7.90281 12.1177C7.84442 12.1024 7.79349 12.0665 7.75931 12.0167C7.72513 11.967 7.70998 11.9066 7.71661 11.8465C7.73143 11.7432 7.80584 11.6819 7.91692 11.6812Z" fill="#010000"/>
<path d="M10.8979 9.79299C10.8895 10.0018 10.8627 10.2063 10.7692 10.3974C10.6708 10.5998 10.5061 10.6958 10.2854 10.7039C10.242 10.7039 10.1937 10.7099 10.1697 10.6616C10.1457 10.6132 10.1821 10.5847 10.2067 10.5529C10.3154 10.4119 10.4268 10.2708 10.5329 10.128C10.618 10.0057 10.6869 9.87299 10.7378 9.73304C10.7607 9.6752 10.7805 9.57928 10.8588 9.59621C10.9293 9.61173 10.8796 9.70412 10.8976 9.75949C10.8993 9.77058 10.8994 9.78186 10.8979 9.79299Z" fill="#010000"/>
<path d="M9.20044 9.98956C9.20291 9.76951 9.34784 9.62069 9.55308 9.61152C9.64442 9.60764 9.7079 9.6616 9.70543 9.75434C9.69873 9.97827 9.6349 10.1814 9.46528 10.339C9.3884 10.4096 9.3422 10.4022 9.29601 10.3091C9.24253 10.2103 9.20999 10.1015 9.20044 9.98956Z" fill="#FEFEFE"/>
<path d="M6.81867 10.8169C6.80566 11.0189 6.73882 11.2137 6.62507 11.3811C6.5623 11.4728 6.50835 11.4654 6.46039 11.3638C6.40373 11.2438 6.38245 11.1101 6.39903 10.9784C6.41595 10.8327 6.5556 10.6885 6.70019 10.6554C6.75626 10.6427 6.79223 10.6617 6.80316 10.7195C6.80986 10.7555 6.81409 10.7883 6.81867 10.8169Z" fill="#FEFEFE"/>
</g>
<defs>
<clipPath id="clip0_12438:69726">
<rect width="24" height="24" fill="white"/>
</clipPath>
</defs>
</svg>
