<svg viewBox="0 0 24 24" fill="none" xmlns="http://www.w3.org/2000/svg">
    <mask id="mask0" mask-type="alpha" maskUnits="userSpaceOnUse" x="0" y="0" width="24" height="24">
        <path fill-rule="evenodd" clip-rule="evenodd" d="M0 0H24V24H0V0Z" fill="white"/>
    </mask>
    <g mask="url(#mask0)">
        <path fill-rule="evenodd" clip-rule="evenodd" d="M12 24C5.4 24 0 18.6 0 11.9399C0.0601379 5.3399 5.4 -0.0601015 12.0601 -0.000239471C18.6601 0.0598985 24 5.40003 24 12.12C23.9401 18.6599 18.6 24 12 24Z" fill="#0090FF"/>
        <path fill-rule="evenodd" clip-rule="evenodd" d="M13.1401 10.5601L12.7801 12.4801L16.2 12.9601L15.96 13.8602L12.6 13.3802C12.36 14.1603 12.24 15.0003 11.9401 15.7203L10.9801 18.1805C10.5001 19.2006 9.66013 19.9206 8.51999 20.1005C7.86013 20.2205 7.14013 20.1606 6.59999 19.7405C6.42013 19.6205 6.23999 19.3805 6.23999 19.2006C6.23999 18.9606 6.35999 18.6605 6.54013 18.5407C6.66013 18.4806 6.95999 18.5407 7.14013 18.6006C7.33304 18.7947 7.49494 19.0174 7.62013 19.2607C7.98013 19.7407 8.46013 19.8009 8.94013 19.4406C9.47999 18.9606 9.78013 18.3007 9.95999 17.6406C10.32 16.2006 10.68 14.8205 10.9801 13.3805V13.1405L7.79999 12.6605L7.91999 11.7606L11.2201 12.2406L11.64 10.3805L8.22013 9.84061L8.34013 8.88061L11.88 9.36061C12 9.00061 12.0601 8.70047 12.1801 8.40061C12.48 7.32061 12.7801 6.24061 13.5001 5.28061C14.2201 4.32061 15.0601 3.72061 16.32 3.78075C16.8601 3.78075 17.4 3.96089 17.76 4.38075C17.8201 4.44089 17.9401 4.56061 17.9401 4.68061C17.9401 4.92061 17.9401 5.22075 17.76 5.40061C17.52 5.58075 17.2201 5.52061 16.9801 5.28061C16.8 5.10075 16.68 4.92061 16.5001 4.74075C16.1401 4.26075 15.6 4.20061 15.1801 4.62075C14.88 4.92061 14.5801 5.34075 14.4 5.76089C13.9801 7.02102 13.68 8.34102 13.2601 9.66075L16.56 10.1407L16.32 11.0409L13.1401 10.5609V10.5601Z" fill="white"/>
    </g>
</svg>
