<svg width="24" height="24" viewBox="0 0 24 24" fill="none" xmlns="http://www.w3.org/2000/svg">
    <ellipse cx="11.9762" cy="12" rx="11.9762" ry="12" fill="url(#paint0_linear_12464:70106)"/>
    <path d="M20.2088 4.6192C20.6997 5.20062 21.1593 5.80396 21.5395 6.46586C22.0038 7.27158 22.3745 8.11396 22.6088 9.01586C22.6242 9.06031 22.6434 9.10333 22.6663 9.14443C22.893 10.0968 23.0427 11.0663 23.0261 12.0468C23.0161 12.6425 22.9975 13.2449 22.8659 13.834C22.8534 13.9196 22.8474 14.006 22.8478 14.0925C22.6634 14.7335 22.5242 15.3863 22.268 16.0068C22.0185 16.6097 21.7552 17.2025 21.3983 17.7511C21.3714 17.7991 21.3482 17.8491 21.3289 17.9006C20.6047 18.9806 19.7654 19.9554 18.7236 20.743C18.3477 21.029 17.9553 21.2925 17.5483 21.5321C17.5104 21.5582 17.4747 21.5873 17.4414 21.6192C17.0479 21.7773 16.6853 22.0001 16.2913 22.1592C15.5309 22.4663 14.7591 22.7168 13.9479 22.8521C13.2683 22.9654 12.5853 23.0511 11.8986 23.0306C11.1929 23.0097 10.4762 23.0011 9.78946 22.8292C8.83896 22.5911 7.9013 22.2992 7.02922 21.834C6.74407 21.683 6.46463 21.5282 6.18233 21.3754C5.78027 21.0754 5.3611 20.7997 4.97425 20.4782C4.29084 19.9106 3.69916 19.2592 3.15453 18.5616C2.4799 17.6232 1.94341 16.5925 1.5615 15.5011C1.37805 14.9816 1.283 14.4378 1.14613 13.9049C1.11999 13.4963 1.05441 13.0925 1.03112 12.6821C0.979893 11.8869 1.01591 11.0884 1.13853 10.3011C1.17465 10.0759 1.21314 9.85062 1.25069 9.62539C1.68364 7.72062 2.54478 6.03824 3.85504 4.58872C3.8785 4.55778 3.89888 4.5246 3.91587 4.48967C4.27991 4.15634 4.62019 3.79586 5.00371 3.48253C6.00348 2.66354 7.13678 2.02351 8.35374 1.59062C9.68109 1.11617 11.0883 0.906676 12.496 0.973958C13.1882 1.01003 13.8761 1.10482 14.5524 1.25729C15.2202 1.41155 15.8705 1.63365 16.4933 1.92015C17.9243 2.55634 19.1523 3.46729 20.2088 4.6192ZM18.1139 14.3811C18.1139 14.3487 18.1139 14.3159 18.1139 14.2859C18.2726 13.9525 18.2327 13.6063 18.1638 13.2654C18.1077 12.9878 18.1695 12.7506 18.3605 12.6306C19.696 11.7925 20.6327 10.6663 20.8318 9.05158C21.0362 7.39872 20.6089 5.96681 19.2569 4.89681C19.1523 4.81443 19.0468 4.733 18.9038 4.72158C18.4561 4.68586 18.1766 5.0511 18.313 5.5311C18.3722 5.75302 18.4115 5.9798 18.4304 6.20872C18.4779 6.7111 18.4565 7.21253 18.2156 7.66777C17.7541 8.5392 16.9966 9.08491 16.1331 9.50158C15.8246 9.65015 15.5704 9.63158 15.2672 9.3811C14.6933 8.90286 13.9835 8.61809 13.2388 8.56729C13.1062 8.55777 13.1138 8.47777 13.0991 8.39348C13.0568 8.15062 13.0216 7.90396 12.7697 7.77205C12.62 7.693 12.4508 7.69301 12.2912 7.65491C11.9323 7.56872 11.5754 7.64348 11.2399 7.74777C10.9662 7.83301 10.8744 8.0992 10.8597 8.37967C10.8554 8.47253 10.8673 8.55539 10.7171 8.57015C9.89306 8.6411 9.16831 8.96301 8.54003 9.49586C8.3889 9.62396 8.25488 9.64586 8.07001 9.58586C7.55437 9.41421 7.07829 9.14073 6.66993 8.78158C6.28593 8.45253 5.91524 8.10777 5.70756 7.62872C5.39817 6.91443 5.45378 6.18967 5.65053 5.46443C5.75841 5.06681 5.48276 4.70253 5.07215 4.723C4.83738 4.73396 4.68435 4.89539 4.52514 5.02919C3.12696 6.20253 2.80759 8.09967 3.23912 9.69586C3.50621 10.6854 4.08886 11.4821 4.87967 12.1244C5.19619 12.3816 5.52554 12.6221 5.90431 12.7873C6.03263 12.843 6.13623 12.8982 5.94851 13.0535C5.67001 13.283 5.62677 14.0278 5.84681 14.3106C5.90016 14.3901 5.9792 14.4488 6.07065 14.4768L6.08205 14.5721C5.92355 14.8748 5.79907 15.1942 5.71088 15.5244L5.67904 15.6197C5.50225 16.0959 5.31405 16.5721 5.33259 17.0959C5.3024 17.2033 5.3024 17.317 5.33259 17.4244C5.34162 18.3701 5.76316 19.1216 6.42566 19.7578C6.42672 19.7804 6.43627 19.8018 6.45239 19.8177C6.46851 19.8336 6.49002 19.8428 6.51262 19.8435C6.58123 19.9507 6.67767 20.0371 6.79159 20.0935C6.79569 20.1174 6.80799 20.1392 6.82639 20.155C6.84478 20.1708 6.86811 20.1797 6.89235 20.1801C7.19698 20.4325 7.51873 20.6563 7.89275 20.7959L7.9878 20.8473C8.24585 20.9901 8.51057 21.1121 8.80475 21.1563C8.82023 21.1763 8.84038 21.1921 8.86343 21.2024C8.88647 21.2127 8.91169 21.2172 8.93686 21.2154C9.00656 21.2628 9.09066 21.2842 9.17449 21.2759C9.26241 21.3238 9.35975 21.3517 9.45964 21.3578L9.79231 21.4154C9.80327 21.4294 9.81859 21.4392 9.83582 21.4435C9.85305 21.4477 9.87119 21.446 9.88736 21.4387L9.98241 21.463C9.99358 21.4767 10.009 21.4862 10.0263 21.49C10.0435 21.4938 10.0616 21.4917 10.0775 21.484C10.1853 21.5268 10.298 21.5206 10.4101 21.5154C10.5974 21.563 10.7846 21.6063 10.9804 21.5959L11.1254 21.6059C11.3125 21.6419 11.5042 21.6484 11.6933 21.6249C12.0093 21.6577 12.3278 21.6577 12.6438 21.6249C12.8171 21.6476 12.9929 21.6413 13.1642 21.6063L13.2621 21.5997C13.4736 21.6154 13.6756 21.564 13.8799 21.5159C13.9925 21.5201 14.1052 21.5292 14.2126 21.484C14.2284 21.4911 14.2461 21.4932 14.2632 21.4897C14.2802 21.4863 14.2958 21.4776 14.3076 21.4649L14.4027 21.4416C14.4189 21.448 14.4368 21.4489 14.4536 21.4441C14.4703 21.4393 14.485 21.429 14.4954 21.4149C14.5606 21.4231 14.6269 21.4115 14.6855 21.3816C14.7266 21.3898 14.769 21.3892 14.81 21.3799C14.8509 21.3707 14.8894 21.3529 14.9231 21.3278C15.135 21.2887 15.3508 21.254 15.5409 21.1468C15.5829 21.1537 15.626 21.1493 15.6658 21.134C15.7056 21.1186 15.7405 21.093 15.7671 21.0597C15.8546 21.0454 15.9482 21.0506 16.0162 20.9773C16.0407 20.9763 16.0649 20.9701 16.0869 20.9591C16.1089 20.9481 16.1284 20.9326 16.144 20.9135C16.4805 20.8049 16.7765 20.6211 17.0617 20.4182C17.0857 20.4151 17.1085 20.406 17.1281 20.3918C17.1477 20.3776 17.1634 20.3587 17.1739 20.3368C17.1771 20.3377 17.1805 20.3378 17.1838 20.3373C17.1871 20.3367 17.1903 20.3355 17.1931 20.3336C17.1959 20.3318 17.1983 20.3294 17.2002 20.3266C17.202 20.3238 17.2032 20.3206 17.2038 20.3173C17.2273 20.3172 17.2502 20.3094 17.2688 20.2951C17.2875 20.2807 17.3009 20.2605 17.3069 20.2378C17.5798 20.0629 17.8209 19.8426 18.0198 19.5863C18.0535 19.5501 18.0873 19.5144 18.1205 19.4782C18.189 19.4044 18.2755 19.344 18.2988 19.2368C18.3211 19.2326 18.3412 19.2209 18.3559 19.2035C18.3705 19.1862 18.3787 19.1643 18.3791 19.1416C18.5473 18.9073 18.7041 18.6654 18.764 18.3797L18.7978 18.2844C18.8127 18.2715 18.8241 18.2549 18.831 18.2364C18.8379 18.2178 18.8401 18.1978 18.8372 18.1782C18.8573 18.1635 18.8717 18.1424 18.8781 18.1183C18.8845 18.0942 18.8825 18.0686 18.8724 18.0459C18.9099 17.873 18.9674 17.7035 18.9608 17.5221C18.971 17.5085 18.9769 17.4922 18.9778 17.4752C18.9788 17.4583 18.9747 17.4414 18.966 17.4268C18.9996 17.22 18.9855 17.0082 18.9247 16.8078C18.9325 16.7921 18.9349 16.7743 18.9317 16.7571C18.9284 16.7399 18.9196 16.7242 18.9066 16.7125C18.9085 16.5987 18.8887 16.4856 18.8482 16.3792C18.8396 16.2943 18.8109 16.2127 18.7645 16.1411C18.6219 15.5287 18.3891 14.9473 18.1139 14.3811Z" fill="#FDEAB8"/>
    <path d="M18.8335 18.176C18.8363 18.1956 18.8342 18.2156 18.8273 18.2341C18.8204 18.2527 18.809 18.2692 18.794 18.2822C18.738 18.2969 18.699 18.3188 18.7603 18.3774C18.7004 18.6665 18.5436 18.9069 18.3754 19.1393C18.3159 19.1446 18.2946 19.1812 18.295 19.2346C18.2717 19.3417 18.1853 19.4022 18.1168 19.476C18.0408 19.4722 18.0089 19.5098 18.0161 19.5841C17.8172 19.8403 17.5761 20.0606 17.3032 20.2355C17.2457 20.2322 17.2081 20.2527 17.2001 20.315C17.1995 20.3184 17.1983 20.3215 17.1964 20.3243C17.1946 20.3272 17.1922 20.3296 17.1894 20.3314C17.1866 20.3332 17.1834 20.3345 17.1801 20.335C17.1768 20.3355 17.1734 20.3354 17.1701 20.3346C17.1069 20.326 17.0651 20.3465 17.058 20.416C16.7728 20.6188 16.4767 20.8027 16.1403 20.9112C16.0804 20.8979 16.0291 20.9022 16.0124 20.975C15.9445 21.0484 15.8508 21.0431 15.7629 21.0574C15.7209 21.0457 15.6763 21.0478 15.6356 21.0635C15.595 21.0792 15.5604 21.1076 15.5372 21.1446C15.3471 21.2517 15.1318 21.2874 14.9194 21.3255C14.82 21.2555 14.7535 21.3303 14.6817 21.3793C14.6231 21.4093 14.5569 21.4209 14.4916 21.4127C14.4441 21.356 14.417 21.386 14.399 21.4393L14.3039 21.4627C14.2597 21.406 14.2317 21.4284 14.2089 21.4817C14.101 21.5293 13.9883 21.5179 13.8762 21.5136C13.6599 21.4627 13.4523 21.476 13.2584 21.5974L13.1605 21.6041C12.9851 21.5522 12.8102 21.5188 12.6401 21.6227C12.3241 21.6554 12.0056 21.6554 11.6896 21.6227C11.5037 21.5212 11.3132 21.5498 11.1217 21.6036L10.9767 21.5936C10.8943 21.5369 10.8 21.5001 10.701 21.4861C10.602 21.4722 10.5012 21.4814 10.4064 21.5131C10.2942 21.5184 10.1816 21.5246 10.0737 21.4817C10.0528 21.4284 10.0262 21.405 9.97868 21.4607L9.88363 21.4365C9.86414 21.3812 9.8361 21.3565 9.78858 21.4131L9.45591 21.3555C9.38557 21.2431 9.28196 21.246 9.17076 21.2736C9.08693 21.2819 9.00283 21.2605 8.93313 21.2131C8.91412 21.1369 8.86232 21.1346 8.80102 21.1541C8.50636 21.1098 8.24212 20.9855 7.98407 20.845C7.97408 20.7893 7.9641 20.7327 7.88902 20.7936C7.515 20.6536 7.19325 20.4303 6.88862 20.1779C6.88482 20.1141 6.84822 20.0888 6.78787 20.0912C6.67394 20.0348 6.5775 19.9484 6.5089 19.8412C6.50946 19.8297 6.50758 19.8182 6.50339 19.8074C6.49919 19.7967 6.49278 19.7869 6.48457 19.7788C6.47636 19.7708 6.46654 19.7645 6.45574 19.7605C6.44494 19.7564 6.43342 19.7548 6.42193 19.7555C5.75658 19.1184 5.33599 18.3669 5.32886 17.4222C5.35948 17.3729 5.37571 17.316 5.37571 17.2579C5.37571 17.1998 5.35948 17.1429 5.32886 17.0936C5.31032 16.5698 5.49852 16.0936 5.67531 15.6174C5.73377 15.6022 5.77036 15.5793 5.70716 15.5222C5.79696 15.1922 5.92304 14.8733 6.08308 14.5712C6.15056 14.5303 6.13725 14.4988 6.07167 14.476C5.98022 14.448 5.90118 14.3893 5.84783 14.3098C5.62779 14.0269 5.67104 13.2822 5.94953 13.0527C6.13963 12.8974 6.03365 12.8422 5.90533 12.7865C5.52514 12.6212 5.19721 12.3807 4.8807 12.1236C4.08989 11.4817 3.50723 10.685 3.24014 9.69503C2.80862 8.09789 3.12799 6.20075 4.52616 5.02837C4.68537 4.89456 4.8384 4.73313 5.07317 4.72218C5.48379 4.70361 5.75943 5.06599 5.65155 5.4636C5.4548 6.18884 5.39919 6.91408 5.70858 7.62789C5.91626 8.10694 6.28696 8.4517 6.67096 8.78075C7.07932 9.1399 7.55539 9.41339 8.07104 9.58503C8.25781 9.64503 8.38993 9.62313 8.54105 9.49503C9.16933 8.96218 9.89409 8.64027 10.7182 8.56932C10.8679 8.55646 10.856 8.47408 10.8607 8.37884C10.8745 8.09837 10.9662 7.83218 11.2409 7.74694C11.5765 7.64265 11.9334 7.56789 12.2922 7.65408C12.4519 7.69218 12.6211 7.69218 12.7708 7.77122C13.0226 7.90313 13.0559 8.1498 13.1001 8.39265C13.1148 8.47694 13.1072 8.55694 13.2398 8.56646C13.9838 8.61789 14.6926 8.9028 15.2658 9.38075C15.569 9.63122 15.8233 9.6498 16.1317 9.50122C16.9952 9.08456 17.7528 8.53884 18.2142 7.66741C18.4552 7.21218 18.4775 6.71075 18.4291 6.20837C18.4101 5.97945 18.3708 5.75267 18.3117 5.53075C18.1753 5.05027 18.4542 4.68503 18.9024 4.72122C19.045 4.73265 19.151 4.81408 19.2555 4.89646C20.6076 5.96646 21.0348 7.39837 20.8305 9.05122C20.6309 10.666 19.6942 11.7922 18.3592 12.6303C18.1691 12.7503 18.1064 12.9874 18.1624 13.265C18.2314 13.606 18.2713 13.9527 18.1125 14.2855C18.0446 14.3193 18.0474 14.3517 18.1125 14.3807C18.3877 14.9465 18.6206 15.5279 18.7594 16.1427C18.7118 16.2474 18.7479 16.3241 18.843 16.3807C18.8835 16.4871 18.9033 16.6003 18.9015 16.7141C18.8473 16.7565 18.8682 16.785 18.9195 16.8093C18.9803 17.0098 18.9945 17.2216 18.9609 17.4284C18.9133 17.4574 18.9076 17.4888 18.9556 17.5236C18.9618 17.7041 18.9048 17.8736 18.8672 18.0474C18.8478 18.0618 18.8339 18.0824 18.8278 18.1058C18.8217 18.1291 18.8237 18.1539 18.8335 18.176ZM15.0653 10.1493C15.1603 10.0288 15.0938 9.94884 14.9997 9.87408C14.675 9.61553 14.3065 9.41776 13.9118 9.29027C13.7488 9.23742 13.592 9.15884 13.4161 9.14742C13.2565 9.13694 13.2375 9.20503 13.3092 9.32932C13.3567 9.99599 13.4133 10.6598 13.4993 11.3217C13.5121 11.4217 13.5749 11.426 13.65 11.4293C14.1062 11.4507 14.5472 11.566 14.993 11.6512C15.0881 11.6693 15.2007 11.705 15.2644 11.6388C15.3281 11.5727 15.2026 11.5122 15.1907 11.4369C15.1835 11.3906 15.1733 11.3448 15.1603 11.2998C15.0467 10.9222 15.0596 10.5355 15.0653 10.1493ZM10.6455 9.32741C10.7277 9.16789 10.7153 9.09551 10.5062 9.14503C9.97276 9.27192 9.46785 9.49806 9.01773 9.8117C8.90747 9.88741 8.80767 9.98408 8.84331 10.145C8.96498 10.6765 8.8628 11.1841 8.64561 11.7003C9.24775 11.5988 9.80521 11.4707 10.3755 11.426C10.4739 11.4184 10.5072 11.3498 10.5053 11.2598C10.4886 10.6107 10.6169 9.97265 10.6426 9.32741H10.6455ZM11.3108 11.3331L12.6415 11.3288C12.8259 11.3684 12.7841 11.2336 12.7807 11.1384C12.7361 10.2212 12.6249 9.31027 12.5379 8.39694C12.5274 8.28789 12.4761 8.24884 12.3782 8.22932C12.1294 8.18307 11.8745 8.17937 11.6245 8.21837C11.508 8.23456 11.461 8.28313 11.4344 8.40884C11.3284 8.91551 11.3289 9.43218 11.2642 9.94218C11.2138 10.3422 11.1953 10.746 11.162 11.1479C11.1559 11.2603 11.143 11.3707 11.3108 11.3331ZM17.2576 14.0798C17.3968 14.0027 17.6192 14.0674 17.6649 13.8303C17.7205 13.5446 17.5807 13.3765 17.3441 13.2422C16.9849 13.0322 16.6096 12.8514 16.2215 12.7017C15.5025 12.44 14.7584 12.2532 14.0012 12.1441C13.4755 12.0655 12.948 12.046 12.4196 12.0217C11.7719 11.9954 11.1231 12.0146 10.4782 12.0793C9.72302 12.1454 8.97717 12.2927 8.25353 12.5188C7.61432 12.7246 6.9946 12.9727 6.44141 13.3631C6.26462 13.4884 6.25131 13.846 6.41242 13.9917C6.56925 14.0755 6.72466 14.1346 6.90668 14.0503C7.27192 13.8872 7.65327 13.763 8.04442 13.6798C8.99217 13.4813 9.95599 13.3697 10.9239 13.3465C12.1453 13.3065 13.3686 13.3107 14.5862 13.4722C15.2991 13.5674 16.0029 13.6665 16.6858 13.9007C16.8755 13.9655 17.0394 14.1174 17.2595 14.0817L17.2576 14.0798ZM8.21646 10.476C8.21646 10.3441 8.25591 10.1903 8.06818 10.1498C7.30779 9.98027 6.69377 9.5498 6.11682 9.04789C5.20815 8.25742 4.81606 7.27837 4.97385 6.0736C5.00521 5.83265 5.05274 5.59122 5.10312 5.29599C4.7773 5.52718 4.49438 5.81373 4.26715 6.14265C3.77907 6.85694 3.61654 7.65837 3.63032 8.50599C3.63302 9.03699 3.74497 9.56172 3.95919 10.0474C4.39737 11.0188 5.12355 11.7193 6.04173 12.2341C6.16339 12.3022 6.28791 12.3398 6.4262 12.2912C6.63484 12.2979 6.82351 12.2203 7.02026 12.1646C7.76925 11.9522 8.2925 11.3212 8.21646 10.476ZM17.4895 12.2855C17.7062 12.3941 17.8664 12.256 18.0346 12.1579C19.0592 11.5588 19.8253 10.7293 20.1599 9.57694C20.4629 8.57236 20.3781 7.49036 19.9223 6.54551C19.6886 6.05469 19.3299 5.63422 18.8824 5.32646C18.8644 5.4998 18.9143 5.63361 18.939 5.77075C19.0616 6.44408 19.0431 7.10408 18.7902 7.75313C18.546 8.38313 18.0888 8.8317 17.5936 9.25075C17.1345 9.63932 16.6283 9.96218 16.0395 10.1079C15.8204 10.1627 15.7178 10.2431 15.7544 10.4688C15.7271 10.7205 15.7569 10.9751 15.8413 11.2136C16.0504 11.8331 16.7837 12.2455 17.489 12.2827L17.4895 12.2855ZM18.5826 17.8569L18.6058 17.7617C18.6686 17.7407 18.6914 17.7141 18.6258 17.6665V16.9046C18.6952 16.8393 18.69 16.7907 18.5949 16.7617L18.5526 16.7141C18.5332 16.5572 18.5014 16.4021 18.4576 16.2503C18.3084 15.751 18.1305 15.2608 17.9248 14.7822C17.8108 14.515 17.768 14.4712 17.5071 14.5917C17.2462 14.7122 17.0242 14.6903 16.7875 14.5627C16.6906 14.5106 16.5897 14.4665 16.4858 14.4307C15.924 14.2403 15.3452 14.1346 14.7554 14.0684C12.9476 13.8688 11.1237 13.8636 9.31476 14.0527C8.67864 14.1122 8.05074 14.2399 7.44181 14.4336C7.22652 14.5036 7.05068 14.6574 6.81068 14.6836C6.66145 14.6998 6.50034 14.5136 6.38296 14.6836C6.29123 14.8155 6.25559 14.9865 6.19618 15.1403C6.16767 15.2136 6.13868 15.2865 6.11444 15.3612C5.96854 15.8098 5.7889 16.2488 5.71523 16.7188L5.68054 16.8565C5.61781 16.8755 5.59024 16.9041 5.65725 16.9517L5.65535 17.5712C5.59405 17.615 5.61353 17.6446 5.67246 17.6665C5.71872 18.018 5.83164 18.3574 6.00513 18.6665C6.63436 19.7703 7.62811 20.4069 8.79009 20.8222C8.82858 20.9055 8.87753 20.965 8.98019 20.9069L9.69306 21.0703C9.77195 21.1531 9.85559 21.2198 9.97821 21.146C10.0584 21.1365 10.1398 21.1458 10.2158 21.1731C10.2534 21.2503 10.3014 21.2522 10.3584 21.1927C11.5435 21.3303 12.7405 21.3303 13.9256 21.1927C13.966 21.2498 13.9955 21.2317 14.0207 21.1784C14.1123 21.1474 14.2095 21.1363 14.3058 21.146C14.4275 21.2193 14.5111 21.1541 14.591 21.0688L15.3038 20.906C15.4055 20.9679 15.4531 20.906 15.4939 20.8236C15.9754 20.6674 16.414 20.4203 16.856 20.1807C16.9216 20.1884 16.961 20.1631 16.9667 20.0941C17.5052 19.6846 17.9785 19.216 18.3083 18.6179C18.3777 18.6079 18.3925 18.5627 18.3834 18.5017L18.5517 17.9517C18.6116 17.936 18.6486 17.9131 18.5821 17.8569H18.5826Z" fill="#272322"/>
    <path d="M13.2595 21.5996C13.4496 21.4782 13.6597 21.4648 13.8773 21.5158C13.672 21.5639 13.4701 21.6153 13.2595 21.5996Z" fill="#2D2C2A"/>
    <path d="M11.124 21.6066C11.3141 21.5528 11.5042 21.5242 11.6919 21.6256C11.5028 21.6491 11.3112 21.6427 11.124 21.6066Z" fill="#2D2C2A"/>
    <path d="M10.408 21.5162C10.5028 21.4845 10.6036 21.4753 10.7026 21.4892C10.8015 21.5032 10.8959 21.54 10.9783 21.5967C10.7844 21.6072 10.5981 21.5624 10.408 21.5162Z" fill="#2D2C2A"/>
    <path d="M12.6416 21.6247C12.8117 21.5209 12.9866 21.5542 13.162 21.6061C12.9907 21.6411 12.8149 21.6474 12.6416 21.6247Z" fill="#2D2C2A"/>
    <path d="M5.33275 17.0952C5.36343 17.1445 5.37969 17.2014 5.37969 17.2595C5.37969 17.3176 5.36343 17.3745 5.33275 17.4238C5.3025 17.3164 5.3025 17.2026 5.33275 17.0952Z" fill="#2D2C2A"/>
    <path d="M9.17505 21.2768C9.28552 21.2492 9.38933 21.2463 9.46076 21.3587C9.36068 21.3526 9.26314 21.3247 9.17505 21.2768Z" fill="#2D2C2A"/>
    <path d="M18.8446 16.3809C18.7494 16.3262 18.7156 16.2495 18.7608 16.1428C18.8073 16.2144 18.836 16.296 18.8446 16.3809Z" fill="#2D2C2A"/>
    <path d="M14.6851 21.3809C14.7574 21.3333 14.8241 21.2571 14.9232 21.3271C14.8894 21.3522 14.8508 21.37 14.8098 21.3793C14.7688 21.3885 14.7263 21.3891 14.6851 21.3809Z" fill="#2D2C2A"/>
    <path d="M15.5405 21.1466C15.5638 21.1097 15.5984 21.0813 15.6392 21.0656C15.6799 21.0499 15.7247 21.0477 15.7667 21.0595C15.7403 21.0929 15.7053 21.1187 15.6655 21.134C15.6258 21.1493 15.5826 21.1537 15.5405 21.1466Z" fill="#2D2C2A"/>
    <path d="M18.8336 18.1763C18.8229 18.1537 18.8206 18.1279 18.8271 18.1037C18.8335 18.0795 18.8483 18.0583 18.8689 18.0439C18.879 18.0667 18.881 18.0923 18.8746 18.1164C18.8682 18.1404 18.8538 18.1616 18.8336 18.1763Z" fill="#2D2C2A"/>
    <path d="M18.9211 16.8096C18.8697 16.7872 18.8487 16.7586 18.903 16.7144C18.916 16.7261 18.9249 16.7417 18.9281 16.7589C18.9314 16.7761 18.9289 16.7939 18.9211 16.8096Z" fill="#2D2C2A"/>
    <path d="M18.9574 17.521C18.9098 17.4863 18.914 17.4548 18.9626 17.4258C18.9713 17.4404 18.9754 17.4572 18.9744 17.4742C18.9735 17.4912 18.9676 17.5074 18.9574 17.521Z" fill="#2D2C2A"/>
    <path d="M18.2971 19.2381C18.2971 19.1828 18.3181 19.1462 18.3776 19.1428C18.3772 19.1655 18.369 19.1874 18.3543 19.2048C18.3397 19.2221 18.3195 19.2339 18.2971 19.2381Z" fill="#2D2C2A"/>
    <path d="M18.0164 19.5861C18.0092 19.5118 18.0411 19.4742 18.1173 19.478C18.084 19.5142 18.0502 19.5499 18.0164 19.5861Z" fill="#2D2C2A"/>
    <path d="M6.42676 19.7587C6.43828 19.758 6.44982 19.7597 6.46064 19.7637C6.47146 19.7677 6.4813 19.774 6.48953 19.7821C6.49776 19.7901 6.50419 19.7999 6.50839 19.8106C6.51259 19.8214 6.51447 19.8329 6.51391 19.8444C6.49126 19.8437 6.4697 19.8345 6.45355 19.8186C6.43739 19.8027 6.42783 19.7813 6.42676 19.7587Z" fill="#2D2C2A"/>
    <path d="M6.79272 20.0951C6.8532 20.0927 6.88796 20.118 6.89368 20.1818C6.86939 20.1813 6.84602 20.1725 6.82758 20.1566C6.80915 20.1408 6.79682 20.1191 6.79272 20.0951Z" fill="#2D2C2A"/>
    <path d="M17.2012 20.3169C17.2078 20.2545 17.2488 20.2341 17.3045 20.2374C17.2984 20.2602 17.285 20.2803 17.2663 20.2947C17.2476 20.3091 17.2247 20.3169 17.2012 20.3169Z" fill="#2D2C2A"/>
    <path d="M17.0613 20.418C17.0684 20.3485 17.1089 20.328 17.1737 20.3366C17.1632 20.3584 17.1475 20.3773 17.1278 20.3916C17.1082 20.4058 17.0853 20.4149 17.0613 20.418Z" fill="#2D2C2A"/>
    <path d="M7.8938 20.7966C7.96761 20.7356 7.97761 20.7923 7.98904 20.848L7.8938 20.7966Z" fill="#2D2C2A"/>
    <path d="M6.0708 14.4761C6.13653 14.5013 6.14986 14.5327 6.08223 14.5713L6.0708 14.4761Z" fill="#2D2C2A"/>
    <path d="M16.0159 20.9772C16.0325 20.9044 16.084 20.9001 16.144 20.9134C16.1283 20.9325 16.1088 20.948 16.0867 20.959C16.0647 20.97 16.0405 20.9762 16.0159 20.9772Z" fill="#2D2C2A"/>
    <path d="M8.80444 21.157C8.86587 21.1375 8.91778 21.1399 8.93682 21.2161C8.9116 21.2179 8.88633 21.2135 8.86324 21.2032C8.84015 21.1929 8.81996 21.177 8.80444 21.157Z" fill="#2D2C2A"/>
    <path d="M18.7603 18.3755C18.7013 18.3188 18.738 18.2969 18.7942 18.2803C18.7832 18.3131 18.7723 18.3441 18.7603 18.3755Z" fill="#2D2C2A"/>
    <path d="M18.1142 14.3809C18.047 14.3495 18.0442 14.3171 18.1142 14.2856C18.1128 14.3161 18.1137 14.349 18.1142 14.3809Z" fill="#2D2C2A"/>
    <path d="M9.79395 21.4162C9.84156 21.3595 9.86776 21.3843 9.88918 21.4395C9.87298 21.4469 9.8548 21.4485 9.83754 21.4443C9.82028 21.4401 9.80493 21.4302 9.79395 21.4162Z" fill="#2D2C2A"/>
    <path d="M14.3999 21.4415C14.418 21.3881 14.4428 21.3581 14.4928 21.4148C14.4824 21.4289 14.4677 21.4391 14.4509 21.444C14.4341 21.4488 14.4162 21.4479 14.3999 21.4415Z" fill="#2D2C2A"/>
    <path d="M9.9834 21.4637C10.031 21.408 10.0563 21.4313 10.0786 21.4846C10.0627 21.4924 10.0447 21.4945 10.0274 21.4907C10.0101 21.4869 9.99459 21.4774 9.9834 21.4637Z" fill="#2D2C2A"/>
    <path d="M14.21 21.4836C14.2314 21.4303 14.2576 21.4079 14.3052 21.4645C14.2933 21.4773 14.2777 21.486 14.2606 21.4894C14.2436 21.4928 14.2258 21.4908 14.21 21.4836Z" fill="#2D2C2A"/>
    <path d="M5.7111 15.5239C5.77301 15.5801 5.73777 15.603 5.6792 15.6192L5.7111 15.5239Z" fill="#2D2C2A"/>
    <path d="M9.69493 21.0708L8.98206 20.9075C8.93056 20.8578 8.86328 20.8278 8.79196 20.8227C7.62998 20.4075 6.63624 19.7708 6.00701 18.667C5.83352 18.358 5.7206 18.0186 5.67434 17.667L5.65723 17.5718L5.66008 16.9527C5.67278 16.9409 5.68176 16.9255 5.68589 16.9086C5.69003 16.8917 5.68915 16.8739 5.68337 16.8575L5.71806 16.7199C6.21707 16.6366 6.70562 16.6675 7.17755 16.8627C7.55774 17.0175 7.89612 17.2437 8.24923 17.4442C8.22689 17.8223 8.15418 18.2032 8.30911 18.5723C8.32384 18.7204 8.34523 18.867 8.42364 19.0008C8.47497 19.1361 8.44313 19.3037 8.5819 19.4375C8.60899 19.2599 8.54436 19.1332 8.49255 19.0032C8.45596 18.8475 8.48448 18.6794 8.40654 18.5308C8.39798 18.4832 8.38943 18.4356 8.3804 18.388V18.0046L8.40511 17.8618L8.42554 17.7666L8.48115 17.5666C8.87988 17.6499 9.14317 17.3966 9.3979 17.1675C9.90974 16.7061 10.4682 16.3437 11.1454 16.178C12.0253 15.9526 12.9558 16.038 13.7802 16.4199C14.224 16.6213 14.5838 16.9437 14.9512 17.2518C15.1888 17.4523 15.4354 17.6432 15.7805 17.5651L15.8009 17.5713L15.8765 17.8146V18.5765C15.8031 18.7586 15.7615 18.9519 15.7534 19.148C15.703 19.2965 15.626 19.4408 15.6555 19.6323C15.7876 19.4765 15.7838 19.3037 15.8309 19.1489L15.9815 18.6308C16.0918 18.2356 16.0766 17.8356 16.029 17.4346C16.3869 17.2266 16.7329 16.9989 17.1221 16.8451C17.5916 16.6589 18.0726 16.6546 18.5597 16.7194L18.602 16.767C18.6125 16.8146 18.6229 16.8623 18.6329 16.9099V17.6718C18.6206 17.6839 18.6122 17.6995 18.6086 17.7164C18.6051 17.7333 18.6066 17.7509 18.613 17.767C18.6053 17.7985 18.5973 17.8304 18.5897 17.8623C18.5759 17.8735 18.5656 17.8884 18.5599 17.9053C18.5542 17.9221 18.5533 17.9402 18.5573 17.9575L18.3891 18.5075C18.3655 18.5158 18.3453 18.5317 18.3317 18.5527C18.3181 18.5737 18.3119 18.5987 18.314 18.6237C17.9842 19.2232 17.5109 19.6918 16.9724 20.0999C16.9478 20.1029 16.9246 20.1126 16.9051 20.1279C16.8856 20.1431 16.8706 20.1634 16.8617 20.1865C16.4197 20.4246 15.981 20.6732 15.4996 20.8294C15.4287 20.8341 15.3615 20.8632 15.3095 20.9118L14.5966 21.0746C14.4968 21.0772 14.399 21.1036 14.3115 21.1518C14.2152 21.1421 14.118 21.1532 14.0263 21.1842C14.0111 21.1759 13.9936 21.1728 13.9764 21.1754C13.9593 21.1779 13.9434 21.186 13.9313 21.1984C12.7462 21.3361 11.5492 21.3361 10.3641 21.1984C10.3438 21.1836 10.3202 21.174 10.2953 21.1706C10.2704 21.1672 10.245 21.17 10.2215 21.1789C10.1455 21.1516 10.0641 21.1423 9.98388 21.1518C9.89547 21.1019 9.79635 21.0741 9.69493 21.0708ZM10.7462 18.3727C10.787 18.6108 10.9363 18.7289 11.1649 18.7613C11.219 18.8985 11.2628 19.0413 11.3298 19.1723C11.624 19.7494 12.276 19.8951 12.7189 19.4894C12.9228 19.3032 13.0198 19.0556 13.1191 18.8089C13.3615 18.6985 13.5772 18.5637 13.62 18.2685C13.6268 18.2574 13.6328 18.246 13.6381 18.2342C13.7008 18.2213 13.7255 18.1866 13.706 18.1223C13.7193 18.0618 13.7341 18.0013 13.7455 17.9404C13.7711 17.8061 13.8405 17.6266 13.6609 17.5832C13.4708 17.5356 13.5078 17.7523 13.4532 17.8585C13.0611 18.0966 12.6823 18.0575 12.3126 17.8013C12.275 17.6585 12.296 17.5813 12.4723 17.5408C12.6795 17.4932 12.8458 17.3437 12.9694 17.167C13.1305 16.9366 13.0583 16.6827 12.7959 16.6337C12.3374 16.5508 11.8677 16.5508 11.4091 16.6337C11.1644 16.6761 11.1012 16.8418 11.2019 17.0799C11.3174 17.3527 11.5465 17.4989 11.8198 17.5623C11.9718 17.5975 12.0312 17.6508 11.9623 17.8004C11.5969 18.0556 11.2224 18.107 10.8331 17.8542C10.8179 17.8185 10.8018 17.7832 10.7856 17.7475C10.7514 17.6646 10.7419 17.548 10.6098 17.5789C10.4777 17.6099 10.4938 17.7218 10.4924 17.8246C10.4924 17.9723 10.5813 18.087 10.6226 18.2189C10.6088 18.3151 10.6492 18.3656 10.7462 18.3727Z" fill="#F7F8F8"/>
    <path d="M18.5542 16.7143C18.0656 16.6505 17.5861 16.6538 17.1166 16.84C16.7278 16.9938 16.3818 17.221 16.0235 17.4296C15.9004 16.9281 15.6652 16.4877 15.2869 16.1348C15.1443 16.0029 15.2032 15.9681 15.3467 15.9329C15.6542 15.8567 15.917 15.9805 16.1808 16.1081C16.2659 16.1953 16.3357 16.3057 16.5135 16.3296C16.4184 16.2024 16.3671 16.0938 16.2635 16.0248C16.1626 15.9028 16.0365 15.8043 15.8939 15.7359C15.7513 15.6675 15.5956 15.6309 15.4375 15.6286C15.2973 15.6243 15.2365 15.5872 15.2507 15.4381C15.2669 15.2691 15.2146 15.1048 15.1509 14.9529C15.0421 14.6957 14.8658 14.4862 14.5721 14.4457C14.3254 14.4119 14.1543 14.5676 14.0251 14.7591C13.7998 15.0924 13.8122 15.6667 14.0465 15.9972C14.2271 16.2534 14.4471 16.4257 14.7845 16.3096C14.8067 16.3016 14.8305 16.2995 14.8537 16.3036C14.8769 16.3077 14.8986 16.3178 14.9166 16.3329C15.3444 16.6429 15.6675 17.0248 15.7768 17.5581C15.4318 17.6362 15.1847 17.4453 14.9475 17.2448C14.5802 16.9343 14.2204 16.6143 13.7765 16.4129C12.9522 16.031 12.0216 15.9456 11.1417 16.171C10.4645 16.3367 9.9061 16.6991 9.39426 17.1605C9.13953 17.3896 8.87624 17.6429 8.47751 17.5596C8.58179 17.1774 8.78914 16.8314 9.0768 16.5596C9.23505 16.4115 9.38903 16.2105 9.66515 16.3334C9.72741 16.361 9.8025 16.3215 9.86951 16.2938C10.4983 16.0348 10.523 15.0243 10.1737 14.6591C9.8966 14.3686 9.58294 14.3638 9.31537 14.6638C9.22033 14.7654 9.14715 14.8854 9.10039 15.0165C9.05362 15.1475 9.03427 15.2869 9.04353 15.4257C9.05303 15.5772 9.00503 15.6238 8.85343 15.6424C8.56495 15.6767 8.32591 15.8296 8.11822 16.0305C8.08781 16.06 8.06309 16.0957 8.09636 16.1305C8.10851 16.1398 8.12262 16.1462 8.13762 16.1492C8.15261 16.1521 8.16809 16.1516 8.18286 16.1477C8.23323 16.1281 8.27791 16.091 8.32543 16.0677C8.58444 15.9462 8.8482 15.8467 9.16234 15.9762C8.68424 16.3696 8.40527 16.87 8.24654 17.4438C7.89438 17.2381 7.55648 17.0124 7.17628 16.8572C6.70436 16.6638 6.21581 16.6329 5.7168 16.7143C5.79046 16.2443 5.9701 15.8053 6.11601 15.3567C6.14024 15.2819 6.16923 15.2091 6.19775 15.1357C6.25715 14.9819 6.2928 14.811 6.38452 14.6791C6.50143 14.51 6.66254 14.6962 6.81224 14.6791C7.04987 14.6529 7.22808 14.4991 7.44337 14.4291C8.0523 14.2354 8.68021 14.1076 9.31632 14.0481C11.1251 13.8591 12.9488 13.8643 14.7565 14.0638C15.3463 14.13 15.9251 14.2343 16.4869 14.4262C16.5908 14.462 16.6917 14.5061 16.7886 14.5581C17.0263 14.6857 17.2525 14.7067 17.5082 14.5872C17.7638 14.4676 17.8118 14.5096 17.9259 14.7776C18.1316 15.2563 18.3095 15.7465 18.4587 16.2457C18.5029 16.3991 18.5349 16.5558 18.5542 16.7143Z" fill="#F2A229"/>
    <path d="M15.7531 10.4681C15.7179 10.2424 15.8206 10.1619 16.0383 10.1071C16.6271 9.9595 17.1313 9.63665 17.5923 9.24998C18.0875 8.83093 18.5428 8.38236 18.789 7.75236C19.0418 7.1014 19.0604 6.44331 18.9378 5.76997C18.913 5.63283 18.8631 5.49902 18.8812 5.32568C19.3287 5.63345 19.6873 6.05391 19.921 6.54473C20.3769 7.48959 20.4617 8.57159 20.1587 9.57617C19.826 10.73 19.058 11.5581 18.0334 12.1571C17.8651 12.2552 17.705 12.3952 17.4882 12.2847C17.8499 12.0614 18.2168 11.8486 18.5438 11.5705C19.1345 11.0686 19.6368 10.5119 19.8745 9.74807C20.0712 9.11045 20.1092 8.46236 20.0413 7.80712C20.0049 7.45661 19.8998 7.11677 19.7319 6.80712C19.8198 7.55855 19.9633 8.30474 19.7666 9.05998C19.5228 9.99617 19.0328 10.8171 18.626 10.9228C18.6783 10.6781 18.9487 10.5628 18.9948 10.2847C18.8608 10.3971 18.7524 10.4852 18.6474 10.5776C18.5367 10.6657 18.4163 10.7408 18.2886 10.8014C18.059 10.9238 17.7102 10.8862 17.5486 10.7062C17.3366 10.4724 17.3357 10.1943 17.4013 9.90665C17.4108 9.86331 17.4488 9.81141 17.3965 9.7795C17.349 9.75141 17.31 9.79188 17.2701 9.81855C17.1374 9.91744 16.9979 10.007 16.8528 10.0866C16.5031 10.2557 16.1547 10.4405 15.7531 10.4681Z" fill="#F1911C"/>
    <path d="M6.42632 12.2921C6.28802 12.3397 6.16351 12.303 6.04184 12.2349C5.12366 11.7201 4.39749 11.0197 3.95931 10.0482C3.74483 9.56197 3.63287 9.03655 3.63044 8.50491C3.61666 7.65729 3.77919 6.85443 4.26727 6.14158C4.49445 5.81248 4.77737 5.52577 5.10323 5.29443C5.05285 5.58967 5.00533 5.8311 4.97396 6.07205C4.81618 7.27682 5.20826 8.25586 6.11693 9.04634C6.69388 9.54824 7.30505 9.97872 8.0683 10.1482C8.2584 10.1901 8.218 10.3425 8.21658 10.4744C8.11423 10.4821 8.01158 10.4644 7.91764 10.423C7.45428 10.2535 6.99376 10.0801 6.56129 9.75396C6.56129 9.93586 6.55083 10.0768 6.56366 10.2154C6.58648 10.4692 6.51091 10.6849 6.28422 10.7973C6.17534 10.8555 6.05266 10.8827 5.92944 10.8761C5.80622 10.8695 5.68716 10.8292 5.58513 10.7597C5.39931 10.6378 5.21681 10.5092 4.97491 10.344C5.05475 10.5706 5.2344 10.6668 5.2382 10.8492L5.22442 10.8635C5.06093 10.8159 4.96636 10.6797 4.87368 10.5568C4.15368 9.59872 3.96026 8.51872 4.15273 7.35253C4.19075 7.12301 4.23163 6.89396 4.27725 6.62824C4.20703 6.68057 4.15794 6.75646 4.13895 6.84205C3.92276 7.47827 3.83914 8.15216 3.89325 8.82205C3.9216 9.15979 3.99005 9.49294 4.09713 9.81443C4.37135 10.6459 4.9502 11.243 5.63408 11.7482C5.89309 11.9387 6.16208 12.1116 6.42632 12.2921ZM4.91408 10.2816C4.92169 10.294 4.92691 10.3116 4.93689 10.3154C4.94687 10.3192 4.9616 10.3078 4.97444 10.303L4.9445 10.2554L4.91408 10.2816Z" fill="#F1911C"/>
    <path d="M6.41586 13.9938C6.25618 13.8481 6.26806 13.4905 6.44485 13.3653C6.99804 12.9748 7.61776 12.7267 8.25697 12.521C8.98061 12.2949 9.72646 12.1475 10.4816 12.0815C11.1266 12.0168 11.7753 11.9975 12.423 12.0239C12.9515 12.0481 13.479 12.0677 14.0046 12.1462C14.7619 12.2553 15.5059 12.4422 16.225 12.7039C16.6127 12.8536 16.9877 13.0344 17.3466 13.2443C17.5842 13.3786 17.7229 13.5448 17.6673 13.8324C17.6198 14.0705 17.3993 14.0048 17.2601 14.0819C17.2601 13.9453 17.4335 13.9962 17.4725 13.8981C17.4302 13.8258 17.3014 13.7867 17.3703 13.6824C17.4886 13.5034 17.4026 13.4286 17.2501 13.3377C17.1218 13.2615 16.9839 13.2039 16.8604 13.1234C16.7368 13.0429 16.6845 13.0577 16.6446 13.1948C16.6251 13.2615 16.5828 13.3486 16.4987 13.3177C16.407 13.2839 16.4845 13.2039 16.4987 13.1562C16.5334 13.0467 16.56 12.9472 16.4141 12.9181C16.3077 12.8958 16.1812 12.7981 16.1195 13.0067C16.0719 13.1653 15.9546 13.2753 15.7559 13.2248C15.3434 13.12 14.9252 13.051 14.5041 12.9867C13.776 12.8739 13.0427 12.8596 12.3113 12.8205C11.5295 12.7786 10.7468 12.8477 9.96881 12.9158C9.40659 12.9662 8.83867 13.0305 8.29356 13.1958C8.05927 13.2667 7.91051 13.2253 7.83162 12.9853C7.76271 12.7762 7.62109 12.8843 7.49895 12.9158C7.34402 12.9562 7.38631 13.0491 7.43621 13.1539C7.46045 13.2015 7.53982 13.2738 7.46711 13.3172C7.38061 13.3686 7.33356 13.2596 7.31788 13.2077C7.25847 13.0096 7.15439 13.0734 7.03843 13.1405C6.90251 13.22 6.76469 13.2958 6.62687 13.3715C6.57934 13.3986 6.50093 13.4415 6.52184 13.4848C6.62354 13.6872 6.49095 13.8324 6.41586 13.9938Z" fill="#909295"/>
    <path d="M6.41577 13.9939C6.49229 13.8324 6.62488 13.6872 6.52555 13.482C6.50464 13.4386 6.58068 13.3958 6.63058 13.3686C6.76841 13.2929 6.90623 13.2172 7.04215 13.1377C7.15811 13.0705 7.26219 13.0067 7.32159 13.2048C7.33728 13.2567 7.38433 13.3658 7.47082 13.3143C7.54353 13.271 7.46417 13.2005 7.43993 13.151C7.3924 13.0482 7.34773 12.9553 7.50266 12.9129C7.6229 12.8815 7.76452 12.7734 7.83534 12.9824C7.91423 13.2205 8.06298 13.2639 8.29728 13.1929C8.84239 13.0277 9.41031 12.9634 9.97253 12.9129C10.7505 12.8429 11.5332 12.7739 12.315 12.8177C13.0464 12.8567 13.7797 12.871 14.5078 12.9839C14.9289 13.0491 15.3471 13.1182 15.7596 13.222C15.9583 13.2724 16.0761 13.1624 16.1232 13.0039C16.185 12.7953 16.3133 12.8929 16.4178 12.9153C16.5637 12.9462 16.5371 13.0458 16.5024 13.1534C16.4872 13.201 16.4074 13.281 16.5024 13.3148C16.5865 13.3458 16.6288 13.2586 16.6483 13.192C16.6882 13.0548 16.7467 13.0448 16.8641 13.1205C16.9815 13.1962 17.1255 13.2586 17.2538 13.3348C17.4063 13.4258 17.4914 13.5005 17.374 13.6796C17.3051 13.7839 17.4339 13.8224 17.4762 13.8953C17.4372 13.9934 17.2661 13.9429 17.2638 14.0791C17.0437 14.1148 16.8798 13.9629 16.6935 13.8981C16.0105 13.6639 15.3048 13.5648 14.5938 13.4696C13.3762 13.3082 12.153 13.3039 10.9316 13.3439C9.96362 13.3671 8.9998 13.4787 8.05205 13.6772C7.66089 13.7604 7.27955 13.8846 6.91431 14.0477C6.72658 14.1348 6.57118 14.0777 6.41577 13.9939Z" fill="#58595B"/>
    <path d="M6.42625 12.292C6.16201 12.1115 5.8916 11.9387 5.63401 11.7482C4.95013 11.242 4.37128 10.6458 4.09706 9.81438C3.98998 9.49288 3.92154 9.15973 3.89318 8.82199C3.83907 8.1521 3.9227 7.4782 4.13889 6.84198C4.15788 6.75639 4.20696 6.6805 4.27718 6.62817C4.22966 6.89389 4.19069 7.12294 4.15267 7.35246C3.96257 8.51866 4.15267 9.59866 4.87362 10.5568C4.96867 10.6796 5.06086 10.8153 5.22435 10.8634C5.23882 10.8875 5.25469 10.9107 5.27187 10.933C5.27473 10.9363 5.30609 10.9244 5.30752 10.9168C5.31512 10.8644 5.27473 10.8582 5.23766 10.8491C5.23386 10.6668 5.05421 10.5706 4.97437 10.3439C5.21627 10.5091 5.39877 10.6377 5.58459 10.7596C5.68662 10.8292 5.80568 10.8694 5.9289 10.876C6.05212 10.8827 6.1748 10.8554 6.28367 10.7972C6.51037 10.6849 6.58593 10.4691 6.56312 10.2153C6.55029 10.0768 6.56074 9.9358 6.56074 9.7539C6.99322 10.0801 7.45374 10.2534 7.9171 10.423C8.01104 10.4644 8.11369 10.482 8.21603 10.4744C8.29207 11.3215 7.76883 11.9539 7.01984 12.1653C6.82356 12.2211 6.63488 12.2987 6.42625 12.292ZM5.45247 11.0063C5.44106 10.992 5.43489 10.9753 5.42491 10.973C5.41492 10.9706 5.40067 10.9815 5.38831 10.9863C5.39934 11.0011 5.41141 11.0151 5.42443 11.0282C5.43441 11.0214 5.44379 11.0137 5.45247 11.0053V11.0063Z" fill="#AD5B01"/>
    <path d="M15.7528 10.4683C16.1544 10.4407 16.5028 10.2559 16.8535 10.0849C16.9986 10.0053 17.138 9.91574 17.2708 9.81685C17.3107 9.79018 17.3506 9.74971 17.3972 9.7778C17.4518 9.81066 17.4114 9.86161 17.4019 9.90494C17.3364 10.1907 17.3373 10.4707 17.5493 10.7045C17.7108 10.883 18.0597 10.9207 18.2892 10.7997C18.417 10.7391 18.5373 10.664 18.648 10.5759C18.7531 10.4835 18.8614 10.3954 18.9954 10.283C18.9479 10.5611 18.6789 10.6764 18.6266 10.9211C19.0335 10.8154 19.5234 9.99447 19.7672 9.05828C19.964 8.30304 19.8205 7.55685 19.7325 6.80542C19.9004 7.11507 20.0056 7.45492 20.0419 7.80542C20.1099 8.45875 20.0719 9.10875 19.8751 9.74637C19.6375 10.5083 19.1356 11.0668 18.5444 11.5688C18.2175 11.8468 17.8506 12.0597 17.4889 12.283C16.7832 12.2459 16.0499 11.8335 15.8393 11.213C15.755 10.9744 15.7254 10.7199 15.7528 10.4683Z" fill="#AD5B01"/>
    <path d="M11.311 11.3332C11.1414 11.3689 11.1542 11.2584 11.1628 11.1494C11.196 10.7475 11.2146 10.3437 11.2649 9.94365C11.3296 9.43365 11.3291 8.91699 11.4351 8.41032C11.4617 8.2846 11.5087 8.23603 11.6252 8.21984C11.8752 8.18084 12.1301 8.18455 12.3789 8.23079C12.4768 8.25032 12.5281 8.28936 12.5386 8.39841C12.6275 9.31365 12.7368 10.2246 12.7843 11.1427C12.7886 11.2379 12.8294 11.3713 12.6451 11.3332C12.6484 10.8646 12.5894 10.4018 12.5305 9.91937C11.9488 10.4884 11.8462 10.3632 11.4237 9.90699C11.3339 10.3808 11.37 10.8603 11.311 11.3332Z" fill="#909295"/>
    <path d="M10.6426 9.32764C10.6169 9.97287 10.4886 10.611 10.5 11.2591C10.5 11.3491 10.4687 11.4176 10.3703 11.4253C9.79999 11.47 9.24252 11.5981 8.64038 11.6995C8.85757 11.1834 8.95975 10.6757 8.83808 10.1443C9.08664 10.091 9.24347 9.86954 9.54383 9.74526C9.40886 9.9524 9.29385 10.0962 9.27864 10.2767C9.26153 10.4891 9.29195 10.691 9.50248 10.8067C9.69971 10.9148 9.8285 10.7676 9.95967 10.6638C10.2748 10.4119 10.4311 10.0695 10.3489 9.68097C10.2885 9.38097 10.4354 9.35287 10.6426 9.32764Z" fill="#2D2C2A"/>
    <path d="M15.0654 10.1496C15.0601 10.5358 15.0473 10.9224 15.1604 11.2996C15.1734 11.3446 15.1836 11.3904 15.1908 11.4367C15.2027 11.512 15.3305 11.5705 15.2645 11.6386C15.1984 11.7067 15.0863 11.6691 14.9931 11.651C14.5473 11.5658 14.1063 11.4505 13.6501 11.4291C13.575 11.4258 13.5123 11.4215 13.4994 11.3215C13.4153 10.6596 13.3569 9.99482 13.3093 9.3291C13.5099 9.3391 13.6539 9.37053 13.6007 9.64672C13.5199 10.061 13.6833 10.4115 13.9942 10.682C14.0997 10.7734 14.2318 10.8939 14.3943 10.8248C14.4684 10.7963 14.5338 10.7488 14.5838 10.687C14.6339 10.6253 14.6668 10.5514 14.6795 10.4729C14.7075 10.2953 14.6795 10.1262 14.5497 9.98815C14.4898 9.92291 14.4304 9.85958 14.4466 9.76053C14.6818 9.84482 14.8506 10.0339 15.0654 10.1496Z" fill="#2D2C2A"/>
    <path d="M11.3108 11.3334C11.3678 10.8572 11.3317 10.3767 11.4206 9.90479C11.8431 10.361 11.9434 10.4862 12.5274 9.91717C12.5864 10.3995 12.6453 10.8624 12.642 11.331L11.3108 11.3334Z" fill="#58595B"/>
    <path d="M10.6427 9.32757C10.4355 9.35281 10.2887 9.38233 10.3514 9.67995C10.4336 10.0685 10.2773 10.4109 9.96219 10.6628C9.83102 10.7676 9.70223 10.9147 9.505 10.8057C9.29446 10.69 9.26405 10.488 9.28116 10.2757C9.29636 10.0952 9.41137 9.95138 9.54635 9.74424C9.24599 9.86852 9.08916 10.09 8.8406 10.1433C8.80496 9.98329 8.90476 9.88662 9.01502 9.80995C9.46514 9.49631 9.97006 9.27017 10.5035 9.14329C10.7126 9.09519 10.725 9.16805 10.6427 9.32757ZM9.58627 9.72614L9.5896 9.70757L9.56488 9.71281C9.56583 9.7185 9.56811 9.72388 9.57154 9.72852C9.57391 9.73091 9.58104 9.7271 9.58627 9.72614Z" fill="#58595B"/>
    <path d="M15.0653 10.1494C14.8509 10.0337 14.6822 9.84463 14.4475 9.76368C14.4308 9.74225 14.4213 9.69797 14.3843 9.74464L14.4489 9.76178C14.4327 9.86082 14.4921 9.92416 14.552 9.9894C14.6794 10.1275 14.7098 10.2965 14.6818 10.4742C14.6691 10.5527 14.6362 10.6265 14.5861 10.6883C14.5361 10.75 14.4707 10.7976 14.3966 10.8261C14.235 10.8937 14.102 10.7732 13.9964 10.6832C13.6856 10.4127 13.5212 10.0642 13.6029 9.64797C13.6562 9.37178 13.5122 9.34035 13.3116 9.33035C13.2398 9.20606 13.2589 9.13987 13.4185 9.14845C13.5944 9.16035 13.7512 9.23892 13.9142 9.2913C14.3089 9.41879 14.6774 9.61656 15.0021 9.87511C15.0933 9.94892 15.1603 10.0289 15.0653 10.1494Z" fill="#58595B"/>
    <path d="M14.3049 21.1467C14.3927 21.0986 14.4906 21.0721 14.5906 21.0696C14.5121 21.1548 14.4283 21.22 14.3049 21.1467Z" fill="#2D2C2A"/>
    <path d="M9.69507 21.071C9.79496 21.0733 9.89288 21.0993 9.98078 21.1468C9.85793 21.2206 9.77412 21.1539 9.69507 21.071Z" fill="#2D2C2A"/>
    <path d="M15.303 20.9047C15.3551 20.8561 15.4224 20.827 15.4935 20.8223C15.453 20.9047 15.4054 20.9685 15.303 20.9047Z" fill="#2D2C2A"/>
    <path d="M8.79199 20.8228C8.86345 20.8278 8.93087 20.8578 8.98247 20.9075C8.88009 20.9661 8.83104 20.9046 8.79199 20.8228Z" fill="#2D2C2A"/>
    <path d="M10.2178 21.1738C10.2413 21.1649 10.2667 21.162 10.2917 21.1655C10.3166 21.1689 10.3403 21.1784 10.3606 21.1933C10.303 21.2528 10.2549 21.2509 10.2178 21.1738Z" fill="#2D2C2A"/>
    <path d="M18.6296 16.9048C18.6196 16.8572 18.6091 16.8096 18.5986 16.762C18.6915 16.7891 18.6967 16.8377 18.6296 16.9048Z" fill="#2D2C2A"/>
    <path d="M5.65555 17.5715L5.6727 17.6668C5.61365 17.6434 5.59413 17.6139 5.65555 17.5715Z" fill="#2D2C2A"/>
    <path d="M5.68162 16.8542C5.68742 16.8707 5.6883 16.8884 5.68415 16.9053C5.68001 16.9223 5.67102 16.9376 5.65829 16.9495C5.59114 16.9004 5.61876 16.8733 5.68162 16.8542Z" fill="#2D2C2A"/>
    <path d="M16.8547 20.1814C16.8638 20.1582 16.879 20.138 16.8987 20.1228C16.9185 20.1076 16.9419 20.0981 16.9666 20.0952C16.96 20.1638 16.919 20.1905 16.8547 20.1814Z" fill="#2D2C2A"/>
    <path d="M18.6061 17.762C18.5997 17.7459 18.5982 17.7283 18.6017 17.7114C18.6053 17.6944 18.6138 17.6789 18.6261 17.6667C18.6918 17.7115 18.6689 17.7401 18.6061 17.762Z" fill="#2D2C2A"/>
    <path d="M18.3071 18.6189C18.3049 18.5939 18.3111 18.5689 18.3248 18.5479C18.3384 18.5269 18.3586 18.5109 18.3823 18.5027C18.3923 18.5617 18.3766 18.607 18.3071 18.6189Z" fill="#2D2C2A"/>
    <path d="M18.5506 17.9524C18.5465 17.9351 18.5474 17.917 18.5532 17.9002C18.5589 17.8833 18.5692 17.8684 18.583 17.8572C18.6492 17.9134 18.612 17.9362 18.5506 17.9524Z" fill="#2D2C2A"/>
    <path d="M13.9248 21.1934C13.937 21.181 13.9529 21.1729 13.97 21.1703C13.9872 21.1677 14.0048 21.1708 14.02 21.1791C13.9962 21.2324 13.9667 21.2505 13.9248 21.1934Z" fill="#2D2C2A"/>
    <path d="M13.4537 17.8594C13.5084 17.7532 13.4723 17.5385 13.6614 17.5842C13.842 17.6275 13.7717 17.807 13.746 17.9413C13.7346 18.0023 13.7199 18.0627 13.7066 18.1232C13.6943 18.1253 13.6827 18.13 13.6724 18.1369C13.6622 18.1439 13.6535 18.153 13.6471 18.1636C13.6406 18.1742 13.6366 18.1861 13.6351 18.1984C13.6336 18.2108 13.6348 18.2233 13.6386 18.2351C13.6334 18.2469 13.6273 18.2584 13.6206 18.2694C13.5203 18.3408 13.4305 18.4442 13.3178 18.4765C13.1277 18.5308 13.1044 18.6504 13.1196 18.8099C13.0203 19.0565 12.9234 19.3042 12.7195 19.4904C12.2765 19.8961 11.6264 19.7504 11.3303 19.1732C11.2633 19.0423 11.2196 18.8994 11.1654 18.7623C11.2091 18.4342 10.8841 18.5051 10.7467 18.3737C10.7548 18.2861 10.6911 18.2532 10.6289 18.2194C10.5875 18.0875 10.4972 17.9727 10.4986 17.8251C10.4986 17.7218 10.4858 17.6104 10.616 17.5794C10.7462 17.5484 10.7586 17.6651 10.7919 17.748C10.8066 17.7837 10.8228 17.8189 10.8394 17.8546C10.8836 18.1299 11.0504 18.2765 11.3289 18.2832C11.6739 18.2913 11.9025 18.1189 11.9686 17.8008C12.037 17.6508 11.9776 17.5975 11.826 17.5627C11.5513 17.4994 11.3222 17.3532 11.2082 17.0804C11.1074 16.8423 11.1706 16.6765 11.4154 16.6342C11.874 16.5513 12.3436 16.5513 12.8022 16.6342C13.0645 16.6818 13.1349 16.937 12.9756 17.1675C12.8521 17.3442 12.6857 17.4942 12.4785 17.5413C12.3022 17.5818 12.2813 17.6589 12.3188 17.8018C12.383 18.0942 12.5992 18.2727 12.9006 18.2813C13.208 18.2908 13.3677 18.1699 13.4537 17.8594ZM12.2723 18.6099C12.2724 18.6176 12.2713 18.6253 12.2689 18.6327C12.2114 18.7556 12.3198 19.0008 12.1311 18.9932C11.9838 18.9875 12.0788 18.7551 12.0442 18.6256C12.0646 18.5432 12.1007 18.4475 12.0147 18.3923C11.9358 18.3446 11.875 18.4294 11.8075 18.4618C11.7527 18.4901 11.6939 18.5097 11.6331 18.5199C11.4259 18.5465 11.4064 18.6475 11.5104 18.8056C11.5323 18.8646 11.5504 18.9251 11.5765 18.9818C11.7115 19.2785 11.9676 19.458 12.2053 19.4246C12.4781 19.387 12.7124 19.1304 12.768 18.8084C12.8682 18.6561 12.8716 18.5461 12.651 18.5227C12.589 18.5174 12.5292 18.4968 12.4771 18.4627C12.2471 18.2946 12.2556 18.4442 12.2723 18.6099ZM11.7238 16.8004C11.9667 17.0056 12.2732 17.0027 12.4804 16.7837C12.2162 16.7618 11.9824 16.7404 11.7238 16.8018V16.8004Z" fill="#272322"/>
    <path d="M15.7781 17.5569C15.6688 17.0236 15.3447 16.6417 14.9179 16.3317C14.8999 16.3166 14.8782 16.3065 14.855 16.3024C14.8318 16.2983 14.808 16.3004 14.7858 16.3084C14.4484 16.4231 14.2284 16.2522 14.0478 15.996C13.8135 15.6627 13.8011 15.0912 14.0264 14.7579C14.1556 14.5674 14.3267 14.4107 14.5734 14.4446C14.8657 14.485 15.0434 14.6946 15.1522 14.9517C15.2159 15.1031 15.2682 15.2679 15.252 15.4369C15.2378 15.5879 15.2996 15.6274 15.4388 15.6274C15.5969 15.6297 15.7526 15.6663 15.8952 15.7347C16.0378 15.8031 16.1639 15.9016 16.2648 16.0236L16.1807 16.1069C15.9169 15.9803 15.6541 15.8555 15.3466 15.9317C15.204 15.9669 15.1451 16.0017 15.2867 16.1336C15.6669 16.4865 15.9003 16.9269 16.0234 17.4284C16.0709 17.8293 16.088 18.2293 15.9758 18.6246L15.8732 18.5712V17.8093C15.916 17.7074 15.8841 17.6284 15.7976 17.566L15.7781 17.5569ZM14.5772 15.2855C14.5805 15.1212 14.5297 14.9679 14.37 14.955C14.1851 14.9403 14.1799 15.1203 14.1799 15.2493C14.1799 15.3898 14.1989 15.5665 14.3804 15.5688C14.5425 15.5712 14.5867 15.4246 14.5772 15.2855Z" fill="#272322"/>
    <path d="M8.24736 17.4389C8.40609 16.8651 8.68506 16.3646 9.16316 15.9713C8.84712 15.8417 8.58526 15.9413 8.32625 16.0627C8.27872 16.086 8.2312 16.1232 8.18367 16.1427C8.16891 16.1467 8.15343 16.1472 8.13843 16.1442C8.12344 16.1412 8.10932 16.1348 8.09718 16.1255C8.06391 16.0908 8.08863 16.0551 8.11904 16.0255C8.32672 15.8246 8.56577 15.6717 8.85425 15.6374C9.00775 15.6189 9.05575 15.5722 9.04435 15.4208C9.03508 15.2819 9.05443 15.1426 9.1012 15.0115C9.14796 14.8804 9.22115 14.7604 9.31619 14.6589C9.58375 14.3589 9.89741 14.3636 10.1745 14.6541C10.5238 15.0193 10.4991 16.0298 9.87032 16.2889C9.80331 16.3165 9.72775 16.356 9.66597 16.3284C9.38985 16.2055 9.23825 16.4065 9.07761 16.5546C8.78995 16.8264 8.5826 17.1724 8.47833 17.5546L8.42272 17.7546C8.37139 17.776 8.34906 17.8022 8.40229 17.8498L8.37758 17.9927C8.3315 18.0459 8.30613 18.1139 8.30613 18.1844C8.30613 18.2548 8.3315 18.3228 8.37758 18.376C8.38661 18.4236 8.39516 18.4713 8.40371 18.5189L8.30629 18.5622C8.15041 18.1979 8.22502 17.817 8.24736 17.4389ZM10.1293 15.2303C10.0894 15.1136 10.087 14.9393 9.91167 14.9503C9.7363 14.9613 9.70589 15.1332 9.70114 15.2741C9.69686 15.4003 9.73155 15.5555 9.89124 15.5527C10.0699 15.5493 10.0866 15.377 10.1293 15.2303Z" fill="#272322"/>
    <path d="M11.9666 17.8C11.9005 18.1181 11.6719 18.2905 11.3269 18.2824C11.0484 18.2758 10.8816 18.1291 10.8374 17.8539C11.2266 18.1067 11.6011 18.0553 11.9666 17.8Z" fill="#909295"/>
    <path d="M13.4539 17.8594C13.3679 18.1698 13.2082 18.2908 12.8969 18.2817C12.5956 18.2732 12.3793 18.0946 12.3152 17.8022C12.683 18.0584 13.0618 18.0951 13.4539 17.8594Z" fill="#909295"/>
    <path d="M13.1195 18.8095C13.1043 18.65 13.1285 18.5305 13.3177 18.4762C13.4294 18.4438 13.5201 18.3405 13.6204 18.269C13.5776 18.5648 13.3619 18.6995 13.1195 18.8095Z" fill="#909295"/>
    <path d="M10.7468 18.3738C10.8844 18.5052 11.2102 18.4343 11.1664 18.7624C10.9359 18.73 10.7883 18.61 10.7468 18.3738Z" fill="#909295"/>
    <path d="M15.8733 18.5715L15.9785 18.6272L15.8257 19.143H15.748C15.7568 18.9467 15.7992 18.7534 15.8733 18.5715Z" fill="#58595B"/>
    <path d="M8.30737 18.5673L8.40499 18.5239C8.48309 18.6725 8.45261 18.8406 8.49118 18.9963H8.42214C8.34357 18.862 8.32213 18.7144 8.30737 18.5673Z" fill="#2D2C2A"/>
    <path d="M15.7504 19.1428H15.828C15.7804 19.2976 15.7847 19.4704 15.6523 19.6262C15.6228 19.4347 15.6999 19.2904 15.7504 19.1428Z" fill="#909295"/>
    <path d="M8.42188 18.9937H8.49092C8.54282 19.1237 8.60758 19.2503 8.58044 19.4279C8.4414 19.2965 8.4733 19.1289 8.42188 18.9937Z" fill="#58595B"/>
    <path d="M8.37871 18.3809C8.33255 18.3277 8.30713 18.2596 8.30713 18.1892C8.30713 18.1188 8.33255 18.0507 8.37871 17.9976V18.3809Z" fill="#2D2C2A"/>
    <path d="M15.7991 17.5632C15.8857 17.6256 15.9176 17.7061 15.8748 17.8066L15.7991 17.5632Z" fill="#58595B"/>
    <path d="M10.6286 18.2185C10.6909 18.2523 10.7547 18.2852 10.7467 18.3728C10.6495 18.3657 10.609 18.3152 10.6286 18.2185Z" fill="#909295"/>
    <path d="M8.40345 17.8518C8.35012 17.8075 8.37249 17.7799 8.42392 17.7566L8.40345 17.8518Z" fill="#2D2C2A"/>
    <path d="M13.6396 18.2352C13.6358 18.2234 13.6346 18.2109 13.6361 18.1985C13.6376 18.1862 13.6417 18.1743 13.6481 18.1637C13.6546 18.1531 13.6632 18.144 13.6735 18.137C13.6838 18.13 13.6955 18.1254 13.7077 18.1233C13.7263 18.1866 13.7015 18.2223 13.6396 18.2352Z" fill="#909295"/>
    <path d="M16.1812 16.1073L16.2654 16.0239C16.3692 16.093 16.4221 16.2015 16.5159 16.3287C16.3364 16.3049 16.2664 16.1944 16.1812 16.1073Z" fill="#2D2C2A"/>
    <path d="M4.91406 10.2816L4.94454 10.2563L4.97454 10.304C4.96168 10.3087 4.94644 10.3197 4.93692 10.3164C4.92739 10.313 4.92168 10.294 4.91406 10.2816Z" fill="#AD5B01"/>
    <path d="M5.23819 10.8489C5.27533 10.8579 5.3158 10.8641 5.30819 10.9165C5.30819 10.9241 5.27533 10.936 5.27247 10.9327C5.25525 10.9105 5.23935 10.8872 5.22485 10.8632L5.23819 10.8489Z" fill="#F1911C"/>
    <path d="M5.45271 11.0053C5.44398 11.0134 5.43458 11.0208 5.42462 11.0273C5.41157 11.0142 5.39948 11.0002 5.38843 10.9853C5.40081 10.9806 5.41462 10.9696 5.4251 10.972C5.43557 10.9744 5.44128 10.9911 5.45271 11.0053Z" fill="#F1911C"/>
    <path d="M9.58637 9.72633C9.58113 9.72633 9.57399 9.73109 9.57161 9.72871C9.56818 9.72407 9.5659 9.71869 9.56494 9.713L9.5897 9.70776L9.58637 9.72633Z" fill="#2D2C2A"/>
    <path d="M14.4476 9.76204L14.3828 9.74489C14.42 9.69726 14.4304 9.74251 14.4461 9.76395L14.4476 9.76204Z" fill="#2D2C2A"/>
    <path d="M12.768 18.8094C12.7124 19.1314 12.4781 19.388 12.2053 19.4256C11.9677 19.459 11.7115 19.2794 11.5766 18.9828C11.5504 18.9261 11.5324 18.8656 11.5105 18.8066C11.7187 18.838 11.8517 18.6442 12.0442 18.6275C12.0789 18.7552 11.9838 18.9894 12.1312 18.9952C12.3213 19.0028 12.2115 18.7571 12.269 18.6347C12.2713 18.6273 12.2724 18.6196 12.2723 18.6118C12.4301 18.6942 12.5789 18.8018 12.768 18.8094Z" fill="#E82FCA"/>
    <path d="M12.044 18.6256C11.8539 18.6423 11.7185 18.8361 11.5103 18.8047C11.4063 18.6476 11.4257 18.5466 11.6329 18.519C11.6937 18.5088 11.7526 18.4892 11.8074 18.4609C11.8748 18.4285 11.9357 18.3414 12.0146 18.3914C12.1006 18.4475 12.0645 18.5433 12.044 18.6256Z" fill="#58595B"/>
    <path d="M12.7682 18.8096C12.5781 18.8039 12.4303 18.6963 12.2725 18.612C12.2559 18.4462 12.2473 18.2967 12.4774 18.462C12.5295 18.4961 12.5893 18.5167 12.6513 18.522C12.8718 18.5453 12.8685 18.6553 12.7682 18.8096Z" fill="#58595B"/>
    <path d="M11.7239 16.8019C11.9824 16.7405 12.2162 16.7624 12.4805 16.7853C12.2733 17.0043 11.9667 17.0072 11.7239 16.8019Z" fill="#F7F8F8"/>
    <path d="M14.578 15.2859C14.5876 15.4259 14.5433 15.5716 14.3814 15.5692C14.1995 15.5692 14.18 15.3902 14.1804 15.2497C14.1804 15.1207 14.1852 14.9407 14.3709 14.9554C14.5318 14.9673 14.5814 15.1207 14.578 15.2859Z" fill="#F7F8F8"/>
    <path d="M10.1303 15.2306C10.0875 15.3773 10.0708 15.5497 9.89224 15.553C9.73223 15.5559 9.69747 15.4006 9.70176 15.2745C9.70652 15.1316 9.73795 14.9611 9.91271 14.9506C10.0875 14.9402 10.0903 15.114 10.1303 15.2306Z" fill="#F7F8F8"/>
    <defs>
        <linearGradient id="paint0_linear_12464:70106" x1="11.9762" y1="0" x2="11.9762" y2="24" gradientUnits="userSpaceOnUse">
            <stop stop-color="#1192FB"/>
            <stop offset="1" stop-color="#ED2BCA"/>
        </linearGradient>
    </defs>
</svg>
