<svg viewBox="0 0 24 24" fill="none" xmlns="http://www.w3.org/2000/svg">
    <path d="M12 24C18.6273 24 24 18.6273 24 12C24 5.37269 18.6273 0 12 0C5.37269 0 0 5.37269 0 12C0 18.6273 5.37269 24 12 24Z" fill="#2A5ADA"/>
    <path d="M12.0001 4.25L10.5595 5.07455L6.69055 7.30048L5.25 8.12503V15.8751L6.69055 16.6997L12.0412 19.7501L13.4817 18.9256L17.3096 16.6997L18.7501 15.8751V8.12503L17.3096 7.30048L13.4406 5.07455L12.0001 4.25ZM8.1311 14.2674V9.77386L12.0001 7.54793L15.869 9.77386V14.2671L12.0001 16.4933L8.1311 14.2674Z" fill="#FFFDFA"/>
</svg>
