<svg width="24" height="24" viewBox="0 0 24 24" fill="none" xmlns="http://www.w3.org/2000/svg">
<path d="M24 12C24 18.6274 18.6274 24 12 24C5.37258 24 0 18.6274 0 12C0 5.37258 5.37258 0 12 0C18.6274 0 24 5.37258 24 12Z" fill="#122355"/>
<path fill-rule="evenodd" clip-rule="evenodd" d="M14.0808 9.055V15.3238C14.0808 15.4206 13.9401 15.4315 13.9252 15.336L12.0001 3.66089L10.0744 15.3367C10.0591 15.4322 9.91833 15.421 9.91833 15.3238V9.055L7.96131 16.0376C7.92364 16.1722 7.92242 16.3143 7.95778 16.4495C7.99314 16.5847 8.06382 16.708 8.16255 16.8069L11.4426 20.0866C11.5156 20.1599 11.6025 20.2181 11.698 20.2578C11.7936 20.2975 11.8961 20.3179 11.9996 20.3179C12.1031 20.3179 12.2056 20.2975 12.3011 20.2578C12.3967 20.2181 12.4835 20.1599 12.5566 20.0866L15.8373 16.8069C15.936 16.708 16.0067 16.5847 16.0421 16.4495C16.0774 16.3143 16.0762 16.1722 16.0385 16.0376L14.0808 9.055Z" fill="#18E7D6"/>
</svg>
