<svg width="24" height="24" viewBox="0 0 24 24" fill="none" xmlns="http://www.w3.org/2000/svg">
<circle cx="12" cy="12" r="12" fill="white"/>
<g style="mix-blend-mode:multiply" opacity="0.2">
<g style="mix-blend-mode:multiply" opacity="0.2">
<path fill-rule="evenodd" clip-rule="evenodd" d="M12 23.2174C18.1952 23.2174 23.2174 18.1952 23.2174 12C23.2174 5.80478 18.1952 0.782621 12 0.782621C5.80483 0.782621 0.782622 5.80478 0.782622 12C0.782622 18.1952 5.80483 23.2174 12 23.2174ZM12 24C18.6275 24 24 18.6274 24 12C24 5.3726 18.6275 0 12 0C5.3726 0 0 5.3726 0 12C0 18.6274 5.3726 24 12 24Z" fill="#191326"/>
</g>
</g>
<g clip-path="url(#clip0_12482:69588)">
<path d="M18.9973 6.18842V17.8132C18.9504 17.8198 18.9534 17.8571 18.9416 17.8927C18.8248 18.2719 18.6089 18.5791 18.2609 18.7766C18.1051 18.8643 17.9335 18.9249 17.7694 18.996H16.8477C16.7507 18.8525 16.5712 18.8687 16.44 18.7867C16.1289 18.5922 15.9318 18.2921 15.704 18.0217C14.9944 17.18 14.2926 16.3316 13.5869 15.4864C12.5044 14.1917 11.4218 12.8973 10.3393 11.6032C9.37638 10.4525 8.41233 9.30294 7.4471 8.15456C7.39619 8.09356 7.35933 7.9698 7.25488 8.00974C7.15657 8.0466 7.15482 8.15764 7.15482 8.25682C7.15482 10.773 7.15482 13.288 7.15482 15.8019C7.15482 15.8866 7.13155 15.9897 7.23074 16.0358C7.32992 16.0819 7.38566 15.9919 7.45018 15.9371C8.35571 15.1559 9.26067 14.3741 10.165 13.5917C10.3173 13.4601 10.4749 13.3995 10.6294 13.5417C10.7838 13.6839 10.7417 13.8603 10.6359 14.0188C10.3783 14.4032 10.1163 14.785 9.85738 15.1686C9.22365 16.1113 8.58934 17.0534 7.95444 17.9949C7.75607 18.2877 7.5735 18.5922 7.25224 18.7818C7.10698 18.8696 6.92529 18.8696 6.80284 18.9978H6.18842C6.18447 18.949 6.14453 18.9512 6.11162 18.9411C5.73644 18.8304 5.41472 18.5863 5.2071 18.2548C5.13293 18.1398 5.154 17.9708 5.00391 17.901V6.10065C5.09475 6.10065 5.10046 6.01507 5.1167 5.9646C5.22861 5.62271 5.47262 5.39406 5.75701 5.20096C5.87682 5.11933 6.04798 5.13469 6.14453 5.00391H7.11005C7.24171 5.13162 7.42779 5.13776 7.57569 5.23651C7.89212 5.44848 8.09312 5.76315 8.32924 6.04403C9.60664 7.57218 10.8839 9.10179 12.161 10.6329C13.2705 11.9588 14.3823 13.2831 15.4964 14.6055C15.8648 15.0444 16.2326 15.4833 16.5998 15.9221C16.6375 15.966 16.6783 16.0279 16.742 15.9928C16.7677 15.9785 16.7887 15.9571 16.8024 15.931C16.8161 15.905 16.822 15.8755 16.8192 15.8462C16.8157 15.8023 16.8192 15.7585 16.8192 15.7146C16.8192 13.2077 16.8192 10.7009 16.8192 8.19406C16.8192 8.10629 16.8631 7.98823 16.745 7.94347C16.6463 7.90616 16.5884 8.00403 16.5256 8.05801C15.6163 8.84535 14.7093 9.63532 13.8046 10.4279C13.6624 10.5526 13.5127 10.5872 13.3727 10.4744C13.2257 10.3555 13.2156 10.2001 13.3332 10.0307C13.6216 9.61557 13.8976 9.1925 14.1785 8.7725C14.7505 7.91845 15.3224 7.0647 15.8941 6.21124C16.221 5.72497 16.5177 5.20491 17.1484 5.04384C17.1549 5.04384 17.1558 5.01927 17.1593 5.0061H17.7738C17.7856 5.0219 17.7957 5.04999 17.8106 5.04999C18.2359 5.13776 18.5514 5.37651 18.7867 5.7377C18.8753 5.87858 18.8775 6.06159 18.9973 6.18842Z" fill="#020202"/>
<path d="M18.9965 6.18764C18.8767 6.0608 18.8745 5.88043 18.7815 5.73604C18.5462 5.37485 18.2307 5.1361 17.8054 5.04833C17.7905 5.04526 17.7804 5.01892 17.7686 5.00444C18.1381 5.00444 18.5076 5.00927 18.8767 5.00137C18.979 4.99917 19.0022 5.02068 19 5.12381C18.9917 5.47754 18.9965 5.83391 18.9965 6.18764Z" fill="#FCFCFC"/>
<path d="M6.1437 5.00328C6.04715 5.13494 5.87599 5.1187 5.75617 5.20033C5.47179 5.39387 5.22953 5.62209 5.11586 5.96397C5.09962 6.01444 5.09392 6.10002 5.00307 6.10002C5.00307 5.7713 5.00746 5.44171 5 5.11299C5 5.01864 5.01843 4.99845 5.11279 5.00064C5.45643 5.00767 5.80006 5.00328 6.1437 5.00328Z" fill="#FCFCFC"/>
</g>
<defs>
<clipPath id="clip0_12482:69588">
<rect width="14" height="14" fill="white" transform="translate(5 5)"/>
</clipPath>
</defs>
</svg>
