<svg width="24" height="24" viewBox="0 0 24 24" fill="none" xmlns="http://www.w3.org/2000/svg">
    <g clip-path="url(#clip0_12438:69766)">
        <circle cx="12" cy="12" r="12" fill="black"/>
        <g style="mix-blend-mode:multiply" opacity="0.2">
            <g style="mix-blend-mode:multiply" opacity="0.2">
                <path fill-rule="evenodd" clip-rule="evenodd" d="M12 23.2174C18.1952 23.2174 23.2174 18.1952 23.2174 12C23.2174 5.80478 18.1952 0.782621 12 0.782621C5.80483 0.782621 0.782622 5.80478 0.782622 12C0.782622 18.1952 5.80483 23.2174 12 23.2174ZM12 24C18.6275 24 24 18.6274 24 12C24 5.3726 18.6275 0 12 0C5.3726 0 0 5.3726 0 12C0 18.6274 5.3726 24 12 24Z" fill="#191326"/>
            </g>
        </g>
        <path d="M17.6365 12.5978C17.6365 12.5724 17.6365 12.547 17.6365 12.5267C17.0229 12.0446 16.2521 11.8077 15.4737 11.8622C14.6953 11.9166 13.965 12.2585 13.4246 12.8214C12.8795 13.3902 12.5599 14.1379 12.5253 14.9249C12.4908 15.712 12.7436 16.4848 13.2366 17.0993C15.6042 16.3778 17.4129 14.6352 17.6365 12.5978Z" fill="#FCC33C"/>
        <path fill-rule="evenodd" clip-rule="evenodd" d="M9.82252 13.1263C9.82145 13.8081 9.95562 14.4834 10.2172 15.113C10.4789 15.7427 10.8628 16.3142 11.3467 16.7945C11.6801 16.871 12.0208 16.9119 12.3628 16.9164C11.8066 16.1728 11.5378 15.2532 11.606 14.3271C11.6741 13.4009 12.0746 12.5306 12.7337 11.8764C13.386 11.2271 14.2554 10.842 15.1745 10.7951C16.0937 10.7482 16.9978 11.0429 17.7128 11.6224C17.7191 10.6152 17.4913 9.62029 17.0472 8.71626C16.9727 8.56384 16.8965 8.42666 16.8186 8.30472C16.0443 8.00032 15.2072 7.89069 14.3807 7.98548C13.5541 8.08027 12.7635 8.37657 12.0783 8.84835C11.3899 9.32594 10.8284 9.96422 10.4424 10.7079C10.0427 11.4518 9.82998 12.2818 9.82252 13.1263Z" fill="#FCC33C"/>
        <path fill-rule="evenodd" clip-rule="evenodd" d="M6.67754 7.39508C5.54814 8.14548 4.69245 9.24182 4.23884 10.5197C4.1343 10.8226 4.05445 11.1336 4.00005 11.4494V11.6374C3.99462 13.3128 4.47461 14.954 5.38198 16.3624C5.96625 16.7079 7.6073 17.4598 10.8386 17.47C11.7009 17.4724 12.5583 17.3386 13.3789 17.0737C13.0899 17.1201 12.7977 17.1439 12.505 17.1448C11.123 17.1408 9.79526 16.6061 8.79617 15.6511C7.79708 14.6886 7.19171 13.3888 7.09781 12.0047C7.0039 10.6205 7.42817 9.25093 8.28811 8.16226C9.14259 7.08347 10.3764 6.3712 11.7379 6.17064H11.4432C9.76993 6.11189 8.11524 6.53703 6.67754 7.39508Z" fill="#FCC33C"/>
        <path fill-rule="evenodd" clip-rule="evenodd" d="M7.51555 4.6313C6.5268 5.35489 5.70394 6.28126 5.10201 7.34844C4.50008 8.41563 4.13294 9.59903 4.02515 10.8195C4.11025 10.537 4.21378 10.2604 4.33507 9.99137C4.52039 9.56424 4.75758 9.16154 5.04127 8.79234C5.47845 8.20933 6.01093 7.70433 6.61627 7.29863C6.84413 7.1491 7.08176 7.01501 7.32756 6.89726C8.49799 6.33173 9.78229 6.04151 11.0822 6.0488C11.6486 6.03264 12.2156 6.05471 12.7791 6.11485C13.0684 6.15784 13.3605 6.17822 13.653 6.17581C14.0501 6.1539 14.4252 5.98629 14.7064 5.70505C14.9876 5.42382 15.1552 5.04874 15.1772 4.65162C15.1505 4.26502 14.9932 3.89898 14.731 3.61367C14.4687 3.32836 14.1172 3.14076 13.7343 3.0817C13.3557 3.02666 12.9736 2.99949 12.5911 3.00041C10.7676 2.98242 8.98723 3.5545 7.51555 4.6313Z" fill="#FCC33C"/>
        <path fill-rule="evenodd" clip-rule="evenodd" d="M18.0582 12.6534C17.95 13.4022 17.6861 14.12 17.2836 14.7605C16.881 15.4011 16.3488 15.9502 15.7211 16.3725C14.3014 17.3802 12.5997 17.9136 10.8589 17.8967H10.8335C9.15489 17.9479 7.482 17.6772 5.90527 17.099C7.62253 19.3345 11.0672 20.8688 14.2578 20.0813C20.192 18.608 20.8627 12.8973 19.2369 10.3722C18.7832 9.67005 18.175 9.08092 17.4587 8.6499C18.0321 9.90115 18.24 11.2891 18.0582 12.6534Z" fill="#FCC33C"/>
    </g>
    <defs>
        <clipPath id="clip0_12438:69766">
            <rect width="24" height="24" fill="white"/>
        </clipPath>
    </defs>
</svg>
