<svg width="24" height="24" viewBox="0 0 24 24" fill="none" xmlns="http://www.w3.org/2000/svg">
<g clip-path="url(#clip0_12411:69980)">
<path d="M17.5726 2.11144C16.948 2.72901 16.3758 3.39834 15.8672 4.11206L15.7063 4.06029C14.7788 3.76075 13.8176 3.57585 12.8489 3.51298C12.5572 3.49079 11.4688 3.49079 11.1135 3.51298C10.0401 3.58324 9.21733 3.74226 8.28231 4.06399C8.24491 4.07878 8.21125 4.08987 8.17759 4.10097C7.65024 3.39095 7.06305 2.72531 6.41602 2.11514C9.52027 0.543485 13.1519 0.354887 16.402 1.59372C16.7498 1.72315 17.0902 1.87477 17.423 2.03748L17.5726 2.11144Z" fill="#F00500"/>
<path d="M23.3622 16.1378C22.891 17.4654 22.1841 18.6968 21.2678 19.7693C20.7704 20.3461 20.2206 20.875 19.6296 21.3557C18.2458 22.4577 16.6301 23.2454 14.9059 23.6595C12.9985 24.1144 11.0088 24.1144 9.10136 23.6595C7.37345 23.2454 5.76149 22.4577 4.37766 21.3557C3.78673 20.875 3.23694 20.3461 2.73951 19.7693C0.102766 16.6888 -0.697608 12.4583 0.645075 8.6457C0.8994 7.93938 1.21731 7.25895 1.59879 6.6118C1.77458 6.31596 1.9915 5.98315 2.09622 5.84632C2.45527 7.37359 2.89659 8.71596 3.06116 9.2004C3.04994 9.22628 3.03498 9.25587 3.02002 9.28175C2.14858 11.0272 1.67733 12.7098 1.56513 14.4996C1.56513 14.5218 1.56139 14.5477 1.56139 14.5699C1.53147 15.1061 1.54643 15.3612 1.63619 15.6978C1.9167 16.7517 2.78065 17.9129 4.13456 19.0518C6.35242 20.9156 9.35943 22.2617 11.6371 22.417C14.0121 22.576 17.5165 21.2041 19.8503 19.1998C20.2168 18.878 20.5609 18.5378 20.8826 18.1754C21.1145 17.9092 21.4585 17.4506 21.4324 17.4506C21.4249 17.4506 21.4324 17.4432 21.4473 17.4358C21.4585 17.4284 21.4698 17.4173 21.4623 17.4099C21.4585 17.4062 21.466 17.3951 21.4772 17.3914C21.4885 17.3877 21.4959 17.3804 21.4922 17.373C21.4885 17.3656 21.4922 17.3582 21.5072 17.3545C21.5184 17.3508 21.5221 17.3397 21.5184 17.3323C21.5146 17.3249 21.5184 17.3175 21.5259 17.3175C21.5333 17.3175 21.5408 17.3064 21.5408 17.299C21.5408 17.2916 21.5483 17.2805 21.5558 17.2805C21.5633 17.2805 21.5707 17.2731 21.5707 17.2657C21.582 17.2361 21.6007 17.2065 21.6194 17.1807C21.6755 17.0956 21.8999 16.6999 21.9298 16.6334C22.143 16.1563 22.2776 15.731 22.3412 15.3058C22.3711 15.1024 22.3898 14.7289 22.3749 14.6401C22.3711 14.6254 22.3711 14.5995 22.3674 14.5588C22.3599 14.4848 22.3562 14.3739 22.3487 14.2629C22.3412 14.0965 22.3262 13.8636 22.315 13.7489C22.1542 12.07 21.7203 10.6981 20.8975 9.24477C20.8639 9.1893 20.834 9.13383 20.8153 9.08946C20.8078 9.07836 20.804 9.06727 20.8003 9.05987C20.9162 8.71596 21.3912 7.27744 21.769 5.63184L21.7764 5.63923L21.8325 5.71319C21.9298 5.84262 22.1879 6.22721 22.3038 6.41211C22.8311 7.26265 23.2426 8.17605 23.5343 9.13014C24.2112 11.4266 24.1551 13.8747 23.3622 16.1378Z" fill="#F00500"/>
<path d="M18.5074 11.7189C18.4962 11.778 18.3204 11.9556 18.1446 12.085C17.6285 12.4585 16.7047 12.8061 15.7659 12.9725C15.2311 13.0687 14.6963 13.0834 14.5354 13.0058C14.4307 12.954 14.4158 12.9133 14.4532 12.7802C14.5317 12.5029 14.786 12.1996 15.1825 11.9149C15.3844 11.7707 16.2035 11.2788 16.585 11.0717C17.2133 10.7315 17.722 10.5281 18.0661 10.48C18.1745 10.4653 18.3054 10.4616 18.3466 10.48C18.4139 10.5059 18.4887 10.7019 18.5186 10.9386C18.5336 11.0643 18.5261 11.619 18.5074 11.7189Z" fill="black"/>
<path d="M9.69602 12.9431C9.67358 12.9875 9.56138 13.0355 9.43422 13.054C9.30706 13.0725 8.91809 13.0614 8.69743 13.0355C7.90454 12.932 7.06303 12.6916 6.44966 12.3958C6.10557 12.2294 5.85873 12.063 5.67547 11.8818L5.57075 11.7745L5.55953 11.634C5.54083 11.3899 5.54457 11.0053 5.57449 10.8685C5.59319 10.7539 5.63433 10.6429 5.69043 10.5431C5.72035 10.5061 5.72035 10.5061 5.85499 10.5061C6.01955 10.5061 6.15793 10.532 6.38234 10.6023C6.84236 10.7428 7.52679 11.083 8.36082 11.5785C9.04899 11.9853 9.30706 12.185 9.50528 12.4586C9.63992 12.6288 9.72968 12.8691 9.69602 12.9431Z" fill="black"/>
<path d="M14.992 18.0903C14.992 18.1014 14.9471 18.2789 14.891 18.4897C14.8349 18.7005 14.79 18.8706 14.79 18.878C14.7489 18.8817 14.7115 18.8854 14.6703 18.8817H14.5507L14.3861 19.2663C14.2963 19.4771 14.2141 19.6731 14.2028 19.7027L14.1804 19.7544L14.1019 19.6287L14.0233 19.503V18.4786L13.9934 18.486C13.9298 18.5008 13.4773 18.56 13.279 18.5785C12.46 18.6598 11.6372 18.6413 10.8218 18.5267C10.6909 18.5082 10.5787 18.4934 10.575 18.4971C10.5712 18.5008 10.575 18.7375 10.5825 19.0296L10.5937 19.5547L10.5301 19.6509C10.4964 19.7027 10.4628 19.747 10.4628 19.7507C10.4516 19.7618 10.4142 19.7027 10.3281 19.5326C10.2346 19.3551 10.1673 19.1665 10.1187 18.9705L10.0925 18.8632L9.97656 18.8706L9.86062 18.8817L9.8307 18.7449C9.81574 18.6709 9.79704 18.5563 9.78956 18.4934L9.77834 18.3751L9.6811 18.29C9.625 18.242 9.5689 18.1939 9.55768 18.1865C9.53898 18.1717 9.53149 18.1458 9.53149 18.1236V18.0792L9.999 18.0829L10.4665 18.0866L10.4815 18.1347L10.4964 18.1828L10.6573 18.1902C10.747 18.1939 11.0313 18.2013 11.2856 18.2087L11.7531 18.2198L11.8728 18.0349L11.9962 17.85H12.1533L12.1495 17.4654L12.1458 17.0808L11.9401 16.992C11.2781 16.7036 10.8891 16.3745 10.7433 15.9751C10.7134 15.8937 10.7134 15.8641 10.7059 15.4943C10.7021 15.1282 10.7021 15.095 10.7283 15.0136C10.7807 14.8287 10.9265 14.6845 11.1135 14.6364C11.1771 14.6179 11.3454 14.6179 12.2281 14.6179L13.2678 14.6216L13.3838 14.6771C13.5221 14.7437 13.5857 14.7917 13.6643 14.8953C13.754 15.0136 13.7802 15.1061 13.7802 15.3316C13.7802 15.6534 13.7578 15.9307 13.7241 16.0416C13.6755 16.1933 13.6007 16.3375 13.5072 16.4669C13.3202 16.7036 12.9798 16.9403 12.6694 17.0475L12.5796 17.0808L12.5834 17.4691L12.5871 17.8574L12.6694 17.8648L12.7517 17.8722L12.8639 18.0386L12.9724 18.205H13.4735C13.7503 18.205 13.9934 18.2087 14.0158 18.2124C14.0532 18.2198 14.0607 18.2161 14.0981 18.1532L14.143 18.0866H14.5731C14.8948 18.0718 14.992 18.0792 14.992 18.0903Z" fill="black"/>
<path d="M13.0173 19.1517C12.9462 19.1924 12.8976 19.2109 12.8864 19.2035C12.8752 19.1998 12.8228 19.1554 12.7667 19.1147L12.6657 19.0334L12.561 19.1443C12.3328 19.3884 12.3254 19.3995 12.258 19.4032C12.1533 19.4143 12.1309 19.3958 12.0037 19.2072C11.9364 19.1111 11.884 19.0297 11.884 19.0297C11.884 19.0297 11.8354 19.0223 11.7793 19.0186L11.6746 19.0075L11.626 19.1074L11.5774 19.2072L11.4913 19.1813C11.424 19.1591 11.3567 19.1332 11.2931 19.1037L11.1809 19.0482V18.8374L12.1758 18.8411L13.1706 18.8448L13.1744 18.9446C13.1781 19.063 13.1818 19.0593 13.0173 19.1517Z" fill="black"/>
<path d="M22.3676 14.6405C22.3639 14.6257 22.3639 14.5998 22.3601 14.5591C21.4625 14.463 18.9006 14.4038 16.5219 16.3452C16.5219 16.3452 15.7552 12.8691 12.1647 12.8691C8.57423 12.8691 7.24277 16.3452 7.24277 16.3452C5.23062 14.2041 2.53777 14.3594 1.56535 14.5C1.56535 14.5221 1.56161 14.548 1.56161 14.5702C1.53169 15.1064 1.54665 15.3616 1.63641 15.6981C1.91692 16.752 2.78087 17.9132 4.13478 19.0522C6.35264 20.916 9.35965 22.262 11.6373 22.4173C14.0123 22.5764 17.5167 21.2044 19.8505 19.2001C20.2171 18.8784 20.5611 18.5382 20.8828 18.1757C21.1147 17.9095 21.4588 17.4509 21.4326 17.4509C21.4251 17.4509 21.4326 17.4435 21.4475 17.4362C21.4588 17.4288 21.47 17.4177 21.4625 17.4103C21.4588 17.4066 21.4662 17.3955 21.4775 17.3918C21.4887 17.3881 21.4962 17.3807 21.4924 17.3733C21.4887 17.3659 21.4924 17.3585 21.5074 17.3548C21.5186 17.3511 21.5223 17.34 21.5186 17.3326C21.5149 17.3252 21.5186 17.3178 21.5261 17.3178C21.5336 17.3178 21.541 17.3067 21.541 17.2993C21.541 17.2919 21.5485 17.2808 21.556 17.2808C21.5635 17.2808 21.571 17.2734 21.571 17.266C21.5822 17.2365 21.6009 17.2069 21.6196 17.181C21.6757 17.0959 21.9001 16.7003 21.93 16.6337C22.1432 16.1566 22.2778 15.7314 22.3414 15.3061C22.3639 15.1027 22.3826 14.7292 22.3676 14.6405ZM13.0174 19.152C12.9464 19.1927 12.8977 19.2112 12.8865 19.2038C12.8753 19.2001 12.8229 19.1557 12.7668 19.115L12.6659 19.0337L12.5611 19.1446C12.333 19.3887 12.3255 19.3998 12.2582 19.4035C12.1535 19.4146 12.131 19.3961 12.0039 19.2075C11.9366 19.1113 11.8842 19.03 11.8842 19.03C11.8842 19.03 11.8356 19.0226 11.7795 19.0189L11.6747 19.0078L11.6261 19.1076L11.5775 19.2075L11.4915 19.1816C11.4242 19.1594 11.3568 19.1335 11.2933 19.1039L11.1811 19.0485V18.8377L12.1759 18.8414L13.1708 18.8451L13.1745 18.9449C13.1783 19.0633 13.182 19.0596 13.0174 19.152ZM14.8875 18.4864C14.8314 18.6972 14.7865 18.8673 14.7865 18.8747C14.7453 18.8784 14.7079 18.8821 14.6668 18.8784H14.5471L14.3863 19.2667C14.2965 19.4774 14.2143 19.6734 14.203 19.703L14.1806 19.7548L14.1021 19.6291L14.0235 19.5033V18.479L13.9936 18.4864C13.93 18.5012 13.4775 18.5603 13.2792 18.5788C12.4602 18.6602 11.6373 18.6417 10.822 18.5271C10.6911 18.5086 10.5789 18.4938 10.5752 18.4975C10.5714 18.5012 10.5752 18.7378 10.5827 19.03L10.5939 19.5551L10.5303 19.6512C10.4966 19.703 10.463 19.7474 10.463 19.7511C10.4517 19.7622 10.4143 19.703 10.3283 19.5329C10.2348 19.3554 10.1675 19.1668 10.1189 18.9708L10.0927 18.8636L9.97676 18.871L9.86082 18.8821L9.83089 18.7452C9.81593 18.6713 9.79724 18.5566 9.78975 18.4938L9.77854 18.3754L9.68129 18.2904C9.62519 18.2423 9.56909 18.1942 9.55787 18.1868C9.53917 18.1721 9.53169 18.1462 9.53169 18.124V18.0796L9.9992 18.0833L10.4667 18.087L10.4817 18.1351L10.4966 18.1831L10.6575 18.1905C10.7472 18.1942 11.0315 18.2016 11.2858 18.209L11.7533 18.2201L11.873 18.0352L11.9964 17.8503H12.1535L12.1497 17.4657L12.146 17.0811L11.9403 16.9924C11.2783 16.704 10.8893 16.3748 10.7435 15.9754C10.7136 15.8941 10.7136 15.8645 10.7061 15.4947C10.7023 15.1286 10.7023 15.0953 10.7285 15.014C10.7809 14.8291 10.9267 14.6849 11.1137 14.6368C11.1773 14.6183 11.3456 14.6183 12.2283 14.6183L13.268 14.622L13.384 14.6775C13.5223 14.744 13.5859 14.7921 13.6645 14.8956C13.7542 15.014 13.7804 15.1064 13.7804 15.332C13.7804 15.6537 13.758 15.9311 13.7243 16.042C13.6757 16.1936 13.6009 16.3379 13.5074 16.4673C13.3204 16.704 12.98 16.9406 12.6696 17.0479L12.5798 17.0811L12.5836 17.4694L12.5873 17.8577L12.6696 17.8651L12.7519 17.8725L12.8641 18.0389L12.9725 18.2053H13.4737C13.7505 18.2053 13.9936 18.209 14.016 18.2127C14.0534 18.2201 14.0609 18.2164 14.0983 18.1536L14.1432 18.087H14.5733C14.9062 18.087 15.0034 18.0907 15.0034 18.1018C14.9922 18.0981 14.9436 18.2793 14.8875 18.4864Z" fill="white"/>
<path d="M22.3374 14.2631C22.3299 14.0967 22.315 13.8637 22.3038 13.7491C22.1429 12.0702 21.7091 10.6982 20.8863 9.24491C20.8526 9.18944 20.8227 9.13397 20.804 9.08959C20.7965 9.0785 20.7928 9.06741 20.789 9.06001C20.905 8.7161 21.38 7.27758 21.7577 5.63197C22.2701 3.39838 22.5955 0.787592 21.6006 0.0036171C21.6006 0.0036171 19.8802 -0.122115 17.5763 2.11148C16.9517 2.72904 16.3795 3.39838 15.8708 4.11209L15.71 4.06032C14.7825 3.76078 13.8213 3.57588 12.8526 3.51302C12.5609 3.49083 11.4725 3.49083 11.1172 3.51302C10.0438 3.58328 9.22101 3.74229 8.28599 4.06402C8.24859 4.07881 8.21493 4.0899 8.18127 4.101C7.65392 3.39098 7.06673 2.72534 6.4197 2.11517C4.02232 -0.129511 2.23831 -8.11201e-05 2.23831 -8.11201e-05C1.18361 0.80978 1.54266 3.5389 2.08871 5.84645C2.44775 7.37372 2.88908 8.7161 3.05364 9.20053C3.04242 9.22642 3.02746 9.25601 3.0125 9.28189C2.14107 11.0273 1.66982 12.7099 1.55762 14.4998C2.53377 14.3592 5.22288 14.2002 7.23878 16.3451C7.23878 16.3451 8.57024 12.8689 12.1607 12.8689C15.7512 12.8689 16.5179 16.3451 16.5179 16.3451C18.8966 14.4036 21.4585 14.4665 22.3561 14.5589C22.3524 14.485 22.3449 14.374 22.3374 14.2631ZM3.76052 7.80639C3.76052 7.80639 2.36173 4.34876 2.72078 2.37403C2.78062 2.04121 2.89282 1.74907 3.0686 1.52719C3.0686 1.52719 4.65439 1.68251 7.21259 4.49299C7.21259 4.49299 6.72639 4.72596 6.07562 5.22149C6.07562 5.22149 6.07187 5.22519 6.06813 5.22519C5.36126 5.7614 4.45617 6.61194 3.76052 7.80639ZM9.696 12.9429C9.67356 12.9873 9.56135 13.0354 9.43419 13.0538C9.30703 13.0723 8.91807 13.0612 8.6974 13.0354C7.90451 12.9318 7.06299 12.6914 6.44962 12.3956C6.10554 12.2292 5.85869 12.0628 5.67543 11.8816L5.57071 11.7743L5.55949 11.6338C5.54079 11.3897 5.54453 11.0052 5.57445 10.8683C5.59315 10.7537 5.63429 10.6428 5.69039 10.5429C5.72031 10.5059 5.72031 10.5059 5.85495 10.5059C6.01952 10.5059 6.1579 10.5318 6.3823 10.6021C6.84233 10.7426 7.52676 11.0828 8.3608 11.5783C9.04897 11.9851 9.30703 12.1848 9.50525 12.4585C9.6399 12.6286 9.72966 12.8689 9.696 12.9429ZM18.5076 11.7189C18.4964 11.778 18.3206 11.9555 18.1448 12.085C17.6287 12.4585 16.7049 12.8061 15.7661 12.9725C15.2313 13.0686 14.6965 13.0834 14.5356 13.0058C14.4309 12.954 14.416 12.9133 14.4534 12.7802C14.5319 12.5028 14.7862 12.1996 15.1827 11.9149C15.3846 11.7706 16.2037 11.2788 16.5852 11.0717C17.2135 10.7315 17.7222 10.5281 18.0663 10.48C18.1747 10.4653 18.3056 10.4616 18.3468 10.48C18.4141 10.5059 18.4889 10.7019 18.5188 10.9386C18.5338 11.0643 18.5263 11.619 18.5076 11.7189ZM17.8867 5.22149L17.8793 5.21779C17.2509 4.72226 16.7797 4.48929 16.7797 4.48929C19.2519 1.67881 20.7815 1.52349 20.7815 1.52349C20.9499 1.74907 21.0583 2.03752 21.1182 2.37034C21.466 4.34507 20.1158 7.80639 20.1158 7.80639C19.5511 6.81163 18.7918 5.93151 17.8867 5.22149Z" fill="#FFA409"/>
<path d="M21.1222 2.37052C20.8305 2.33354 19.4504 2.32615 17.8871 5.22168L17.8796 5.21798C17.2513 4.72245 16.78 4.48947 16.78 4.48947C19.2522 1.679 20.7819 1.52368 20.7819 1.52368C20.9539 1.74926 21.0624 2.0377 21.1222 2.37052Z" fill="#FF9300"/>
<path d="M20.1198 7.80645C19.5513 6.80799 18.7958 5.93156 17.887 5.22155C19.4503 2.32601 20.8266 2.3334 21.1221 2.37038C21.4699 4.34882 20.1198 7.80645 20.1198 7.80645Z" fill="#FF8300"/>
<path d="M21.1775 2.3817C21.159 2.378 21.1406 2.3743 21.1221 2.37061L21.1775 2.3817Z" fill="#FF8300"/>
<path d="M7.21187 4.48947C7.21187 4.48947 6.72566 4.72245 6.07489 5.21798C6.07489 5.21798 6.07115 5.22168 6.06741 5.22168C4.44796 2.32245 3.02299 2.33354 2.71631 2.37052C2.77615 2.0377 2.88835 1.74556 3.06414 1.52368C3.06788 1.52368 4.65366 1.679 7.21187 4.48947Z" fill="#FF9300"/>
<path d="M6.07189 5.22155C5.36128 5.76146 4.45619 6.6083 3.76054 7.80645C3.76054 7.80645 2.36176 4.34882 2.7208 2.37038C3.02375 2.3334 4.45245 2.32601 6.07189 5.22155Z" fill="#FF8300"/>
<path d="M2.72006 2.37061C2.70157 2.3743 2.67938 2.378 2.66089 2.3817L2.72006 2.37061Z" fill="#FF8300"/>
<path d="M16.3348 9.72559C16.3348 9.72559 15.138 9.79954 15.2876 8.87505C15.4372 7.95056 16.3722 7.83962 16.634 7.8766C16.8958 7.91358 17.943 8.28338 17.756 9.05995C17.569 9.83652 17.3072 9.68861 17.1576 9.72559C17.008 9.76257 16.3348 9.72559 16.3348 9.72559Z" fill="white"/>
<path d="M7.50815 9.72559C7.50815 9.72559 6.31134 9.79954 6.46094 8.87505C6.61054 7.95056 7.54555 7.83962 7.80735 7.8766C8.06915 7.91358 9.11636 8.28338 8.92936 9.05995C8.74236 9.83652 8.48056 9.68861 8.33096 9.72559C8.18135 9.76257 7.50815 9.72559 7.50815 9.72559Z" fill="white"/>
</g>
<defs>
<clipPath id="clip0_12411:69980">
<rect width="24" height="24" fill="white"/>
</clipPath>
</defs>
</svg>
