<svg width="24" height="24" viewBox="0 0 24 24" fill="none" xmlns="http://www.w3.org/2000/svg">
<path d="M12 24C18.6274 24 24 18.6274 24 12C24 5.37258 18.6274 0 12 0C5.37258 0 0 5.37258 0 12C0 18.6274 5.37258 24 12 24Z" fill="black"/>
<path d="M7.75613 15.0556C7.79807 15.0097 7.84916 14.973 7.90613 14.9479C7.9629 14.9231 8.02416 14.9101 8.08613 14.9098L18.2444 14.9182C18.2877 14.9183 18.3301 14.9308 18.3663 14.9545C18.4026 14.9781 18.4312 15.0118 18.4486 15.0514C18.4661 15.0911 18.4717 15.1349 18.4646 15.1776C18.4576 15.2203 18.4383 15.2601 18.4091 15.292L16.2458 17.6741C16.204 17.72 16.1531 17.7567 16.0962 17.7818C16.0394 17.8069 15.978 17.8199 15.9158 17.8199L5.75783 17.8115C5.7146 17.8113 5.67234 17.7986 5.63616 17.775C5.59999 17.7513 5.57145 17.7176 5.55402 17.6781C5.53659 17.6385 5.53101 17.5947 5.53795 17.5521C5.54489 17.5094 5.56406 17.4696 5.59313 17.4377L7.75613 15.0556ZM18.4082 13.0729C18.4374 13.1049 18.4567 13.1446 18.4637 13.1874C18.4708 13.2301 18.4652 13.2739 18.4477 13.3135C18.4303 13.3532 18.4017 13.3868 18.3654 13.4105C18.3292 13.4341 18.2868 13.4467 18.2435 13.4467L8.08553 13.4551C8.02341 13.4552 7.96196 13.4422 7.90513 13.4171C7.8483 13.392 7.79734 13.3553 7.75553 13.3093L5.59283 10.9261C5.56375 10.8941 5.54458 10.8543 5.53763 10.8115C5.5306 10.7689 5.53613 10.7251 5.55355 10.6855C5.57097 10.6459 5.59952 10.6123 5.63573 10.5886C5.67198 10.565 5.71426 10.5523 5.75753 10.552L15.9158 10.5439C15.978 10.5438 16.0395 10.5567 16.0963 10.5818C16.1531 10.6069 16.2041 10.6437 16.2458 10.6897L18.4082 13.0729ZM7.75613 6.32622C7.79788 6.28019 7.84883 6.24343 7.90567 6.21832C7.96251 6.1932 8.02399 6.18029 8.08613 6.18042L18.2444 6.18882C18.2877 6.18887 18.33 6.20148 18.3662 6.22513C18.4024 6.24878 18.431 6.28244 18.4484 6.32202C18.4659 6.36153 18.4714 6.40525 18.4645 6.44786C18.4575 6.49048 18.4383 6.53014 18.4091 6.56202L16.2458 8.94403C16.204 8.98998 16.1531 9.02669 16.0962 9.0518C16.0394 9.07691 15.978 9.08986 15.9158 9.08983L5.75783 9.08143C5.71453 9.08143 5.67217 9.0688 5.63593 9.04509C5.5997 9.02138 5.57117 8.98761 5.55383 8.94793C5.53655 8.90839 5.53107 8.8647 5.53804 8.82212C5.54501 8.77954 5.56415 8.73989 5.59313 8.70793L7.75613 6.32622Z" fill="url(#paint0Solana)"/>
<defs>
<linearGradient id="paint0Solana" x1="5.92733" y1="18.0734" x2="18.0738" y2="5.92695" gradientUnits="userSpaceOnUse">
<stop stop-color="#9945FF"/>
<stop offset="0.2" stop-color="#7962E7"/>
<stop offset="1" stop-color="#00D18C"/>
</linearGradient>
</defs>
</svg>
