<svg width="24" height="24" viewBox="0 0 24 24" fill="none" xmlns="http://www.w3.org/2000/svg">
<path d="M24 12C24 18.6274 18.6274 24 12 24C5.37258 24 0 18.6274 0 12C0 5.37258 5.37258 0 12 0C18.6274 0 24 5.37258 24 12Z" fill="#3563BB"/>
<path d="M21.184 13.3777C21.184 14.1777 21.2222 14.9777 21.1787 15.7723C21.1218 16.8026 20.5645 17.5208 19.6605 18.0052C17.9422 18.927 16.248 19.8941 14.52 20.7963C13.2027 21.4835 11.8098 21.6977 10.3627 21.1999C9.68889 20.9679 9.09956 20.5608 8.47911 20.2301C7.42667 19.6701 6.36356 19.1288 5.31912 18.5537C4.85245 18.2977 4.40267 18.0203 3.96356 17.719C3.6262 17.4998 3.34632 17.2029 3.14742 16.8532C2.94852 16.5035 2.83639 16.1112 2.82045 15.7092C2.67867 13.2431 2.67867 10.7709 2.82045 8.30478C2.87289 7.44256 3.31556 6.75278 4.06489 6.26034C5.22045 5.49145 6.49956 4.9359 7.69511 4.23456C7.808 4.02479 8.05067 4.06301 8.21956 3.9679C8.62489 3.75723 9.04889 3.57501 9.43289 3.33145C11.1413 2.24701 12.8596 2.45323 14.5716 3.28701C15.4462 3.71278 16.2933 4.19545 17.1493 4.6639C18.0533 5.16078 18.944 5.68256 19.8507 6.17501C20.7316 6.65234 21.1298 7.42567 21.184 8.37678C21.2284 9.09767 21.184 9.82389 21.184 10.5474C21.0711 10.6888 21.1049 10.8568 21.104 11.015C21.1004 11.6491 21.1004 12.2829 21.104 12.9163C21.1058 13.0675 21.072 13.2355 21.184 13.3777Z" fill="#15275D"/>
<path d="M21.184 13.3776C21.0293 13.3207 21.0168 13.1901 21.0168 13.0541C21.0168 12.3234 21.0168 11.593 21.0168 10.863C21.0168 10.7261 21.032 10.5963 21.1857 10.5403C21.1851 11.4837 21.1846 12.4295 21.184 13.3776Z" fill="#0E2D4C"/>
<path d="M8.2222 3.96094C8.07379 4.09427 7.89293 4.18623 7.69775 4.2276C7.72531 3.86138 8.01242 3.98938 8.2222 3.96094Z" fill="#40579F"/>
<path d="M4.83375 16.7742C4.80389 16.732 4.78876 16.6813 4.79069 16.6297C4.79262 16.5781 4.8115 16.5286 4.84441 16.4888C5.34219 16.3564 5.7333 16.0159 6.19552 15.8062C6.51108 15.6613 6.79197 15.439 7.15108 15.3937C7.23445 15.4202 7.31584 15.4526 7.39464 15.4906C7.72975 15.7573 8.20174 15.7946 8.4933 16.1368C8.56886 16.3768 8.64174 16.6213 8.9813 16.4426C9.26574 16.3537 9.47641 16.5493 9.66485 16.679C10.1875 17.0408 10.7706 17.2853 11.3333 17.5617C11.7306 17.7582 12.1333 17.7502 12.5777 17.4728C13.2489 17.0479 13.952 16.6524 14.7235 16.4133C14.9849 16.4533 15.1377 16.3004 15.2657 16.1039C15.6266 15.8782 15.9573 15.6017 16.3769 15.4817C16.5032 15.4668 16.6273 15.4369 16.7466 15.3928C17.3742 15.4906 17.848 15.9173 18.3982 16.1804C18.656 16.3039 18.8969 16.4719 19.1689 16.5759C19.2933 16.6399 19.3537 16.7244 19.2577 16.8577C18.6044 17.3413 17.8506 17.6444 17.1449 18.0337C15.6977 18.8337 14.2169 19.567 12.7724 20.3706C12.7183 20.3936 12.6628 20.4132 12.6062 20.4293C12.0311 20.7919 11.48 20.6071 10.9377 20.3457C10.8122 20.3025 10.6965 20.2348 10.5973 20.1466C8.97952 19.2577 7.33774 18.4142 5.72086 17.5253C5.38219 17.3386 4.95286 17.2266 4.83375 16.7742Z" fill="#5598EB"/>
<path d="M12.6808 6.09864C12.6737 5.45242 12.6622 4.8062 12.6631 4.15909C12.6631 4.0222 12.5973 3.86042 12.752 3.75553C13.2204 3.72264 13.576 4.00886 13.952 4.20797C14.2453 4.36353 14.5342 4.52975 14.832 4.67909C16.2017 5.41687 17.5653 6.1662 18.9324 6.90842C19.3057 7.11109 19.8133 7.19731 19.9724 7.70309C19.9075 7.81864 19.7848 7.8942 19.6791 7.85864C19.28 7.72709 18.8293 7.85864 18.4568 7.61064C18.4133 7.58131 18.3848 7.51553 18.3111 7.57686C17.7955 8.00975 17.1315 8.17153 16.5697 8.52264C16.0862 8.59642 15.7697 8.22842 15.392 8.04886C15.1946 7.95997 15.0168 7.82842 14.7937 7.80175C14.1795 7.28886 13.4408 6.97509 12.7768 6.5422C12.5857 6.42931 12.7022 6.24886 12.6808 6.09864Z" fill="#44C5F7"/>
<path d="M11.0835 3.77779C11.3671 3.96534 11.1475 4.26934 11.2498 4.49867C11.4747 4.73423 11.4667 5.0249 11.4275 5.3129C11.3967 5.54126 11.3803 5.77135 11.3787 6.00178C11.3787 6.08001 11.3787 6.15823 11.3787 6.23645C11.3847 6.31175 11.3796 6.38753 11.3635 6.46134C11.304 6.56623 11.2382 6.66667 11.1084 6.69601C10.904 6.62312 10.7138 6.72001 10.5751 6.82134C10.199 7.0762 9.80413 7.30204 9.39376 7.4969C9.25865 7.56534 9.25421 7.72001 9.13421 7.7849C8.57154 7.8569 8.13776 8.22045 7.64354 8.44712C7.49598 8.51467 7.37065 8.61512 7.19909 8.55734C6.96709 8.53867 6.84354 8.37956 6.74754 8.19556L6.65865 8.10668C6.50131 7.98223 6.27998 7.89068 6.37776 7.62312C6.44798 7.4329 6.60799 7.41423 6.78043 7.44534C6.86991 7.45792 6.95742 7.48181 7.04087 7.51645C6.16799 7.18134 5.36265 7.3929 4.56265 7.77512C4.1591 7.96801 4.00532 7.88001 3.94043 7.52356C4.88621 6.81245 5.97243 6.3449 6.99554 5.7689C8.04532 5.1769 9.12887 4.63912 10.1627 4.02756C10.439 3.8571 10.7589 3.77034 11.0835 3.77779V3.77779Z" fill="#44C5F7"/>
<path d="M16.5617 8.42485C16.9369 8.07552 17.3244 7.74841 17.8631 7.68885C17.9911 7.67463 18.1689 7.69952 18.08 7.47908C18.0106 7.30663 18.0106 7.18396 18.2284 7.16885C18.3875 7.1573 18.5706 7.1333 18.5991 7.36974C18.6115 7.47196 18.6142 7.63641 18.7475 7.57596C19.1786 7.38752 19.5404 7.76352 19.9493 7.69063C19.9742 7.63819 19.984 7.57774 20.0382 7.53952C20.1045 7.57562 20.158 7.63148 20.1911 7.69933C20.2242 7.76719 20.2354 7.84368 20.2231 7.91819C20.2293 8.26307 20.2231 8.60708 20.208 8.95019C19.8355 9.11996 19.5315 9.47107 19.0382 9.31641C18.8062 9.24352 18.5369 9.29774 18.2915 9.35108C18.0754 9.40391 17.8488 9.39529 17.6373 9.32619C17.5572 9.29482 17.4797 9.25737 17.4053 9.21419C17.1484 9.08263 16.944 8.87374 16.688 8.73952C16.5591 8.67463 16.4746 8.57774 16.5617 8.42485Z" fill="#48B8F4"/>
<path d="M6.79979 8.04424C7.00512 8.08691 6.96335 8.38557 7.18379 8.41224C7.29046 8.60513 7.1429 8.7118 7.04068 8.83357C6.8629 8.90113 6.69401 8.97402 6.6149 9.1678C6.58899 9.23549 6.54301 9.29365 6.48311 9.33448C6.42322 9.37531 6.35228 9.39686 6.27979 9.39624C5.87624 9.31357 5.51534 9.18379 5.18734 8.88868C4.7109 8.46113 4.39357 8.56957 4.11534 9.14113C4.00157 9.37579 3.84868 9.50113 3.61846 9.24513C3.59001 8.90735 3.60334 8.57046 3.60423 8.23268C3.73312 7.97135 3.69312 7.63535 3.95445 7.43268C3.97934 7.44779 3.98912 7.46557 3.98468 7.48513C3.98023 7.50468 3.9749 7.51624 3.96779 7.51624C4.08779 7.78291 4.27001 7.67713 4.44868 7.59891C4.90646 7.39624 5.35623 7.17757 5.85934 7.09935C6.02646 7.07357 6.1909 7.05669 6.33045 7.15357C6.56334 7.31446 6.81757 7.34557 7.08868 7.33669C7.25312 7.33135 7.42468 7.34113 7.48335 7.54202C7.51357 7.64513 7.51535 7.75802 7.40601 7.81579C7.24068 7.90468 7.13223 7.77668 7.01401 7.69135C6.95494 7.64729 6.89185 7.6089 6.82557 7.57668C6.71001 7.52335 6.58557 7.50468 6.51179 7.63091C6.4229 7.78735 6.55446 7.82646 6.65935 7.88602C6.71487 7.93068 6.76236 7.98449 6.79979 8.04513C6.71979 8.15091 6.54557 8.12602 6.52157 8.21491C6.56246 8.14824 6.71712 8.14557 6.79979 8.04424Z" fill="#47BBF6"/>
<path d="M19.0615 14.9778C19.081 15.4622 18.9317 15.8667 18.513 16.144C18.3966 16.2427 18.2793 16.1645 18.1886 16.1165C17.7948 15.9084 17.3682 15.7511 17.0562 15.4107C17.3699 14.9404 17.6908 14.4791 18.3362 14.448C18.6419 14.4684 18.9015 14.5787 19.0784 14.8427C19.0882 14.8646 19.0919 14.8888 19.0889 14.9126C19.0859 14.9364 19.0764 14.959 19.0615 14.9778Z" fill="#130E5A"/>
<path d="M5.2206 16.2313C4.78593 15.9646 4.6126 15.5708 4.67216 15.0695C4.61527 14.9201 4.73082 14.8517 4.8126 14.7673C4.86739 14.7156 4.93193 14.6754 5.00244 14.649C5.07295 14.6226 5.14803 14.6105 5.22327 14.6135C5.57637 14.642 5.91387 14.7713 6.19571 14.9859C6.4046 15.1486 6.52282 15.3139 6.51216 15.5726C6.14327 15.9121 5.75571 16.2161 5.2206 16.2313Z" fill="#06072B"/>
<path d="M3.97158 7.51982C3.97161 7.49144 3.96711 7.46323 3.95825 7.43627C4.02403 7.23004 4.21425 7.15982 4.3778 7.07093C6.39262 5.97286 8.40743 4.87656 10.4222 3.78204C10.6462 3.66027 10.8605 3.62293 11.0818 3.77582C10.2756 3.99627 9.58403 4.45849 8.87203 4.86471C7.78669 5.48693 6.6498 6.00782 5.58314 6.65938C5.06936 6.9776 4.5218 7.25582 3.97158 7.51982Z" fill="#76DEFB"/>
<path d="M12.5777 20.32C14.0826 19.52 15.5813 18.7067 17.0968 17.928C17.808 17.5609 18.4835 17.1076 19.2542 16.8542C19.2248 17.136 18.96 17.1725 18.7822 17.2685C17.0995 18.1778 15.4097 19.0667 13.7244 19.9556C13.376 20.1405 13.0595 20.3867 12.6684 20.4889C12.6062 20.5431 12.5333 20.5431 12.4951 20.4765C12.4569 20.4098 12.5093 20.3538 12.5777 20.32Z" fill="#3C64F2"/>
<path d="M11.2505 6.08869C11.2505 5.55536 11.2505 5.02499 11.2505 4.49758C11.5456 4.59447 11.8398 4.44158 12.1394 4.49758C12.2389 4.65758 12.4594 4.53847 12.566 4.68158C12.566 4.9767 12.566 5.27092 12.566 5.56603C12.502 5.99625 12.5012 5.99714 12.0789 5.84069C11.9972 5.80515 11.9057 5.79873 11.8198 5.82252C11.7339 5.8463 11.6588 5.89884 11.6069 5.97136C11.5109 6.07625 11.4292 6.22736 11.2505 6.08869Z" fill="#030726"/>
<path d="M4.83368 16.7742C5.30391 17.2613 5.93235 17.5013 6.50568 17.8204C7.86924 18.5795 9.2479 19.3093 10.6203 20.0506C10.5963 20.0924 10.5839 20.1457 10.5244 20.1537C9.68791 19.8337 8.92435 19.3599 8.13057 18.9582C7.12346 18.4506 6.1528 17.8702 5.16257 17.3271C4.93857 17.1999 4.77857 17.0568 4.83368 16.7742Z" fill="#426BFC"/>
<path d="M19.0614 14.978C19.0534 14.9509 19.0516 14.9223 19.0561 14.8944C19.0766 14.6606 19.2543 14.6642 19.4117 14.6811C19.7059 14.714 19.8285 14.5655 19.8205 14.3033C19.8019 13.6704 19.9174 13.0455 19.9094 12.4162C19.9094 11.9184 20.0517 11.426 19.9512 10.9255C19.9129 10.4634 19.9034 9.99944 19.9228 9.53618C19.929 9.3433 19.953 9.1593 20.121 9.03041C20.1592 8.66152 20.0766 8.28285 20.2161 7.92285C20.3388 8.27841 20.2765 8.65263 20.2748 9.01796C20.2632 10.8002 20.2383 12.5824 20.2206 14.3655C20.2117 15.1815 19.9174 15.3655 19.1877 15.0064C19.1469 14.9919 19.1045 14.9824 19.0614 14.978V14.978Z" fill="#3363EF"/>
<path d="M20.0339 7.53965C20.0055 7.58943 19.9779 7.64009 19.945 7.69076C19.4713 7.18231 18.809 6.97965 18.2286 6.64543C17.0961 5.99476 15.9379 5.38942 14.7904 4.76542C14.7771 4.75418 14.7667 4.73995 14.76 4.72391C14.7533 4.70788 14.7505 4.69048 14.7518 4.67314C14.7531 4.65581 14.7585 4.63902 14.7675 4.62416C14.7765 4.60931 14.7889 4.59679 14.8037 4.58765C16.4416 5.47002 18.0775 6.35565 19.7113 7.24454C19.8357 7.3112 19.9264 7.4392 20.0339 7.53965Z" fill="#76DDFA"/>
<path d="M4.86121 14.8889C4.85232 15.0063 4.70477 14.9778 4.67188 15.0667C3.71277 15.5654 3.54921 15.1654 3.58566 14.3325C3.62032 13.5414 3.59721 12.7476 3.59899 11.9556C3.6281 11.9294 3.66506 11.9135 3.70412 11.9105C3.74318 11.9074 3.78215 11.9173 3.81499 11.9387C3.87138 11.9901 3.90524 12.0616 3.90921 12.1378C3.9981 12.8374 3.9981 13.5414 3.99365 14.2454C3.99365 14.5592 4.07632 14.7645 4.46387 14.6658C4.63365 14.6223 4.8221 14.6445 4.86121 14.8889Z" fill="#4A74FD"/>
<path d="M11.2508 6.08891C11.2859 6.07942 11.318 6.06126 11.3443 6.0361C11.3705 6.01094 11.39 5.97958 11.401 5.94491C11.4437 5.79024 11.3939 5.56891 11.673 5.58935C11.929 5.60802 12.249 5.42757 12.3574 5.8338C12.5352 5.8018 12.4783 5.63291 12.5645 5.56713L12.5805 6.18935C12.6579 6.4018 12.5619 6.50846 12.3601 6.55024C12.3123 6.55092 12.2649 6.5409 12.2214 6.5209C12.0382 6.43372 11.8353 6.39632 11.633 6.41246C11.4845 6.41246 11.3441 6.40357 11.2437 6.27468L11.2508 6.08891Z" fill="#04133D"/>
<path d="M3.77773 11.9557H3.59995C3.50129 10.7814 3.52529 9.60544 3.53151 8.42944C3.54578 8.36027 3.57195 8.29411 3.60884 8.23389C3.76173 8.57522 3.66306 8.93878 3.69773 9.28989C3.84973 9.42322 3.82395 9.60188 3.82573 9.77522C3.82573 10.209 3.79907 10.6454 3.90573 11.073C3.87462 11.3717 4.03373 11.697 3.77773 11.9557Z" fill="#368BFD"/>
<path d="M17.1112 15.4143L18.513 16.1396C18.7059 16.3174 19.0081 16.3352 19.1628 16.5725C19.0205 16.7645 18.9059 16.5725 18.8072 16.5245C18.121 16.1974 17.4445 15.8507 16.7628 15.5112C16.6179 15.4018 16.3548 15.5601 16.2783 15.2961C16.4561 15.0294 16.6739 15.0072 16.9308 15.1725C17.0177 15.2291 17.0816 15.3148 17.1112 15.4143Z" fill="#8DC4F8"/>
<path d="M5.22037 16.2311C5.65415 16.0676 6.03993 15.8134 6.4426 15.5911C6.51815 15.2356 6.83815 15.2062 7.09682 15.0925C7.2586 15.0782 7.39104 15.1191 7.45238 15.2871C7.42482 15.4765 7.25682 15.4649 7.12882 15.5174C6.5066 15.744 5.96082 16.1316 5.36082 16.4062C5.19726 16.4809 5.04526 16.656 4.84082 16.4898C4.91904 16.3325 5.12704 16.3653 5.22037 16.2311Z" fill="#84C6F1"/>
<path d="M10.5244 20.1536L10.6204 20.0505C11.056 20.2736 11.4835 20.495 12.0035 20.4834C12.2249 20.479 12.3875 20.3812 12.5751 20.3199C12.536 20.415 12.5609 20.4754 12.664 20.4905C11.9662 20.9048 11.1902 20.783 10.5244 20.1536Z" fill="#3C6BEE"/>
<path d="M14.808 4.59015L14.7947 4.76793L12.7502 3.75815C12.8827 3.65149 13.0089 3.58038 13.1867 3.68704C13.7254 3.99282 14.2667 4.28882 14.808 4.59015Z" fill="#65E4F8"/>
<path d="M12.6808 6.09888L12.8444 6.44466C12.8846 6.48365 12.9131 6.53313 12.9266 6.5875C12.9401 6.64186 12.9381 6.69893 12.9208 6.75221C12.7937 6.98599 12.5875 7.01888 12.3653 6.94332C12.1431 6.86777 11.9964 6.72377 12.0204 6.46332C12.1093 6.36021 12.2088 6.37443 12.3102 6.44643C12.6151 6.59666 12.5537 6.29532 12.6417 6.17977L12.6808 6.09888Z" fill="#2D2F83"/>
<path d="M12.5609 4.67741C12.4062 4.6463 12.0951 4.9743 12.1342 4.49341C12.3013 4.49785 12.4756 4.48896 12.5609 4.67741Z" fill="#0C0B47"/>
<path d="M12.6426 6.17773C12.6497 6.31818 12.7262 6.48351 12.5599 6.5724C12.4497 6.63107 12.3733 6.53151 12.311 6.44707C12.4568 6.41418 12.5164 6.29418 12.5777 6.1804L12.6426 6.17773Z" fill="#062359"/>
<path d="M8.40011 16.2354C8.04455 16.0247 7.64811 15.8869 7.33344 15.6131C7.32277 15.3865 7.51122 15.4238 7.63833 15.3838C7.73722 15.3622 7.83969 15.3631 7.93817 15.3865C8.03665 15.4099 8.1286 15.4552 8.20722 15.5189C8.47389 15.7234 8.793 15.8274 9.07655 15.998C9.63477 16.4007 10.321 16.5669 10.8783 16.9696C11.5894 17.5029 12.2899 17.3865 12.9743 16.9047C13.6899 16.4745 14.5023 16.2345 15.1966 15.7669C15.5246 15.5891 15.8259 15.3518 16.2268 15.358C16.3059 15.4265 16.4525 15.4469 16.4045 15.6078L15.3334 16.222C15.1503 16.334 14.9832 16.4709 14.7894 16.5651C14.025 16.8149 13.3281 17.2131 12.6419 17.6167C12.1459 17.9083 11.6854 17.9163 11.1868 17.6985C10.5201 17.4078 9.90233 17.0238 9.27122 16.6656C9.16935 16.6092 9.0552 16.5787 8.93877 16.5767C8.66677 16.6025 8.57789 16.35 8.40011 16.2354Z" fill="#08F1FC"/>
<path d="M8.40011 16.2355C8.66678 16.208 8.83656 16.3395 8.93967 16.5751C8.89789 16.7031 8.81345 16.7724 8.68278 16.7147C8.59074 16.6754 8.51366 16.6077 8.46281 16.5215C8.41196 16.4353 8.38999 16.3351 8.40011 16.2355V16.2355Z" fill="#43B6F2"/>
<path d="M14.7876 16.568C14.8282 16.4586 14.9036 16.3655 15.0022 16.303C15.1008 16.2406 15.2171 16.2122 15.3334 16.2222C15.2338 16.4729 15.0605 16.6 14.7876 16.568Z" fill="#3DC1F6"/>
<path d="M16.4001 15.6071L16.2134 15.4187C16.2024 15.4019 16.1973 15.3819 16.1991 15.3619C16.2009 15.3418 16.2094 15.323 16.2232 15.3084C16.2399 15.2975 16.2593 15.2917 16.2792 15.2917C16.2991 15.2917 16.3186 15.2975 16.3352 15.3084C16.4925 15.3467 16.7041 15.2667 16.7672 15.5084L16.4001 15.6071Z" fill="#3DF2FD"/>
<path d="M7.71743 15.5057C7.57966 15.512 7.4401 15.5129 7.3281 15.6115L7.12988 15.5173C7.15922 15.3689 7.2721 15.3324 7.39655 15.3182C7.42189 15.2932 7.45376 15.2759 7.4885 15.2682C7.52325 15.2605 7.55946 15.2627 7.59299 15.2746C7.63834 15.2914 7.67603 15.3241 7.69894 15.3666C7.72186 15.4092 7.72844 15.4587 7.71743 15.5057V15.5057Z" fill="#2BE4F8"/>
<path d="M16.5619 8.42503C16.8357 8.6917 17.2224 8.81259 17.4695 9.11659C17.6064 9.28281 17.5939 9.48281 17.5948 9.67926C17.5948 10.5841 17.7726 11.4873 17.6046 12.393C17.577 12.5415 17.6775 12.6739 17.6935 12.8188C17.6775 13.0241 17.6659 13.2286 17.6464 13.433C17.6277 13.6224 17.5575 13.7761 17.3486 13.8153C17.2906 13.8172 17.2331 13.8034 17.1824 13.7753C17.1413 13.7374 17.1101 13.6901 17.0915 13.6374C17.0729 13.5847 17.0675 13.5283 17.0757 13.473C17.2224 12.209 17.1308 10.9415 17.1299 9.6757C17.1268 9.55642 17.0793 9.4426 16.9966 9.35659C16.9626 9.32795 16.9263 9.30209 16.8881 9.27926C16.6417 9.154 16.402 9.01603 16.1699 8.86592C16.0259 8.67214 15.7699 8.66504 15.5939 8.5237C15.3219 8.28281 14.8597 8.30859 14.713 7.89259C14.711 7.8587 14.7172 7.82481 14.7311 7.79384C14.7451 7.76288 14.7663 7.73576 14.793 7.71481C15.2481 7.58326 15.4926 8.00014 15.849 8.12726C16.0926 8.2117 16.2881 8.41259 16.5619 8.42503Z" fill="#04F4FD"/>
<path d="M14.8 7.71278L14.8054 7.855C14.4658 8.07367 14.272 7.77856 14.0347 7.63633C13.8125 7.52434 13.5903 7.40878 13.36 7.31278C13.0934 7.20345 12.8534 7.05322 12.8632 6.70745L12.8445 6.44434C13.3458 6.57322 13.7511 6.88878 14.1663 7.167C14.3876 7.32078 14.7574 7.33322 14.8 7.71278Z" fill="#0CECF9"/>
<path d="M17.862 6.84802C17.8362 6.86402 17.7927 6.91291 17.7473 6.9138C17.7329 6.91428 17.7187 6.91078 17.7062 6.90368C17.6936 6.89658 17.6833 6.88616 17.6763 6.87357C17.6693 6.86097 17.666 6.8467 17.6666 6.83231C17.6672 6.81792 17.6718 6.80398 17.6798 6.79202C17.6913 6.76854 17.7077 6.7478 17.728 6.73124C17.7482 6.71467 17.7718 6.70266 17.7971 6.69602C17.8673 6.69158 17.8816 6.75469 17.862 6.84802Z" fill="#48B8F4"/>
<path d="M12.8587 6.71105C13.2142 7.06661 13.6844 7.24438 14.0871 7.52172C14.192 7.83016 13.9369 7.79283 13.776 7.84705C13.4098 7.84705 13.0729 7.66483 12.7093 7.66394C12.5275 7.5389 12.321 7.45435 12.1037 7.41602C11.8864 7.37768 11.6634 7.38644 11.4498 7.44172C11.1573 7.50927 10.8276 7.40261 10.5751 7.64527C10.4951 7.67016 10.4151 7.69416 10.3378 7.72616C10.0711 7.8355 9.77156 7.79727 9.50756 7.97061C9.43228 8.01086 9.36734 8.06801 9.31784 8.13756C9.26833 8.20711 9.23561 8.28718 9.22223 8.37149C8.76623 8.61327 8.52179 9.16261 7.95823 9.25061C7.85245 9.24438 7.74223 9.27283 7.64534 9.20527C7.47823 8.97327 7.61512 8.79638 7.76089 8.63194C7.85778 8.52438 7.98667 8.44616 8.0409 8.30216C8.27467 8.04705 8.59467 7.94216 8.89778 7.8115C9.00356 7.76616 9.12801 7.76083 9.19023 7.64261C9.82667 7.29861 10.4124 6.86216 11.0898 6.59372L11.2293 6.46394C11.2869 6.46468 11.344 6.47489 11.3982 6.49416C11.6009 6.58305 11.7671 6.43638 11.9511 6.40527C11.9709 6.40752 11.99 6.4144 12.0066 6.42536C12.0233 6.43633 12.0372 6.45107 12.0471 6.46838C12.2676 6.71105 12.4969 6.93238 12.8587 6.71105Z" fill="#284FBA"/>
<path d="M11.0861 6.59028C10.5484 7.08687 9.9125 7.46509 9.21946 7.7005C9.2105 7.70977 9.19941 7.71671 9.18715 7.72072C9.1749 7.72472 9.16185 7.72567 9.14914 7.72348C9.13644 7.72129 9.12445 7.71602 9.11425 7.70815C9.10404 7.70027 9.09592 7.69002 9.09058 7.67828C9.10747 7.54584 9.11902 7.41161 9.26835 7.34939C9.78924 7.12006 10.2666 6.81072 10.751 6.51472C10.8888 6.43206 10.9999 6.4445 11.0861 6.59028Z" fill="#0FE9FB"/>
<path d="M9.0896 7.67822L9.21849 7.70044C8.92782 8.048 8.43982 8.08356 8.12515 8.39378C7.80515 8.592 7.59182 8.98134 7.14737 8.95378C7.10245 8.93637 7.06233 8.9085 7.03033 8.87248C6.99833 8.83646 6.97538 8.79333 6.96338 8.74667L7.18826 8.416C7.67804 8.33422 8.05582 8.00356 8.49938 7.816C8.68501 7.73131 8.88566 7.68447 9.0896 7.67822V7.67822Z" fill="#0DEEFB"/>
<path d="M12.0444 6.46668C12.0147 6.46683 11.985 6.46891 11.9555 6.4729C11.7102 6.46579 11.5262 6.73957 11.2559 6.62579C11.2444 6.57068 11.2337 6.51468 11.2222 6.45957C11.2275 6.39646 11.2337 6.33246 11.2399 6.26757C11.5902 6.35646 12.0017 6.08979 12.3066 6.44979L12.0444 6.46668Z" fill="#062359"/>
<path d="M17.4749 12.8445L17.4891 9.66669C17.7193 9.8338 17.5228 10.0534 17.5877 10.1876C17.7148 9.90758 17.41 9.53424 17.6446 9.20447L18.8286 9.0818C18.9175 9.07291 19.0295 9.03291 19.0846 9.07202C19.6108 9.4418 19.5744 9.00091 19.6242 8.65869C19.8313 8.75825 19.8909 9.01869 20.1237 9.02314C20.1237 9.67499 20.1237 10.3283 20.1237 10.9831C20.0446 11.136 20.1033 11.3005 20.0855 11.4587C20.0766 11.5422 20.1193 11.6587 20.0197 11.6942C19.9051 11.7351 19.8331 11.6374 19.7735 11.5502C19.6944 11.4338 19.6775 11.3058 19.7389 11.0782C19.6011 11.2782 19.4722 11.3876 19.3175 11.3645C18.9468 11.3085 18.7557 11.5191 18.5628 11.7822C18.3291 12.0996 17.9895 12.3298 17.8109 12.6987C17.7853 12.7623 17.7357 12.8133 17.6728 12.8406C17.6099 12.8679 17.5388 12.8693 17.4749 12.8445V12.8445Z" fill="#4DAEF2"/>
<path d="M17.6443 9.20712V10.5085C17.4861 10.1529 17.615 9.89157 17.4888 9.66935C17.4817 9.48446 17.4752 9.30016 17.4692 9.11646L17.6443 9.20712Z" fill="#27BEE7"/>
<path d="M3.77793 11.0756C3.60993 10.488 3.72371 9.88713 3.69705 9.29246C3.98149 9.27291 3.95838 9.06046 3.95749 8.86846C3.9566 8.67646 4.06238 8.63824 4.22949 8.53246C4.86238 8.13335 5.1486 8.64446 5.52726 8.92802C5.63971 9.02395 5.77729 9.08564 5.92371 9.1058C6.07482 9.11913 6.22415 9.13069 6.27927 9.30935C6.33205 9.34873 6.37462 9.4002 6.40339 9.45944C6.43216 9.51868 6.44629 9.58396 6.4446 9.6498C6.43304 10.2898 6.47748 10.9316 6.41971 11.5707C6.22326 11.8809 6.03838 11.7209 5.84549 11.56C5.52993 11.2934 5.32993 10.9191 4.96727 10.704C4.86593 10.6445 4.78949 10.5716 4.65171 10.5751C4.07216 10.5911 4.06504 10.5805 4.04904 10.0418C4.0046 10.2018 4.11304 10.3876 4.06682 10.5751C3.93527 10.7253 3.96282 10.9618 3.77793 11.0756Z" fill="#4CB0F3"/>
<path d="M6.25763 11.6888L6.28163 9.30921C6.52696 9.14388 6.55363 8.71366 6.96252 8.74477L7.15541 8.84432C7.26741 9.07454 7.03719 9.17766 6.96785 9.33943C6.89746 9.48367 6.83601 9.6321 6.78385 9.78388C6.7403 10.0568 6.76252 10.3305 6.7563 10.6043C6.76163 11.5297 6.82118 12.4541 6.80874 13.3794C6.80874 13.5572 6.82385 13.735 6.74919 13.9003C6.69141 14.0479 6.60074 14.1581 6.43096 14.1768C6.20163 14.1617 6.10208 14.0194 6.09586 13.8079C6.09684 13.6648 6.08072 13.5222 6.04785 13.383C6.06474 12.9892 6.04785 12.5954 6.06741 12.2026C6.07719 12.0106 6.07186 11.8141 6.25763 11.6888Z" fill="#02F2FB"/>
<path d="M6.80013 8.04443C6.78284 8.10042 6.75608 8.15304 6.72102 8.19999C6.60635 8.30577 6.53791 8.47821 6.35036 8.48177C6.33169 8.48177 6.2908 8.40888 6.29702 8.37954C6.315 8.29213 6.36085 8.21291 6.42769 8.15377C6.49452 8.09462 6.57874 8.05875 6.66769 8.05154C6.7117 8.04725 6.75591 8.04518 6.80013 8.04532V8.04443Z" fill="#44C5F7"/>
<path d="M17.4749 12.8445C17.7176 12.2961 18.1861 11.9201 18.5469 11.465C18.7185 11.2499 18.8758 10.9983 19.274 11.1699C19.6021 11.3103 19.5541 10.9032 19.6456 10.7041C19.9123 10.9512 19.7994 11.2961 19.9932 11.577C20.0821 11.3654 19.9843 11.1432 20.1203 10.9832C20.1896 12.1823 20.0225 13.3761 20.0376 14.5743C20.0429 14.9583 19.8234 15.0188 19.5043 14.9299C19.3576 14.8872 19.2181 14.7405 19.0545 14.8908L18.3701 14.6152C18.1709 14.5139 17.9327 14.5877 17.7363 14.4739C17.6181 14.3699 17.4625 14.3174 17.3496 14.2134C17.2163 14.0917 17.1416 13.9388 17.282 13.769C17.6225 13.5157 17.3834 13.1468 17.4749 12.8445Z" fill="#549BED"/>
<path d="M17.8364 14.3432C18.033 14.3881 18.2159 14.4796 18.3698 14.6099C18.048 14.6517 17.7529 14.745 17.5813 15.0543C17.4747 15.2445 17.2124 15.2223 17.1093 15.4099L16.9315 15.321C16.808 14.8214 17.2551 14.3317 17.8364 14.3432Z" fill="#1D1979"/>
<path d="M6.25975 13.3868C6.33708 13.6134 6.13442 13.9201 6.45442 14.0783C6.52019 14.209 6.44286 14.2917 6.35575 14.3699C6.10153 14.4721 5.86153 14.6072 5.60197 14.6979C5.46164 14.7154 5.32363 14.7482 5.19042 14.7957L4.86153 14.8846C4.68375 14.7406 4.5353 14.8623 4.37086 14.9254C3.95842 15.0828 3.78775 14.9663 3.78509 14.5281C3.77975 13.7281 3.78509 12.9281 3.78509 12.1281C3.8087 12.1056 3.83664 12.0882 3.8672 12.0769C3.89777 12.0656 3.93032 12.0607 3.96286 12.0623C4.10331 12.0854 4.22242 12.1637 4.38509 12.137C4.99664 12.033 5.35664 12.2446 5.43753 12.8623C5.49531 13.3068 5.62331 13.4659 6.05442 13.3228C6.09127 13.3162 6.12915 13.3186 6.16488 13.3298C6.20061 13.3409 6.23315 13.3604 6.25975 13.3868V13.3868Z" fill="#5497EB"/>
<path d="M5.19019 14.8C5.23271 14.7486 5.28518 14.7064 5.34446 14.6758C5.40373 14.6453 5.46857 14.627 5.53507 14.6222C5.97419 14.3502 6.27641 14.7209 6.6293 14.8542C6.8453 14.8987 7.06041 14.9431 7.05241 15.2373C6.84085 15.3431 6.68707 15.5467 6.44263 15.5929C6.15285 15.1253 5.79463 14.7653 5.19019 14.8Z" fill="#0D1252"/>
<path d="M3.96171 12.1333H3.78393C3.77949 12.0747 3.77593 12.0169 3.77148 11.9555L3.77949 11.0729C3.81593 10.8871 3.6906 10.6489 3.95726 10.5396C4.25415 10.9004 4.25593 11.7689 3.96171 12.1333Z" fill="#4AABDB"/>
<path d="M17.8366 14.3431C17.369 14.5209 17.1841 14.9529 16.937 15.3289C16.737 15.2756 16.5388 15.1947 16.3343 15.312L16.2383 15.344C15.9299 15.2551 16.1494 15.0249 16.1077 14.8614C16.3263 14.4107 16.7299 14.056 16.7859 13.5156C16.7992 13.3814 16.9281 13.2943 17.0908 13.3449C17.2214 13.4418 17.0908 13.6116 17.1983 13.7183L17.2872 13.7636C17.3228 14.096 17.6446 14.16 17.8366 14.3431Z" fill="#1B2E8F"/>
<path d="M7.05253 15.2312L6.6223 14.9841C6.53217 14.8734 6.42212 14.7806 6.29785 14.7103C6.11385 14.5806 6.06319 14.425 6.26319 14.2579C6.32808 14.1983 6.39297 14.1388 6.45697 14.0801L6.59919 13.9023C6.85963 13.7735 7.02408 13.9121 7.13963 14.1192C7.29372 14.4187 7.47209 14.705 7.67297 14.9752C7.78141 15.1121 7.87563 15.2908 7.5903 15.3655L7.40541 15.3237C7.30852 15.1912 7.16541 15.2712 7.05253 15.2312Z" fill="#182F89"/>
<path d="M7.58493 15.3601C7.6916 15.0169 7.3316 14.9156 7.21426 14.6916C7.06315 14.4018 6.98315 14.017 6.59204 13.897L6.63738 10.5343C6.66549 10.5088 6.70135 10.4934 6.73921 10.4907C6.77708 10.4879 6.81477 10.498 6.84627 10.5192C7.02938 10.7049 7.04271 10.9636 7.1316 11.1885C7.1587 11.5867 7.16582 11.986 7.15293 12.3849C7.12539 12.8104 7.18446 13.237 7.32655 13.639C7.46864 14.041 7.6908 14.41 7.9796 14.7236C8.24627 15.0214 8.48182 15.3663 8.82849 15.5921C8.90493 15.6987 9.00627 15.7814 9.08982 15.8801C9.17338 15.9787 9.24804 16.1174 9.01515 16.1467C8.5636 15.969 8.18227 15.6481 7.71382 15.5049C7.67293 15.4578 7.62938 15.4089 7.58493 15.3601Z" fill="#1945A1"/>
<path d="M9.02215 16.1475C9.11992 15.8889 8.71103 15.9218 8.76081 15.6915C9.04259 15.4969 9.22748 15.7209 9.41503 15.8622C9.55548 15.9698 9.66482 16.1146 9.86926 16.0755C10.4675 16.4151 11.1288 16.4418 11.791 16.4631C12.1342 16.6409 12.4897 16.5911 12.8417 16.5102C12.9733 16.48 13.0933 16.4355 13.2053 16.5458C13.3066 16.952 12.8568 16.8498 12.7377 17.0542C12.3368 17.1849 11.943 17.3387 11.503 17.2898C11.2586 17.2631 11.087 16.9795 10.807 17.104C10.194 16.8201 9.59801 16.5008 9.02215 16.1475V16.1475Z" fill="#1255AC"/>
<path d="M10.8 17.1038C10.8587 17.015 10.9476 16.9163 11.0489 16.9652C11.5067 17.1847 11.9494 17.0763 12.3983 16.9438C12.4864 16.9292 12.576 16.9259 12.6649 16.9341C12.8223 16.8256 12.9414 16.8692 13.0303 17.0283C12.1201 17.7118 11.856 17.7483 10.8 17.1038Z" fill="#193E96"/>
<path d="M13.0312 17.0284L12.6667 16.9333C12.7459 16.6667 13.1041 16.8213 13.2001 16.5778C13.201 16.4961 13.2339 16.418 13.2918 16.3604C13.3496 16.3027 13.4277 16.27 13.5094 16.2693C13.9301 16.2037 14.3261 16.0286 14.6579 15.7618C14.7262 15.7081 14.8049 15.6691 14.8891 15.6474C14.9732 15.6257 15.061 15.6216 15.1468 15.6355C15.1878 15.6591 15.2206 15.6946 15.2408 15.7374C15.261 15.7801 15.2675 15.828 15.2596 15.8747C14.5547 16.3351 13.785 16.6667 13.0312 17.0284Z" fill="#134EA7"/>
<path d="M15.2595 15.8793L15.1555 15.6891C15.156 15.645 15.1688 15.602 15.1925 15.5649C15.2162 15.5278 15.2499 15.4982 15.2897 15.4793C15.4791 15.4535 15.5866 15.3131 15.7049 15.186C15.8462 15.034 15.9929 14.8891 16.2311 14.97C16.544 15.0829 16.0809 15.2224 16.2426 15.3406C16.2346 15.3655 16.2257 15.3904 16.2169 15.4153L15.2595 15.8793Z" fill="#164997"/>
<path d="M13.7331 7.69316C13.8789 7.68871 14.0318 7.70027 14.0887 7.51538L14.7998 7.85227L15.6994 8.39272C15.6816 8.59894 15.55 8.68249 15.3625 8.70561C15.1349 8.77849 15.0069 8.52783 14.8007 8.52783C14.4274 8.48249 14.1483 8.24694 13.8496 8.05405C13.7225 7.97849 13.6443 7.85849 13.7331 7.69316Z" fill="#1E5DBC"/>
<path d="M16.2444 8.75562C16.4915 8.84451 16.7555 8.90674 16.9475 9.11118C17.143 9.50585 17.0666 9.91118 17.0115 10.3218C16.8808 10.481 16.7528 10.4463 16.6257 10.3218C16.4479 10.105 16.431 9.81251 16.2986 9.57518C16.2033 9.37794 16.0513 9.21361 15.8621 9.10318C15.8325 9.06743 15.8162 9.02251 15.8159 8.97607C15.879 8.73429 16.0213 8.6614 16.2444 8.75562Z" fill="#1D41A6"/>
<path d="M17.0222 9.11108C17.208 9.12264 17.28 9.23375 17.2791 9.40531C17.275 10.7191 17.2696 12.0335 17.2631 13.3484C17.2549 13.3918 17.2389 13.4334 17.216 13.4711C17.0329 13.2986 17.064 13.0711 17.0622 12.8489C17.0524 11.7066 17.0764 10.5635 17.0489 9.42042C17.0338 9.31731 16.9822 9.21686 17.0222 9.11108Z" fill="#35E4FD"/>
<path d="M17.1109 9.28369C17.2505 9.43391 17.1918 9.62058 17.1936 9.79125C17.2051 11.0161 17.2096 12.2419 17.2158 13.4677L17.1971 13.7184C17.0976 13.6295 17.1082 13.5041 17.1082 13.3868C17.0131 13.2926 16.918 13.1948 16.9304 13.0481C17.0131 12.2152 16.8638 11.3815 16.9544 10.5495C17.0522 10.2828 17.0025 10.0064 17.0176 9.73347C17.0273 9.57969 16.9776 9.41169 17.1109 9.28369Z" fill="#005C88"/>
<path d="M16.2445 8.7556C16.0969 8.81693 15.9529 8.88271 15.8658 9.0276C15.4471 9.05426 15.3156 8.94582 15.3325 8.58315L15.7014 8.39648C15.904 8.48093 16.1396 8.51649 16.2445 8.7556Z" fill="#3348AF"/>
<path d="M17.1112 9.28365L17.0979 10.5325C16.9103 10.6054 16.8632 10.5325 16.9201 10.3601C16.9272 9.94527 16.9346 9.52691 16.9423 9.10498C16.9674 9.10766 16.9928 9.10766 17.0179 9.10498C17.0534 9.16631 17.0828 9.22498 17.1112 9.28365Z" fill="#3532A0"/>
<path d="M10.2666 7.52185L10.5333 7.51474C10.8941 7.38445 11.2843 7.35796 11.6595 7.43829C11.8017 7.72718 11.6204 7.82585 11.3928 7.81874C10.5777 7.79385 9.86394 8.17429 9.31638 8.64629C8.81594 9.07918 8.15371 9.44629 7.93238 10.1672C7.87683 10.3014 7.83831 10.4421 7.81772 10.5859C7.80419 10.6571 7.76417 10.7207 7.70572 10.7636C7.54038 10.8445 7.40883 10.769 7.2826 10.6747C7.22605 10.5914 7.19884 10.4917 7.20527 10.3912C7.2506 9.8463 7.47994 9.40807 7.95371 9.11296C8.35905 8.87207 8.65149 8.46851 9.11549 8.31296C9.19371 8.02674 9.47816 7.94674 9.68349 7.88007C9.92349 7.8054 10.0684 7.63118 10.2666 7.52185Z" fill="#246CCB"/>
<path d="M13.7335 7.69341C13.9682 8.11386 14.4447 8.16274 14.8002 8.40452C14.9709 8.64897 15.4331 8.71475 15.2687 9.1663C15.2365 9.19667 15.1983 9.21999 15.1567 9.23475C14.882 9.32986 14.6829 9.19741 14.4926 9.0223C14.3024 8.84719 14.1229 8.61075 13.8651 8.48897C13.5984 8.16275 13.2073 8.12541 12.8438 8.02052C12.6446 7.96275 12.4278 7.93163 12.4082 7.65608C12.4455 7.5183 12.506 7.42141 12.6695 7.5103C13.0304 7.52274 13.4064 7.46052 13.7335 7.69341Z" fill="#1E76D1"/>
<path d="M7.95553 9.11546L7.33331 10.3599C7.21331 10.4666 7.27908 10.5999 7.26753 10.727C7.24708 10.9617 7.24709 11.2381 6.89686 11.2479C6.86664 11.0123 6.83642 10.7759 6.80798 10.5368C6.65686 10.3395 6.74042 10.111 6.71909 9.89591C6.86309 9.46568 7.12353 9.16613 7.60264 9.11279L7.95553 9.11546Z" fill="#2650BA"/>
<path d="M7.60012 9.1112C7.39034 9.4072 7.06678 9.58142 6.81523 9.82854C6.71034 9.81431 6.70234 9.70409 6.63745 9.65076C6.68012 9.2952 6.88634 9.04987 7.15745 8.84364L8.12457 8.39209C8.15923 8.45342 8.19479 8.51387 8.22946 8.57431C7.83745 8.54053 7.86679 8.99831 7.60012 9.1112Z" fill="#2840AF"/>
<path d="M12.6668 7.51105C12.6225 7.51892 12.5817 7.54018 12.5499 7.57198C12.5181 7.60377 12.4969 7.64456 12.489 7.68883C12.1157 7.90661 11.9814 7.87817 11.689 7.51728C11.3032 7.42839 10.9174 7.55106 10.5334 7.51728C10.5974 7.3395 10.7486 7.32706 10.8943 7.3395C11.3112 7.38661 11.6943 7.1875 12.1246 7.21683C12.4046 7.23728 12.5494 7.29505 12.6668 7.51105Z" fill="#2663C9"/>
<path d="M10.2668 7.52173C10.0401 8.01506 9.53875 8.11017 9.1112 8.3155C9.01697 7.81417 9.48631 7.83017 9.73342 7.69328C9.90015 7.60619 10.0805 7.54817 10.2668 7.52173V7.52173Z" fill="#2663C9"/>
<path d="M11.2595 6.62235C11.4862 6.54146 11.6977 6.38857 11.96 6.46946C11.7466 6.61701 11.576 6.95746 11.2595 6.62235Z" fill="#392C90"/>
<path d="M3.96177 12.1333C3.96177 11.6 3.96177 11.0685 3.96177 10.5387V9.52979C4.19466 9.7609 4.10399 9.97956 4.15466 10.1591C4.21155 10.3627 4.25244 10.6702 4.54488 10.312C4.69244 10.1342 4.79466 10.2853 4.9111 10.3707C5.4231 10.7467 5.8071 11.2596 6.26133 11.6907C6.26133 12.256 6.26133 12.8213 6.26133 13.3867C6.07288 13.5698 5.80622 13.5778 5.58044 13.6711C5.35466 13.7645 5.22488 13.5867 5.26755 13.3529C5.30648 13.1215 5.27198 12.8837 5.16888 12.6729C5.00177 12.2996 4.78133 12.1396 4.37866 12.36C4.15644 12.4791 3.93777 12.5093 3.96177 12.1333Z" fill="#50A3F1"/>
<path d="M6.63818 9.65234C6.68321 9.65838 6.72501 9.67905 6.75713 9.71117C6.78926 9.7433 6.80993 9.78509 6.81596 9.83012L6.80263 10.5368H6.63996L6.63818 9.65234Z" fill="#4D28A1"/>
<path d="M6.25939 14.2578C6.2105 14.4356 6.26917 14.5609 6.44517 14.6427C6.58117 14.7058 6.69139 14.8036 6.62295 14.984C6.23628 14.936 5.98562 14.488 5.54028 14.616C5.74473 14.432 5.99984 14.3431 6.25939 14.2578Z" fill="#0F2378"/>
<path d="M16.9252 10.3598C16.9317 10.4041 16.9527 10.445 16.9848 10.4762C17.017 10.5074 17.0585 10.5271 17.103 10.5323L17.111 13.3865C17.0221 13.4149 16.9412 13.4754 16.9492 13.5696C16.9981 14.1918 16.5652 14.5545 16.231 14.9732C15.8879 15.118 15.7519 15.5625 15.3314 15.5954C15.1856 15.1829 15.5599 14.9954 15.7128 14.7118C15.8452 14.4683 16.0896 14.2949 16.1519 14.0078C16.4185 13.758 16.4763 13.4194 16.5323 13.0869C16.6382 12.4607 16.663 11.8235 16.6061 11.1909C16.5696 10.8505 16.407 10.5029 16.6674 10.1812L16.9252 10.3598Z" fill="#134EA7"/>
<path d="M6.89502 11.2444C6.99102 11.016 7.22479 10.8436 7.08702 10.528C6.99191 10.3102 7.22835 10.3893 7.33146 10.3564C7.33146 10.4453 7.33769 10.5342 7.34035 10.6276C7.40512 10.6983 7.45439 10.7819 7.485 10.8728C7.51561 10.9637 7.5269 11.06 7.51813 11.1556C7.51191 11.6729 7.53591 12.1902 7.50924 12.7058C7.49146 13.0516 7.56613 13.3431 7.80258 13.5947C7.90302 14.3058 8.38658 14.7502 8.91724 15.1556C9.02213 15.2356 9.1128 15.3333 9.21591 15.4116C9.35191 15.5671 9.54035 15.6569 9.69324 15.7902C9.82391 15.9022 9.98213 16.0196 9.8248 16.2249C9.55813 16.272 9.44524 16.0533 9.27546 15.9245C9.1238 15.8049 8.94534 15.7241 8.75546 15.6889C8.6568 15.6658 8.50479 15.6738 8.47013 15.6142C8.04879 14.8907 7.27991 14.4009 7.10924 13.4987C7.05768 13.232 6.97946 12.9653 6.97858 12.6889C6.97769 12.208 7.00702 11.7227 6.89502 11.2444Z" fill="#145DB8"/>
<path d="M15.8605 14.8C15.6427 15.0382 15.4391 15.2854 15.3271 15.5947L15.1556 15.6889C14.9319 15.7589 14.7289 15.8828 14.5645 16.0498C14.3691 16.2531 14.1022 16.3724 13.8205 16.3822C13.6037 16.4041 13.3939 16.471 13.2045 16.5787C12.7289 16.5974 12.2551 16.9227 11.7822 16.5787C11.7667 16.5601 11.7552 16.5385 11.7483 16.5153C11.7414 16.492 11.7393 16.4676 11.7422 16.4436C11.8373 16.2018 12.0507 16.28 12.2294 16.2658C12.4134 16.3129 12.5973 16.368 12.776 16.2471C13.5156 16.0382 14.1654 15.6249 14.8667 15.328C15.0222 15.2809 15.0711 15.1405 15.1334 15.0142C15.2934 14.8978 15.3485 14.6365 15.6151 14.6685C15.7102 14.6811 15.7974 14.7278 15.8605 14.8V14.8Z" fill="#1760B8"/>
<path d="M11.7778 16.4889V16.5849C11.0844 16.696 10.4444 16.5325 9.82219 16.2222C9.75819 15.8125 9.26664 15.8311 9.11108 15.5111C9.29953 15.2925 9.4613 15.4098 9.63641 15.5413C10.1004 15.8969 10.6035 16.1369 11.208 16.0747C11.2542 16.0719 11.3004 16.0785 11.344 16.0942C11.496 16.2222 11.7182 16.2658 11.7778 16.4889Z" fill="#136AC1"/>
<path d="M15.2444 9.11108C15.1937 8.81241 14.7324 8.77241 14.8 8.39997C15.0106 8.36086 15.1555 8.51819 15.3333 8.57775C15.4542 8.79375 15.7217 8.83286 15.8666 9.02219V9.02663C16.0906 9.31908 16.472 9.53241 16.3484 9.99819C16.3314 10.0424 16.3047 10.0822 16.2702 10.1146C16.12 10.2035 15.9582 10.1831 15.8853 10.0417C15.7084 9.70486 15.376 9.47908 15.2444 9.11108Z" fill="#1969C8"/>
<path d="M16.2221 9.99999C16.2314 9.90668 16.2188 9.81248 16.1851 9.72495C16.1515 9.63743 16.0978 9.55901 16.0283 9.49598C15.9662 9.43598 15.9191 9.36205 15.8912 9.28029C15.8632 9.19853 15.8551 9.11129 15.8674 9.02576C16.2088 8.9751 16.3403 9.20887 16.4372 9.46576C16.5261 9.69865 16.5901 9.94043 16.6648 10.1769C16.6248 10.5378 16.7279 10.888 16.7537 11.2435C16.4799 11.264 16.4692 11.0569 16.4426 10.8729C16.3999 10.5778 16.3821 10.272 16.2221 9.99999Z" fill="#1E54B4"/>
<path d="M11.689 7.51636C11.9556 7.56169 12.1921 7.75991 12.489 7.68791C12.7894 7.95458 13.2054 7.89947 13.5423 8.06302C13.6978 8.13947 13.8472 8.22925 13.9992 8.3128C13.817 8.57947 13.5547 8.54747 13.3307 8.43102C12.8248 8.15495 12.2473 8.03814 11.6738 8.09591C10.5023 8.21413 9.53518 8.74303 8.70673 9.56347C8.532 9.7208 8.40275 9.92219 8.33251 10.1466C8.16006 10.3404 8.10584 10.7252 7.69873 10.5377C7.72806 9.92347 8.09873 9.51547 8.54051 9.15369C8.60807 9.09858 8.72451 9.07725 8.75829 9.01058C9.10318 8.33858 9.80095 8.19458 10.3956 7.89769C10.7112 7.73947 11.0178 7.55902 11.3992 7.6728C11.521 7.70925 11.6196 7.62125 11.689 7.51636Z" fill="#257DDA"/>
<path d="M7.69585 10.5377C7.96252 10.4933 8.06208 10.2577 8.22297 10.0933C8.2567 10.1122 8.28551 10.1388 8.30712 10.1709C8.32873 10.203 8.34253 10.2398 8.34741 10.2782C8.42563 10.7973 8.22119 11.311 8.28519 11.8195C8.33947 12.3772 8.36321 12.9374 8.3563 13.4977C8.3563 13.6444 8.37497 13.7955 8.29674 13.9324C7.9883 14.1617 7.85229 14.007 7.78118 13.703C7.28785 12.8435 7.5963 11.9075 7.52163 11.0079C7.51096 10.8799 7.61052 10.7964 7.69141 10.7137L7.69585 10.5377Z" fill="#158CE1"/>
<path d="M7.68883 10.7111C7.68883 11.2444 7.70661 11.7777 7.6835 12.3057C7.66173 12.7886 7.72368 13.2716 7.86661 13.7333C7.85544 13.7458 7.84174 13.7558 7.82642 13.7627C7.81111 13.7696 7.79451 13.7731 7.77772 13.7731C7.76093 13.7731 7.74434 13.7696 7.72902 13.7627C7.7137 13.7558 7.70001 13.7458 7.68883 13.7333C7.32083 13.3511 7.31105 12.8791 7.32794 12.3875C7.34928 11.8008 7.33594 11.2133 7.33772 10.6257L7.68883 10.7111Z" fill="#1479CE"/>
<path d="M15.2443 9.11108C15.5306 9.25508 15.6888 9.52175 15.8808 9.76086C15.9785 9.88531 16.0417 10.0435 16.215 10.0915C16.4648 10.7289 16.7403 11.3671 16.6479 12.0702C16.5705 12.664 16.583 13.2773 16.3341 13.8417C16.0843 14.1564 15.9137 14.5333 15.5954 14.7973C15.3928 14.832 15.3723 15.0471 15.2399 15.1529C15.0621 15.2044 15.0763 15.4017 14.9661 15.5084C14.5437 15.6226 14.1395 15.7955 13.7652 16.0222C13.4583 16.2165 13.1145 16.3451 12.7554 16.4C12.6381 16.3164 12.4479 16.408 12.367 16.2382C12.3561 16.2062 12.352 16.1723 12.3549 16.1386C12.3578 16.1049 12.3676 16.0722 12.3837 16.0425C12.3998 16.0128 12.4218 15.9867 12.4485 15.966C12.4751 15.9452 12.5058 15.9301 12.5385 15.9218C12.887 15.8578 13.1403 15.5875 13.5163 15.5582C14.1625 15.5084 14.8719 14.8391 14.9768 14.2729C15.0345 14.1484 15.1545 14.088 15.2434 13.992C15.3043 13.9293 15.371 13.8724 15.4425 13.8222C15.583 13.7333 15.7092 13.616 15.7332 13.4471C15.8434 12.6658 16.1234 11.9004 15.9261 11.0898C15.8514 10.7813 15.6781 10.5235 15.5634 10.2373C15.4746 10.0044 15.3759 9.77686 15.1919 9.59197C15.0603 9.45864 15.0026 9.29064 15.1448 9.11731L15.2443 9.11108Z" fill="#1379CF"/>
<path d="M15.1494 9.11738C15.2721 9.4996 15.6187 9.76982 15.6827 10.184C15.7503 10.2623 15.7245 10.3512 15.7121 10.4383C15.6995 10.4521 15.6838 10.4627 15.6663 10.4693C15.6489 10.4759 15.6301 10.4782 15.6115 10.4761C15.593 10.474 15.5752 10.4676 15.5596 10.4573C15.544 10.447 15.5311 10.4332 15.5219 10.4169C15.2161 9.80538 14.5707 9.6356 14.0445 9.35027C13.5441 9.0836 13.0525 8.79204 12.5459 8.53249C12.3325 8.17071 11.913 8.15205 11.5974 7.96005C12.177 7.75827 12.7174 8.00805 13.2454 8.15916C13.4961 8.23116 13.7299 8.32271 13.993 8.31382C14.2667 8.44182 14.4374 8.6836 14.6499 8.88716C14.7947 9.02227 14.9387 9.13605 15.1494 9.11738Z" fill="#1D8CE1"/>
<path d="M16.216 13.911C16.4124 13.2488 16.3253 12.543 16.5342 11.8817C16.5805 11.7552 16.5972 11.6198 16.583 11.4859C16.5689 11.352 16.5242 11.2232 16.4524 11.1092C16.2409 10.7954 16.1937 10.4568 16.2142 10.095C16.2142 10.0639 16.2186 10.0337 16.2204 10.0061C16.3426 10.0703 16.4422 10.1704 16.5057 10.293C16.5693 10.4155 16.5938 10.5546 16.576 10.6914C16.5609 10.8968 16.5893 11.0959 16.7537 11.2505C16.92 12.0417 16.7937 12.8114 16.576 13.5723C16.5155 13.783 16.4684 14.007 16.2275 14.0994C16.2134 14.0885 16.2017 14.0747 16.1933 14.0589C16.1849 14.0431 16.18 14.0257 16.1789 14.0078C16.1779 13.99 16.1806 13.9721 16.187 13.9554C16.1934 13.9387 16.2032 13.9236 16.216 13.911V13.911Z" fill="#165EB9"/>
<path d="M16.216 13.9111L16.2213 14.096C16.2898 14.4276 15.8942 14.5209 15.8604 14.8009H15.5938C15.7324 14.4551 15.8898 14.1245 16.216 13.9111Z" fill="#1266C0"/>
<path d="M7.68896 13.7334H7.86674C7.94763 13.8534 8.01785 13.9921 8.20541 13.9174C8.2623 13.9031 8.32185 13.9031 8.37874 13.9174C8.43098 13.9467 8.4809 13.98 8.52808 14.017C8.68363 14.0898 8.82763 14.1743 8.84807 14.3725C8.9583 14.8312 9.37608 15.0178 9.69519 15.2614C9.9941 15.4858 10.3425 15.6352 10.7112 15.697C10.9779 15.7467 11.2445 15.8676 11.2499 16.2232C10.6081 16.329 10.0943 16.0294 9.5903 15.6961C9.44185 15.5965 9.30674 15.4934 9.11741 15.5139C8.48452 15.2472 8.15919 14.6552 7.74586 14.1636C7.66408 14.0721 7.70496 13.881 7.68896 13.7334Z" fill="#107ACE"/>
<path d="M11.7777 16.4888C11.6355 16.3911 11.4026 16.4462 11.3333 16.2222C11.6364 15.9262 11.9688 16.0648 12.2977 16.1591C12.3281 16.1911 12.3461 16.233 12.3485 16.2771C12.351 16.3212 12.3377 16.3647 12.311 16.4C12.1333 16.4142 11.9395 16.3644 11.7777 16.4888Z" fill="#1379CF"/>
<path d="M12.311 16.3999V16.2221C12.3163 16.2153 12.323 16.2098 12.3307 16.206C12.3384 16.2022 12.3469 16.2002 12.3555 16.2002C12.3641 16.2002 12.3726 16.2022 12.3803 16.206C12.388 16.2098 12.3947 16.2153 12.3999 16.2221C12.5448 16.2283 12.6986 16.2168 12.7555 16.3999C12.6079 16.5075 12.4604 16.5848 12.311 16.3999Z" fill="#136AC1"/>
<path d="M14.9681 15.5112C14.8961 15.2667 14.9601 15.129 15.2419 15.1556C15.1655 15.2863 15.1655 15.4747 14.9681 15.5112Z" fill="#1266C0"/>
<path d="M12.3999 16.2221H12.3111H11.3333H11.2444C10.9164 15.8959 10.4639 15.8444 10.0568 15.7155C9.44705 15.5226 9.12261 14.9404 8.54572 14.6924C8.29683 14.5857 8.68972 14.4764 8.7635 14.351C8.95906 14.1582 9.1315 14.3315 9.27994 14.4133C10.0142 14.8162 10.7531 15.21 11.4968 15.5946C11.8177 15.7617 12.0737 15.7546 12.3617 15.5893C13.1617 15.1244 14.0204 14.7599 14.7973 14.2497C14.8509 14.2242 14.9109 14.2152 14.9697 14.2239C14.9906 14.2277 15.0102 14.2366 15.0267 14.25C15.0432 14.2634 15.056 14.2807 15.0639 14.3004C15.2524 14.5315 15.2586 14.6959 14.9848 14.9084C14.6142 15.1955 14.2862 15.5413 13.8293 15.7022C13.4826 15.8248 13.1333 15.9421 12.7786 16.0373C12.6337 16.0764 12.4888 16.0799 12.3999 16.2221Z" fill="#148DE0"/>
<path d="M11.5999 7.95558C11.801 7.93115 12.0049 7.95925 12.1919 8.03714C12.3788 8.11504 12.5424 8.24006 12.6666 8.40002C12.5972 8.49514 12.4888 8.54314 12.3999 8.48891C11.9306 8.20536 11.5208 8.44625 11.1146 8.6338C10.3048 9.00803 9.56703 9.51647 8.77325 9.91736C8.57236 10.0187 8.54658 10.3751 8.22925 10.2729V10.0951C8.29503 9.63114 8.62125 9.34491 8.94925 9.06936C9.71191 8.42136 10.5537 7.94136 11.5999 7.95558Z" fill="#2592E7"/>
<path d="M8.22226 10.2721C8.46492 9.85081 8.92714 9.72281 9.29337 9.46681C9.88359 9.05348 10.5378 8.76281 11.1778 8.43303C11.6845 8.17081 12.1636 8.23837 12.6614 8.40459C13.3405 8.91837 14.1609 9.17614 14.8747 9.63303C15.216 9.85081 15.5378 10.0526 15.6747 10.4517C15.7595 10.5907 15.7998 10.7523 15.7903 10.9148C15.8027 11.6339 15.8054 12.3539 15.7903 13.073C15.7849 13.3059 15.76 13.5424 15.6125 13.7406C15.2738 13.841 15.2392 13.6028 15.2249 13.3735C15.192 12.8401 15.2143 12.3068 15.2098 11.7735C15.1983 10.4401 15.3512 10.385 14.0383 9.75303C13.4658 9.47748 12.9316 9.13081 12.3689 8.84103C12.2411 8.76822 12.097 8.72867 11.95 8.72603C11.8029 8.72339 11.6575 8.75774 11.5271 8.82592C10.6676 9.22237 9.87559 9.74325 9.03026 10.1646C8.72181 10.3175 8.59826 10.5779 8.60003 10.9255C8.60448 11.7255 8.60537 12.5255 8.60003 13.3201C8.60003 13.5966 8.55292 13.8535 8.29337 14.009L8.20448 13.9201C8.23914 12.7041 8.10048 11.4873 8.22226 10.2721Z" fill="#2BA6EE"/>
<path d="M8.29688 14.0123C8.50754 12.9865 8.3751 11.9501 8.38576 10.919C8.3911 10.4745 8.53332 10.1865 8.91287 9.98566C9.81243 9.51159 10.7105 9.03277 11.6071 8.54921C11.7122 8.49363 11.8299 8.46644 11.9487 8.47034C12.0675 8.47424 12.1832 8.50908 12.2844 8.57143L14.824 9.91632C15.2613 10.1474 15.4373 10.5101 15.4231 11.0052C15.4027 11.7439 15.4151 12.4834 15.4231 13.2221C15.4231 13.3999 15.3893 13.5777 15.5173 13.7332C15.5964 13.8221 15.5724 13.911 15.5075 13.9999L15.344 14.1083C15.1715 14.0443 15.0302 14.1137 14.8951 14.2097C14.064 14.7154 13.1893 15.1394 12.3387 15.6079C12.064 15.759 11.8124 15.7563 11.5084 15.6034C10.5751 15.1359 9.66843 14.6185 8.74398 14.135C8.69538 14.1022 8.63994 14.0809 8.58187 14.0727C8.5238 14.0646 8.46464 14.0697 8.40887 14.0879L8.29688 14.0123Z" fill="#4CD6FC"/>
<path d="M15.5046 14C15.5046 13.9111 15.5109 13.8222 15.5144 13.7333C15.646 13.5475 15.5873 13.3351 15.6033 13.1324C15.654 12.2435 15.5046 11.3404 15.6869 10.4515C15.6869 10.3626 15.6869 10.2738 15.6869 10.1804C16.3002 10.9218 16.2726 11.7617 16.1011 12.6426C16.0024 13.1484 15.9802 13.6684 15.5046 14Z" fill="#148BDF"/>
<path d="M14.8835 14.089C15.0453 13.9014 15.2018 13.8223 15.3413 14.1103L15.0604 14.3032V14.2614C14.9778 14.2303 14.8835 14.2072 14.8835 14.089Z" fill="#6EDDFC"/>
<path d="M14.8836 14.0888L15.0614 14.2613C14.1476 14.8559 13.1662 15.3279 12.2 15.8266C12.0964 15.8824 11.9798 15.9097 11.8622 15.9056C11.7446 15.9016 11.6302 15.8663 11.5307 15.8035C10.7307 15.3679 9.92358 14.9395 9.11736 14.5111C9.00269 14.4497 8.87825 14.4062 8.76181 14.3537L8.40625 14.0871C8.49514 13.8631 8.64625 13.9199 8.8027 13.9982C9.75292 14.4915 10.7076 14.9759 11.6471 15.4817C11.8827 15.6088 12.0623 15.5546 12.2694 15.4479C13.1399 14.9934 14.0113 14.5404 14.8836 14.0888Z" fill="#8AE2FA"/>
<path d="M9.63287 11.2508C9.62576 10.6383 10.1315 10.5583 10.5395 10.3752C10.7627 10.5103 10.9671 10.3477 11.1715 10.3139C11.5271 10.2535 11.8693 10.1103 12.2489 10.225C12.4133 10.2748 12.5155 10.0739 12.6631 10.0161C13.1564 10.2828 13.6889 10.4846 14.0951 10.8926C14.1403 11.0095 14.1468 11.1378 14.1138 11.2588C13.912 11.8188 13.7271 11.9041 13.2018 11.6543C13.012 11.5728 12.8063 11.5351 12.6 11.5441C11.7182 11.537 10.8355 11.5263 9.95643 11.6179C9.89909 11.6308 9.83959 11.6308 9.78224 11.6179C9.7249 11.605 9.67115 11.5795 9.62488 11.5432C9.5932 11.5007 9.57676 11.4487 9.57821 11.3956C9.57966 11.3426 9.59892 11.2916 9.63287 11.2508V11.2508Z" fill="#DDFDF8"/>
<path d="M11.4952 14.1885C10.9396 13.9858 10.4676 13.6232 9.9325 13.3885C9.73073 13.2996 9.65962 13.1369 9.65606 12.9272C9.64984 12.6027 9.63828 12.2792 9.62939 11.9547L9.68539 11.9058C10.7521 11.9298 11.8187 11.7663 12.8854 11.7609C13.2817 11.7462 13.6779 11.7936 14.0596 11.9014C14.2374 12.5761 14.0765 12.8463 13.4294 12.8481C12.4445 12.8481 11.4676 13.0321 10.3814 12.9298C10.6465 13.1615 10.9301 13.3711 11.2294 13.5565C11.4161 13.6196 11.6178 13.6614 11.6889 13.8854C11.7128 13.9592 11.7087 14.0393 11.6774 14.1103C11.6365 14.1725 11.5867 14.2276 11.4952 14.1885Z" fill="#A8FDF1"/>
<path d="M11.1556 13.7334C10.8196 13.5263 10.48 13.3237 10.1485 13.1112C10.0952 13.0826 10.055 13.0347 10.0362 12.9772C10.0173 12.9198 10.0212 12.8574 10.0471 12.8028C10.1005 12.6854 10.1929 12.5974 10.3262 12.6357C11.352 12.9361 12.3707 12.6019 13.4 12.625C13.5689 12.625 13.7449 12.7139 13.9102 12.5708C14.1102 12.3983 14.08 12.177 14.0774 11.9566C13.8774 11.7201 13.9885 11.4846 14.0774 11.2454C14.0818 11.1272 14.0871 11.009 14.0916 10.8899C14.24 11.6546 14.2261 12.442 14.0507 13.201C14.0383 13.2588 13.952 13.3006 13.9005 13.3503C13.6418 13.1832 13.488 13.4206 13.312 13.5192C13.104 13.6374 12.9138 13.777 12.6569 13.7183C12.2596 13.7468 11.8569 13.8766 11.4756 13.6383C11.3805 13.5788 11.2507 13.6446 11.1556 13.7334Z" fill="#95FDEE"/>
<path d="M12.6668 10.0161C12.6108 10.1823 12.3885 10.3788 12.8161 10.4179C12.7272 10.4855 12.7014 10.5219 12.6863 10.5175C12.0943 10.329 11.5077 10.4419 10.9183 10.5326C10.7761 10.5548 10.6143 10.5557 10.5432 10.3752C10.7405 10.2535 10.9423 10.1388 11.1343 10.009C11.6454 9.66324 12.1548 9.58146 12.6668 10.0161Z" fill="#F6F7F7"/>
<path d="M12.6809 13.5555C12.9876 13.6071 13.1991 13.4426 13.4338 13.2746C13.5227 13.2089 13.8409 12.7938 13.904 13.3484C13.3778 13.632 12.8445 13.9111 12.3173 14.1946C12.0391 14.3449 11.768 14.3893 11.4951 14.1884L11.6 14.0889C11.7262 13.9378 11.928 13.928 12.0827 13.832C12.2347 13.6444 12.4942 13.6791 12.6809 13.5555Z" fill="#B1F9EC"/>
<path d="M9.63285 11.2505L9.65952 11.51C9.68973 11.5394 9.71376 11.5745 9.73016 11.6132C9.74656 11.652 9.75501 11.6937 9.75501 11.7358C9.75501 11.7779 9.74656 11.8196 9.73016 11.8584C9.71376 11.8972 9.68973 11.9323 9.65952 11.9616L9.63107 11.95C9.37922 11.7166 9.37981 11.4834 9.63285 11.2505Z" fill="#29E2FE"/>
<path d="M9.65796 11.9619C9.65796 11.8117 9.65796 11.6606 9.65796 11.5103C10.1913 11.2241 10.7726 11.3326 11.3282 11.3503C12.0651 11.3761 12.8277 11.1468 13.5371 11.5752C13.8286 11.753 13.8784 11.3281 14.0793 11.2463V11.9574C13.8731 12.0872 13.6917 12.1032 13.4331 12.0126C13.0482 11.8783 12.6171 11.9494 12.2073 11.977C11.506 12.0241 10.8028 12.073 10.1068 12.1681C9.87485 12.1974 9.8224 12.001 9.65796 11.9619Z" fill="#C4FDF4"/>
<path d="M12.6807 13.5556C12.5607 13.7689 12.318 13.7965 12.1358 13.9165C11.958 14.0054 11.7803 14.0383 11.5972 13.9165C11.4638 13.8276 11.3305 13.7218 11.1589 13.7334C11.1737 13.6794 11.2002 13.6294 11.2364 13.5869C11.2727 13.5443 11.3179 13.5103 11.3688 13.4871C11.4197 13.464 11.475 13.4523 11.5309 13.4529C11.5868 13.4535 11.6419 13.4664 11.6923 13.4907C12.0327 13.6916 12.3545 13.5325 12.6807 13.5556Z" fill="#7BFDF1"/>
<path d="M11.6001 13.9165H12.1388C12.0054 14.1165 11.7974 14.0818 11.6054 14.0872L11.6001 13.9165Z" fill="#95FDEE"/>
</svg>
