<svg viewBox="0 0 24 24" fill="none" xmlns="http://www.w3.org/2000/svg">
    <path d="M12 24C18.6274 24 24 18.6274 24 12C24 5.37258 18.6274 0 12 0C5.37258 0 0 5.37258 0 12C0 18.6274 5.37258 24 12 24Z" fill="#DA0A17"/>
    <path d="M17.1597 7.1596L4 4.7373L10.9261 22.1629L20.5754 10.4059L17.1597 7.1596ZM16.9482 8.22664L18.9612 10.1407L13.4557 11.1383L16.9482 8.22664ZM12.2593 10.9373L6.456 6.1242L15.9412 7.8699L12.2593 10.9373ZM11.8468 11.7886L10.9008 19.6112L5.79834 6.77239L11.8468 11.7886ZM12.7223 12.2042L18.8192 11.1004L11.8268 19.6207L12.7223 12.2042Z" fill="white"/>
</svg>
