<svg viewBox="0 0 26 26" fill="none" xmlns="http://www.w3.org/2000/svg">
    <path d="M13 25C19.6273 25 25 19.6273 25 13C25 6.37269 19.6273 1 13 1C6.37269 1 1 6.37269 1 13C1 19.6273 6.37269 25 13 25Z" fill="url(#paint0_linear)"/>
    <path d="M11.7094 12.0591C11.779 11.9666 11.8297 11.8614 11.8587 11.7493C11.884 11.641 11.8904 11.5291 11.8774 11.4186L11.868 11.3372L11.8253 11.2845L11.2501 10.6268L11.0402 10.3907L10.2512 9.51041L8.67024 7.75428L5.49976 4.25L9.96486 9.75593L10.876 10.8906L11.2967 11.421C11.3318 11.4666 11.3502 11.5227 11.3489 11.5802C11.3472 11.6376 11.3262 11.693 11.289 11.7366C11.2537 11.7773 11.2099 11.8098 11.1607 11.8318C11.1116 11.8537 11.0583 11.8645 11.0045 11.8633C10.9508 11.8622 10.8979 11.8492 10.8498 11.8252C10.8016 11.8012 10.7593 11.767 10.7257 11.7248L7.78472 8.07897L9.83245 11.7783C9.86805 11.842 9.8812 11.9158 9.86979 11.9879C9.85839 12.06 9.82308 12.1262 9.76955 12.1758C9.66734 12.2694 9.58196 12.3799 9.51714 12.5024C9.42224 12.6895 9.35762 12.8904 9.32569 13.0977L9.27796 13.4489L9.25645 13.6235C9.16762 14.2439 8.76569 14.8701 8.38252 15.3482L8.24431 15.5176C7.95769 15.8652 7.66031 16.2266 7.58059 16.6784C7.49259 17.178 7.59217 17.7052 7.80679 18.1612C7.8879 18.3358 7.99189 18.493 8.09645 18.6514L8.09672 18.6517L8.09865 18.6544L8.20458 18.8169L8.20624 18.8199C8.23686 18.8721 8.51134 19.3424 8.38665 19.3614C9.67107 19.1584 10.585 18.5774 10.6953 18.0238C10.8302 17.3405 10.4206 17.0693 10.0493 16.8232C9.91631 16.7352 9.78859 16.6506 9.69203 16.5515C9.489 16.3443 9.33617 16.1435 9.30362 15.8439C9.26224 15.455 9.40652 15.1645 9.56624 14.8431L9.56652 14.8428L9.56679 14.8423L9.65645 14.6586C9.80219 14.3586 9.89753 14.0367 9.93865 13.7057L9.95465 13.477L9.97727 13.1957C9.98421 13.136 9.9949 13.0769 10.0093 13.0186C10.0405 12.9014 10.1083 12.7973 10.2029 12.7214C10.2975 12.6456 10.4134 12.6026 10.5342 12.5979L10.5406 12.5973L10.6598 12.5863C10.8505 12.5655 11.037 12.5162 11.2131 12.4401C11.4091 12.3587 11.5801 12.2272 11.7091 12.0588L11.7094 12.0591ZM19.4209 12.9907L19.4178 12.986C19.3699 12.8967 19.3153 12.8111 19.2545 12.73C19.0755 12.4864 18.8189 12.3121 18.5273 12.2357C18.3334 12.1854 18.1351 12.154 17.9348 12.1421L17.4912 12.1168L17.484 12.1165L17.3169 12.1079C16.8981 12.0848 16.4694 12.0417 16.0507 11.9217L15.7403 11.8197L15.5875 11.7581L15.4305 11.6839C15.2335 11.5755 15.0511 11.4425 14.8876 11.2881C14.5908 11.0106 14.3522 10.6986 14.118 10.3921V10.3918L14.0581 10.3134C13.8189 9.98093 13.5621 9.66149 13.2887 9.35648C13.0194 9.05785 12.7007 8.80776 12.3467 8.61717C11.9803 8.43179 11.5822 8.31759 11.1737 8.28062C11.5974 8.23428 12.0264 8.28697 12.4267 8.43428C12.8308 8.59179 13.1999 8.82738 13.5138 9.12779C13.7188 9.3209 13.9111 9.52669 14.0895 9.74462C15.4189 9.48172 16.4973 9.7151 17.3257 10.1683L17.3444 10.1777C17.6083 10.3215 17.8555 10.4939 18.0816 10.6919C18.1173 10.7227 18.1521 10.7544 18.1861 10.7871C18.3626 10.9501 18.5269 11.1258 18.6777 11.3129L18.689 11.3281C19.1787 11.9507 19.4203 12.5979 19.4209 12.9901V12.9907ZM12.2429 13.8533C12.5982 13.8191 13.3558 13.6334 13.017 13.0346C12.9442 12.9129 12.8385 12.8141 12.7124 12.7499C12.5864 12.6856 12.4446 12.6583 12.3036 12.6715C12.1605 12.6871 12.0257 12.7463 11.9174 12.8412C11.8093 12.9361 11.7326 13.0624 11.6981 13.2026C11.593 13.5943 11.7044 13.906 12.2429 13.8533ZM17.6763 14.6616H17.6766C18.857 15.143 19.99 15.6048 19.9428 16.7292C20.4664 16.0456 20.6915 14.1885 19.1505 13.2326C18.4976 12.8274 17.7502 12.7201 17.0542 12.6205H17.054C16.2865 12.5104 15.5809 12.4094 15.1312 11.9272C14.9215 13.5386 16.3298 14.1129 17.6763 14.6616Z" fill="#FF007A"/>
    <path d="M18.1243 10.7287L18.1883 10.7869L18.1146 10.7207L18.0835 10.6918L18.1243 10.7287ZM11.2413 8.67163C11.5803 8.72101 11.9262 8.85673 12.1494 9.11549C12.3726 9.37425 12.4545 9.7108 12.5188 10.0308L12.5444 10.1555C12.5866 10.3629 12.6288 10.5712 12.7099 10.7671C12.7406 10.8418 12.7806 10.9105 12.8208 10.9792V10.9795L12.8837 11.0904C12.9033 11.1276 12.9298 11.1632 12.9563 11.1988L12.9566 11.1994C12.9941 11.2501 13.0322 11.3011 13.0517 11.3574C13.0575 11.3713 13.0597 11.3864 13.0581 11.4013C13.0564 11.4162 13.0506 11.4305 13.0418 11.4427C12.9235 11.5743 12.604 11.428 12.4837 11.369C12.2757 11.2653 12.0893 11.1227 11.9348 10.9483C11.4515 10.4093 11.2021 9.63384 11.2173 8.92763C11.2206 8.84192 11.2286 8.75646 11.2413 8.67163ZM17.6799 17.3508C17.1254 16.5367 16.5676 15.7177 16.9133 14.7483C17.1549 14.9155 17.4363 15.0675 17.7262 15.2245C18.4738 15.6289 19.279 16.0642 19.6131 16.8678C20.1433 18.1381 19.5367 19.7392 18.2589 20.2691C18.9166 19.1665 18.3003 18.262 17.6799 17.3511V17.3508ZM12.5179 17.4349C12.7175 17.2838 12.9358 17.1592 13.1673 17.0642C13.4015 16.97 13.6446 16.8996 13.8928 16.854L14.3519 16.7798C14.6829 16.7312 15.001 16.6846 15.2818 16.5709C15.4843 16.4916 15.6704 16.3757 15.831 16.2291C15.9866 16.084 16.1055 15.9036 16.1786 15.7034C16.2532 15.4918 16.2834 15.2672 16.2675 15.0435C16.249 14.8032 16.1949 14.5669 16.1069 14.3425C16.2895 14.5334 16.4223 14.7663 16.4937 15.0206C16.5651 15.2751 16.573 15.5433 16.5166 15.8016C16.4527 16.0747 16.3145 16.325 16.1174 16.5246C15.9225 16.7175 15.6872 16.8648 15.4286 16.9558C15.1819 17.0427 14.9246 17.0956 14.6639 17.1136L14.1952 17.1411L13.9309 17.1544C13.4483 17.1748 12.9718 17.2693 12.5179 17.4347V17.4349ZM17.1593 21.0835L17.1797 21.0672L17.1963 21.0537L17.2062 21.046C17.036 21.1235 16.8589 21.1845 16.6768 21.2272C16.5891 21.2465 16.5003 21.2592 16.4106 21.2656L16.2802 21.2625L16.1546 21.2446C15.5008 21.1301 15.4128 20.4719 15.3364 19.9014L15.2821 19.5453C15.242 19.3408 15.1796 19.1413 15.0959 18.9505C15.0031 18.747 14.8719 18.5633 14.7094 18.4096C14.5456 18.2631 14.3575 18.1464 14.1535 18.0647C13.959 17.9853 13.7549 17.932 13.5466 17.9069C13.1414 17.8573 12.7306 17.889 12.3381 17.9999C11.9591 18.1064 11.5959 18.2625 11.2578 18.4642C10.9282 18.664 10.6195 18.8965 10.3364 19.1583C10.3585 19.1378 10.4829 19.1596 10.5593 19.1729H10.5596L10.6123 19.1814L10.8859 19.2256C11.0661 19.2599 11.2418 19.3146 11.4095 19.3886C11.653 19.5074 11.8731 19.6689 12.0595 19.8656L12.1731 19.9853C12.2571 20.0964 12.3526 20.1983 12.4581 20.2893L12.5364 20.3566C12.6887 20.4796 12.8713 20.5591 13.065 20.5869C13.2029 20.604 13.3428 20.5894 13.4744 20.5445C13.5391 20.5227 13.6011 20.4932 13.6589 20.4567C13.7174 20.4197 13.7704 20.3746 13.8161 20.3227C13.9022 20.2217 13.9596 20.0992 13.9825 19.9682C14.0062 19.8425 13.9944 19.7127 13.9486 19.5933C13.9044 19.4774 13.817 19.3831 13.705 19.3304C13.8013 19.3958 13.8686 19.4965 13.8926 19.6107C13.9146 19.72 13.9061 19.8333 13.868 19.9381C13.8333 20.0385 13.7717 20.1276 13.6904 20.1958C13.6517 20.228 13.6084 20.2543 13.5621 20.2741C13.5157 20.2931 13.4673 20.3065 13.4178 20.3141C12.8352 20.4123 12.3784 19.718 12.6964 19.222C12.8175 19.0322 13.0217 18.934 13.2393 18.9064C13.7731 18.8413 14.2291 19.193 14.4953 19.63C14.6101 19.8178 14.6953 20.0214 14.7803 20.225L14.9472 20.6027C15.1775 21.0733 15.5709 21.4896 16.1279 21.5003C16.3336 21.5019 16.5368 21.4556 16.7215 21.3651C16.8102 21.3238 16.8957 21.276 16.9773 21.222C17.0415 21.1789 17.1008 21.1307 17.1593 21.0835Z" fill="#FF007A"/>
    <g style="mix-blend-mode:multiply" opacity="0.2">
        <path d="M12.9999 24.6088C19.4113 24.6088 24.6088 19.4113 24.6088 12.9999C24.6088 6.58856 19.4113 1.39111 12.9999 1.39111C6.58856 1.39111 1.39111 6.58856 1.39111 12.9999C1.39111 19.4113 6.58856 24.6088 12.9999 24.6088Z" stroke="#191326"/>
    </g>
    <defs>
        <linearGradient id="paint0_linear" x1="25" y1="1" x2="1" y2="25" gradientUnits="userSpaceOnUse">
            <stop stop-color="#FFE8F1"/>
            <stop offset="1" stop-color="#FDFEFE"/>
        </linearGradient>
    </defs>
</svg>
