<svg viewBox="0 0 24 24" fill="none" xmlns="http://www.w3.org/2000/svg">
    <path d="M12 24C18.6273 24 24 18.6273 24 12C24 5.37269 18.6273 0 12 0C5.37269 0 0 5.37269 0 12C0 18.6273 5.37269 24 12 24Z" fill="#2775CA"/>
    <path d="M9.86192 20.4018C9.86192 20.6802 9.63681 20.8391 9.37198 20.7596C7.55555 20.1792 5.97081 19.036 4.84694 17.4955C3.72307 15.955 3.11831 14.0969 3.12012 12.19C3.12012 8.17672 5.75598 4.77286 9.37171 3.62031C9.64978 3.54086 9.86164 3.69975 9.86164 3.97782V4.67989C9.86164 4.86527 9.71598 5.09037 9.5306 5.15686C6.66964 6.18996 4.61667 8.94499 4.61667 12.1767C4.61667 15.4084 6.66964 18.1635 9.54385 19.2231C9.71598 19.2893 9.87488 19.5011 9.87488 19.7V20.4018H9.86164H9.86192ZM12.7783 17.6291C12.7783 17.841 12.6062 17.9999 12.4076 17.9999H11.6658C11.4539 17.9999 11.2947 17.8278 11.2947 17.6291V16.4371C9.65254 16.212 8.85778 15.2981 8.64592 14.0531C8.63764 14.0029 8.64032 13.9515 8.65376 13.9025C8.6672 13.8534 8.69108 13.8078 8.72378 13.7688C8.75647 13.7298 8.79721 13.6984 8.84319 13.6766C8.88917 13.6548 8.93931 13.6432 8.99019 13.6427H9.83792C10.0101 13.6427 10.1689 13.7751 10.2087 13.9472C10.3678 14.689 10.7916 15.2584 12.116 15.2584C13.0829 15.2584 13.7717 14.7152 13.7717 13.9075C13.7717 13.0998 13.3612 12.7949 11.9438 12.5566C9.83791 12.2918 8.84453 11.6559 8.84453 10.0002C8.84453 8.72872 9.79819 7.74858 11.2947 7.53644V6.37093C11.2947 6.15906 11.4672 6.00017 11.6658 6.00017H12.4076C12.6194 6.00017 12.7783 6.17231 12.7783 6.37093V7.56293C13.9836 7.77479 14.7518 8.46362 15.0034 9.60265C15.0564 9.81451 14.8843 10.0266 14.6592 10.0266H13.8644C13.6923 10.0266 13.5598 9.90748 13.5069 9.74858C13.2947 9.02003 12.7783 8.71548 11.8776 8.71548C10.8843 8.71548 10.3678 9.19217 10.3678 9.86775C10.3678 10.5831 10.6592 10.9406 12.1822 11.1524C14.2484 11.4305 15.3083 12.0266 15.3083 13.7751C15.3083 15.1127 14.3149 16.1858 12.7783 16.4374V17.6294V17.6291ZM14.6633 20.7775C14.3852 20.857 14.1734 20.6981 14.1734 20.42V19.718C14.1734 19.5061 14.3058 19.3207 14.5044 19.2413C17.3786 18.1817 19.4316 15.4267 19.4316 12.1949C19.4316 8.9632 17.3654 6.22141 14.4912 5.16182C14.319 5.09562 14.1601 4.88375 14.1601 4.68513V3.98306C14.1601 3.70499 14.3852 3.53286 14.6501 3.62555C16.4665 4.20599 18.0512 5.34914 19.1751 6.88967C20.299 8.43021 20.9037 10.2883 20.9019 12.1952C20.9152 16.2084 18.2925 19.6123 14.6633 20.7778V20.7775Z" fill="white"/>
</svg>
