<svg viewBox="0 0 24 24" fill="none" xmlns="http://www.w3.org/2000/svg">
    <path d="M12 24C18.6273 24 24 18.6273 24 12C24 5.37269 18.6273 0 12 0C5.37269 0 0 5.37269 0 12C0 18.6273 5.37269 24 12 24Z" fill="#24A980"/>
    <path d="M13.4896 13.1961L12.0234 13.2348C11.2515 13.2348 10.7307 13.2154 10.5376 13.1961C7.62448 13.0803 5.42503 12.5594 5.42503 11.9614C5.42503 11.344 7.60517 10.8425 10.5376 10.7073V12.6943C10.7307 12.7137 11.2708 12.733 12.0424 12.733C12.9492 12.733 13.4123 12.6943 13.4896 12.6943V10.7073C16.422 10.8425 18.6021 11.344 18.6021 11.9614C18.6021 12.5594 16.422 13.0803 13.4896 13.1961ZM13.4896 10.4952V8.72028H17.5795V6H6.46697V8.72028H10.5569V10.4952C7.23855 10.6494 4.75 11.3054 4.75 12.0966C4.75 12.8877 7.23855 13.5434 10.5569 13.6979V19.4086H13.5089V13.6977C16.827 13.5434 19.3158 12.8874 19.3158 12.0963C19.2965 11.3054 16.8079 10.6494 13.4896 10.4949V10.4952Z" fill="#FFFDFA"/>
</svg>
