<svg width="24" height="24" viewBox="0 0 24 24" fill="none" xmlns="http://www.w3.org/2000/svg">
<mask id="mask0_12552_75453" style="mask-type:alpha" maskUnits="userSpaceOnUse" x="0" y="0" width="24" height="24">
<path d="M12 24C18.6274 24 24 18.6274 24 12C24 5.37258 18.6274 0 12 0C5.37258 0 0 5.37258 0 12C0 18.6274 5.37258 24 12 24Z" fill="#C4C4C4"/>
</mask>
<g mask="url(#mask0_12552_75453)">
<path d="M12 24C18.6274 24 24 18.6274 24 12C24 5.37258 18.6274 0 12 0C5.37258 0 0 5.37258 0 12C0 18.6274 5.37258 24 12 24Z" fill="white"/>
<g style="mix-blend-mode:multiply" opacity="0.2">
<g style="mix-blend-mode:multiply" opacity="0.2">
<path fill-rule="evenodd" clip-rule="evenodd" d="M12 23.2174C18.1952 23.2174 23.2174 18.1952 23.2174 12C23.2174 5.80483 18.1952 0.782621 12 0.782621C5.80483 0.782621 0.782622 5.80483 0.782622 12C0.782622 18.1952 5.80483 23.2174 12 23.2174ZM12 24C18.6274 24 24 18.6274 24 12C24 5.3726 18.6274 0 12 0C5.3726 0 0 5.3726 0 12C0 18.6274 5.3726 24 12 24Z" fill="#191326"/>
</g>
</g>
</g>
<path d="M17.3093 9.81601C16.7163 10.577 16.4813 11.469 16.4323 12.406C16.3993 13.055 16.2163 13.557 15.6633 13.968C14.8343 14.582 14.0293 15.217 13.0753 15.634C12.7263 15.786 12.6043 15.734 12.6023 15.334C12.6023 14.51 12.9023 13.781 13.2313 13.054C13.5843 12.28 14.2053 11.727 14.7923 11.141C15.5063 10.428 16.2703 9.75701 16.8423 8.91301C17.1527 8.45955 17.3849 7.95726 17.5293 7.42701C17.6293 7.18701 17.5843 6.91901 17.6653 6.69001C17.6023 6.78501 17.6253 6.91601 17.5853 7.03201C17.0653 8.13201 16.3523 9.07001 15.2983 9.71601L15.1043 9.87701C14.9893 10.0156 14.838 10.1195 14.6673 10.177C14.3193 10.119 14.4173 9.80801 14.3363 9.59701C14.3613 9.07521 14.4554 8.55903 14.6163 8.06201C14.6978 7.62212 14.7519 7.1776 14.7783 6.73101C14.7983 6.38301 14.8163 6.03101 15.0243 5.73101C15.2963 5.42101 15.6373 5.31901 16.0473 5.33101C16.7473 5.35301 17.4473 5.33101 18.1403 5.34001C18.7403 5.34701 19.0153 5.62801 19.0173 6.23101C19.0233 7.65901 19.0173 9.08801 19.0283 10.517C19.0384 10.8011 18.9397 11.0783 18.7523 11.292C18.3877 11.7238 17.9862 12.123 17.5523 12.485C17.4423 12.572 17.3353 12.753 17.1823 12.685C17.0293 12.617 17.1143 12.421 17.1083 12.285C17.0763 11.548 17.2383 10.838 17.4243 10.132C17.5033 9.82601 17.4943 9.80001 17.3093 9.81601Z" fill="#30C099"/>
<path d="M5.82927 7.9069C5.11427 7.5879 4.92927 7.0189 5.02227 6.2839C5.09527 5.7279 5.42827 5.3449 5.98127 5.3329C6.78127 5.3139 7.57527 5.3229 8.37227 5.3329C8.78827 5.3379 9.09527 5.5469 9.30427 5.9019C10.0133 7.1019 10.6863 8.3309 11.0983 9.6629C11.3723 10.5509 11.2703 11.4979 11.1363 12.4209C11.0093 12.7369 11.0933 13.0889 10.9693 13.4069C10.9603 13.4459 10.9415 13.4819 10.9147 13.5117C10.888 13.5414 10.8541 13.5639 10.8163 13.5769C10.6103 13.6019 10.5163 13.4569 10.4393 13.3089C9.53927 11.6179 8.38927 10.1259 6.90327 8.9089C6.84197 8.85255 6.78758 8.7891 6.74127 8.7199C6.47227 8.4079 6.11927 8.1979 5.82927 7.9069Z" fill="#2FC099"/>
<path d="M7.10136 12.9159L7.17935 13.3229C6.45735 13.1009 5.76936 12.8609 5.18936 12.3929C5.01936 12.2579 5.01936 12.0159 5.01936 11.7899C5.01936 10.9599 5.03136 10.1289 5.01936 9.2989C5.01036 8.8259 5.19336 8.4989 5.62636 8.3149C6.05936 8.1309 6.38736 8.3389 6.67836 8.6389C8.05336 10.0969 9.15135 11.7479 10.0684 13.5249C10.0984 13.5839 10.1254 13.6439 10.1564 13.7029C10.2764 13.9299 10.3884 14.2029 10.2174 14.4029C10.0174 14.6299 9.75235 14.4489 9.53635 14.3389C9.30335 14.2199 9.02336 14.1969 8.82836 13.9979C8.22836 13.7339 7.60336 13.4909 7.30736 12.8259C6.91436 12.5089 6.87336 12.0259 6.73236 11.5929C6.67236 11.4069 6.68336 11.1929 6.60836 11.0929C6.66136 11.6819 7.01936 12.2609 7.10136 12.9159Z" fill="#F09D40"/>
<path d="M12.9973 11.6079L12.0553 12.8279C12.0553 11.6699 12.0463 10.6169 12.0553 9.56387C12.0663 8.56387 12.1013 7.57387 12.1203 6.57887C12.1393 5.63187 12.2903 5.44787 13.2203 5.34787C13.6693 5.30087 14.1203 5.33387 14.4983 5.62687C14.9083 6.06687 14.7403 6.59887 14.7253 7.10287C14.7193 7.28287 14.6483 7.45987 14.6253 7.64087C14.4673 8.33287 14.3253 9.02987 14.0733 9.69487C13.8146 10.3838 13.4517 11.029 12.9973 11.6079Z" fill="#2FC099"/>
<path d="M14.0034 16.7859C15.2934 15.8058 16.5001 14.7208 17.6114 13.5419C17.8764 13.2649 18.1544 13.1209 18.5404 13.2779C18.9264 13.4349 19.0404 13.7209 19.0314 14.1089C19.0184 14.7089 19.0314 15.3089 19.0314 15.9029C19.0314 16.4969 18.7904 16.7709 18.1994 16.7789C16.8384 16.7989 15.4814 16.7859 14.0034 16.7859Z" fill="#F09E40"/>
<path d="M10.9195 16.7879H7.87352C7.22452 16.7879 6.57352 16.8019 5.92552 16.7749C5.27752 16.7479 5.04552 16.4909 5.03352 15.8319C5.02752 15.5159 5.01852 15.1979 5.03952 14.8829C5.09052 14.1359 5.63952 13.7969 6.28452 14.1659C7.61152 14.9319 8.99252 15.5829 10.3845 16.2129C10.6045 16.3159 10.7755 16.4599 10.9195 16.7879Z" fill="#30C09A"/>
<path d="M11.0855 7.73191C10.7855 7.23191 10.4785 6.74891 10.1975 6.24391C10.1105 6.10077 10.068 5.93503 10.0753 5.76768C10.0826 5.60034 10.1394 5.43894 10.2385 5.30391C10.4305 5.03291 10.7295 4.96291 11.0385 5.01691C11.4385 5.08791 11.7225 5.33891 11.6875 5.76191C11.6355 6.38491 11.5145 7.00191 11.4235 7.62191C11.3575 7.80291 11.2695 7.91591 11.0855 7.73191Z" fill="#EF9E42"/>
<path d="M6.51948 17.416C6.80648 17.334 6.95848 17.403 6.93348 17.742C6.91148 18.042 6.93348 18.337 6.93348 18.634C6.92748 19.023 6.81948 19.247 6.33348 19.264C6.11948 19.272 5.88648 19.23 5.65948 19.257C5.43248 19.284 5.21948 19.016 5.21948 18.704C5.21948 18.274 5.22182 17.844 5.22648 17.414C5.56748 17.266 5.72048 17.414 5.75048 17.75C5.76404 17.9518 5.76404 18.1542 5.75048 18.356C5.78396 18.1777 5.79036 17.9953 5.76948 17.815C5.76248 17.327 5.77848 17.315 6.30948 17.429V17.422C6.54748 17.73 6.34648 18.088 6.42648 18.352C6.47748 18.083 6.32548 17.731 6.51948 17.416Z" fill="#3BBB99"/>
<path d="M14.0835 18.4548C14.0835 18.6708 14.0835 18.8878 14.0835 19.1038C14.0835 19.2388 14.0755 19.3788 13.8835 19.3918C13.6915 19.4048 13.6615 19.2918 13.6455 19.1458C13.6325 19.0258 13.6985 18.8388 13.5035 18.8268C13.2535 18.8118 13.3435 19.0268 13.3335 19.1568C13.3205 19.3148 13.2745 19.4078 13.0955 19.3948C12.9345 19.3838 12.9275 19.2758 12.9115 19.1528C12.8618 18.7293 12.8661 18.3012 12.9245 17.8788C12.9895 17.3638 13.4085 17.4298 13.7735 17.4178C14.1625 17.4058 14.0735 17.6908 14.0815 17.9058C14.0915 18.0888 14.0815 18.2718 14.0815 18.4548H14.0835Z" fill="#42BE9D"/>
<path d="M9.50647 18.383V19.128C9.50647 19.279 9.45947 19.39 9.28447 19.392C9.10947 19.394 9.11047 19.279 9.09847 19.157C9.08647 19.035 9.15647 18.822 8.92247 18.819C8.68847 18.816 8.75547 19.019 8.74647 19.152C8.73647 19.308 8.69147 19.407 8.51247 19.392C8.35547 19.379 8.34447 19.269 8.33247 19.147C8.29347 18.758 8.29347 18.366 8.33247 17.977C8.37547 17.539 8.58047 17.426 9.14647 17.412C9.64647 17.399 9.48747 17.737 9.50947 17.986C9.52047 18.117 9.50947 18.251 9.50947 18.386L9.50647 18.383Z" fill="#40BD9C"/>
<path d="M19.0245 18.4489C19.0245 18.6799 19.0245 18.9119 19.0245 19.1439C19.0245 19.2609 19.0245 19.3809 18.8565 19.3919C18.6885 19.4029 18.6285 19.3209 18.6135 19.1589C18.6025 19.0329 18.7005 18.8139 18.4525 18.8239C18.2525 18.8329 18.3315 19.0239 18.3215 19.1389C18.3085 19.2879 18.2825 19.3979 18.0975 19.3899C17.9125 19.3819 17.9375 19.2349 17.9065 19.1099C17.8065 18.7039 17.8965 18.3019 17.9155 17.8999C17.9395 17.3999 18.3295 17.4459 18.6805 17.4169C19.0985 17.3829 19.0215 17.6639 19.0255 17.9019C19.0275 18.0839 19.0245 18.2659 19.0245 18.4489Z" fill="#3BBB99"/>
<path d="M15.8364 18.44C16.1234 18.218 15.9744 17.947 16.0114 17.718C16.0324 17.589 16.0024 17.444 16.1984 17.43C16.4264 17.413 16.4064 17.57 16.4304 17.723C16.5074 18.218 16.1914 18.73 16.4954 19.215C16.5044 19.2292 16.5101 19.2454 16.5118 19.2621C16.5136 19.2789 16.5114 19.2959 16.5055 19.3117C16.4996 19.3275 16.4901 19.3417 16.4777 19.3532C16.4654 19.3647 16.4506 19.3732 16.4344 19.378C16.3809 19.4005 16.3219 19.407 16.2648 19.3967C16.2076 19.3864 16.1547 19.3598 16.1124 19.32C16.0124 19.214 16.0524 19.02 15.8764 18.96C15.7534 18.996 15.7504 19.102 15.7434 19.198C15.7324 19.344 15.6614 19.405 15.5164 19.385C15.4915 19.384 15.4671 19.378 15.4446 19.3673C15.4221 19.3565 15.402 19.3414 15.3856 19.3227C15.3691 19.304 15.3566 19.2821 15.3488 19.2585C15.3411 19.2348 15.3382 19.2098 15.3404 19.185C15.3364 18.6696 15.3364 18.155 15.3404 17.641C15.3404 17.501 15.4054 17.426 15.5534 17.43C15.7014 17.434 15.7364 17.53 15.7534 17.661C15.7724 17.9 15.6894 18.152 15.8364 18.44Z" fill="#3EBC9B"/>
<path d="M11.0345 19.208C10.7805 19.391 10.6135 19.387 10.6135 19.015C10.6135 18.585 10.6135 18.1553 10.6135 17.726C10.6107 17.6592 10.614 17.5922 10.6235 17.526C10.6565 17.358 10.8135 17.444 10.8985 17.395C11.0715 17.295 11.1085 17.87 11.3705 17.454C11.4865 17.269 11.7185 17.412 11.7145 17.693C11.7065 18.122 11.6945 18.553 11.7145 18.981C11.7315 19.299 11.5745 19.345 11.3225 19.306C11.2423 19.0483 11.1854 18.7839 11.1525 18.516C11.16 18.7522 11.1199 18.9876 11.0345 19.208Z" fill="#3ABB99"/>
<path d="M10.8194 13.9158L10.6934 13.5318C11.0314 13.4318 10.9334 13.1068 11.0094 12.8758C11.0584 12.7288 10.9534 12.5388 11.1324 12.4248C11.1314 12.9388 11.1194 13.4558 10.8194 13.9158Z" fill="#4EB89C"/>
<path d="M11.0854 7.73185C11.2334 7.80585 11.3285 7.71585 11.4215 7.62085V8.27185C11.2055 8.11585 11.1654 7.91585 11.0854 7.73185Z" fill="#DCA15F"/>
<path d="M14.6835 10.1159C14.6531 10.1774 14.6094 10.2314 14.5556 10.2739C14.5019 10.3164 14.4393 10.3465 14.3725 10.3619C14.2165 10.0939 14.4465 9.87093 14.4555 9.62793C14.6195 9.74593 14.3835 10.0529 14.6835 10.1159Z" fill="#52B99E"/>
</svg>
