<svg viewBox="0 0 24 24" fill="none" xmlns="http://www.w3.org/2000/svg">
    <path d="M12 24C18.6273 24 24 18.6273 24 12C24 5.37269 18.6273 0 12 0C5.37269 0 0 5.37269 0 12C0 18.6273 5.37269 24 12 24Z" fill="#FFFDFA"/>
    <path d="M17.1174 6H19.2134L14.8529 10.3153C13.2744 11.8775 10.7155 11.8775 9.13703 10.3153L4.77676 6H6.87248L10.185 9.27834C10.6676 9.7536 11.3177 10.02 11.995 10.02C12.6722 10.02 13.3224 9.7536 13.8049 9.27834L17.1174 6ZM6.84572 18H4.75L9.13731 13.6579C10.7158 12.0957 13.2747 12.0957 14.8532 13.6579L19.2405 18H17.1448L13.8052 14.6952C13.3226 14.2198 12.6725 13.9534 11.9951 13.9534C11.3178 13.9534 10.6676 14.2198 10.185 14.6952L6.84572 18Z" fill="#23292F"/>
    <path opacity="0.05" fill-rule="evenodd" clip-rule="evenodd" d="M12 23.2174C18.1953 23.2174 23.2174 18.1952 23.2174 12C23.2174 5.8048 18.1953 0.782621 12 0.782621C5.8048 0.782621 0.78262 5.8048 0.78262 12C0.78262 18.1952 5.8048 23.2174 12 23.2174ZM12 24C18.6273 24 24 18.6274 24 12C24 5.37258 18.6273 0 12 0C5.37258 0 0 5.37258 0 12C0 18.6274 5.37258 24 12 24Z" fill="#191326"/>
</svg>
